<?xml version="1.0" encoding="utf-8"?>
<!-- Generator: Adobe Illustrator 18.0.0, SVG Export Plug-In . SVG Version: 6.00 Build 0)  -->
<!DOCTYPE svg PUBLIC "-//W3C//DTD SVG 1.1//EN" "http://www.w3.org/Graphics/SVG/1.1/DTD/svg11.dtd">
<svg version="1.1" id="Layer_1" xmlns="http://www.w3.org/2000/svg" xmlns:xlink="http://www.w3.org/1999/xlink" x="0px" y="0px"
	 viewBox="0 0 2000 2000" enable-background="new 0 0 2000 2000" xml:space="preserve">
<g>
	<rect x="-1" fill="#43296E" width="2000" height="2000"/>
	<g>
		<path fill="none" stroke="#FFFFFF" stroke-width="6" stroke-miterlimit="10" d="M1289.3,956.4h-255.8c-19,0-34.4,15.4-34.4,34.4
			v213.9"/>
		<path fill="none" stroke="#FFFFFF" stroke-width="6" stroke-miterlimit="10" d="M1289.3,762.8h-255.8c-19,0-34.4,15.4-34.4,34.4
			v407.5"/>
		<path fill="none" stroke="#FFFFFF" stroke-width="6" stroke-miterlimit="10" d="M1199.1,518.9L1020,650.7
			c-13.1,9.6-20.8,24.9-20.8,41.2v512.8"/>
	</g>
	<g>
		<path fill="none" stroke="#FFFFFF" stroke-width="6" stroke-miterlimit="10" d="M708.9,956.4h255.8c19,0,34.4,15.4,34.4,34.4
			v213.9"/>
		<path fill="none" stroke="#FFFFFF" stroke-width="6" stroke-miterlimit="10" d="M708.9,762.8h255.8c19,0,34.4,15.4,34.4,34.4
			v407.5"/>
		<path fill="none" stroke="#FFFFFF" stroke-width="6" stroke-miterlimit="10" d="M799.1,518.9l179.2,131.8
			c13.1,9.6,20.8,24.9,20.8,41.2v512.8"/>
	</g>
	<g>
		<path fill="#EDE7F3" d="M786.3,1029.2c-34.2-41.4-56.5-93-61.9-149.5l-456,0c6.5,182.1,79.5,347.3,195.5,472L786.3,1029.2z"/>
		<path fill="#EDE7F3" d="M823.9,639.4c41.4-34.2,93-56.5,149.5-61.9v-456c-182.1,6.5-347.3,79.5-472,195.5L823.9,639.4z"/>
		<path fill="#EDE7F3" d="M1026.6,121.4v456c56.5,5.4,108.1,27.7,149.5,61.9l322.4-322.4C1373.9,200.9,1208.7,127.9,1026.6,121.4z"
			/>
		<path fill="#EDE7F3" d="M724.3,826.5c5.4-56.5,27.7-108.1,61.9-149.5L463.8,354.5c-116,124.7-189,289.8-195.5,472L724.3,826.5z"/>
		<path fill="#EDE7F3" d="M1213.7,677c34.2,41.4,56.5,93,61.9,149.5l456,0c-6.5-182.1-79.5-347.3-195.5-472L1213.7,677z"/>
		<path fill="#EDE7F3" d="M1275.7,879.7c-5.4,56.5-27.7,108.1-61.9,149.5l322.4,322.4c116-124.7,189-289.8,195.5-472L1275.7,879.7z"
			/>
	</g>
	<path fill="#3664DD" d="M464.7,1319.5c-49.8-57.1-89.8-121.2-119.2-190.9c-30.4-72.2-48.5-148.4-53.8-226.8h413.2
		c7.4,45.3,25.1,88.1,52,125.5L464.7,1319.5z"/>
	<path fill="#3664DD" d="M533.6,317.7c57.1-49.8,121.2-89.8,190.9-119.2c72.2-30.4,148.4-48.5,226.8-53.8V558
		c-45.3,7.4-88.1,25.1-125.5,52L533.6,317.7z"/>
	<path fill="#FBB434" d="M1174.2,609.9c-37.4-26.8-80.1-44.5-125.5-52V144.8c78.4,5.3,154.6,23.4,226.8,53.8
		c69.7,29.4,133.8,69.4,190.9,119.2L1174.2,609.9z"/>
	<path fill="#FBB434" d="M291.7,804.3c5.3-78.4,23.4-154.6,53.8-226.8c29.4-69.7,69.4-133.8,119.2-190.9l292.2,292.2
		c-26.8,37.4-44.5,80.1-52,125.5H291.7z"/>
	<path fill="#3664DD" d="M1295.1,804.3c-7.4-45.3-25.1-88.1-52-125.5l292.2-292.2c49.8,57.1,89.8,121.2,119.2,190.9
		c30.4,72.2,48.5,148.4,53.8,226.8L1295.1,804.3z"/>
	<path fill="#FBB434" d="M1243.1,1027.3c26.8-37.4,44.5-80.1,52-125.5l413.2,0c-5.3,78.4-23.4,154.6-53.8,226.8
		c-29.4,69.7-69.4,133.8-119.2,190.9L1243.1,1027.3z"/>
	<g>
		<path fill="#352057" d="M1694.4,1873H305.6c-37.4,0-67.6-30.3-67.6-67.6v0c0-37.4,30.3-67.6,67.6-67.6h1388.7
			c37.4,0,67.6,30.3,67.6,67.6v0C1762,1842.7,1731.7,1873,1694.4,1873z"/>
		<g>
			<path fill="#EDE7F3" d="M1405.6,1764.9h-821c-23.8,0-43.1-19.3-43.1-43.1v-542.7c0-23.8,19.3-43.1,43.1-43.1h821
				c23.8,0,43.1,19.3,43.1,43.1v542.7C1448.7,1745.6,1429.4,1764.9,1405.6,1764.9z"/>
			<path fill="#CDD0E1" d="M1405.6,1136.1h-405v628.8h405c23.8,0,43.1-19.3,43.1-43.1v-542.7
				C1448.7,1155.4,1429.4,1136.1,1405.6,1136.1z"/>
			<rect x="591.7" y="1186.2" fill="#527BFF" width="807" height="528.6"/>
			<rect x="1003.7" y="1186.2" fill="#3F599B" width="394.9" height="528.6"/>
			<g>
				<g>
					<rect x="938" y="1500.3" fill="#CC511C" width="137.6" height="106.1"/>
					<path fill="#CB3352" d="M1168,1712.4H832.1l13.2-60.1c3.3-15,10.3-28.5,19.9-39.6c1.4-1.6,2.8-3.1,4.3-4.6
						c15.2-15.2,35.7-24.8,58.3-26.1l42.3-2.4v-51.1h59.8v51.1l42.3,2.4c22.6,1.3,43.1,10.9,58.3,26.1c1.5,1.5,2.9,3,4.3,4.6
						c9.6,11.1,16.6,24.6,19.9,39.6L1168,1712.4z"/>
					<path fill="#FD3A5F" d="M1143.1,1712.4H832.1l13.2-60.1c3.3-15,10.3-28.5,19.9-39.6c1.4-1.6,2.8-3.1,4.3-4.6
						c15.2-15.2,35.7-24.8,58.3-26.1l42.3-2.4v-51.1h34.8v51.1l42.3,2.4c22.6,1.3,43.1,10.9,58.3,26.1c1.5,1.5,2.9,3,4.3,4.6
						c9.6,11.1,16.6,24.6,19.9,39.6L1143.1,1712.4z"/>
					<path fill="#FFFFFF" d="M1134.9,1612.6l-119.1,56.8c-4.9,2.3-10.3,3.6-15.7,3.6c-5.4,0-10.8-1.2-15.7-3.6l-119.1-56.8
						c1.4-1.6,2.8-3.1,4.3-4.6c15.2-15.2,35.7-24.8,58.3-26.1l42.3-2.4v-51.1h59.8v51.1l42.3,2.4c22.6,1.3,43.1,10.9,58.3,26.1
						C1132.1,1609.5,1133.5,1611.1,1134.9,1612.6z"/>
					<path fill="#F9A191" d="M1130.6,1608.1l-117.4,56c-8.3,4-18,4-26.3,0l-117.4-56c15.2-15.2,35.7-24.8,58.3-26.1l42.3-2.4v-51.1
						h59.8v51.1l42.3,2.4C1094.9,1583.2,1115.4,1592.9,1130.6,1608.1z"/>
					<path fill="#DD6C62" d="M1029.9,1528.4v25c-3.6,1.8-7.1,3.4-10.5,4.7c-15.7,6.6-33.3,7.1-49.3,1.5v-31.2H1029.9z"/>
					<path fill="#F69432" d="M893.6,1390.8l60.8,149.9c0,0,30.7,42,30.1,72.5c-0.6,30.5-7.8,70.5-41.8,99.2H865c0,0-7.8-10.2,0-22.7
						s22.1-22.7,19.1-45.4c-3-22.7-1.8-27.5,7.8-37.1c9.6-9.6,14.3-34.7-1.8-46.6c-16.1-12-31.1-26.9-31.1-26.9l-25.7-38.2v-49.6
						l32.9-34.7L893.6,1390.8z"/>
					<path fill="#F9A191" d="M1112.6,1328.1v113.7c0,21-6.6,41.6-19.2,58.7c-18.7,25.4-46.4,40.8-66.7,49.3c-17,7.2-36.2,7.2-53.2,0
						c-4.7-2-9.8-4.3-15-7c-17.6-9.1-37.3-22.7-51.7-42.3c-12.6-17.1-19.2-37.7-19.2-58.7v-113.7c0-39.9,33.2-72.2,74.2-72.2h76.5
						c7.1,0,13.9,1,20.4,2.8C1089.8,1267.3,1112.6,1295.1,1112.6,1328.1z"/>
					<g>
						<g>
							<g>
								<path fill="#E72245" d="M982.9,1493.8c0,0,11.5,10.6,19.1,10.9c7.6,0.3,17.9-5.7,24.4-14.7L982.9,1493.8z"/>
								<path fill="#E72245" d="M982.9,1493.8c0,0,26.7,1.8,43.5-3.8c0,0-2.1-0.6-7-2.9c-5-2.3-11.9-9.7-31,3.7L982.9,1493.8z"/>
							</g>
						</g>
						<path fill="#BB1937" d="M1019.1,1489.4c-5.4,1.3-10.9,2.3-16.4,3c-2.8,0.3-5.6,0.6-8.5,0.8c-2.5,0.2-5.2,0-7.7,0.5
							c-0.3,0.1-0.3,0.5,0,0.6c2.5,0.5,5.2,0.3,7.7,0.3c2.8,0,5.6-0.2,8.5-0.5c5.7-0.5,11.4-1.5,16.9-2.8
							C1020.7,1491,1020.2,1489.2,1019.1,1489.4z"/>
					</g>
					<g>
						<path fill="#EF7C6D" d="M1008.1,1444c0,4.5-3.6,8.1-8.1,8.1s-8.1-3.6-8.1-8.1c0-4.5,3.6-63.1,8.1-63.1
							S1008.1,1439.5,1008.1,1444z"/>
						<g>
							<g>
								<ellipse fill="#362544" cx="950.4" cy="1387.2" rx="6" ry="13.4"/>
								<path fill="#362544" d="M962.1,1367.2c-7.7-1.8-15.7-1.8-23.4,0c-2.9,0.7-5.9-0.9-6.8-3.8c0,0,0-0.1,0-0.1
									c-1.1-3.3,0.8-6.8,4.2-7.6c9.4-2.2,19.3-2.2,28.7,0c3.4,0.8,5.3,4.3,4.2,7.6c0,0,0,0.1,0,0.1
									C968,1366.2,965,1367.8,962.1,1367.2z"/>
							</g>
							<g>
								<ellipse fill="#362544" cx="1049.7" cy="1387.2" rx="6" ry="13.4"/>
								<path fill="#362544" d="M1061.4,1367.2c-7.7-1.8-15.7-1.8-23.4,0c-2.9,0.7-5.9-0.9-6.8-3.8c0,0,0-0.1,0-0.1
									c-1.1-3.3,0.8-6.8,4.2-7.6c9.4-2.2,19.3-2.2,28.7,0c3.4,0.8,5.3,4.3,4.2,7.6c0,0,0,0.1,0,0.1
									C1067.2,1366.2,1064.3,1367.8,1061.4,1367.2z"/>
							</g>
						</g>
						<g>
							<circle fill="#F6938B" cx="1062.5" cy="1457.8" r="32.4"/>
							<circle fill="#F6938B" cx="937.6" cy="1457.8" r="32.4"/>
						</g>
						<path fill="#362544" d="M1059.9,1378.9h-10.3v-5.1h10.3c1.4,0,2.6,1.1,2.6,2.6l0,0C1062.5,1377.8,1061.4,1378.9,1059.9,1378.9
							z"/>
						<path fill="#362544" d="M940.6,1373.8h10.3v5.1h-10.3c-1.4,0-2.6-1.1-2.6-2.6l0,0C938.1,1374.9,939.2,1373.8,940.6,1373.8z"/>
					</g>
					<path fill="#FBB434" d="M1022.7,1264.7c0,0-41.8-0.6-55.6,29.3c-5.4,14.9-6,29.3-17.3,36.5c-11.4,7.2-17.9,16.7-19.1,37.1
						c-1.2,20.3-8.4,35.3-29.3,43.6s-77.1,53.8-42.4,122.5c0,0-51.4-23.9-47.2-95.6c4.8-38.8,38.8-61.6,38.8-61.6
						s-9-64.9,62.8-120.6c55.6-40.8,126.7-26.4,131.5-9.7c0,0,75.3,17.9,93.8,87.9c14.3,58.6,3.6,111.2,3.6,111.2s1.2,13.1,3.9,28.7
						c2.7,15.5,4.5,38.8-5.7,59.8c-10.2,20.9-57.4,76.5,7.8,178.7h-52.6c0,0-80.3-84.9-31.7-196.6c28.7-59.2,47.2-89,34.7-130.9
						S1061.6,1292.2,1022.7,1264.7z"/>
					<path fill="#F69432" d="M1117.9,1397.5c-0.4-3.3-0.9-6.7-1.4-10c-1.1-6.9-2.6-13.8-4.4-20.6c-3.6-13.8-8.6-27.1-14.8-39.9
						c-6.1-12.7-13.5-24.7-22-36c-8.1-10.8-17.5-22-28.4-30.2c-0.1-0.1-0.2,0.1-0.1,0.1c4.4,5,9.2,9.8,13.7,14.8
						c4.6,5.2,8.8,10.8,12.9,16.4c8,11.1,15,23.1,20.9,35.5c6,12.6,10.7,25.8,14.3,39.2c1.7,6.5,3.1,13.1,4.2,19.7
						c0.6,3.6,1.1,7.3,1.5,10.9c0.4,3.3,0.3,6.8,1.5,9.9c0.4,1.1,2.2,1.3,2.5,0C1118.8,1404.1,1118.3,1400.8,1117.9,1397.5z"/>
					<path fill="#F69432" d="M1138.5,1388.3c-1.2-6.5-2.7-13-4.5-19.3c-3.4-12.6-8-24.9-13.4-36.8c-10.7-23.6-25.4-45.3-43.6-63.8
						c-0.3-0.3-0.7,0.1-0.4,0.4c16.5,19.3,30.3,41,40.8,64.1c5.3,11.6,9.6,23.7,13,36c1.7,6.1,3.1,12.2,4.3,18.4
						c1.3,6.4,1.8,13.2,3.5,19.5c0.4,1.4,2.4,1,2.4-0.3C1140.9,1400.4,1139.6,1394.2,1138.5,1388.3z"/>
					<path fill="#F69432" d="M1126.4,1402.5c-0.7-17.7-3.8-35.1-9.9-51.7c-0.1-0.4-0.7-0.2-0.6,0.2c3.9,16.9,6.7,34.2,7.4,51.5
						c0.7,17.2-1.6,34-3.3,51c-0.1,0.6,0.9,0.7,1.1,0.1C1126.4,1437.4,1127.1,1419.6,1126.4,1402.5z"/>
					<path fill="#F69432" d="M1129.1,1331c-1.9-5.5-4.3-10.9-6.9-16.1c-5.3-10.7-12.1-20.3-20-29.3c-0.4-0.4-0.9,0.2-0.6,0.6
						c7.3,9.1,13.4,19.4,18.6,29.9c2.6,5.4,4.8,10.9,6.8,16.5c1.8,5.1,2.9,10.6,5.1,15.5c0.3,0.6,1.2,0.3,1.2-0.3
						C1133.1,1342.1,1130.9,1336.4,1129.1,1331z"/>
					<path fill="#F69432" d="M1112.1,1446.4c-5.3,13.7-10.7,27.3-15.8,41.1c-5.2,14.1-10.3,28.3-15.5,42.4
						c-4.9,13.4-9.9,26.9-12.8,40.9c-2.6,13-3.5,27.1,1.6,39.6c0.4,1,1.9,0.7,1.7-0.5c-2.6-13.5-2.4-26.9,0.5-40.4
						c2.9-13.7,7.9-26.8,12.5-39.9c4.9-13.8,9.8-27.6,14.7-41.4c4.9-13.8,9.4-27.7,14-41.6
						C1113.3,1446.1,1112.4,1445.8,1112.1,1446.4z"/>
					<path fill="#F69432" d="M1137.7,1477.6c-3.3-15.7-8.5-32.2,0-47.2c0.7-1.2-1.1-2.2-1.8-1.1c-9.5,13.7-5,32-1.8,46.9
						c2.1,9.4,3.6,18.9,1.7,28.5c-1.6,8.2-5.6,15.8-9.7,23c-4.2,7.2-8.8,14.1-12.7,21.5c-3.8,7.1-6.8,14.6-9.3,22.3
						c-5,15.5-7.1,32-6.5,48.2c0.3,8.4,1.4,16.8,3.2,25c1.8,8.3,4.1,17.2,8.5,24.6c0.7,1.2,2.6,0.4,2.3-1
						c-2.2-7.9-5.3-15.5-7.1-23.6c-1.9-8.2-2.9-16.6-3.2-25c-0.7-16.7,1.7-33.4,6.9-49.2c2.6-8,6.1-15.7,10.2-23.1
						c4.1-7.3,8.7-14.2,12.8-21.5c3.9-7,7.1-14.4,8.4-22.3C1140.9,1495,1139.5,1486.2,1137.7,1477.6z"/>
					<path fill="#F69432" d="M1109,1510c-4.6,5.8-7.6,13.1-10.4,19.9c-3.1,7.4-5.7,15-8,22.6c-4.5,15.2-7.1,30.9-8.2,46.7
						c-1.1,15.8-0.4,31.7,1.8,47.4c1.1,7.9,2.8,15.8,4.8,23.5c1,3.9,2.2,7.7,3.4,11.5c1.2,3.9,2.3,8.1,4.6,11.5
						c0.8,1.2,2.5,0.4,2.3-1c-0.6-3.6-2.2-7-3.3-10.5c-1.3-3.8-2.4-7.6-3.4-11.5c-2-7.4-3.6-14.9-4.8-22.5
						c-2.5-15.7-3.1-31.7-2.2-47.5c0.9-15.5,3.6-30.9,7.7-45.9c2-7.4,4.5-14.7,7.3-21.8c2.9-7.4,7-14.4,9.4-22
						C1110.1,1510,1109.4,1509.6,1109,1510z"/>
					<path fill="#F69432" d="M1004.1,1254.6c-14.3-6.1-28.9,7.4-36,18.5c-9.1,14.2-13,31.5-26,43.1c-5.6,5-12.4,8.5-17.7,13.9
						c-5.3,5.4-7.1,12.4-7.9,19.8c-0.8,8.1-0.4,16.4-4.1,23.9c-3.1,6.3-8.6,11.1-14.2,15.2c-5.7,4.2-11.9,7.7-17.8,11.7
						c-6.5,4.4-12.3,9.6-17.4,15.5c-5,5.8-9.1,12.4-12.3,19.3c-3.2,6.9-6,14.7-6.1,22.4c0,1.5,2.1,1.7,2.6,0.3
						c2.5-7.6,4.2-15.2,7.7-22.5c3.4-7.2,8-13.8,13.3-19.7c10-11,23.3-17.2,34.9-26.2c5.2-4.1,9.8-9,12.7-15
						c3.3-6.9,3.4-14.6,3.9-22.1c0.5-8.6,2.5-16,8.9-22.1c5.5-5.2,12.4-8.8,17.8-14.1c10.3-10.3,14.7-25,21.6-37.5
						c3.7-6.8,8.3-13.1,14.6-17.6c6.3-4.5,13.5-5.9,21.1-5.6C1004.4,1255.8,1004.7,1254.9,1004.1,1254.6z"/>
					<path fill="#F69432" d="M1014.9,1241.9c-11.5-6.1-26.1-4.7-37.7,0.1c-12.9,5.3-22.1,15-27.5,27.7c-3.1,7.2-5.4,14.7-9.8,21.2
						c-4.3,6.5-11.2,10.2-18.3,13c-6.6,2.6-13.5,4.5-19.9,7.7c-6.5,3.2-11.8,7.9-15.8,13.9c-6.8,10.3-8.8,22.9-10.7,34.8
						c-1.1,6.5-2.2,13.1-4.2,19.4c-2.1,6.6-5.5,12.4-9.6,17.9c-7.7,10.2-17.6,18.5-24.6,29.2c-6.5,9.9-11.3,23.3-6.2,34.9
						c0.7,1.7,3.2,0.4,2.8-1.2c-4.1-17.8,6.2-32.5,17.6-45.1c5.4-5.9,10.9-11.7,15.6-18.2c4.9-6.8,7.9-14.4,9.9-22.5
						c3.9-15.9,3.9-33,12.9-47.2c8.4-13.3,24.3-15.8,37.6-21.8c9.3-4.2,15.7-11,20-20.2c4.5-9.7,7-20.1,14.2-28.3
						c6.4-7.4,15.2-12.3,24.5-14.8c9.6-2.6,19.2-1.6,28.7,1C1015.1,1243.4,1015.6,1242.3,1014.9,1241.9z"/>
					<path fill="#F69432" d="M960.2,1240.7c-12.7-2.2-22.4,11-27.6,20.6c-3.4,6.3-6.4,12.8-10.6,18.6c-4.6,6.2-11,9.7-18.2,12.3
						c-6.1,2.2-12.4,3.8-18.2,7.1c-5.9,3.3-10,8.6-12.9,14.7c-3,6.4-4.5,13.5-6,20.4l-2.8,12.5c-0.9,3.9-2.3,8.1-1.8,12.1
						c0.1,0.9,1.3,0.8,1.7,0.2c2-3,2.4-6.8,3.2-10.2c0.9-4.2,1.9-8.3,2.8-12.5c1.5-6.7,2.9-13.5,5.6-19.8
						c2.6-6.3,6.8-11.3,12.7-14.7c5.9-3.4,12.7-4.9,19.1-7.3c5.7-2.2,10.8-5.3,14.9-9.9c4.5-4.9,7.4-11,10.4-16.8
						c3-5.9,6-11.7,10.5-16.6c4.7-5.2,10.3-8.1,17.2-9.1C960.9,1242,960.9,1240.8,960.2,1240.7z"/>
				</g>
				<g>
					<g>
						<g>
							<ellipse fill="#013668" cx="851.4" cy="1404.3" rx="27.1" ry="33.7"/>
						</g>
						<g>
							<path d="M890.8,1430.7c0,8.5-7.2,15.4-16.2,15.4h-12.1c-8.9,0-16.2-6.9-16.2-15.4v-54.1c0-8.5,7.2-15.4,16.2-15.4h12.1
								c8.9,0,16.2,6.9,16.2,15.4V1430.7z"/>
						</g>
					</g>
					<g>
						<g>
							<ellipse fill="#013668" cx="1151.6" cy="1404.3" rx="27.1" ry="33.7"/>
						</g>
						<g>
							<path d="M1112.3,1430.7c0,8.5,7.2,15.4,16.2,15.4h12.1c8.9,0,16.2-6.9,16.2-15.4v-54.1c0-8.5-7.2-15.4-16.2-15.4h-12.1
								c-8.9,0-16.2,6.9-16.2,15.4V1430.7z"/>
						</g>
					</g>
					<g>
						<path d="M1140.4,1387.1h-6.7c0-88.2-60.3-160-134.5-160c-74.1,0-134.5,71.8-134.5,160h-6.7c0-91.6,63.3-166.2,141.2-166.2
							S1140.4,1295.5,1140.4,1387.1z"/>
					</g>
					<g>
						<path d="M1047.2,1509.1v-4.9c45,0,81.6-34,81.6-75.8h5.2C1134,1472.9,1095.1,1509.1,1047.2,1509.1z"/>
					</g>
					<g>
						<ellipse cx="1038.8" cy="1508.1" rx="14.2" ry="12.6"/>
					</g>
				</g>
			</g>
			<path fill="#CDD0E1" d="M1541.8,1704.8v13c0,45.9-37.2,83.1-83.1,83.1H531.6c-45.9,0-83.1-37.2-83.1-83.1v-13H1541.8z"/>
			<path fill="#EDE7F3" d="M1537.1,1704.8c-11.3,32.4-42.2,55.6-78.5,55.6H531.6c-36.3,0-67.1-23.2-78.5-55.6H1537.1z"/>
			<g>
				<g>
					<path fill="#F9A191" d="M1610.3,1630.2l-18.7,93.3l-30.4-6.1c0,0-17.8,43.4-76.8,52c-58.9,8.6-88.7-31.1-88.7-31.1l-27.3-72.6
						l-64.1-47.8l-103.5,59.4c-4.7,2.9-10.2,3.8-15.3,2.7c-2.8-0.6-5.6-1.7-8-3.4c-12.2-8.6-12-26.7,0.3-35l115.9-78.5
						c7.7-5.2,17.3-6.9,26.4-4.7L1610.3,1630.2z"/>
					<path fill="#F9A191" d="M1406.1,1662.9l-37.7,2.8l-103.3,0.9c-17.5,0.1-31.4,14.9-30.4,32.5v0c0.9,15.5,13.2,27.9,28.7,28.9
						l154.9,9.8L1406.1,1662.9z"/>
					<path fill="#EF7C6D" d="M1600.9,1677.3l-9.3,46.1l-30.4-6.1c0,0-17.8,43.4-76.8,52c-58.9,8.6-88.7-31.1-88.7-31.1
						c108,37.3,147.2-72.6,147.2-72.6L1600.9,1677.3z"/>
					
						<rect x="1586.6" y="1618.5" transform="matrix(0.9805 0.1967 -0.1967 0.9805 362.0252 -284.7004)" fill="#EDE7F3" width="55.1" height="122.9"/>
					
						<rect x="1577.4" y="1682.6" transform="matrix(0.1967 -0.9805 0.9805 0.1967 -384.9633 2950.3682)" fill="#CDD0E1" width="61.5" height="55.1"/>
					<polygon fill="#362544" points="2000,1667.6 1637.3,1594.8 1602.7,1767.6 2000,1847.3 					"/>
					<polygon fill="#210F2C" points="2000,1757.4 1620,1681.2 1602.7,1767.6 2000,1847.3 					"/>
				</g>
				<g>
					<path fill="#F9A191" d="M379.9,1630.2l18.7,93.3l30.4-6.1c0,0,17.8,43.4,76.8,52c58.9,8.6,88.7-31.1,88.7-31.1l27.3-72.6
						l64.1-47.8l103.5,59.4c4.7,2.9,10.2,3.8,15.3,2.7c2.8-0.6,5.6-1.7,8-3.4c12.2-8.6,12-26.7-0.3-35l-115.9-78.5
						c-7.7-5.2-17.3-6.9-26.4-4.7L379.9,1630.2z"/>
					<path fill="#F9A191" d="M584.2,1662.9l37.7,2.8l103.3,0.9c17.5,0.1,31.4,14.9,30.4,32.5v0c-0.9,15.5-13.2,27.9-28.7,28.9
						l-154.9,9.8L584.2,1662.9z"/>
					<path fill="#EF7C6D" d="M389.4,1677.3l9.3,46.1l30.4-6.1c0,0,17.8,43.4,76.8,52c58.9,8.6,88.7-31.1,88.7-31.1
						c-108,37.3-147.2-72.6-147.2-72.6L389.4,1677.3z"/>
					
						<rect x="348.6" y="1618.5" transform="matrix(-0.9805 0.1967 -0.1967 -0.9805 1075.4366 3253.1685)" fill="#EDE7F3" width="55.1" height="122.9"/>
					
						<rect x="351.5" y="1682.6" transform="matrix(-0.1967 -0.9805 0.9805 -0.1967 -1219.3257 2421.2595)" fill="#CDD0E1" width="61.5" height="55.1"/>
					<polygon fill="#362544" points="0,1845.3 387.6,1767.6 352.9,1594.8 0,1665.6 					"/>
					<polygon fill="#210F2C" points="0,1845.3 387.6,1767.6 370.3,1681.2 0,1755.5 					"/>
				</g>
			</g>
		</g>
	</g>
	<g>
		<g>
			<g>
				<path fill="#3664DD" d="M1547,1115.3v20.8h-109.9v-20.8c0-12.7,7.8-23.5,18.7-27.7c3.1-1.2,6.5-1.8,10-1.8h52.5
					c3.5,0,6.9,0.6,10,1.8C1539.3,1091.8,1547,1102.6,1547,1115.3z"/>
				<g>
					<g>
						<polygon fill="#527BFF" points="1492.1,1110.6 1504.4,1115.7 1511.6,1090.1 1504.4,1085.8 						"/>
						<polygon fill="#527BFF" points="1492.1,1110.6 1479.7,1115.7 1472.6,1090.1 1479.7,1085.8 						"/>
					</g>
				</g>
				<path fill="#EF7C6D" d="M1529.4,1005.7v37.7c0,7-2.2,13.8-6.4,19.5c-6.2,8.4-15.4,13.5-22.1,16.4c-5.6,2.4-12,2.4-17.6,0
					c-2.7-1.1-5.8-2.6-8.9-4.6c-4.7-2.9-9.5-6.7-13.2-11.8c-4.2-5.7-6.4-12.5-6.4-19.5v-37.7c0-13.2,11-23.9,24.6-23.9h25.4
					c3.4,0,6.6,0.7,9.6,1.9C1523.2,987.3,1529.4,995.8,1529.4,1005.7z"/>
				<path fill="#F9A191" d="M1524.4,1003v37.7c0,7-2.2,13.8-6.4,19.5c-6.2,8.4-15.4,13.5-22.1,16.4c-5.6,2.4-12,2.4-17.6,0
					c-1.2-0.5-2.6-1.1-3.9-1.8c-4.7-2.9-9.5-6.7-13.2-11.8c-4.2-5.7-6.4-12.5-6.4-19.5v-37.7c0-13.2,11-23.9,24.6-23.9h25.4
					c3.4,0,6.6,0.7,9.6,1.9C1520.4,988,1524.4,995.1,1524.4,1003z"/>
				<polygon fill="#F9A191" points="1504.4,1076.7 1504.4,1095.5 1492.1,1110.6 1479.7,1095.5 1479.7,1076.7 				"/>
				<path fill="#EF7C6D" d="M1504.4,1076.7v2.6c-2.2,1.2-4.3,2.2-6.2,3c-5.6,2.4-12,2.4-17.6,0c-0.3-0.1-0.6-0.2-0.9-0.4v-5.2
					H1504.4z"/>
				<path fill="#953349" d="M1529.2,987.5c-5.2-5.5-16.8-14.3-37.1-13.1c-20.2-1.2-31.8,7.6-37.1,13.1c-2.2,2.3-3.3,5.6-3,8.8
					l2.8,28l0.2,2.3l-0.2,1.2v15.7c0,7,2.2,13.8,6.4,19.5c6.2,8.4,15.4,13.5,22.1,16.4c5.6,2.4,12,2.4,17.6,0
					c6.7-2.8,15.9-7.9,22.1-16.4c4.2-5.7,6.4-12.5,6.4-19.5v-15.6l-0.2-1.3l0.2-2.3l2.8-28C1532.5,993.1,1531.4,989.9,1529.2,987.5z
					 M1527.1,1044.4c0,0-1.4,24.8-27.3,31.5c0,0-2.9-5.9-7.7-6.1c-4.8,0.2-7.7,6.1-7.7,6.1c-26-6.7-27.3-31.5-27.3-31.5v-19.2
					c0,0,4.2-17.4,6.1-25.4c2-7.9,12.9-10.9,12.9-10.9c6,3.1,14.6,3.2,16,3.2c1.5,0,10.1-0.1,16-3.2c0,0,10.9,3,12.9,10.9
					c2,7.9,6.1,25.4,6.1,25.4V1044.4z"/>
			</g>
		</g>
		<g>
			<g>
				<g>
					<ellipse fill="#013668" cx="1445.9" cy="1034" rx="8.4" ry="11.2"/>
				</g>
				<g>
					<path d="M1458,1042.7c0,2.8-2.2,5.1-5,5.1h-3.7c-2.7,0-5-2.3-5-5.1v-17.9c0-2.8,2.2-5.1,5-5.1h3.7c2.7,0,5,2.3,5,5.1V1042.7z"
						/>
				</g>
			</g>
			<g>
				<g>
					<ellipse fill="#013668" cx="1538.3" cy="1034" rx="8.4" ry="11.2"/>
				</g>
				<g>
					<path d="M1526.2,1042.7c0,2.8,2.2,5.1,5,5.1h3.7c2.7,0,5-2.3,5-5.1v-17.9c0-2.8-2.2-5.1-5-5.1h-3.7c-2.8,0-5,2.3-5,5.1V1042.7z
						"/>
				</g>
			</g>
			<g>
				<path d="M1534.9,1022.4h-2.1c0-29.2-18.6-53-41.4-53c-22.8,0-41.4,23.8-41.4,53h-2.1c0-30.4,19.5-55.1,43.5-55.1
					C1515.3,967.3,1534.9,992,1534.9,1022.4z"/>
			</g>
			<g>
				<path d="M1506.2,1068.7v-1.6c13.9,0,25.1-11.3,25.1-25.1h1.6C1532.9,1056.7,1520.9,1068.7,1506.2,1068.7z"/>
			</g>
			<g>
				<ellipse cx="1503.6" cy="1068.4" rx="4.4" ry="4.2"/>
			</g>
		</g>
		<path fill="#953349" d="M1480.8,975.8c0,0,20.6-5.5,25-9.5c0,0,1.8,4.9-2.2,11L1480.8,975.8z"/>
		<path fill="#953349" d="M1488.2,980.2c0,0,20.6-5.5,25-9.5c0,0,1.8,4.9-2.2,11L1488.2,980.2z"/>
	</g>
	<g>
		<g>
			<path fill="#FBB434" d="M431.7,981.5v61.9c0,9.4,7.6,17,17,17h89.3c9.4,0,17-7.6,17-17v-61.9c0-9.4-7.6-17-17-17h-89.3
				C439.3,964.5,431.7,972.1,431.7,981.5z"/>
			<path fill="#F69432" d="M431.7,981.5v61.9c0,9.4,7.6,17,17,17h45.6c9.4,0,17-7.6,17-17v-61.9c0-9.4-7.6-17-17-17h-45.6
				C439.3,964.5,431.7,972.1,431.7,981.5z"/>
			<polygon fill="#F69432" points="460.9,1051.2 460.9,1086.8 498.6,1051.2 			"/>
		</g>
		<g>
			<circle fill="#EDE7F3" cx="449.7" cy="1012.5" r="5.4"/>
			<circle fill="#EDE7F3" cx="467.2" cy="1012.5" r="5.4"/>
			<circle fill="#EDE7F3" cx="484.7" cy="1012.5" r="5.4"/>
			<circle fill="#EDE7F3" cx="502.2" cy="1012.5" r="5.4"/>
			<circle fill="#EDE7F3" cx="519.7" cy="1012.5" r="5.4"/>
			<circle fill="#EDE7F3" cx="537.1" cy="1012.5" r="5.4"/>
		</g>
		<g>
			<path fill="#E72245" d="M616.8,1021.9v61.9c0,9.4-7.6,17-17,17h-89.3c-9.4,0-17-7.6-17-17v-61.9c0-9.4,7.6-17,17-17h89.3
				C609.2,1004.9,616.8,1012.5,616.8,1021.9z"/>
			<path fill="#BB1937" d="M616.8,1021.9v61.9c0,9.4-7.6,17-17,17h-45.6c-9.4,0-17-7.6-17-17v-61.9c0-9.4,7.6-17,17-17h45.6
				C609.2,1004.9,616.8,1012.5,616.8,1021.9z"/>
			<polygon fill="#BB1937" points="587.7,1091.6 587.7,1127.2 550,1091.6 			"/>
		</g>
		<g>
			<circle fill="#EDE7F3" cx="511.4" cy="1052.9" r="5.4"/>
			<circle fill="#EDE7F3" cx="528.9" cy="1052.9" r="5.4"/>
			<circle fill="#EDE7F3" cx="546.4" cy="1052.9" r="5.4"/>
			<circle fill="#EDE7F3" cx="563.9" cy="1052.9" r="5.4"/>
			<circle fill="#EDE7F3" cx="581.3" cy="1052.9" r="5.4"/>
			<circle fill="#EDE7F3" cx="598.8" cy="1052.9" r="5.4"/>
		</g>
	</g>
	<g>
		<rect x="476.6" y="559.7" fill="#EDE7F3" width="18.2" height="117.2"/>
		<polygon fill="#EDE7F3" points="494.7,559.7 476.7,559.7 468.6,587.1 502.8,587.1 		"/>
		<polygon fill="#D3DAE2" points="476.7,614.5 494.7,614.5 502.8,587.1 468.6,587.1 		"/>
		<path fill="#E72245" d="M509.5,675.1v56.9c0,6.7-5.4,12.1-12.1,12.1H474c-6.7,0-12.1-5.4-12.1-12.1v-56.9H509.5z"/>
		<path fill="#BB1937" d="M509.5,675.1v12.7c-0.7,0.2-1.4,0.3-2.1,0.3h-43.3c-0.7,0-1.4-0.1-2.1-0.3v-12.7H509.5z"/>
		<g>
			<path fill="#362544" d="M472.4,733.9h-0.7c-1.7,0-3.1-1.4-3.1-3.1v-34.4c0-1.7,1.4-3.1,3.1-3.1h0.7c1.7,0,3.1,1.4,3.1,3.1v34.4
				C475.5,732.5,474.1,733.9,472.4,733.9z"/>
			<path fill="#362544" d="M486.1,733.9h-0.7c-1.7,0-3.1-1.4-3.1-3.1v-34.4c0-1.7,1.4-3.1,3.1-3.1h0.7c1.7,0,3.1,1.4,3.1,3.1v34.4
				C489.2,732.5,487.8,733.9,486.1,733.9z"/>
			<path fill="#362544" d="M499.7,733.9H499c-1.7,0-3.1-1.4-3.1-3.1v-34.4c0-1.7,1.4-3.1,3.1-3.1h0.7c1.7,0,3.1,1.4,3.1,3.1v34.4
				C502.8,732.5,501.4,733.9,499.7,733.9z"/>
		</g>
		<path fill="#EDE7F3" d="M591.9,604.3v-34.5l-17.5-10.1v37.3h-24.8v-37.3l-17.5,10.1v34.5l15.4,8.9V689c-9.3,5.1-15.6,15-15.6,26.3
			c0,16.6,13.4,30,30,30c16.6,0,30-13.4,30-30c0-11.3-6.2-21.1-15.4-26.2v-75.9L591.9,604.3z M578.4,715.3c0,9.1-7.4,16.5-16.5,16.5
			c-9.1,0-16.5-7.4-16.5-16.5s7.4-16.5,16.5-16.5C571,698.9,578.4,706.2,578.4,715.3z"/>
		<path fill="#D3DAE2" d="M562.4,731.8c-0.2,0-0.3,0-0.5,0c-9.1,0-16.5-7.4-16.5-16.5s7.4-16.5,16.5-16.5c0.2,0,0.3,0,0.5,0V597.1
			h-12.8v-37.3l-17.5,10.1v34.5l15.4,8.9V689c-9.3,5.1-15.6,15-15.6,26.3c0,16.6,13.4,30,30,30c0.2,0,0.3,0,0.5,0V731.8z"/>
		<path fill="#E72245" d="M507.4,682.7h-43.3c-4.1,0-7.4-3.3-7.4-7.4v0c0-4.1,3.3-7.4,7.4-7.4h43.3c4.1,0,7.4,3.3,7.4,7.4v0
			C514.8,679.4,511.5,682.7,507.4,682.7z"/>
	</g>
	<g>
		<path fill="#E72245" d="M853.9,436.6l-10.3,28.2l-5.3,14.4c0,0-53.6,13.6-105.8-38.5C680.4,388.6,694,335,694,335l13-4.7
			l29.7-10.8c12.2,11.1,12.3,32.9,12,38.7c0,0.9-0.1,1.4-0.1,1.4l-15.4,15.4c17.8,25.4,39.7,47.4,65.1,65.1l15.4-15.4
			C813.7,424.7,841,422.5,853.9,436.6z"/>
		<path fill="#BB1937" d="M853.9,436.6l-10.3,28.2c-17.5,1.4-57.5-0.7-96.7-39.8c-37.8-37.8-41-76.4-40-94.8l29.7-10.8
			c12.2,11.1,12.3,32.9,12,38.7l-1,1c0.2,0.3,0.4,0.5,0.6,0.8l-14.9,14.9c17.8,25.4,39.7,47.4,65.1,65.1l15.4-15.4
			C813.7,424.7,841,422.5,853.9,436.6z"/>
		<g>
			<text transform="matrix(1 0 0 1 761.5447 395.23)" fill="#362544" font-family="'Montserrat-SemiBold'" font-size="71.8109">24</text>
		</g>
		<g>
			<g>
				<path fill="#FBB434" d="M860,426c-1.7,0-3.4-0.4-5-1.3c-4.8-2.7-6.5-8.8-3.7-13.6c5.8-10.1,8.8-21.7,8.8-33.4
					c0-37.1-30.2-67.3-67.2-67.4c-5.5,0-10-4.5-10-10c0-5.5,4.5-10,10-10c0,0,0,0,0,0c48.1,0.1,87.2,39.3,87.2,87.4
					c0,15.2-4,30.2-11.5,43.3C866.9,424.2,863.5,426,860,426z"/>
			</g>
			<g>
				<g>
					<polygon fill="#FBB434" points="806.7,326.5 755.4,309.9 795.4,273.8 					"/>
				</g>
			</g>
		</g>
	</g>
	<g>
		<g>
			<path fill="#EDE7F3" d="M1215.4,462.9h-108.5c-6.9,0-12.4-5.6-12.4-12.4V299c0-6.9,5.6-12.4,12.4-12.4h108.5
				c6.9,0,12.4,5.6,12.4,12.4v151.5C1227.8,457.3,1222.2,462.9,1215.4,462.9z"/>
			<g>
				<path fill="#D3DAE2" d="M1222.7,288.9l-122.5,172c1.9,1.3,4.3,2,6.7,2h108.5c6.9,0,12.4-5.6,12.4-12.4V299
					C1227.8,294.8,1225.8,291.2,1222.7,288.9z"/>
			</g>
			<g>
				<path fill="#67707F" d="M1212.8,315.5h-103.4c-2.6,0-4.7-2.1-4.7-4.7l0,0c0-2.6,2.1-4.7,4.7-4.7h103.4c2.6,0,4.7,2.1,4.7,4.7
					l0,0C1217.5,313.4,1215.4,315.5,1212.8,315.5z"/>
				<path fill="#67707F" d="M1212.8,333.8h-103.4c-2.6,0-4.7-2.1-4.7-4.7l0,0c0-2.6,2.1-4.7,4.7-4.7h103.4c2.6,0,4.7,2.1,4.7,4.7
					l0,0C1217.5,331.7,1215.4,333.8,1212.8,333.8z"/>
				<path fill="#67707F" d="M1212.8,352h-103.4c-2.6,0-4.7-2.1-4.7-4.7l0,0c0-2.6,2.1-4.7,4.7-4.7h103.4c2.6,0,4.7,2.1,4.7,4.7l0,0
					C1217.5,349.9,1215.4,352,1212.8,352z"/>
				<path fill="#67707F" d="M1212.8,370.2h-103.4c-2.6,0-4.7-2.1-4.7-4.7l0,0c0-2.6,2.1-4.7,4.7-4.7h103.4c2.6,0,4.7,2.1,4.7,4.7
					l0,0C1217.5,368.2,1215.4,370.2,1212.8,370.2z"/>
				<path fill="#67707F" d="M1212.8,388.5h-103.4c-2.6,0-4.7-2.1-4.7-4.7l0,0c0-2.6,2.1-4.7,4.7-4.7h103.4c2.6,0,4.7,2.1,4.7,4.7
					l0,0C1217.5,386.4,1215.4,388.5,1212.8,388.5z"/>
				<path fill="#67707F" d="M1212.8,406.7h-103.4c-2.6,0-4.7-2.1-4.7-4.7l0,0c0-2.6,2.1-4.7,4.7-4.7h103.4c2.6,0,4.7,2.1,4.7,4.7
					l0,0C1217.5,404.6,1215.4,406.7,1212.8,406.7z"/>
				<path fill="#67707F" d="M1212.8,425h-103.4c-2.6,0-4.7-2.1-4.7-4.7l0,0c0-2.6,2.1-4.7,4.7-4.7h103.4c2.6,0,4.7,2.1,4.7,4.7l0,0
					C1217.5,422.9,1215.4,425,1212.8,425z"/>
				<path fill="#67707F" d="M1212.8,443.2h-103.4c-2.6,0-4.7-2.1-4.7-4.7l0,0c0-2.6,2.1-4.7,4.7-4.7h103.4c2.6,0,4.7,2.1,4.7,4.7
					l0,0C1217.5,441.1,1215.4,443.2,1212.8,443.2z"/>
			</g>
		</g>
		<g>
			<g>
				<path fill="#495563" d="M1266.8,468.1c-0.8,0-1.5-0.7-1.5-1.5v-7.7c0-0.8,0.7-1.5,1.5-1.5s1.5,0.7,1.5,1.5v7.7
					C1268.3,467.5,1267.6,468.1,1266.8,468.1z"/>
			</g>
			<path fill="#67707F" d="M1266.8,462.9L1266.8,462.9c-3.5,0-6.3-2.8-6.3-6.3v-18.3h12.5v18.3
				C1273.1,460.1,1270.3,462.9,1266.8,462.9z"/>
			<path fill="#E72245" d="M1273.1,311.3h-12.5v-18.4c0-3.5,2.8-6.3,6.3-6.3l0,0c3.5,0,6.3,2.8,6.3,6.3V311.3z"/>
			<path fill="#495563" d="M1266.8,454.1L1266.8,454.1c-7.5,0-13.6-6.1-13.6-13.6v-84.6h27.2v84.6
				C1280.4,448,1274.3,454.1,1266.8,454.1z"/>
			<g>
				<path fill="#495563" d="M1292.6,378.8c-3.3,0-6-2.7-6-6v-49.5c0-1.3-1-2.3-2.3-2.3h-3.9c-3.3,0-6-2.7-6-6s2.7-6,6-6h3.9
					c7.9,0,14.3,6.4,14.3,14.3v49.5C1298.6,376.1,1295.9,378.8,1292.6,378.8z"/>
			</g>
			<path fill="#67707F" d="M1266.8,298.5L1266.8,298.5c-8.7,0-15.8,7.1-15.8,15.8v41.6h31.6v-41.6
				C1282.6,305.6,1275.6,298.5,1266.8,298.5z"/>
		</g>
	</g>
	<g>
		<rect x="1417.5" y="634.8" fill="#EDE7F3" width="19.5" height="85.6"/>
		<rect x="1379.4" y="624.2" fill="#362544" width="38" height="107"/>
		<rect x="1417.5" y="679.2" fill="#CDD0E1" width="19.5" height="41.3"/>
		<rect x="1379.4" y="679.2" fill="#210F2C" width="38" height="51.9"/>
		<rect x="1436.8" y="647.7" fill="#F9A191" width="55.3" height="59.9"/>
		<path fill="#F9A191" d="M1542.5,624.9v95.6h-79.3c-9.7,0-17.5-7.8-17.5-17.5v-55.3c7.5-19.1,19.1-34.3,36.3-44.1v-37
			c0-1.6,0.6-3,1.7-4c1-1,2.5-1.7,4-1.7c11.9,0,21.5,9.6,21.5,21.5v42.4H1542.5z"/>
		<path fill="#EF7C6D" d="M1487.7,560.9c4.1,0,8,1.2,11.3,3.2c-0.6,0.3-1.2,0.7-1.6,1.1c-1,1-1.7,2.5-1.7,4.1v36.9
			c-19.9,9.7-33.4,31.7-36.3,49.2h-22.6v-7.8h8.9c7.5-19.1,19.1-34.3,36.3-44.1v-37c0-1.6,0.6-3,1.7-4
			C1484.7,561.6,1486.1,560.9,1487.7,560.9z"/>
		<path fill="#EF7C6D" d="M1542.5,624.9v95.6h-43.8c-3.1-3.1-4.9-7.3-4.9-11.9c0-5.8,3-11,7.5-14c-2-2.8-3.2-6.2-3.2-9.9
			c0-5.7,2.8-10.7,7.1-13.8c-2.1-2.8-3.4-6.3-3.4-10.1c0-5.5,2.7-10.4,6.8-13.5c-2.2-2.9-3.6-6.5-3.6-10.4c0-4.7,1.9-8.9,4.9-12
			H1542.5z"/>
		<g>
			<path fill="#F9A191" d="M1560.1,648.8H1522c-6.6,0-12-5.4-12-12v0c0-6.6,5.4-12,12-12h38.1c6.6,0,12,5.4,12,12v0
				C1572,643.4,1566.7,648.8,1560.1,648.8z"/>
			<path fill="#F9A191" d="M1556.9,672.7h-38.1c-6.6,0-12-5.4-12-12l0,0c0-6.6,5.4-12,12-12h38.1c6.6,0,12,5.4,12,12l0,0
				C1568.8,667.3,1563.5,672.7,1556.9,672.7z"/>
			<path fill="#F9A191" d="M1553.2,696.6H1515c-6.6,0-12-5.4-12-12l0,0c0-6.6,5.4-12,12-12h38.1c6.6,0,12,5.4,12,12l0,0
				C1565.1,691.2,1559.8,696.6,1553.2,696.6z"/>
			<path fill="#F9A191" d="M1548.9,720.5h-38.1c-6.6,0-12-5.4-12-12v0c0-6.6,5.4-12,12-12h38.1c6.6,0,12,5.4,12,12v0
				C1560.8,715.1,1555.5,720.5,1548.9,720.5z"/>
		</g>
		<g>
			<path fill="#EF7C6D" d="M1510.1,638c0.6,6.1,5.7,10.8,11.9,10.8h38.1c6.2,0,11.3-4.7,11.9-10.8H1510.1z"/>
			<path fill="#EF7C6D" d="M1506.8,661c0.1,6.5,5.4,11.7,11.9,11.7h38.1c6.5,0,11.8-5.2,11.9-11.7H1506.8z"/>
			<path fill="#EF7C6D" d="M1503.3,687c1.1,5.5,5.9,9.6,11.7,9.6h38.1c5.8,0,10.6-4.1,11.7-9.6H1503.3z"/>
			<path fill="#EF7C6D" d="M1498.9,709.5c0.5,6.1,5.6,11,11.9,11h38.1c6.3,0,11.4-4.8,11.9-11H1498.9z"/>
		</g>
	</g>
</g>
</svg>
