<?xml version="1.0" encoding="utf-8"?>
<!-- Generator: Adobe Illustrator 18.0.0, SVG Export Plug-In . SVG Version: 6.00 Build 0)  -->
<!DOCTYPE svg PUBLIC "-//W3C//DTD SVG 1.1//EN" "http://www.w3.org/Graphics/SVG/1.1/DTD/svg11.dtd">
<svg version="1.1" xmlns="http://www.w3.org/2000/svg" xmlns:xlink="http://www.w3.org/1999/xlink" x="0px" y="0px" width="2800px"
	 height="2800px" viewBox="0 0 2800 2800" enable-background="new 0 0 2800 2800" xml:space="preserve">
<g id="BACKGROUND">
	<g>
		<rect fill="#B8C0DB" width="2800" height="2800"/>
	</g>
	<ellipse fill="#7680AD" cx="902" cy="2638.4" rx="411" ry="87"/>
	<ellipse fill="#7680AD" cx="1898" cy="2373.2" rx="411" ry="54.3"/>
</g>
<g id="MAN">
	<g>
		<path fill="#142640" d="M1087.2,1603.9c52.9,5.1,121.8-19.2,121.8-19.2l-115.3-80.1L1087.2,1603.9z"/>
		<path fill="#1F1440" d="M755.9,2631.7c15.2,23.9,28.3,55.2,15.2,74.1c-13,18.8-50.7,25.4-68.9,0.1c-18.1-25.4,8.7-126.3,8.7-126.3
			l-1.4-28.5h42.8C752.3,2551,740.7,2607.8,755.9,2631.7z"/>
		<path fill="#1F1440" d="M1020.2,2501c3.6,28,62.3,44.1,90.6,50.6c28.3,6.5,78.3,8.6,78.3,8.6v18.8H978.5l10.9-78H1020.2z"/>
		<g>
			<path fill="#FFC486" d="M1374.3,1016l19.6-18.5c0,0-9.8-35.3,0-43.5c9.8-8.2,51.7-16.3,60.9-25.6c9.2-9.2,21.7-23.4,28.8-13.6
				s-38.6,43.5-38.6,43.5s57.6-3.8,72.9-7.1c15.2-3.3,36.4-15.2,47.3-15.8c10.9-0.5,15.8,3.8,15.8,9.2c0,5.4-29.4,22.8-47.8,44
				c-18.5,21.2-72.3,35.3-103.8,31l-31,24.5L1374.3,1016z"/>
			<path fill="#FF9778" d="M1445,958.4c8.7,27.2-10.9,39.1-10.9,39.1S1468.9,991,1445,958.4z"/>
		</g>
		<path fill="#294A64" d="M794.3,1539.6c201.2,23.5,304.4,1.3,304.4,1.3l13.4-22.9c0,0-34.4-30.6-149.3-38.8
			c-114.8-8.2-185.4,24.6-185.4,24.6L794.3,1539.6z"/>
		<path fill="#FFFFB8" d="M747.9,763.7c0,0,125.2,18.5,150.7,37c25.5,18.5,74.7,79.2,93.1,163s112.9,324.1,133.6,422
			s-19.1,140.3-19.1,140.3s-104.9-35.9-185.3-26.1c-80.5,9.8-104.4,26.1-143.5,5.4c-39.1-20.7-48.9-59.8-4.3-211
			s4.1-337.1-34.9-407.8S705.6,756.7,747.9,763.7z"/>
		<polygon fill="#D9D39C" points="773,848.6 813.1,900.7 845.9,869.2 806.2,926.7 		"/>
		<polygon fill="#D9D39C" points="894,858.3 952.4,864.9 957.7,887.6 		"/>
		<path fill="#D9D39C" d="M925.8,988.8c31.8,125.8,74.4,305.6,74.4,305.6l7.6,146.8c0,0,15.6-105.3,6.5-153.3
			C991.7,1168.3,925.8,988.8,925.8,988.8z"/>
		<path fill="#1A334C" d="M879.4,798.3c0,0,41.4,12.2,62.1,66.6c20.7,54.4,140.3,436.1,151.2,493.7c10.9,57.6,5.4,212.8,5.4,212.8
			l110.9,13.4c0,0-23.9-154.4-37-197.9c-13-43.5-33.7-103.3-33.7-103.3s30.4,20.2,45.7,22.6c15.2,2.4,225.1-261.8,225.1-261.8
			l-28.3-46.8l-228.4,169.6l-83.7-122.9c0,0-33.7-101.1-45.7-139.2c-12-38.1-8.7-48.9-21.7-52.2s-63.1-55.5-81.6-62
			c-18.5-6.5-53.8-8.7-53.8-8.7L879.4,798.3z"/>
		<path fill="#294A64" d="M870.8,782.2c0,0,40.8-14.4,93.2,42.1c52.4,56.6,41.7,76.4,41.7,76.4l-21.7,22.8l46.8,48.2l13.8,216.2
			c0,0-89.9-299.2-113.8-340.5c-23.9-41.3-51.2-49.2-51.2-49.2L870.8,782.2z"/>
		<path fill="#AC3A21" d="M684.2,631.6c28.3,25.5,10.1,49.5,16.7,63.2c6.5,13.8,51,19.4,47.1-21.7S706.6,624.2,684.2,631.6z"/>
		<path fill="#FFC486" d="M845.8,370.1c52.2,45.7,71.8,96.9,71.8,96.9s95.7,133.6,69.6,207.6S885,772.4,885,772.4l-13,60.9
			c0,0,41.5,65.2,46.8,115.3c0,0-49-65.2-90.3-115.3c-41.3-50-80.5-69.6-80.5-69.6s4.3-80.5-26.1-124c0,0-45.7,10.9-71.8-26.1
			c-26.1-37,0-56.5,0-56.5s-45.7-76.1,19.6-139.2S845.8,370.1,845.8,370.1z"/>
		<path fill="#FF865E" d="M877,515.8c49.3,7.2,75.4,30.4,65.2,50.7c-10.1,20.3-72.5,20.3-79.7,0C855.2,546.2,877,515.8,877,515.8z"
			/>
		<path fill="#FF4F46" d="M942.2,566.5c3.5-7,2.7-14.4-2-21.4c-4.4,10-13.3,20.7-31.4,19.9c-20.9-0.9-33.8-0.1-40.9,8.4
			C885.3,586.5,933.4,584.2,942.2,566.5z"/>
		
			<ellipse transform="matrix(0.8091 -0.5877 0.5877 0.8091 -147.6237 583.3792)" fill="#2B0000" cx="824" cy="518.9" rx="10.9" ry="26.3"/>
		
			<ellipse transform="matrix(-0.975 0.2221 -0.2221 -0.975 1900.1388 771.9156)" fill="#2B0000" cx="906.7" cy="492.8" rx="7.2" ry="17.4"/>
		<g>
			<path fill="#2B0000" d="M770.9,483c0,0,0-0.2,0-0.5c0-0.3-0.1-0.8-0.1-1.3c0-1.1-0.2-2.8-0.2-4.6c0-1.9,0.1-4,0.3-6.4
				c0.1-0.6,0.1-1.2,0.3-1.8c0.2-0.6,0.4-1.3,0.7-1.9c0.5-1.3,1.1-2.6,1.8-4c0.7-1.4,1.6-2.7,2.5-4.2c0.5-0.8,1-1.4,1.4-2
				c0.5-0.6,1-1.2,1.5-1.8c1.1-1.2,2.2-2.4,3.5-3.6c1.2-1.2,2.6-2.3,4.1-3.2c2.9-1.9,6.1-3.9,9.6-4.9c1.7-0.6,3.5-1.1,5.3-1.6
				c1.8-0.5,3.6-0.6,5.5-0.8c1.8-0.1,3.7-0.3,5.5-0.2c1.8,0.1,3.6,0.3,5.4,0.5c3.6,0.4,6.9,1.7,10,2.9c3.1,1.5,6,3,8.4,5
				c1.2,1,2.4,2,3.5,3c1.1,1.1,2.1,2.2,3,3.3c1.8,2.2,3.2,4.6,4.4,6.8c1.1,2.3,1.9,4.3,2.5,6.2c0.6,1.8,0.8,3.5,1,4.6
				c0.1,0.5,0.1,1,0.2,1.3c0,0.3,0,0.5,0,0.5l-1.5,2.7c0,0-0.3-0.1-0.8-0.3c-0.5-0.2-1.4-0.5-2.4-0.9c-1-0.4-2.3-0.8-3.8-1.3
				c-1.5-0.4-3.2-0.9-5-1.3c-0.9-0.2-1.9-0.5-2.9-0.7c-1-0.2-2-0.4-3.1-0.6c-2.1-0.5-4.4-0.5-6.7-1c-1.2-0.1-2.4-0.2-3.6-0.2
				c-1.2-0.1-2.4-0.2-3.7-0.1c-1.2,0-2.5,0-3.7,0.1c-1.2,0-2.5,0.2-3.7,0.3c-1.2,0.1-2.5,0.1-3.7,0.4c-1.2,0.2-2.4,0.4-3.6,0.7
				c-2.4,0.3-4.7,1.2-7,1.8c-0.6,0.2-1.1,0.3-1.7,0.5c-0.5,0.2-1.1,0.4-1.6,0.6c-1.1,0.4-2.1,0.8-3.1,1.2c-2.1,0.7-3.8,1.7-5.4,2.6
				c-0.8,0.4-1.6,0.8-2.4,1.2c-0.8,0.4-1.5,0.7-2.2,1.2c-1.3,0.9-2.5,1.6-3.4,2.3c-1.9,1.3-3,1.9-3,1.9L770.9,483z"/>
		</g>
		<g>
			<path fill="#2B0000" d="M874.2,467.5c0,0-0.1-0.1-0.4-0.2c-0.2-0.1-0.6-0.4-1-0.6c-0.7-0.5-2.1-1.3-3.3-2.3
				c-1.3-0.9-2.9-2.1-4.3-3.3c-0.8-0.6-1.4-1.3-2.2-2l-0.5-0.5l-0.4-0.7c-0.3-0.5-0.6-1-0.9-1.5c-0.6-1.1-0.9-2.2-1.4-3.4
				c-0.4-1.2-0.7-2.4-1-3.8c-0.5-2.6-0.4-5.3-0.1-8.1c0.1-0.7,0.2-1.4,0.3-2.1c0.2-0.7,0.5-1.5,0.8-2.2c0.6-1.5,1.3-2.9,2.1-4.4
				c0.7-1.4,1.9-2.9,3.2-4.2c1.2-1.4,2.6-2.6,4-3.8c3.2-2.2,6.6-4.2,10.3-5c1.8-0.5,3.7-0.9,5.4-1c1.8-0.1,3.5,0,5.2,0.2
				c1.7,0.2,3.1,0.6,4.6,1.1c1.5,0.5,2.8,1,4,1.8c1.2,0.8,2.3,1.4,3.3,2.3c0.9,0.9,1.8,1.8,2.6,2.7c1.5,1.9,2.6,3.9,3.4,5.9
				c0.8,1.9,1.2,4,1.5,5.6c0.3,1.5,0.3,3.2,0.4,4.1c0,0.5,0,0.9,0,1.2c0,0.3,0,0.4,0,0.4l-1.3,2.8c0,0-0.7-0.2-1.9-0.4
				c-0.6-0.2-1.4-0.3-2.2-0.4c-0.9-0.1-1.8-0.2-2.9-0.3c-0.5,0-1.1-0.1-1.6-0.1c-0.6,0-1.1,0-1.7,0.1c-0.6,0-1.2,0.1-1.8,0.2
				c-0.6,0.1-1.2,0.1-1.8,0.3c-0.6,0.2-1.2,0.3-1.8,0.5c-0.6,0.1-1.1,0.5-1.7,0.7c-1.2,0.4-2.1,1.3-3.2,1.9
				c-0.5,0.4-0.9,0.9-1.4,1.3c-0.5,0.4-1,0.8-1.3,1.4c-0.4,0.5-0.8,1-1.2,1.5l-0.6,0.7l-0.5,0.8c-0.6,1.1-1.3,2.2-1.8,3.2
				c-0.5,1.1-0.9,2.1-1.3,3.1c-0.4,0.9-0.7,2-1,2.8c-0.3,0.9-0.5,1.7-0.7,2.3c-0.4,1.3-0.7,2-0.7,2L874.2,467.5z"/>
		</g>
		<path fill="#DA3330" d="M953.5,581.8C926.3,603.9,824,619.1,824,619.1s56.6,85.9,109.9,70.7C987.2,674.6,953.5,581.8,953.5,581.8z
			"/>
		<path fill="#FF3039" d="M925.2,641.2c-16.2-9.4-36.1-12.1-54.2-7.2c-9.1,2.5-17.7,6.9-25.1,12.7c21.3,23.6,55.3,52.4,88,43.1
			c14-4,21.9-13.3,26.1-24.9C947.8,659.1,937.2,648.3,925.2,641.2z"/>
		<path fill="#FF9778" d="M706,589.4c-7.4-5.5-16.4-8.8-25.6-9.4c-4.8-0.3-9.8,0.2-13.8,2.9c-3.9,2.7-6.2,8.2-4.1,12.5
			c3.7-1,7.4-2,11.2-1.8s7.7,2.1,9.4,5.5c1.3,2.6,1.2,5.6,1.8,8.4c1.6,7.8,9.4,13.8,17.3,13.1c7.9-0.7,14.6-8.4,13.8-16.3
			C715.4,598.2,711,593.1,706,589.4z"/>
		<path fill="#AC3A21" d="M861,384.4c23.2-73-39.1-97.7-102.9-81.7S650.8,404.2,608.8,428.8c-42,24.6-15.9,64-15.9,64
			S565,526.6,603,563.5c16.9,16.4,35.5,18.3,35.5,18.3s29-28.3,48.9-20.7c19.9,7.6,52.2,58,64.5,87.4c12.3,29.4,37-1.4,32.6-21
			c-4.3-19.6-90.3-103.7-93.9-135.6s12.7-74.7,12.7-74.7S774.7,354.2,861,384.4z"/>
		<path fill="#932822" d="M609.5,489c-13.4,17-5.1,52.2,0,43.1c5.1-9.1,6.9-30.1,10.9-16.3c4,13.8,8.4,33,14.2,1.4
			s14.5-33.3,14.1-11.2c-0.4,22.1,17,30.8,15.2-2.9c-1.8-33.7,4-44.9,7.2-54c3.3-9.1-14-6.7-20.7,17.9c-6.7,24.6-17,12.6-10.1-3.4
			s-13.4-8.3-17.4,14.1C618.9,500.2,614.2,480.1,609.5,489z"/>
		<path fill="#1A334C" d="M800.1,911.6l-52.2-147.9c0,0-162,50-176.2,100c-14.1,50-1.1,429.5,15.2,492.6
			c16.3,63.1,87,127.2,87,127.2L662,1712l99.3-6.1l69.3-144l-52.2-91.3c0,0,106.6-181.6,113.1-251.2S800.1,911.6,800.1,911.6z
			 M702,1224.8c0,0-4.2-9.4-8.9-18.8c-4.7-9.4-9.1-78.7-9.1-78.7c7.2,14.5,18.1,25.7,18.1,25.7V1224.8z"/>
		<path fill="#294A64" d="M745.9,714.3c-25.5,0.2-66.1,74.5-66.1,74.5l12.4,151.2l84.8,3.6l-43.5,54.4c0,0,47.8,74.7,97.1,132.7
			c49.3,58,61.2,82.7,61.2,82.7s1.1-42.8-8.3-81.9s-84.1-234.2-84.1-234.2S771.4,834.9,745.9,714.3z"/>
		<g>
			<polygon fill="#142640" points="761.3,1705.9 803.2,1618.9 790.7,1603.9 674,1483.6 671,1541.8 728.8,1584.4 662,1712 			"/>
			<path fill="#142640" d="M702.3,1224.8c0,0-2.8-6-6.3-13.3C697.8,1216.4,699.9,1220.9,702.3,1224.8z"/>
			<path fill="#142640" d="M689.6,1188c-3.1-23.6-5.4-60.7-5.4-60.7S683.8,1158.5,689.6,1188z"/>
			<path fill="#142640" d="M690,971.8l-5.1,69.6l-0.9,85.9c7.2,14.5,18,25.7,18,25.7v71.8c19,30.4,76.3,245.8,76.3,245.8
				s5.3-9,13.6-23.7L698.6,1066C698.6,1066,717.5,997.9,690,971.8z"/>
		</g>
		<path fill="#1A334C" d="M1098.6,1540.9c0,0,18.9,75.4,18.9,91.3s-42,10.1-26,39.1c15.9,29,31.9,27.5,20.3,40.6
			s-23.9,31.9-23.9,31.9s-12.5,126.1-12.5,134.8c0,8.7-23.4,304.5-23.4,304.5v327l-34.8,5.9h-38.7c0,0-12.4-278.1-12-338.9
			c0.4-60.9,5-101.3,5-101.3s-13.3-216-14.8-269.6c-1.4-53.6,8.7-69.6,0-63.8c-8.7,5.8-31.9,103-44.9,156.6
			c-13,53.6-50.7,178.3-62.3,226.2c-11.6,47.8-7.2,66.7-21.7,113.1c-14.5,46.4-50.4,231.4-50.4,231.4L763.9,2575h-35.5l-44.2-17.9
			c0,0,25.5-316,44.6-384.1s57.8-275.4,63.1-297.2c5.3-21.7-14.6-253.7-14.6-253.7l17.8-87c0,0,141.4-22.8,209.5-15.7
			C1072.7,1526.4,1098.6,1540.9,1098.6,1540.9z"/>
		<path fill="#142640" d="M1184,1306.1c5.5,0.9,36.8-33.5,74.3-77.6l-75.4,28.9l-40.1-104.4l-74.1-108.8l69.6,239.2
			C1138.3,1283.5,1168.8,1303.7,1184,1306.1z"/>
		<ellipse fill="#294A64" cx="845.8" cy="1261.4" rx="11.6" ry="12.7"/>
		<ellipse fill="#294A64" cx="805.6" cy="1348.4" rx="10.5" ry="12.7"/>
		<circle fill="#C9EADF" cx="1004.6" cy="1508.6" r="20.7"/>
		<g>
			<path fill="#142640" d="M1036.5,1730.8l-41.4,13l47.6-59.4l-60.3,34.8l34.9-58l-12.6-63.4c0,0-10.1,62-15.9,77.9
				c-3.8,10.6-16.2,33.2-24.1,47.3c-51.2-10.7-119.5-53.1-119.5-53.1s56.4,51.5,80.7,57.3c14.3,3.4,25.7,5.3,32.8,6.3
				c-0.6,1.1-1,1.7-1,1.7l-1.2,7.4c0.1-0.1,0.2-0.1,0.2-0.2c8.7-5.8-1.4,10.1,0,63.8c1.4,53.6,14.8,269.7,14.8,269.7
				s-4.6,40.3-5,101.2c-0.4,60.9,12,338.9,12,338.9h38.7l9.8-1.3v0.1c0,0-40-170.6-44.4-273.6c-4.3-102.9,21.9-182.7,21.9-182.7
				s-21.7-163.8-18.8-221.8C988.6,1778.7,1036.5,1730.8,1036.5,1730.8z"/>
			<path fill="#142640" d="M791.9,2146.9c-5.3,33.3-14.6,178.3-14.6,178.3l40.5-48.8c3.8-16.1,7.2-29.5,9.9-38.1
				c10.9-34.8,11.1-54.1,15.5-81.7C819.2,2167.5,791.9,2146.9,791.9,2146.9z"/>
		</g>
		<path fill="#142640" d="M870.8,1642.4c0,0,0-39.1-40.2-80.5l-14.5-25.4l-31.4,61.3l10.3,38l29.2-60.7
			C857.7,1604,870.8,1642.4,870.8,1642.4z"/>
		<path fill="#142640" d="M1075.3,1237.9c0,0,3.3,21.7,12,29.4C1087.2,1267.2,1088.3,1254.2,1075.3,1237.9z"/>
		<path fill="#142640" d="M1108.4,1352c4.3,12,3.6,29.9,3.6,29.9S1123.7,1363.4,1108.4,1352z"/>
	</g>
</g>
<g id="CS">
	<g>
		<g>
			<path fill="#4DACA8" d="M2183.9,1688.3l-458.1-26.6c-19-1.1-33.8-15.5-33.8-32.8v-1060c0-17.2,14.5-31.5,33.3-32.8l458.5-32
				c20.9-1.5,56,12.4,56,31.6v1120.8C2239.9,1675.5,2204.7,1689.5,2183.9,1688.3z"/>
			<path fill="#2A343E" d="M2177.3,1689.3l-453-27.6c-18.1-1.1-32.2-15.5-32.2-32.8v-1060c0-17.2,13.8-31.5,31.7-32.8l453-33.2
				c19.9-1.5,37,13.6,37,32.8v1120.8C2213.8,1675.5,2197.1,1690.5,2177.3,1689.3z"/>
			<path fill="#5BB8B3" d="M2150,1584.4l-420.3-26.8c-16.8-1.1-29.8-15-29.8-31.8V585.4c0-16.7,12.8-30.5,29.4-31.8l420.3-32.1
				c18.5-1.4,34.3,13.2,34.3,31.8v999.3C2183.9,1570.9,2168.4,1585.5,2150,1584.4z"/>
			<path fill="#77C5C0" d="M2149.3,521.5l-132.5,10.1c-32.9,2.5-60,26.8-66.2,59.2l-154.4,815.7c-15.4,81.5,44,158.1,126.8,163.4
				l226.6,14.4c18.4,1.2,33.6-13.4,33.6-31.8V553.3C2183.3,534.7,2167.8,520.1,2149.3,521.5z"/>
			<path fill="#2F4758" d="M1808.3,1598.1l-62.2-4.7c-9.6-0.7-17.9,6.5-18.7,16v0c-0.7,9.6,6.5,17.9,16,18.7l62.2,4.7
				c9.6,0.7,17.9-6.5,18.7-16C1825.1,1607.2,1817.9,1598.9,1808.3,1598.1z"/>
			<path fill="#2F4758" d="M2123.1,1616.7l-62.3-2.6c-9.6-0.4-17.7,7.1-18.1,16.7v0c-0.4,9.6,7.1,17.7,16.7,18.1l62.3,2.6
				c9.6,0.4,17.7-7.1,18.1-16.7C2140.2,1625.2,2132.7,1617.1,2123.1,1616.7z"/>
			<path fill="#2F4758" d="M1964.4,1610.1l-62.3-2.6c-9.6-0.4-17.7,7.1-18.1,16.7v0c-0.4,9.6,7.1,17.7,16.7,18.1l62.3,2.6
				c9.6,0.4,17.7-7.1,18.1-16.7C1981.4,1618.6,1974,1610.5,1964.4,1610.1z"/>
		</g>
		<g>
			<path fill="#FFC486" d="M1993.5,955.1c8.5,12-6.4,27.8-4,36.4c2.3,8.7,13,25.7,15,27.1c2,1.4,6.2-3.4,6.2-3.4s13.6,6.2,16.7,0.7
				c3.1-5.4,1.5-9.5,4.6-15c3.2-5.5,8.9-1.8,3.1-12.3c-5.8-10.5-27.4-47.6-27.4-47.6S1995.1,941.2,1993.5,955.1z"/>
			<path fill="#FFC486" d="M1365.4,542.5l-4.9-24.6c0,0,19.7-22.7,20.9-34c1.2-11.2-17.8-24.3-24.1-33.3c-6.2-9-12,4.2-1.3,14.4
				c10.7,10.3,10.5,17.8,10.5,17.8l-9.3-1.1c0,0-69.6-44.7-81.1-42c-11.6,2.7,46,40.4,46,40.4s-14.4,22.3-6.8,35.5
				c7.6,13.2,30.9,21.4,30.9,21.4L1365.4,542.5z"/>
			<path fill="#AC3A21" d="M1908.7,575.4c34.6,128.7,95.2,93.6,128.8,163.2S1910,950.4,1729.8,970.8S1558,660.7,1592.5,572
				S1908.7,575.4,1908.7,575.4z"/>
			<path fill="#C9EADF" d="M1753.9,906.5l-20-36.1c0,0-116.2,3.5-238.6-127.5s-117.1-211.1-117.1-211.1l-31.9,5.3
				c0,0,17.9,189.2,91.4,263.4c73.5,74.2,266.6,139.9,266.6,139.9S1752.8,949.4,1753.9,906.5z"/>
			<path fill="#B9DCCB" d="M1719.4,931.8c0,0-193.1-65.7-266.6-139.9c-65.8-66.5-87-225.2-90.7-257.6l-15.8,2.6
				c0,0,17.9,189.2,91.4,263.4c73.5,74.2,266.6,139.9,266.6,139.9s26.2,4.9,40.5-9.5C1732.2,934.2,1719.4,931.8,1719.4,931.8z"/>
			<path fill="#C9EADF" d="M1855.9,842.4c0,0,17.3-32.3,53.2-48.3s98.5,147,98.5,147l-14.2,14.1l-67.7-93c0,0-45.6,23.6-41,65.4
				C1889.4,969.3,1840.2,891,1855.9,842.4z"/>
			<path fill="#1B514A" d="M1781.2,870.5c-14.9-4.5-47.4-0.2-47.4-0.2s-4.2,42.7-29.6,69.9c0,0,77.9,227.9,142.4,290.3
				c36.3,13.1,128.5-40.7,96.9-134.5c0,0-22.4-40.5-18.7-65.2c3.7-24.7,14.1-30.5-19.6-80.2c-33.8-49.7-49.2-108.2-49.2-108.2
				S1839.3,849.8,1781.2,870.5z"/>
			<path fill="#C9EADF" d="M1756,868.6c0.1,16.4,3.6,48.5,26.6,77.9c32.6,41.6,104.5-1.3,40.8-91.3l0,0c-10.7,4-24.5,9.1-42.2,15.4
				C1774.7,868.6,1765,868.3,1756,868.6z"/>
			<path fill="#FFC486" d="M1762.7,827c0,0,24.1,96.1,49,88.4c25-7.6,4-126.1,4-126.1L1762.7,827z"/>
			<path fill="#FF9778" d="M1818.8,809.5c-1.7-12.1-3.1-20.2-3.1-20.2l-53,37.7c0,0,5,20.1,12.9,41.2
				C1790.1,850.2,1805.8,828.4,1818.8,809.5z"/>
			<path fill="#9FD9CE" d="M1875.3,595.9c30.2-43.8-22.5-90.9-22.5-90.9s52.6-6.8,70.8,34.9c18.2,41.7-33.6,74.5-33.6,74.5
				L1875.3,595.9z"/>
			<path fill="#FFC486" d="M1604.9,572.1c-34,100.1,18.2,152.4,18.2,152.4s-27.3,37.5-9.1,64.3c18.2,26.8,85.5,82.3,115,75.9
				c29.6-6.5,131.3-115.9,131.3-115.9l-2.9-38.2c0,0,39.7-12.1,27.8-48.6s-36.2-5.4-36.2-5.4s28.9-19.6-40.6-79.2
				C1738.9,517.7,1604.9,572.1,1604.9,572.1z"/>
			<path fill="#AC3A21" d="M1856.7,503c0,0,18.7,2.9,32.6,37.4c13.9,34.6-47.4,71.5-47.4,71.5s-88.7-50.6-125.9-54.9
				c-37.3-4.3-59.7,21.9-59.7,21.9s-18.6-6.7-35-6.7c-16.4,0-21.8,18-21.8,18s-74.1-5.9-67.2-83.1S1702.1,330.4,1856.7,503z"/>
			
				<ellipse transform="matrix(0.9982 5.933631e-02 -5.933631e-02 0.9982 42.4842 -108.7447)" fill="#004E55" cx="1852.3" cy="661" rx="48.6" ry="77.7"/>
			<path fill="#004E55" d="M1847.4,714.6c-3.4,0-6.2,2.7-6.3,6.1l0,0c-0.1,8.6-1.8,16.3-4.5,23.4c-4.1,10.6-10.6,19.6-18,27.2
				c-7.4,7.6-15.7,13.6-23,18.2c-2.9,1.8-3.8,5.6-2,8.5c1.8,2.9,5.6,3.8,8.5,2c10.7-6.6,23.2-16.1,33.3-29.2
				c5.1-6.5,9.5-13.9,12.7-22.2c3.2-8.3,5.2-17.6,5.3-27.6C1853.5,717.5,1850.8,714.7,1847.4,714.6z"/>
			<path fill="#FF865E" d="M1666.9,737.7c-4.3-31.8,6.9-38.4,18.7-29c11.8,9.4,30.2,24.5,22.7,25.9
				C1700.8,736.1,1666.9,737.7,1666.9,737.7z"/>
			<path fill="#DA3330" d="M1680.5,762.3c32.5,1.9,80.2-19.6,80.2-19.6s1.3,85.8-37.3,96.9C1684.8,850.8,1680.5,762.3,1680.5,762.3z
				"/>
			<path fill="#FF3039" d="M1699.9,831.6c5.9,7.1,13.6,10.9,23.5,8c25.8-7.5,33.8-48.2,36.2-74.5
				C1737.6,774.7,1708.3,809,1699.9,831.6z"/>
			
				<ellipse transform="matrix(0.9948 -0.1018 0.1018 0.9948 -57.6011 181.8233)" fill="#2B0000" cx="1752" cy="655.1" rx="13" ry="27.2"/>
			
				<ellipse transform="matrix(0.9948 -0.1018 0.1018 0.9948 -62.3128 170.9104)" fill="#2B0000" cx="1642.8" cy="695.8" rx="13" ry="27.2"/>
			
				<ellipse transform="matrix(0.9982 5.933631e-02 -5.933631e-02 0.9982 42.4174 -109.4367)" fill="#2C6872" cx="1863.9" cy="659.5" rx="48.6" ry="77.7"/>
			<path fill="#3D7C85" d="M1886.7,604.8c-12.8-10.2-32.2-4.9-37.9,10.4c-5.7,15.2-2.3,33.1-1.9,37.7c0.5,7,12.6-20.1,30.9-6
				c5.2,4,8.2,8.4,9.9,12.6c1.8,4.4,8.1,4,9.5-0.5C1902,643.1,1904.3,618.8,1886.7,604.8z"/>
			
				<ellipse transform="matrix(0.9996 2.997736e-02 -2.997736e-02 0.9996 21.1714 -55.7081)" fill="#3D7C85" cx="1868.5" cy="678.2" rx="10.9" ry="18.6"/>
			<path fill="#2B0000" d="M1805.4,805.2c-13.3,8.2-23.8,12.1-24.4,12.3c-6.4,2.3-13.8-1-16.1-7.4c-2.3-6.4,1.1-13.5,7.1-15.8v0
				l0.3,0l0.4-0.1c0.2-0.1,0.6-0.2,1.1-0.4c1-0.4,2.4-1.1,4.2-1.9c3.6-1.7,8.7-4.8,14.4-7.8h0c5.8-4,13.4-1.7,17,4.1
				C1813,793.9,1811.2,801.6,1805.4,805.2z"/>
			<path fill="#2B0000" d="M1752.5,589.8c-0.5-0.4-1.1-1-2.1-1.6c-0.9-0.6-2.1-1.3-3.5-1.9c-1.4-0.6-3.1-1-4.9-1.4
				c-1.8-0.2-3.9-0.5-6-0.3c-2.2,0.1-4.3,0.5-6.6,1.1c-1.2,0.2-2.2,0.7-3.3,1.2c-1.1,0.5-2.2,0.9-3.3,1.5c-2,1.2-4.2,2.5-5.9,4
				c-1.7,1.6-3.6,3.2-4.9,5c-0.7,0.9-1.4,1.8-2,2.7c-0.7,0.9-1.2,1.8-1.7,2.8c-1,1.9-1.9,3.7-2.5,5.7c-0.6,1.9-1.1,3.8-1.4,5.5
				c-0.1,0.9-0.3,1.7-0.3,2.5c0,0.8,0,1.5,0,2.2c0,1.4,0.2,2.6,0.3,3.7c0.1,1,0.3,1.9,0.4,2.5c0.1,0.6,0.2,0.9,0.2,0.9l1.1,0.6
				c0,0,0.5-0.9,1.4-2.3c0.9-1.5,2-3.7,3.7-6.1c0.8-1.2,1.7-2.5,2.6-3.9c0.9-1.4,2.1-2.7,3.2-4.1c1.1-1.5,2.5-2.8,3.8-4.1
				c1.3-1.4,2.8-2.6,4.2-3.9l1.1-1l1.2-0.9c0.8-0.6,1.5-1.1,2.3-1.7c1.6-1,3.2-2,4.8-2.8c1.6-0.8,3.2-1.5,4.8-2
				c1.5-0.6,3.1-0.9,4.5-1.3c1.4-0.2,2.7-0.5,3.9-0.6c1.2-0.2,2.2-0.2,3-0.2c0.8,0,1.5,0,1.9,0.1c0.4,0,0.7,0.1,0.7,0.1l0.2-1.2
				C1753.2,590.5,1752.9,590.2,1752.5,589.8z"/>
			<path fill="#2B0000" d="M1649.5,640.2c0-0.5,0-1.3-0.1-2.2c-0.1-0.5-0.1-1-0.2-1.5c-0.1-0.6-0.3-1.1-0.6-1.8
				c-0.5-1.2-1.2-2.7-1.9-4c-0.8-1.3-1.8-2.7-3-4c-0.6-0.7-1.2-1.3-1.9-1.9c-0.7-0.6-1.4-1.1-2.1-1.7c-0.7-0.6-1.5-1.1-2.4-1.5
				c-0.8-0.5-1.7-0.9-2.5-1.3c-1.8-0.8-3.6-1.4-5.5-1.9l-2.9-0.6c-1-0.2-2-0.2-3-0.2c-0.5,0-1-0.1-1.5-0.1l-1.5,0.1
				c-1,0.1-2,0.1-2.9,0.3c-2,0.4-3.8,0.9-5.5,1.6c-0.9,0.4-1.7,0.7-2.5,1.2c-0.8,0.5-1.5,1-2.2,1.5c-1.4,1-2.5,2.3-3.4,3.4
				c-0.9,1.2-1.4,2.4-1.8,3.3c-0.4,1-0.4,1.9-0.5,2.4c-0.1,0.5,0,0.8,0,0.8l0.9,0.8c0,0,0.6-0.5,1.6-1.3c0.6-0.4,1.3-0.7,2.1-1.1
				c0.9-0.3,1.9-0.7,3-0.9c1.1-0.2,2.4-0.5,3.7-0.6c1.3-0.2,2.8-0.1,4.2-0.1c1.5,0.1,3,0.1,4.5,0.4c0.8,0.1,1.5,0.3,2.3,0.4l2.3,0.5
				c1.6,0.3,3.1,0.8,4.6,1.3c1.5,0.6,2.9,1,4.3,1.7c0.7,0.3,1.3,0.6,2,0.9c0.6,0.3,1.3,0.6,1.9,1c1.2,0.6,2.3,1.3,3.3,1.9
				c1,0.6,1.9,1.3,2.7,1.8c0.8,0.5,1.5,1.1,2,1.6c1.1,0.9,1.7,1.5,1.7,1.5l0.9-0.9C1649.5,641,1649.5,640.7,1649.5,640.2z"/>
			<path fill="#FF9778" d="M1343.7,501c3.6-9.2,22.8-18.3,22.8-18.3l-9.3-1.1c0,0-1.2-0.7-3.2-2c-31.9,17.3-7.3,39.2-7.3,39.2
				S1340.1,510.2,1343.7,501z"/>
		</g>
		<g>
			<ellipse fill="#BCE6E0" cx="1917.8" cy="1393" rx="64.6" ry="96.1"/>
			<g>
				<g>
					<path fill="#1B514A" d="M1879.2,1356.9c0,0-6.1,46.5,31.3,86.5l22.6,0.5l2.6-2.2l-14.3-21.4l-7.5,2.4l-19.1-49.9l7.5-5
						l-2.7-25.6h-3.4L1879.2,1356.9z"/>
					<polygon fill="#1B514A" points="1904.8,1342.1 1907.2,1366.5 1912.4,1365 1911,1342.7 					"/>
					<polygon fill="#1B514A" points="1925.2,1418.1 1940.3,1439.1 1944.1,1435.3 1930.9,1415.7 					"/>
				</g>
			</g>
		</g>
		<g>
			<path fill="#BCE6E0" d="M1847.8,1342c0.7-1.2,1.4-2.5,2.1-3.8c0.7-1.3,1.4-2.7,2.3-4c1.6-2.7,3.2-5.6,5.1-8.4
				c1-1.4,1.8-2.9,2.8-4.3c1-1.4,2-2.8,3-4.3c1-1.4,2.2-2.7,3.3-4.2l1.6-2.1l1.8-2c1.2-1.3,2.3-2.7,3.5-3.9c1.3-1.2,2.5-2.5,3.7-3.7
				c2.6-2.2,5.1-4.7,7.8-6.5c2.6-2.1,5.3-3.7,7.8-5.4c1.3-0.8,2.6-1.4,3.9-2.2c1.3-0.7,2.5-1.4,3.7-1.9c2.5-1.1,4.7-2.2,6.9-2.9
				c2.1-0.7,4-1.6,5.6-1.9c3.2-0.9,5.1-1.5,5.1-1.5s-1.9-0.4-5.3-0.9c-1.7-0.3-3.8-0.3-6.2-0.3c-2.5-0.1-5.2,0.3-8.1,0.7
				c-1.5,0.2-3,0.6-4.6,1c-1.6,0.4-3.2,0.9-4.9,1.5c-3.2,1.3-6.7,2.7-9.9,4.7c-1.7,0.9-3.3,1.9-4.9,3.1c-1.6,1.2-3.2,2.3-4.7,3.6
				c-1.5,1.3-3,2.7-4.5,4c-1.5,1.4-2.8,2.9-4.1,4.4l-2,2.3l-1.8,2.4c-1.2,1.6-2.4,3.2-3.4,4.9c-2.1,3.4-4.1,6.7-5.6,10.1
				c-1.7,3.3-2.9,6.7-4,9.9c-1.2,3.2-1.8,6.3-2.6,9.2c-0.7,2.9-1,5.6-1.4,7.9c-0.4,2.4-0.4,4.4-0.5,6.1c-0.1,1.7-0.1,3-0.1,3.9
				c0,0.9,0,1.4,0,1.4s0.2-0.4,0.7-1.2c0.4-0.8,1.1-2,1.8-3.5c0.7-1.5,1.6-3.4,2.7-5.4C1845.4,1346.8,1846.5,1344.5,1847.8,1342z"/>
			<path fill="#BCE6E0" d="M1994.9,1340.6c-3.3-8.2-7.3-15.4-11.3-21.4c-1.9-3-4-5.7-5.9-8.1c-2.1-2.3-3.8-4.5-5.7-6.3
				c-0.9-0.9-1.8-1.8-2.6-2.6c-0.8-0.8-1.7-1.5-2.4-2.1c-1.5-1.3-2.8-2.4-3.9-3.2c-2.2-1.6-3.4-2.4-3.4-2.4s1,1,2.9,3
				c1,0.9,2.1,2.2,3.3,3.7c1.3,1.4,2.7,3.2,4.2,5.2c1.6,1.9,3,4.3,4.7,6.8c1.5,2.6,3.3,5.3,4.8,8.4c3.2,6.1,6.1,13.3,8.7,21.3
				c2.5,8.1,4.3,17,5.5,26.6c1.1,9.6,1.3,19.6,0.8,30.2c-0.3,5.1-0.9,10.4-1.7,15.7c-0.9,5.3-2.1,10.6-3.4,15.8
				c-2.9,10.5-6.9,20.8-12.5,30.2c-5.4,9.5-12.2,18.1-20.3,24.8c-8.1,6.7-17.3,11.7-26.9,13.9c-4.8,1.1-9.7,1.6-14.5,1.5
				c-1.3,0-2.7,0-3.8-0.1c-1.1-0.1-2.2-0.3-3.4-0.4c-1.1-0.1-2.3-0.3-3.4-0.6c-1.1-0.2-2.3-0.5-3.4-0.7c-8.9-2.4-16.8-6.6-23.5-11.5
				c-6.6-5-12-10.5-16.4-15.8c-1.1-1.4-2.1-2.7-3.1-3.9c-0.9-1.3-1.8-2.6-2.7-3.8c-1.8-2.4-3.1-4.9-4.4-7c-2.5-4.3-4.4-7.8-5.5-10.3
				c-1.2-2.4-1.8-3.7-1.8-3.7s0.4,1.4,1.2,4c0.7,2.6,2,6.4,3.9,11.1c1.1,2.3,2.1,5,3.6,7.7c0.7,1.4,1.4,2.8,2.3,4.3
				c0.9,1.4,1.8,2.9,2.7,4.4c3.9,6,9,12.6,15.7,18.5c6.7,6,15.2,11.5,25.3,14.8c1.3,0.4,2.6,0.7,3.9,1.1c1.3,0.4,2.6,0.7,4,0.9
				c1.4,0.2,2.8,0.5,4.2,0.7c1.4,0.2,2.6,0.2,3.9,0.4c5.6,0.5,11.4,0.1,17.2-1c11.5-2.2,22.9-7.5,32.3-15.3
				c9.5-7.7,17.3-17.4,23.4-27.8c6.1-10.5,10.3-21.9,13.3-33.4c3-11.5,4.2-23,4.5-34.3c0.3-11-0.7-21.9-2.5-31.9
				C2001,1358.1,1998.2,1348.8,1994.9,1340.6z"/>
			<path fill="#BCE6E0" d="M1877.8,1256.6c9.4-1,19.3-3.1,28.9-6.8c9.6-3.6,18.7-8.9,26.9-15.2c8.2-6.4,15.4-14,21.3-22.3
				c6-8.2,10.7-17.1,14.2-26c3.5-8.9,5.8-18,7.1-26.7c1.3-8.7,1.4-17,0.8-24.6c-0.6-7.6-2-14.4-3.7-20.3c-0.9-2.9-1.8-5.7-2.9-8.1
				c-0.9-2.5-2.1-4.6-3-6.6c-0.9-2-2-3.6-2.9-5.1c-0.8-1.5-1.7-2.6-2.3-3.6c-1.3-1.9-2.1-2.9-2.1-2.9s0.5,1.1,1.4,3.2
				c1,2.1,2.2,5.2,3.5,9.2c0.6,2,1.4,4.2,1.9,6.7c0.6,2.5,1.1,5.2,1.7,8c0.9,5.8,1.4,12.3,1.3,19.5c-0.3,14.2-3.6,30.8-10.8,46.8
				c-3.6,8-8.2,15.9-13.8,23.1c-5.6,7.3-12,14-19.3,19.7c-7.3,5.7-15.3,10.3-23.7,13.8c-8.4,3.5-17.1,5.7-26,7.1
				c-8.5,1.3-17.1,1.8-25,0.9c-7.9-0.9-15.2-2.9-21.4-6c-6.2-3-11.4-7-15.5-11c-4-4.1-7.2-8.2-9.4-11.7c-2.2-3.6-3.8-6.6-4.7-8.7
				c-0.9-2.1-1.3-3.3-1.3-3.3s0.1,1.2,0.7,3.5c0.6,2.3,1.5,5.6,3.2,9.6c1.7,4,4.3,8.8,8.1,13.7c3.8,4.9,8.9,10,15.6,14.1
				c6.6,4.2,14.7,7.3,23.4,9C1858.7,1257.5,1868.1,1257.6,1877.8,1256.6z"/>
			<path fill="#BCE6E0" d="M1951.6,1057.4c1,0.5,1.9,1.2,3,1.8c0.5,0.3,1.1,0.6,1.6,1c0.5,0.4,1.1,0.8,1.6,1.1
				c4.4,3,9.1,7.3,13.2,12.6c1,1.3,2.1,2.7,3,4.1c0.5,0.7,1,1.4,1.4,2.2l1.3,2.3c1.8,3,3.2,6.3,4.6,9.6c1.3,3.3,2.5,6.7,3.4,10.1
				c1,3.4,1.7,6.8,2.3,10.1c0.5,3.3,1.1,6.5,1.4,9.6c0.4,3.1,0.6,6,0.7,8.7c0.1,2.7,0.2,5.2,0.2,7.4c0,2.2,0,4.1,0,5.7
				c-0.1,3.2-0.3,5-0.3,5s0.3-0.4,0.8-1.2c0.4-0.8,1.2-2,1.9-3.6c0.7-1.6,1.6-3.5,2.3-5.8c0.8-2.3,1.5-4.8,2.1-7.7
				c0.6-2.9,1.1-6,1.4-9.4c0.3-3.4,0.3-6.9,0.1-10.6c-0.1-1.9-0.3-3.7-0.5-5.6c-0.3-1.9-0.5-3.8-1-5.8c-0.8-3.9-2.1-7.8-3.5-11.6
				c-1.6-3.8-3.4-7.5-5.7-11c-0.6-0.9-1.1-1.7-1.7-2.6c-0.6-0.8-1.3-1.6-1.9-2.4c-1.2-1.6-2.6-3.1-4-4.5c-2.8-2.8-5.8-5.2-8.8-7.2
				c-3-1.9-6.1-3.5-9-4.5c-2.8-1.2-5.6-1.7-8-2.2c-2.5-0.4-4.7-0.6-6.4-0.6c-1.7,0-3.1,0.2-4,0.2c-0.9,0.1-1.4,0.2-1.4,0.2l0,0.1
				c0,0,1.7,0.7,4.6,1.9C1948,1055.5,1949.7,1056.4,1951.6,1057.4z"/>
			<path fill="#BCE6E0" d="M2013.4,1334.1c-0.1-1.5,0-3.9-0.3-6.8c-0.2-1.5-0.4-3.1-0.7-4.8c-0.1-0.9-0.2-1.8-0.5-2.7
				c-0.2-0.9-0.5-1.9-0.7-2.9c-0.6-2-1-4.2-1.8-6.4c-0.8-2.2-1.6-4.5-2.6-6.8c-1.1-2.3-2.1-4.8-3.4-7.2c-1.3-2.4-2.7-5-4.4-7.4
				c-1.6-2.5-3.4-5-5.3-7.4c-1.8-2.5-4-4.8-6.2-7.2c-2.2-2.3-4.5-4.7-7-6.9c-1.2-1.1-2.5-2.2-3.7-3.3c-1.3-1-2.6-2.1-3.9-3.1
				c-2.7-2-5.4-4.1-8.3-5.9c-2.4-1.5-5-3.2-7.4-4.5c1.9-1.6,3.7-3.2,5.3-4.9c2.5-2.5,4.7-5.1,6.7-7.8c4.1-5.3,7.2-10.9,9.8-16.3
				c1.3-2.7,2.3-5.4,3.3-7.9c0.8-2.6,1.7-5.1,2.4-7.6c1.4-4.8,2.3-9.4,2.9-13.4c0.7-4,0.9-7.5,1.1-10.4c0.3-2.9,0.1-5.1,0.2-6.7
				c0-1.5,0-2.4,0-2.4l-0.1,0c0,0-0.2,0.8-0.6,2.2c-0.4,1.4-1,3.6-1.8,6.2c-0.9,2.7-1.9,5.9-3.2,9.5c-0.6,1.8-1.4,3.8-2.2,5.8
				c-0.8,2-1.7,4.1-2.6,6.3c-1.9,4.4-4.2,9-7.1,13.7c-2.8,4.7-6.1,9.4-10,13.9c-3.9,4.5-8.4,8.6-13.5,12.3c-2.9,2-4.5,5.8-4,9.4
				c0.2,1.8,1,3.5,2.1,4.9c1.1,1.4,2.9,2.4,4.2,3.1c5.6,3,11,6.4,16.1,10c5.1,3.6,9.9,7.6,14.3,11.6c2.1,2.1,4.3,4.1,6.2,6.2
				c1,1.1,2,2.1,2.9,3.1c0.9,1.1,1.8,2.1,2.7,3.2c3.5,4.2,6.4,8.5,8.9,12.5c2.4,4.1,4.6,7.9,6.2,11.5c0.4,0.9,0.8,1.7,1.2,2.5
				c0.4,0.8,0.7,1.7,1,2.4c0.6,1.6,1.2,3,1.7,4.3c0.9,2.6,1.5,4.8,1.9,6.2c0.4,1.4,0.7,2.2,0.7,2.2S2013.4,1335.6,2013.4,1334.1z
				 M1954.9,1252.4L1954.9,1252.4c-0.1,0.1-0.3,0.2-0.5,0.4C1954.6,1252.7,1954.8,1252.5,1954.9,1252.4z M1954.1,1253.2l0.4-0.4
				l0.2-0.2l0.1-0.1l0,0C1954.7,1252.8,1954.4,1253.1,1954.1,1253.2z"/>
		</g>
	</g>
	<g>
		<path fill="#048989" d="M1580.3,246.6c0-95-77-172.1-172.1-172.1s-172.1,77-172.1,172.1c0,95,77,172.1,172.1,172.1
			c7.3,0,14.4-0.5,21.4-1.4c19.2,25,48.2,38.9,69.1,46.1c5.8,2,10.7-4.6,7-9.5c-7.5-10.1-16.2-26.1-24.1-51.6
			C1540,374.7,1580.3,315.4,1580.3,246.6z"/>
		<g>
			<g>
				<circle fill="#B0DBD9" cx="1328" cy="251.9" r="15.9"/>
				<circle fill="#B0DBD9" cx="1382.4" cy="251.9" r="15.9"/>
				<circle fill="#B0DBD9" cx="1436.8" cy="251.9" r="15.9"/>
				<circle fill="#B0DBD9" cx="1491.2" cy="251.9" r="15.9"/>
			</g>
		</g>
	</g>
</g>
</svg>
