<?xml version="1.0" encoding="UTF-8" standalone="no"?>
<!-- Generator: Adobe Illustrator 21.1.0, SVG Export Plug-In . SVG Version: 6.00 Build 0)  -->

<svg
   xmlns:dc="http://purl.org/dc/elements/1.1/"
   xmlns:cc="http://creativecommons.org/ns#"
   xmlns:rdf="http://www.w3.org/1999/02/22-rdf-syntax-ns#"
   xmlns:svg="http://www.w3.org/2000/svg"
   xmlns="http://www.w3.org/2000/svg"
   xmlns:sodipodi="http://sodipodi.sourceforge.net/DTD/sodipodi-0.dtd"
   xmlns:inkscape="http://www.inkscape.org/namespaces/inkscape"
   version="1.1"
   id="Layer_1"
   x="0px"
   y="0px"
   viewBox="0 0 1400 980"
   style="enable-background:new 0 0 1400 980;"
   xml:space="preserve"
   sodipodi:docname="4_call_center.svg"
   inkscape:version="0.92.3 (2405546, 2018-03-11)"><metadata
   id="metadata678"><rdf:RDF><cc:Work
       rdf:about=""><dc:format>image/svg+xml</dc:format><dc:type
         rdf:resource="http://purl.org/dc/dcmitype/StillImage" /><dc:title></dc:title></cc:Work></rdf:RDF></metadata><defs
   id="defs676" /><sodipodi:namedview
   pagecolor="#ffffff"
   bordercolor="#666666"
   borderopacity="1"
   objecttolerance="10"
   gridtolerance="10"
   guidetolerance="10"
   inkscape:pageopacity="0"
   inkscape:pageshadow="2"
   inkscape:window-width="1920"
   inkscape:window-height="1017"
   id="namedview674"
   showgrid="false"
   inkscape:zoom="0.86530612"
   inkscape:cx="700"
   inkscape:cy="608.28717"
   inkscape:window-x="-8"
   inkscape:window-y="-8"
   inkscape:window-maximized="1"
   inkscape:current-layer="g671" />
<style
   type="text/css"
   id="style345">
	.st0{fill:#F7F7F7;}
	.st1{fill:#D1943D;}
	.st2{fill:#E25D5D;}
	.st3{fill:#EFEFEF;}
	.st4{fill:#FFE5C5;}
	.st5{fill:#F7C997;}
	.st6{fill:#DBDBDB;}
	.st7{fill:#48453E;}
	.st8{fill:#4A4742;}
	.st9{fill:none;stroke:#48453E;stroke-width:7;stroke-miterlimit:10;}
	.st10{fill:none;stroke:#48453E;stroke-width:20;stroke-linecap:round;stroke-linejoin:round;stroke-miterlimit:10;}
	.st11{fill:#BC2F2F;}
	.st12{fill:#686460;}
	.st13{fill:#C93939;}
	.st14{fill:#9FF8FF;}
	.st15{fill:#71CCF4;}
	.st16{fill:#F4B822;}
	.st17{fill:#FFFFFF;}
	.st18{fill:#3CB3DD;}
	.st19{fill:#39A4C9;}
	.st20{font-family:'AlegreyaSans-Medium';}
	.st21{font-size:77.1849px;}
	.st22{fill:none;}
	.st23{font-family:'AlegreyaSans-Regular';}
	.st24{font-size:9.748px;}
</style>

<g
   id="g671">
	<g
   id="g655"
   transform="translate(-153.70283,-66.716981)">
		<g
   id="g525">
			<g
   id="g467">
				<g
   id="g406">
					<g
   id="g355">
						<path
   class="st1"
   d="M 818.4,434.5 H 817 c 0,0 0.5,0.2 1.4,0 z"
   id="path349"
   inkscape:connector-curvature="0"
   style="fill:#d1943d" />
						<path
   class="st1"
   d="m 998.9,434.5 h -1.4 c 0.9,0.2 1.4,0 1.4,0 z"
   id="path351"
   inkscape:connector-curvature="0"
   style="fill:#d1943d" />
						<path
   class="st1"
   d="m 984.9,353.6 c 0,-104.4 -68.5,-103.1 -76.9,-102.5 -8.4,-0.6 -76.9,-1.9 -76.9,102.5 0,70.4 -9.1,79.9 -12.7,80.9 h 88.7 1.7 88.7 c -3.5,-1 -12.6,-10.5 -12.6,-80.9 z"
   id="path353"
   inkscape:connector-curvature="0"
   style="fill:#d1943d" />
					</g>
					<path
   class="st2"
   d="M 1055.6,599 H 760 l 13.1,-111.2 c 8.3,-9.1 40.4,-20.1 72.2,-29.8 9.8,-3 19.5,-5.8 28.5,-8.5 0.1,0 0.3,-0.1 0.4,-0.1 h 67.7 c 10.3,3 21.5,6.4 32.7,9.8 30.4,9.4 60.1,19.8 68.1,28.6 z"
   id="path357"
   inkscape:connector-curvature="0"
   style="fill:#e25d5d" />
					<path
   class="st3"
   d="m 965.9,456.6 -24.3,67.9 -31.9,-34.9 -31.9,34.9 -24.7,-68.9 c 6.9,-2.1 13.7,-4.1 20.1,-6 0.2,-0.1 0.5,-0.1 0.7,-0.2 h 67.7 c 7.8,2.3 16,4.7 24.3,7.2 z"
   id="path359"
   inkscape:connector-curvature="0"
   style="fill:#efefef" />
					<polygon
   class="st4"
   points="941.6,449.9 941.6,381.8 874,381.8 874,449.9 910,585.2 "
   id="polygon361"
   style="fill:#ffe5c5" />
					<path
   class="st5"
   d="m 874,428.8 c 10,10.6 22,17.6 35.1,17.6 12,0 23.1,-5.9 32.6,-15.1 V 381.8 H 874 Z"
   id="path363"
   inkscape:connector-curvature="0"
   style="fill:#f7c997" />
					<polygon
   class="st6"
   points="910,489.4 909.8,489.6 909.6,489.4 909.7,489.2 "
   id="polygon365"
   style="fill:#dbdbdb" />
					<polygon
   class="st6"
   points="909.7,489.2 910,489.4 909.8,489.6 909.6,489.4 "
   id="polygon367"
   style="fill:#dbdbdb" />
					<polygon
   class="st6"
   points="910,489.4 909.8,489.6 909.6,489.4 909.7,489.2 "
   id="polygon369"
   style="fill:#dbdbdb" />
					<polygon
   class="st6"
   points="910,489.4 909.8,489.6 909.6,489.4 909.7,489.2 "
   id="polygon371"
   style="fill:#dbdbdb" />
					<polygon
   class="st7"
   points="910,489.4 909.8,489.6 909.6,489.4 909.7,489.2 "
   id="polygon373"
   style="fill:#48453e" />
					<g
   id="g380">
						<circle
   id="XMLID_3_"
   class="st4"
   cx="853"
   cy="363.29999"
   r="12.6"
   style="fill:#ffe5c5" />
						<path
   id="XMLID_5_"
   class="st4"
   d="m 957.3,317 c 0,0 1.1,11.6 6.4,22.7 v 22 c 0,30.3 -24.6,73.2 -54.9,73.2 -30.3,0 -54.9,-42.9 -54.9,-73.2 l 0.1,-22 3,-17.7 c 0,0 39.6,-13.3 51,-31.5 0.1,0 16,22.9 49.3,26.5 z"
   inkscape:connector-curvature="0"
   style="fill:#ffe5c5" />
						<path
   id="XMLID_6_"
   class="st8"
   d="M 843,357.9"
   inkscape:connector-curvature="0"
   style="fill:#4a4742" />
						<path
   id="XMLID_1_"
   class="st8"
   d="M 973.7,358.7"
   inkscape:connector-curvature="0"
   style="fill:#4a4742" />
						<circle
   id="XMLID_2_"
   class="st4"
   cx="964.79999"
   cy="363.29999"
   r="12.6"
   style="fill:#ffe5c5" />
					</g>
					<g
   id="g398">
						<g
   id="g386">
							<path
   class="st7"
   d="m 849.8,329.8 h -16.3 c -2.2,0 -3.9,1.8 -3.9,3.9 v 46.5 c 0,2.2 1.8,3.9 3.9,3.9 h 16.3 c 2.2,0 3.9,-1.8 3.9,-3.9 v -46.5 c 0,-2.2 -1.7,-3.9 -3.9,-3.9 z"
   id="path382"
   inkscape:connector-curvature="0"
   style="fill:#48453e" />
							<path
   class="st6"
   d="m 829.8,376.8 h -5.7 c -2.7,0 -4.9,-2.2 -4.9,-4.9 V 342 c 0,-2.7 2.2,-4.9 4.9,-4.9 h 5.7 z"
   id="path384"
   inkscape:connector-curvature="0"
   style="fill:#dbdbdb" />
						</g>
						<path
   class="st9"
   d="M 973.2,345.1 V 317 c 0,-34.6 -30.5,-62.6 -68.1,-62.6 v 0 c -37.6,0 -68.1,28 -68.1,62.6 v 28.1"
   id="path388"
   inkscape:connector-curvature="0"
   style="fill:none;stroke:#48453e;stroke-width:7;stroke-miterlimit:10" />
						<path
   class="st10"
   d="m 937.2,261.7 c -9.6,-4.7 -20.5,-7.4 -32.1,-7.4 v 0 c -11.6,0 -22.5,2.7 -32.1,7.4"
   id="path390"
   inkscape:connector-curvature="0"
   style="fill:none;stroke:#48453e;stroke-width:20;stroke-linecap:round;stroke-linejoin:round;stroke-miterlimit:10" />
						<g
   id="g396">
							<path
   class="st7"
   d="m 960.3,329.8 h 16.3 c 2.2,0 3.9,1.8 3.9,3.9 v 46.5 c 0,2.2 -1.8,3.9 -3.9,3.9 h -16.3 c -2.2,0 -3.9,-1.8 -3.9,-3.9 v -46.5 c -0.1,-2.2 1.7,-3.9 3.9,-3.9 z"
   id="path392"
   inkscape:connector-curvature="0"
   style="fill:#48453e" />
							<path
   class="st6"
   d="m 980.3,376.8 h 5.7 c 2.7,0 4.9,-2.2 4.9,-4.9 V 342 c 0,-2.7 -2.2,-4.9 -4.9,-4.9 h -5.7 z"
   id="path394"
   inkscape:connector-curvature="0"
   style="fill:#dbdbdb" />
						</g>
					</g>
					<path
   class="st11"
   d="m 910,585.2 -0.1,-0.1 -0.1,-0.1 -55.6,-58 6.6,-13.2 -16.2,6.6 c 0,0 0.4,-36.1 0.7,-62.4 9.8,-3 19.5,-5.8 28.5,-8.5 l 0.3,0.4 35.9,134.8 0.1,0.3 z"
   id="path400"
   inkscape:connector-curvature="0"
   style="fill:#bc2f2f" />
					<path
   class="st11"
   d="m 958.9,513.8 6.6,13.2 -55.6,58 -0.1,0.1 -0.1,0.1 0.1,-0.2 0.1,-0.3 31.8,-135.3 h 0.1 c 10.3,3 21.5,6.4 32.7,9.8 0.3,26.1 0.7,61.2 0.7,61.2 z"
   id="path402"
   inkscape:connector-curvature="0"
   style="fill:#bc2f2f" />
					<rect
   x="955.40002"
   y="568.79999"
   class="st11"
   width="51.599998"
   height="9.1000004"
   id="rect404"
   style="fill:#bc2f2f" />
				</g>
				<g
   id="g465">
					<g
   id="g414">
						<path
   class="st1"
   d="m 381.1,434.5 h -1.4 c 0,0 0.6,0.2 1.4,0 z"
   id="path408"
   inkscape:connector-curvature="0"
   style="fill:#d1943d" />
						<path
   class="st1"
   d="m 561.6,434.5 h -1.4 c 0.9,0.2 1.4,0 1.4,0 z"
   id="path410"
   inkscape:connector-curvature="0"
   style="fill:#d1943d" />
						<path
   class="st12"
   d="m 547.6,353.6 c 0,-104.4 -68.5,-103.1 -76.9,-102.5 -8.4,-0.6 -76.9,-1.9 -76.9,102.5 0,70.4 -9.1,168 -12.7,169.1 l 87.5,-87 c 0.8,-0.8 1.8,-1.2 2.9,-1.2 v 0 l 88.7,88.2 C 556.7,521.6 547.6,424 547.6,353.6 Z"
   id="path412"
   inkscape:connector-curvature="0"
   style="fill:#686460" />
					</g>
					<path
   class="st3"
   d="M 618.3,599 H 322.7 l 13.1,-111.2 c 8.3,-9.1 40.4,-20.1 72.2,-29.8 9.8,-3 19.5,-5.8 28.5,-8.5 0.1,0 0.3,-0.1 0.4,-0.1 h 67.7 c 10.3,3 21.5,6.4 32.7,9.8 30.4,9.4 60.1,19.8 68.1,28.6 z"
   id="path416"
   inkscape:connector-curvature="0"
   style="fill:#efefef" />
					<path
   class="st3"
   d="m 528.6,456.6 -24.3,67.9 -31.9,-34.9 -31.9,34.9 -24.5,-68.9 c 6.9,-2.1 13.7,-4.1 20.1,-6 0.2,-0.1 0.5,-0.1 0.7,-0.2 h 67.7 c 7.6,2.3 15.8,4.7 24.1,7.2 z"
   id="path418"
   inkscape:connector-curvature="0"
   style="fill:#efefef" />
					<polygon
   class="st4"
   points="504.3,449.9 504.3,381.8 436.7,381.8 436.7,449.9 472.7,585.2 "
   id="polygon420"
   style="fill:#ffe5c5" />
					<path
   class="st5"
   d="m 436.7,428.8 c 10,10.6 22,17.6 35.1,17.6 12,0 23.1,-5.9 32.6,-15.1 v -49.5 h -67.7 z"
   id="path422"
   inkscape:connector-curvature="0"
   style="fill:#f7c997" />
					<polygon
   class="st6"
   points="472.7,489.4 472.5,489.6 472.3,489.4 472.5,489.2 "
   id="polygon424"
   style="fill:#dbdbdb" />
					<polygon
   class="st6"
   points="472.5,489.2 472.7,489.4 472.5,489.6 472.3,489.4 "
   id="polygon426"
   style="fill:#dbdbdb" />
					<polygon
   class="st6"
   points="472.7,489.4 472.5,489.6 472.3,489.4 472.5,489.2 "
   id="polygon428"
   style="fill:#dbdbdb" />
					<polygon
   class="st6"
   points="472.7,489.4 472.5,489.6 472.3,489.4 472.5,489.2 "
   id="polygon430"
   style="fill:#dbdbdb" />
					<polygon
   class="st7"
   points="472.7,489.4 472.5,489.6 472.3,489.4 472.5,489.2 "
   id="polygon432"
   style="fill:#48453e" />
					<g
   id="g439">
						<circle
   id="XMLID_10_"
   class="st4"
   cx="415.70001"
   cy="363.29999"
   r="12.6"
   style="fill:#ffe5c5" />
						<path
   id="XMLID_9_"
   class="st4"
   d="m 523.1,322.1 c 0,0 -2,6.6 3.3,17.6 v 22 c 0,30.3 -24.6,73.2 -54.9,73.2 -30.3,0 -54.9,-42.9 -54.9,-73.2 l 0.1,-22 3,-17.7 42.8,1.1 11,-17 9.5,16.5 z"
   inkscape:connector-curvature="0"
   style="fill:#ffe5c5" />
						<path
   id="XMLID_8_"
   class="st8"
   d="M 405.8,357.9"
   inkscape:connector-curvature="0"
   style="fill:#4a4742" />
						<path
   id="XMLID_7_"
   class="st8"
   d="M 536.4,358.7"
   inkscape:connector-curvature="0"
   style="fill:#4a4742" />
						<circle
   id="XMLID_4_"
   class="st4"
   cx="527.5"
   cy="363.29999"
   r="12.6"
   style="fill:#ffe5c5" />
					</g>
					<g
   id="g457">
						<g
   id="g445">
							<path
   class="st7"
   d="m 412.5,329.8 h -16.3 c -2.2,0 -3.9,1.8 -3.9,3.9 v 46.5 c 0,2.2 1.8,3.9 3.9,3.9 h 16.3 c 2.2,0 3.9,-1.8 3.9,-3.9 v -46.5 c 0.1,-2.2 -1.7,-3.9 -3.9,-3.9 z"
   id="path441"
   inkscape:connector-curvature="0"
   style="fill:#48453e" />
							<path
   class="st6"
   d="m 392.5,376.8 h -5.7 c -2.7,0 -4.9,-2.2 -4.9,-4.9 V 342 c 0,-2.7 2.2,-4.9 4.9,-4.9 h 5.7 z"
   id="path443"
   inkscape:connector-curvature="0"
   style="fill:#dbdbdb" />
						</g>
						<path
   class="st9"
   d="M 535.9,345.1 V 317 c 0,-34.6 -30.5,-62.6 -68.1,-62.6 v 0 c -37.6,0 -68.1,28 -68.1,62.6 v 28.1"
   id="path447"
   inkscape:connector-curvature="0"
   style="fill:none;stroke:#48453e;stroke-width:7;stroke-miterlimit:10" />
						<path
   class="st10"
   d="m 499.9,261.7 c -9.6,-4.7 -20.5,-7.4 -32.1,-7.4 v 0 c -11.6,0 -22.5,2.7 -32.1,7.4"
   id="path449"
   inkscape:connector-curvature="0"
   style="fill:none;stroke:#48453e;stroke-width:20;stroke-linecap:round;stroke-linejoin:round;stroke-miterlimit:10" />
						<g
   id="g455">
							<path
   class="st7"
   d="m 523,329.8 h 16.3 c 2.2,0 3.9,1.8 3.9,3.9 v 46.5 c 0,2.2 -1.8,3.9 -3.9,3.9 H 523 c -2.2,0 -3.9,-1.8 -3.9,-3.9 v -46.5 c -0.1,-2.2 1.7,-3.9 3.9,-3.9 z"
   id="path451"
   inkscape:connector-curvature="0"
   style="fill:#48453e" />
							<path
   class="st6"
   d="m 543,376.8 h 5.7 c 2.7,0 4.9,-2.2 4.9,-4.9 V 342 c 0,-2.7 -2.2,-4.9 -4.9,-4.9 H 543 Z"
   id="path453"
   inkscape:connector-curvature="0"
   style="fill:#dbdbdb" />
						</g>
					</g>
					<path
   class="st6"
   d="m 472.7,585.2 -0.1,-0.1 -0.1,-0.1 -55.6,-58 6.6,-13.2 -16.2,6.6 c 0,0 0.4,-36.1 0.7,-62.4 9.8,-3 19.5,-5.8 28.5,-8.5 l 0.3,0.4 35.9,134.8 0.1,0.3 z"
   id="path459"
   inkscape:connector-curvature="0"
   style="fill:#dbdbdb" />
					<path
   class="st6"
   d="m 521.7,513.8 6.6,13.2 -55.6,58 -0.1,0.1 -0.1,0.1 0.1,-0.2 0.1,-0.3 31.8,-135.3 h 0.1 c 10.3,3 21.5,6.4 32.7,9.8 0.3,26.1 0.7,61.2 0.7,61.2 z"
   id="path461"
   inkscape:connector-curvature="0"
   style="fill:#dbdbdb" />
					<rect
   x="518.09998"
   y="568.79999"
   class="st6"
   width="51.599998"
   height="9.1000004"
   id="rect463"
   style="fill:#dbdbdb" />
				</g>
			</g>
			<g
   id="g523">
				<path
   class="st3"
   d="M 873.6,714.5 858.1,582.9 c -12.8,-14.2 -73.9,-32 -119.2,-45.4 h -80.1 c -45.3,13.4 -106.7,31.3 -119.5,45.4 l -15.5,131.6 z"
   id="path469"
   inkscape:connector-curvature="0"
   style="fill:#efefef" />
				<path
   class="st3"
   d="M 767.5,545.9 738.7,626.3 701,585 663.3,626.3 634.1,544.7 c 8.2,-2.5 16.2,-4.8 23.8,-7.1 0.3,-0.1 0.6,-0.2 0.8,-0.3 h 80.1 c 9.2,2.8 18.9,5.7 28.7,8.6 z"
   id="path471"
   inkscape:connector-curvature="0"
   style="fill:#efefef" />
				<polygon
   class="st4"
   points="738.7,538 738.7,457.5 658.7,457.5 658.7,538 701.3,584.8 "
   id="polygon473"
   style="fill:#ffe5c5" />
				<path
   class="st5"
   d="m 658.7,513.1 c 11.8,12.5 26.1,20.8 41.5,20.8 14.2,0 27.4,-7 38.6,-17.8 v -58.6 h -80.1 z"
   id="path475"
   inkscape:connector-curvature="0"
   style="fill:#f7c997" />
				<path
   class="st12"
   d="m 615.2,384.3 c 1.5,27.2 2,50 2,50 l 80.4,-0.4 v 0.1 l 76.6,0.4 c 0,0 2.1,-22.7 3.6,-49.9 2.4,-43.1 -32,-79.4 -75.1,-79.4 H 693 c -43.1,0 -80.1,36.1 -77.8,79.2 z"
   id="path477"
   inkscape:connector-curvature="0"
   style="fill:#686460" />
				<line
   id="XMLID_221_"
   class="st8"
   x1="776.70001"
   y1="430.10001"
   x2="622.09998"
   y2="429.20001"
   style="fill:#4a4742" />
				<circle
   id="XMLID_220_"
   class="st4"
   cx="633.79999"
   cy="435.60001"
   r="14.9"
   style="fill:#ffe5c5" />
				<circle
   id="XMLID_219_"
   class="st4"
   cx="766.09998"
   cy="435.60001"
   r="14.9"
   style="fill:#ffe5c5" />
				<path
   id="XMLID_218_"
   class="st4"
   d="m 764.9,407.6 c -6.3,-13.1 -12.2,-30.7 -12.2,-30.7 -6.2,2 -30.8,11.3 -54.8,11.6 -22.7,0.3 -44.9,-8.3 -50.7,-10.2 l -12,29.3 -0.1,26 c 0,35.9 29.1,86.6 64.9,86.6 35.9,0 64.9,-50.7 64.9,-86.6 z"
   inkscape:connector-curvature="0"
   style="fill:#ffe5c5" />
				<path
   class="st7"
   d="M 663.1,714.5 621.5,548.6 c -36.5,11.2 -72.7,23.8 -82.2,34.3 l -15.5,131.6 z"
   id="path483"
   inkscape:connector-curvature="0"
   style="fill:#48453e" />
				<path
   class="st7"
   d="M 873.6,714.5 858.1,582.9 c -9.5,-10.5 -45.6,-23 -82.2,-34.3 l -41.6,165.9 z"
   id="path485"
   inkscape:connector-curvature="0"
   style="fill:#48453e" />
				<path
   class="st6"
   d="m 701.3,584.8 -0.3,0.2 -38.7,20.7 -28.2,-61 c 8.2,-2.5 16.2,-4.8 23.8,-7.1 l 0.7,0.3 42.4,46.5 z"
   id="path487"
   inkscape:connector-curvature="0"
   style="fill:#dbdbdb" />
				<path
   class="st6"
   d="M 767.5,545.9 737.7,605.7 701,585 l -0.2,-0.3 0.2,-0.3 37.8,-47.1 h 0.1 c 9.1,2.8 18.8,5.7 28.6,8.6 z"
   id="path489"
   inkscape:connector-curvature="0"
   style="fill:#dbdbdb" />
				<polygon
   class="st6"
   points="701.3,584.8 701,585 700.8,584.8 701,584.5 "
   id="polygon491"
   style="fill:#dbdbdb" />
				<polygon
   class="st6"
   points="701,584.5 701.3,584.8 701,585 700.8,584.8 "
   id="polygon493"
   style="fill:#dbdbdb" />
				<polygon
   class="st6"
   points="701.3,584.8 701,585 700.8,584.8 701,584.5 "
   id="polygon495"
   style="fill:#dbdbdb" />
				<polygon
   class="st6"
   points="701.3,584.8 701,585 700.8,584.8 701,584.5 "
   id="polygon497"
   style="fill:#dbdbdb" />
				<polygon
   class="st7"
   points="701.3,584.8 701,585 700.8,584.8 701,584.5 "
   id="polygon499"
   style="fill:#48453e" />
				<polygon
   class="st2"
   points="701.3,584.8 701,585 700.8,584.8 701,584.5 "
   id="polygon501"
   style="fill:#e25d5d" />
				<polygon
   class="st13"
   points="701,585 730.5,601.7 715.1,631 685.1,631 669.7,601.8 "
   id="polygon503"
   style="fill:#c93939" />
				<polygon
   class="st2"
   points="721.4,714.5 715.1,631.1 685.5,631.1 677.6,714.5 "
   id="polygon505"
   style="fill:#e25d5d" />
				<g
   id="g511">
					<path
   class="st7"
   d="m 630.1,395.9 h -19.3 c -2.6,0 -4.7,2.1 -4.7,4.7 v 55 c 0,2.6 2.1,4.7 4.7,4.7 h 19.3 c 2.6,0 4.7,-2.1 4.7,-4.7 v -55 c -0.1,-2.7 -2.2,-4.7 -4.7,-4.7 z"
   id="path507"
   inkscape:connector-curvature="0"
   style="fill:#48453e" />
					<path
   class="st6"
   d="m 606.4,451.5 h -6.7 c -3.2,0 -5.8,-2.6 -5.8,-5.8 v -35.4 c 0,-3.2 2.6,-5.8 5.8,-5.8 h 6.7 z"
   id="path509"
   inkscape:connector-curvature="0"
   style="fill:#dbdbdb" />
				</g>
				<path
   class="st9"
   d="m 776.1,414 v -33.3 c 0,-40.9 -36.1,-74.1 -80.6,-74.1 v 0 c -44.5,0 -80.6,33.2 -80.6,74.1 V 414"
   id="path513"
   inkscape:connector-curvature="0"
   style="fill:none;stroke:#48453e;stroke-width:7;stroke-miterlimit:10" />
				<path
   class="st10"
   d="m 733.5,315.3 c -11.3,-5.6 -24.2,-8.7 -37.9,-8.7 v 0 c -13.7,0 -26.7,3.2 -38,8.7"
   id="path515"
   inkscape:connector-curvature="0"
   style="fill:none;stroke:#48453e;stroke-width:20;stroke-linecap:round;stroke-linejoin:round;stroke-miterlimit:10" />
				<g
   id="g521">
					<path
   class="st7"
   d="m 760.8,395.9 h 19.3 c 2.6,0 4.7,2.1 4.7,4.7 v 55 c 0,2.6 -2.1,4.7 -4.7,4.7 h -19.3 c -2.6,0 -4.7,-2.1 -4.7,-4.7 v -55 c 0,-2.7 2.1,-4.7 4.7,-4.7 z"
   id="path517"
   inkscape:connector-curvature="0"
   style="fill:#48453e" />
					<path
   class="st6"
   d="m 784.5,451.5 h 6.7 c 3.2,0 5.8,-2.6 5.8,-5.8 v -35.4 c 0,-3.2 -2.6,-5.8 -5.8,-5.8 h -6.7 z"
   id="path519"
   inkscape:connector-curvature="0"
   style="fill:#dbdbdb" />
				</g>
			</g>
		</g>
		<g
   id="g535">
			<path
   class="st2"
   d="m 671,168.5 c -1.3,29.5 -25.6,53 -55.4,53 -30.6,0 -55.5,-24.8 -55.5,-55.5 0,-26.6 18.8,-48.9 43.8,-54.2 v 17.1 L 655,99.4 603.9,69.9 v 16.5 c -39,5.5 -68.9,39.1 -68.9,79.6 0,44.5 36.1,80.6 80.6,80.6 43.7,0 79.2,-34.7 80.5,-78.1 z"
   id="path527"
   inkscape:connector-curvature="0"
   style="fill:#e25d5d" />
			<g
   id="g533">
				<path
   class="st12"
   d="m 598.5,143.9 c -2.8,0 -4.6,1.5 -4.6,5.6 v 6.1 h -8.5 v -5.5 c 0,-9.1 4.6,-14.3 13.4,-14.3 8.8,0 13.4,5.2 13.4,14.3 0,17.9 -17.8,24.6 -17.8,34 0,0.4 0,0.8 0.1,1.2 h 16.9 v 8.1 h -25.9 v -7 c 0,-16.8 17.7,-19.5 17.7,-36 -0.1,-5.2 -1.9,-6.5 -4.7,-6.5 z"
   id="path529"
   inkscape:connector-curvature="0"
   style="fill:#686460" />
				<path
   class="st12"
   d="m 615.5,174.9 16.3,-38.5 h 9.8 v 38.5 h 4.2 v 8.1 h -4.2 v 10.3 h -8.8 V 183 h -17.3 z m 17.3,0 v -21.4 l -9,21.4 z"
   id="path531"
   inkscape:connector-curvature="0"
   style="fill:#686460" />
			</g>
		</g>
		<g
   id="g543">
			<path
   class="st7"
   d="M 434.8,560.4 H 213.1 c -9.5,0 -17.2,7.7 -17.2,17.2 v 154.8 c 0,9.5 7.7,17.2 17.2,17.2 h 221.7 c 9.5,0 17.2,-7.7 17.2,-17.2 V 577.7 c 0,-9.6 -7.7,-17.3 -17.2,-17.3 z"
   id="path537"
   inkscape:connector-curvature="0"
   style="fill:#48453e" />
			<path
   class="st14"
   d="m 435.2,718.1 c 0,0.2 -0.2,0.4 -0.4,0.4 H 213.1 c -0.2,0 -0.4,-0.2 -0.4,-0.4 V 577.7 c 0,-0.2 0.2,-0.4 0.4,-0.4 h 221.7 c 0.2,0 0.4,0.2 0.4,0.4 z"
   id="path539"
   inkscape:connector-curvature="0"
   style="fill:#9ff8ff" />
			<path
   class="st6"
   d="m 463.7,728.2 h -98.8 c -1.4,0 -2.7,0.8 -3.3,2.1 l -3.9,8.4 c -0.6,1.3 -1.9,2.1 -3.3,2.1 h -65.6 c -1.4,0 -2.7,-0.8 -3.3,-2.1 l -3.9,-8.4 c -0.6,-1.3 -1.9,-2.1 -3.3,-2.1 h -94.2 c -1.1,0 -2,0.9 -2,2 v 17.5 c 0,6.7 5.4,12.1 12.1,12.1 h 259.2 c 6.7,0 12.1,-5.4 12.1,-12.1 v -17.5 c 0.2,-1.2 -0.7,-2 -1.8,-2 z"
   id="path541"
   inkscape:connector-curvature="0"
   style="fill:#dbdbdb" />
		</g>
		<g
   id="g553">
			<g
   id="g547">
				<path
   class="st15"
   d="m 1119.7,177.5 6,-12.5 -11.6,-7.5 c 0.3,-2.2 0.5,-4.3 0.4,-6.5 l 12.3,-6.2 -4.6,-13 -13.5,2.9 c -1.3,-1.7 -2.7,-3.4 -4.3,-4.8 l 4.3,-13.1 -12.5,-6 -7.5,11.6 c -2.2,-0.3 -4.3,-0.5 -6.5,-0.4 l -6.2,-12.3 -13,4.6 2.9,13.5 c -1.7,1.3 -3.4,2.7 -4.8,4.3 l -13.1,-4.3 -6,12.5 11.6,7.5 c -0.3,2.2 -0.5,4.3 -0.4,6.5 l -12.3,6.2 4.6,13 13.5,-2.9 c 1.3,1.7 2.7,3.4 4.3,4.8 l -4.3,13.1 12.5,6 7.5,-11.6 c 2.2,0.3 4.3,0.5 6.5,0.4 l 6.2,12.3 13,-4.6 -2.9,-13.5 c 1.7,-1.3 3.4,-2.7 4.8,-4.3 z M 1078.5,164 c -6.2,-3 -8.9,-10.5 -5.9,-16.7 3,-6.2 10.5,-8.9 16.7,-5.9 6.2,3 8.9,10.5 5.9,16.7 -3,6.2 -10.5,8.9 -16.7,5.9 z"
   id="path545"
   inkscape:connector-curvature="0"
   style="fill:#71ccf4" />
			</g>
			<path
   class="st2"
   d="m 1136.2,263.5 v -16.1 l -15.9,-2 c -0.7,-2.4 -1.7,-4.8 -2.9,-7 l 9.8,-12.7 -11.4,-11.4 -12.7,9.8 c -2.2,-1.2 -4.5,-2.2 -7,-2.9 l -2,-15.9 H 1078 l -2,15.9 c -2.4,0.7 -4.8,1.7 -7,2.9 l -12.7,-9.8 -11.4,11.4 9.8,12.7 c -1.2,2.2 -2.2,4.5 -2.9,7 l -15.9,2 v 16.1 l 15.9,2 c 0.7,2.4 1.7,4.8 2.9,7 l -9.8,12.7 11.4,11.4 12.7,-9.8 c 2.2,1.2 4.5,2.2 7,2.9 l 2,15.9 h 16.1 l 2,-15.9 c 2.4,-0.7 4.8,-1.7 7,-2.9 l 12.7,9.8 11.4,-11.4 -9.8,-12.7 c 1.2,-2.2 2.2,-4.5 2.9,-7 z m -41.1,-2.4 c 0.6,-1 1.1,-2.1 1.4,-3.3 h 13.9 c -0.5,5 -2.4,9.5 -5.4,13.1 z m 1.4,-8 c -0.3,-1.2 -0.7,-2.3 -1.4,-3.3 l 9.8,-9.8 c 3,3.6 5,8.2 5.4,13.1 z m 5.1,-16.4 -9.8,9.8 c -1,-0.6 -2.1,-1.1 -3.3,-1.4 v -13.9 c 4.9,0.5 9.5,2.5 13.1,5.5 z m -20.6,18.7 c 0,-2.9 2.3,-5.2 5.2,-5.2 2.9,0 5.2,2.3 5.2,5.2 0,2.9 -2.3,5.2 -5.2,5.2 -2.9,0 -5.2,-2.3 -5.2,-5.2 z m 2.8,-24.2 v 13.9 c -1.2,0.3 -2.3,0.7 -3.3,1.4 l -9.8,-9.8 c 3.6,-3 8.1,-5 13.1,-5.5 z m -16.4,39.7 c -3,-3.6 -5,-8.2 -5.4,-13.1 h 13.9 c 0.3,1.2 0.7,2.3 1.4,3.3 z m 8.4,-17.8 h -13.9 c 0.5,-5 2.4,-9.5 5.4,-13.1 l 9.8,9.8 c -0.6,1 -1,2.1 -1.3,3.3 z m -5.1,21.1 9.8,-9.8 c 1,0.6 2.1,1.1 3.3,1.4 v 13.9 c -5,-0.5 -9.5,-2.5 -13.1,-5.5 z m 17.8,5.4 v -13.9 c 1.2,-0.3 2.3,-0.7 3.3,-1.4 l 9.8,9.8 c -3.6,3.1 -8.2,5.1 -13.1,5.5 z"
   id="path549"
   inkscape:connector-curvature="0"
   style="fill:#e25d5d" />
			<path
   class="st16"
   d="m 1040.7,201.3 v -14.4 h -13.5 c -0.8,-3.7 -2.3,-7.1 -4.2,-10.2 l 9.5,-9.5 -10.2,-10.2 -9.5,9.5 c -3.1,-1.9 -6.5,-3.4 -10.2,-4.2 v -13.5 h -14.4 v 13.5 c -3.7,0.8 -7.1,2.3 -10.2,4.2 l -9.5,-9.5 -10.2,10.2 9.5,9.5 c -1.9,3.1 -3.4,6.5 -4.2,10.2 h -13.5 v 14.4 h 13.5 c 0.8,3.7 2.3,7.1 4.2,10.2 l -9.5,9.5 10.2,10.2 9.5,-9.5 c 3.1,1.9 6.5,3.4 10.2,4.2 v 13.5 h 14.4 v -13.5 c 3.7,-0.8 7.1,-2.3 10.2,-4.2 l 9.5,9.5 10.2,-10.2 -9.5,-9.5 c 1.9,-3.1 3.4,-6.5 4.2,-10.2 z m -30.6,-0.1 c -1.6,3.3 -4.3,5.9 -7.5,7.5 -0.6,0.3 -1.2,0.5 -1.8,0.7 -1.7,0.6 -3.5,0.9 -5.3,0.9 -1.8,0 -3.7,-0.3 -5.3,-0.9 -0.6,-0.2 -1.2,-0.5 -1.8,-0.7 -3.3,-1.6 -5.9,-4.3 -7.5,-7.5 -0.3,-0.6 -0.5,-1.2 -0.7,-1.8 -0.6,-1.7 -0.9,-3.5 -0.9,-5.3 0,-1.9 0.3,-3.7 0.9,-5.3 0.2,-0.6 0.5,-1.2 0.7,-1.8 1.6,-3.3 4.3,-5.9 7.5,-7.5 0.6,-0.3 1.2,-0.5 1.8,-0.7 1.7,-0.6 3.5,-0.9 5.3,-0.9 1.8,0 3.7,0.3 5.3,0.9 0.6,0.2 1.2,0.5 1.8,0.7 3.3,1.6 5.9,4.3 7.5,7.5 0.3,0.6 0.5,1.2 0.7,1.8 0.6,1.7 0.9,3.5 0.9,5.3 0,1.9 -0.3,3.7 -0.9,5.3 -0.2,0.6 -0.4,1.2 -0.7,1.8 z"
   id="path551"
   inkscape:connector-curvature="0"
   style="fill:#f4b822" />
		</g>
		<g
   id="g567">
			<path
   class="st15"
   d="m 428.7,104.4 c 28.5,0 51.6,23.1 51.6,51.6 0,17.4 -8.6,32.7 -21.8,42.1 4,6.6 9.1,13.7 13.2,16 0,0 -13.7,0.8 -26.5,-9.2 -5.2,1.7 -10.7,2.7 -16.5,2.7 -28.5,0 -51.6,-23.1 -51.6,-51.6 0,-28.5 23.1,-51.6 51.6,-51.6 z"
   id="path555"
   inkscape:connector-curvature="0"
   style="fill:#71ccf4" />
			<path
   class="st16"
   d="m 367.6,123.7 c -31.5,0 -57,25.5 -57,57 0,19.2 9.5,36.2 24.1,46.5 -4.5,7.3 -10,15.2 -14.5,17.7 0,0 15.2,0.8 29.3,-10.2 5.7,1.9 11.9,3 18.2,3 31.5,0 57,-25.5 57,-57 0,-31.5 -25.6,-57 -57.1,-57 z"
   id="path557"
   inkscape:connector-curvature="0"
   style="fill:#f4b822" />
			<g
   id="g565">
				<circle
   class="st17"
   cx="345.79999"
   cy="179.7"
   r="6"
   id="circle559"
   style="fill:#ffffff" />
				<circle
   class="st17"
   cx="369.89999"
   cy="179.7"
   r="6"
   id="circle561"
   style="fill:#ffffff" />
				<circle
   class="st17"
   cx="392.89999"
   cy="179.7"
   r="6"
   id="circle563"
   style="fill:#ffffff" />
			</g>
		</g>
		<g
   id="g573">
			<circle
   class="st15"
   cx="243.60001"
   cy="174.7"
   r="14.8"
   id="circle569"
   style="fill:#71ccf4" />
			<polygon
   class="st15"
   points="220.6,269.7 233.1,269.7 233.1,209.3 222.9,210.8 222.9,201.2 255.5,196.1 255.5,204.4 255.5,205.8 255.5,269.7 268.1,269.7 268.1,282.3 255.5,282.3 233.1,282.3 220.6,282.3 "
   id="polygon571"
   style="fill:#71ccf4" />
		</g>
		<g
   id="g579">
			<path
   class="st16"
   d="m 250.4,414.2 c -10.8,-11.8 -10.5,-30.2 0.9,-41.7 11.8,-11.8 30.9,-11.8 42.6,0 10.2,10.2 11.6,26 4,37.7 l -6.6,-6.6 -8.3,31 31,-8.3 -6.3,-6.3 c 12.8,-17.1 11.4,-41.5 -4.2,-57.1 -17.1,-17.1 -44.8,-17.1 -61.9,0 -16.8,16.8 -17.1,43.8 -0.9,60.9 z"
   id="path575"
   inkscape:connector-curvature="0"
   style="fill:#f4b822" />
			<path
   class="st2"
   d="m 294.1,470 c -1.4,-1.2 -3,-2.4 -4.5,-3.7 -9.2,-7.8 -21.2,-15.1 -33.2,-1.7 l -1.8,2.1 c -12.2,3.7 -18.4,-2.2 -22.9,-6.5 -1.3,-1.2 -2.4,-2.3 -3.6,-3.1 -0.8,-0.9 -2.1,-2 -3.7,-3.4 -7.1,-6.2 -20.2,-17.7 -18.7,-31.2 l 1.8,-2.1 c 11.3,-13.9 2.2,-24.6 -7,-32.4 -1.5,-1.3 -3,-2.6 -4.3,-3.8 -5.5,-4.9 -10.2,-9.2 -15.5,-8.8 -2.9,0.2 -5.4,1.7 -7.9,4.5 l -4.6,5.4 c -5.8,6.8 -9.5,14.8 -10.5,22.4 -0.2,0.8 -4,19.5 8,39.2 3.1,5.1 7.1,9.7 11.8,13.8 l 27.4,23.3 16.5,16.6 c 4.7,4 9.9,7.2 15.5,9.5 21.4,8.7 39.3,1.9 39.8,1.7 3.5,-1.1 7,-2.7 10.3,-4.8 3.8,-2.5 7.3,-5.6 10.4,-9.2 l 4.6,-5.4 c 2.4,-2.9 3.5,-5.6 3.2,-8.5 -0.4,-5.4 -5.4,-9.3 -11.1,-13.9 z"
   id="path577"
   inkscape:connector-curvature="0"
   style="fill:#e25d5d" />
		</g>
		<g
   id="g599">
			<rect
   x="1009.9"
   y="517.09998"
   class="st6"
   width="191.2"
   height="242.7"
   id="rect581"
   style="fill:#dbdbdb" />
			<rect
   x="1025.7"
   y="533.79999"
   class="st17"
   width="159.7"
   height="205.5"
   id="rect583"
   style="fill:#ffffff" />
			<path
   class="st16"
   d="m 1148.1,507 c -6.1,-18.8 -23.7,-32.4 -44.6,-32.4 -20.9,0 -38.5,13.6 -44.6,32.4 h -21.5 v 33.9 h 136.2 V 507 Z"
   id="path585"
   inkscape:connector-curvature="0"
   style="fill:#f4b822" />
			<rect
   x="1036.9"
   y="563.70001"
   class="st6"
   width="139.10001"
   height="7.6999998"
   id="rect587"
   style="fill:#dbdbdb" />
			<rect
   x="1036.9"
   y="589.79999"
   class="st6"
   width="139.10001"
   height="7.6999998"
   id="rect589"
   style="fill:#dbdbdb" />
			<rect
   x="1036.9"
   y="619.29999"
   class="st6"
   width="139.10001"
   height="7.6999998"
   id="rect591"
   style="fill:#dbdbdb" />
			<rect
   x="1036.9"
   y="648.70001"
   class="st6"
   width="139.10001"
   height="7.6999998"
   id="rect593"
   style="fill:#dbdbdb" />
			<rect
   x="1036.9"
   y="674.79999"
   class="st6"
   width="139.10001"
   height="7.6999998"
   id="rect595"
   style="fill:#dbdbdb" />
			<rect
   x="1036.9"
   y="704.29999"
   class="st6"
   width="139.10001"
   height="7.6999998"
   id="rect597"
   style="fill:#dbdbdb" />
		</g>
		<g
   id="g611">
			
				<rect
   x="971.5"
   y="605.40002"
   transform="matrix(-0.4595,-0.8882,0.8882,-0.4595,844.5743,1831.7057)"
   class="st15"
   width="16.299999"
   height="107"
   id="rect601"
   style="fill:#71ccf4" />
			<path
   class="st18"
   d="m 1048.8,620.3 -25.4,6.7 7.5,14.5 20.1,-16.9 c 0.9,-0.7 1.1,-2 0.6,-3 v 0 c -0.5,-1 -1.7,-1.6 -2.8,-1.3 z"
   id="path603"
   inkscape:connector-curvature="0"
   style="fill:#3cb3dd" />
			<path
   class="st7"
   d="m 1041.7,632.5 9.4,-7.8 c 0.9,-0.7 1.1,-2 0.6,-3 -0.5,-1 -1.7,-1.6 -2.8,-1.3 l -11.8,3.1 z"
   id="path605"
   inkscape:connector-curvature="0"
   style="fill:#48453e" />
			<path
   class="st18"
   d="m 920,686.1 3,5.7 c 1.3,2.4 4.2,3.4 6.7,2.1 l 18.7,-9.7 -7.5,-14.5 -18.7,9.7 c -2.5,1.3 -3.4,4.3 -2.2,6.7 z"
   id="path607"
   inkscape:connector-curvature="0"
   style="fill:#3cb3dd" />
			<path
   class="st18"
   d="m 922.8,673.5 3.9,7.6 9,-4.7 -2.5,-4.9 c -1.1,-2.2 -0.3,-4.9 1.9,-6.1 l 16.5,-8.5 c 0.6,-0.3 1.4,0 1.7,0.6 0.8,1.5 2.6,2 4.1,1.3 l 0.6,-0.3 c 1.5,-0.8 2.1,-2.6 1.3,-4.1 l -0.6,-1.1 c -1,-1.9 -3.3,-2.6 -5.2,-1.6 l -27.5,14.2 -0.9,0.5 c -2.7,1.3 -3.7,4.5 -2.3,7.1 z"
   id="path609"
   inkscape:connector-curvature="0"
   style="fill:#3cb3dd" />
		</g>
		<g
   id="g639">
			<rect
   x="804.29999"
   y="79.300003"
   class="st15"
   width="18.799999"
   height="23.6"
   id="rect613"
   style="fill:#71ccf4" />
			<path
   class="st19"
   d="m 823.1,89.1 v 13.8 h -18.8 v -14 c 2.7,-0.3 5.5,-0.4 8.3,-0.4 3.6,-0.1 7.1,0.2 10.5,0.6 z"
   id="path615"
   inkscape:connector-curvature="0"
   style="fill:#39a4c9" />
			<path
   class="st15"
   d="m 827.1,83.5 h -26.4 c -2.2,0 -4,-1.8 -4,-4 v -3.7 c 0,-2.2 1.8,-4 4,-4 h 26.4 c 2.2,0 4,1.8 4,4 v 3.7 c 0,2.2 -1.8,4 -4,4 z"
   id="path617"
   inkscape:connector-curvature="0"
   style="fill:#71ccf4" />
			<g
   id="g631">
				
					<rect
   x="753.79999"
   y="100.4"
   transform="matrix(0.7575,-0.6528,0.6528,0.7575,112.4593,524.3406)"
   class="st15"
   width="16.6"
   height="20.799999"
   id="rect619"
   style="fill:#71ccf4" />
				<path
   class="st19"
   d="m 767.2,104 7.9,9.2 -12.6,10.8 -8.1,-9.4 c 1.7,-1.8 3.4,-3.5 5.3,-5.1 2.5,-2 4.9,-3.8 7.5,-5.5 z"
   id="path621"
   inkscape:connector-curvature="0"
   style="fill:#39a4c9" />
				<path
   class="st15"
   d="M 766.6,97.9 749,113.1 c -1.5,1.3 -3.7,1.1 -5,-0.4 l -2.1,-2.5 c -1.3,-1.5 -1.1,-3.7 0.4,-5 L 760,90 c 1.5,-1.3 3.7,-1.1 5,0.4 l 2,2.6 c 1.2,1.4 1.1,3.7 -0.4,4.9 z"
   id="path623"
   inkscape:connector-curvature="0"
   style="fill:#71ccf4" />
				
					<rect
   x="853"
   y="102.5"
   transform="matrix(0.6528,-0.7575,0.7575,0.6528,215.8429,692.5072)"
   class="st15"
   width="20.799999"
   height="16.6"
   id="rect625"
   style="fill:#71ccf4" />
				<path
   class="st19"
   d="m 858.3,104 -7.9,9.2 12.6,10.8 8.1,-9.4 c -1.7,-1.8 -3.4,-3.5 -5.3,-5.1 -2.5,-2 -5,-3.8 -7.5,-5.5 z"
   id="path627"
   inkscape:connector-curvature="0"
   style="fill:#39a4c9" />
				<path
   class="st15"
   d="m 858.8,97.9 17.7,15.2 c 1.5,1.3 3.7,1.1 5,-0.4 l 2.1,-2.5 c 1.3,-1.5 1.1,-3.7 -0.4,-5 L 865.5,90 c -1.5,-1.3 -3.7,-1.1 -5,0.4 l -2.1,2.5 c -1.2,1.5 -1,3.8 0.4,5 z"
   id="path629"
   inkscape:connector-curvature="0"
   style="fill:#71ccf4" />
			</g>
			<g
   id="g637">
				<path
   class="st15"
   d="m 812.6,93.6 c -40.6,0 -73.4,32.9 -73.4,73.4 0,40.6 32.9,73.4 73.4,73.4 40.5,0 73.4,-32.9 73.4,-73.4 0.1,-40.5 -32.8,-73.4 -73.4,-73.4 z m 0,131.1 c -31.8,0 -57.7,-25.8 -57.7,-57.7 0,-31.9 25.8,-57.7 57.7,-57.7 31.8,0 57.7,25.8 57.7,57.7 0,31.9 -25.8,57.7 -57.7,57.7 z"
   id="path633"
   inkscape:connector-curvature="0"
   style="fill:#71ccf4" />
				<path
   class="st2"
   d="m 812.4,165.1 h 41.2 c -1,-21.8 -18.9,-39.1 -40.9,-39.1 -0.1,0 -0.2,0 -0.3,0 z"
   id="path635"
   inkscape:connector-curvature="0"
   style="fill:#e25d5d" />
			</g>
		</g>
		<g
   id="g653">
			<g
   id="g645">
				<path
   class="st6"
   d="m 1054.2,347.4 c -19.5,24.3 -15.6,59.7 8.7,79.2 24.3,19.5 59.7,15.6 79.2,-8.7 19.5,-24.3 15.6,-59.7 -8.7,-79.2 -24.3,-19.4 -59.7,-15.5 -79.2,8.7 z m 71.3,57.3 c -12.1,15.1 -34.3,17.6 -49.4,5.4 -15.1,-12.1 -17.6,-34.3 -5.4,-49.4 12.1,-15.1 34.3,-17.6 49.4,-5.4 15.2,12.1 17.6,34.2 5.4,49.4 z"
   id="path641"
   inkscape:connector-curvature="0"
   style="fill:#dbdbdb" />
				
					<circle
   transform="matrix(0.6258,-0.78,0.78,0.6258,112.4707,999.7405)"
   class="st17"
   cx="1098.1"
   cy="382.70001"
   id="ellipse643"
   r="42.200001"
   style="fill:#ffffff" />
			</g>
			
				<rect
   x="1124.6"
   y="409"
   transform="matrix(0.6258,-0.78,0.78,0.6258,101.1463,1048.3717)"
   class="st6"
   width="37"
   height="19.6"
   id="rect647"
   style="fill:#dbdbdb" />
			
				<rect
   x="1159"
   y="408.70001"
   transform="matrix(0.6258,-0.78,0.78,0.6258,94.4121,1077.2908)"
   class="st6"
   width="21.9"
   height="63"
   id="rect649"
   style="fill:#dbdbdb" />
			<path
   class="st2"
   d="m 1241,485.8 -11.2,14 c -3,3.8 -8.6,4.4 -12.4,1.4 l -42.1,-33.8 c -3.8,-3 -4.4,-8.6 -1.4,-12.4 l 11.2,-14 c 3,-3.8 8.6,-4.4 12.4,-1.4 l 42.1,33.8 c 3.9,3.1 4.5,8.6 1.4,12.4 z"
   id="path651"
   inkscape:connector-curvature="0"
   style="fill:#e25d5d" />
		</g>
	</g>
	<g
   id="g669">
		
		
		
	</g>
</g>
</svg>