<?xml version="1.0"?>
<svg width="595.3" height="841.9" xmlns="http://www.w3.org/2000/svg" xmlns:svg="http://www.w3.org/2000/svg" xmlns:xlink="http://www.w3.org/1999/xlink">
 <style type="text/css">.st0{clip-path:url(#XMLID_297_);}
	.st1{fill:#0FE0EA;}
	.st2{fill:#16EFEF;}
	.st3{fill:#0ECAD8;}
	.st4{fill:#0B283F;}
	.st5{fill:#5DADBA;}
	.st6{fill:#4F99AA;}
	.st7{fill:#DAEFEB;}
	.st8{fill:#61B3C1;}
	.st9{fill:#366C7F;}
	.st10{fill:#FFC6A9;}
	.st11{fill:#E29F8A;}
	.st12{fill:#C1DBD6;}
	.st13{fill:#FFFFFF;}
	.st14{fill:#3D3131;}
	.st15{fill:#5E4F4F;}
	.st16{fill:#7A6C6C;}
	.st17{fill:#F9E4DC;}
	.st18{fill:#FFB6AE;}
	.st19{fill:#231A1B;}
	.st20{fill:url(#XMLID_302_);}
	.st21{fill:#9B2748;}
	.st22{fill:#723B37;}
	.st23{fill:#874A42;}
	.st24{fill:#A35C57;}
	.st25{fill:#A3C6BF;}
	.st26{fill:#0B4856;}
	.st27{fill:#D4F4F4;}</style>
 <g class="layer">
  <title>Layer 1</title>
  <g id="XMLID_298_">
   <defs transform="translate(-21.3592 -1.94175) translate(-46.6019 18.4466) translate(62.1359 5.82524) translate(0 1)">
    <rect height="841.9" id="XMLID_292_" width="595.3"/>
   </defs>
   <clipPath id="XMLID_297_" transform="translate(-21.3592 -1.94175) translate(-46.6019 18.4466) translate(62.1359 5.82524) translate(0 1)">
    <use id="svg_1" xlink:href="#XMLID_292_"/>
   </clipPath>
   <g class="st0" id="XMLID_291_">
    <g id="svg_2">
     <g id="svg_3">
      <path class="st9" d="m472.583067,493.06829c-0.6,-2.2 -1.1,-4.4 -1.9,-6.5c-0.5,-1.2 -1.1,-2.4 -1.9,-3.5c-0.1,-0.2 -0.3,-0.3 -0.4,-0.5c-0.1,-0.1 -0.1,-0.1 -0.2,-0.2c-0.1,-0.1 -0.2,-0.2 -0.3,-0.3c-0.1,-0.1 -0.1,-0.1 -0.2,-0.2c-0.1,-0.1 -0.2,-0.2 -0.3,-0.3c-0.1,-0.1 -0.2,-0.1 -0.2,-0.2c-0.1,-0.1 -0.2,-0.1 -0.3,-0.2c-0.1,-0.1 -0.2,-0.1 -0.3,-0.2c-0.1,-0.1 -0.2,-0.1 -0.2,-0.2c-0.1,-0.1 -0.2,-0.1 -0.3,-0.2c-0.1,0 -0.1,-0.1 -0.2,-0.1c-0.1,-0.1 -0.2,-0.1 -0.4,-0.2c-0.1,0 -0.1,-0.1 -0.2,-0.1c-0.1,-0.1 -0.3,-0.2 -0.4,-0.2c0,0 0,0 0,0c-1.1,-0.5 -2.3,-0.8 -3.5,-0.8c0,0 0,0 0,0c-0.2,0 -0.4,0 -0.6,0c0,0 0,0 0,0c-0.6,0.1 -1.1,0.2 -1.6,0.4c-0.8,0.3 -1.6,0.9 -1.9,1.7c-0.3,0.8 -0.1,1.7 0.2,2.5c1.2,3.9 3.4,7.5 3.8,11.5c0.4,3.4 -0.5,6.8 -1.2,10.2c-1.3,6.4 -1.8,13.3 0.5,19.4c0.7,1.9 1.7,3.7 2.3,5.6c1.4,4 1.3,8.3 0.8,12.6c-1.2,-0.4 -2.3,-0.8 -3.5,-1.3c-2,3.3 -3.6,6.9 -4.6,10.7c0,0 0,0 0,0c-0.2,0 -0.3,0.1 -0.5,0.1c0,0 -0.1,0 -0.1,0c-0.2,0.1 -0.3,0.1 -0.5,0.2c0,0 -0.1,0 -0.1,0.1c-0.1,0.1 -0.3,0.1 -0.4,0.2c-0.1,0 -0.1,0.1 -0.2,0.1c-0.2,0.1 -0.3,0.2 -0.5,0.3c-0.1,0.1 -0.1,0.1 -0.2,0.2c-0.1,0.1 -0.2,0.2 -0.4,0.3c-0.1,0.1 -0.2,0.2 -0.3,0.3c-0.1,0.1 -0.2,0.2 -0.3,0.3c-0.1,0.1 -0.2,0.2 -0.3,0.3c-0.1,0.1 -0.1,0.1 -0.2,0.2c-0.2,0.2 -0.3,0.3 -0.5,0.5c-0.1,0.1 -0.1,0.1 -0.2,0.2c-0.1,0.1 -0.2,0.2 -0.3,0.3c-1.1,1.2 -2.1,2.5 -2.6,3.6c-3.3,6.5 -8.1,12.5 -11.4,18.9c-0.1,-0.2 -0.2,-0.3 -0.3,-0.5c0.1,0 0.1,-0.1 0.2,-0.1c-0.1,0 -0.1,0.1 -0.2,0.1c-11.2,-16.2 -22.4,-32.4 -33.6,-48.6c-0.6,-0.9 -1.2,-1.7 -1.8,-2.6c-3,-4.3 -6.2,-8.6 -9.9,-12.3c-1.5,-1.5 -3.1,-2.9 -4.8,-4.1c-1.1,-0.8 -2.3,-1.6 -3.4,-2.3c-3.6,-2.1 -7.4,-3.9 -11.2,-5.6c-11.3,-5.1 -22.1,-14.3 -33.8,-18.5c-0.3,-0.1 -0.6,-0.2 -0.9,-0.3c-1.2,-0.4 -2.5,-0.8 -3.8,-1.1c-0.7,-0.2 -1.4,-0.3 -2.1,-0.4c-0.5,-0.1 -1.1,-0.2 -1.6,-0.2c-1.4,-7.3 -2.4,-14.1 -3.1,-21.4c1,-0.4 2,-0.8 3,-1.3c0,0 0,0 0.1,0c10.3,-4.6 19.5,-11.8 26.1,-20.8c5.7,-7.8 9.7,-16.5 12.5,-25.7c0.9,-0.4 1.7,-0.8 2.5,-1.2c0.3,-0.1 0.5,-0.3 0.8,-0.5c0.5,-0.3 1.1,-0.6 1.6,-0.9c0.3,-0.2 0.6,-0.4 1,-0.6c0.4,-0.3 0.9,-0.6 1.3,-0.9c0.3,-0.2 0.7,-0.5 1,-0.7c0.4,-0.3 0.8,-0.6 1.2,-0.9c0.3,-0.3 0.7,-0.5 1,-0.8c0.3,-0.3 0.7,-0.6 1,-0.9c0.4,-0.3 0.7,-0.6 1,-0.9c0.3,-0.3 0.6,-0.6 0.9,-0.8c0.4,-0.4 0.7,-0.7 1,-1.1c0.2,-0.2 0.4,-0.5 0.7,-0.8c0.4,-0.4 0.8,-0.8 1.1,-1.3c0.1,-0.1 0.2,-0.2 0.3,-0.4c2,-2.4 3.7,-5.1 5.1,-7.8c0,-0.1 0.1,-0.1 0.1,-0.2c0.3,-0.7 0.6,-1.3 0.9,-2c0,-0.1 0.1,-0.2 0.1,-0.3c0.3,-0.7 0.5,-1.4 0.8,-2c0,-0.1 0.1,-0.2 0.1,-0.3c0.3,-0.7 0.5,-1.4 0.7,-2.1c0,-0.1 0,-0.1 0.1,-0.2c0.6,-2.2 1.1,-4.5 1.4,-6.8c1.2,-10.8 -1.3,-21.9 -6.7,-31.3c0.8,-11.9 0.9,-24 0,-35.8c-0.9,-11.1 -4.5,-22.1 -13.5,-29.6c-1.2,-1 -2.5,-1.9 -3.8,-2.7c-9.6,-12.5 -25.7,-19.8 -34.6,-33c0.1,3.4 0.9,6.7 1,10.1c-2.3,-7.2 -6.8,-13.6 -12.8,-18.3c-0.4,3.3 -0.7,6.7 -1.1,10c-1.9,-1.9 -2.1,-4.9 -3.7,-7.1c-0.8,-1.1 -1.9,-1.9 -3.1,-2.7c-5.1,-3.6 -11.4,-6.2 -16.5,-9.8c-0.1,5.1 -2.5,9.9 -5.7,14c-3.2,4 -7.2,7.4 -11.2,10.7c0.7,-2.4 0.7,-5 -0.1,-7.3c-5.3,12.2 -15.7,20.4 -25.5,29.6c-1.1,1 -2.2,2.1 -3.2,3.3c-5.5,3.8 -10.3,8.6 -13.7,14.3c-5,8.5 -6.6,18.5 -6.3,28.2c0.3,8.6 2,17.1 3.9,25.5c-6.1,9.1 -9.4,20.2 -8.9,31.1c0.1,1.5 0.2,3 0.4,4.6c0,0.1 0,0.2 0,0.3c0.1,0.7 0.2,1.4 0.4,2.1c0,0.2 0.1,0.3 0.1,0.5c0.1,0.6 0.3,1.3 0.4,1.9c0.1,0.2 0.1,0.4 0.2,0.6c0.2,0.6 0.3,1.2 0.5,1.8c0.1,0.2 0.1,0.5 0.2,0.7c0.2,0.6 0.4,1.1 0.6,1.7c0.1,0.3 0.2,0.5 0.3,0.8c0.2,0.5 0.4,1.1 0.6,1.6c0.1,0.3 0.2,0.6 0.3,0.8c0.2,0.5 0.4,1 0.6,1.5c-2.6,7.7 -4.7,15.8 -4.8,23.1c-0.1,10.8 3.6,20.6 10.2,26.7c6.3,5.9 15.7,9.3 28,10c1.4,0.1 2.9,0.1 4.3,0.1c1.3,0.8 2.6,1.5 4,2.2c1.4,0.7 2.8,1.4 4.2,2c0.7,0.3 1.4,0.6 2.2,0.9c1.4,0.5 2.9,1 4.4,1.5c1.5,0.4 3,0.8 4.5,1.1c0.2,0 0.4,0.1 0.5,0.1c0.2,2 0.4,4 0.6,6.1c0,0 0.1,0 0.1,0.1c0.3,5 0.2,10 -0.2,15.3c-12.1,3.9 -24.3,7.8 -36.4,11.7c-2.4,0.8 -4.8,1.5 -7.1,2.4c-0.5,0.2 -0.9,0.4 -1.4,0.6c-0.9,0.4 -1.8,0.8 -2.7,1.2c-2.7,1.4 -5.3,3 -7.7,4.9c-0.5,0.4 -1,0.7 -1.4,1.1c-0.9,0.8 -1.9,1.6 -2.8,2.4c-0.4,0.4 -0.9,0.8 -1.3,1.2c-1.3,1.2 -2.7,2.5 -4,3.8c-0.9,0.9 -1.7,1.7 -2.6,2.6c-0.9,0.9 -1.7,1.7 -2.6,2.6c-1.1,1 -2.1,2.1 -3.2,3.1c-0.2,0.2 -0.4,0.4 -0.6,0.6c-0.9,0.8 -1.8,1.7 -2.6,2.5c-0.2,0.2 -0.4,0.3 -0.5,0.5c-0.9,0.9 -1.9,1.7 -2.8,2.6c-0.1,0.1 -0.2,0.2 -0.4,0.3c-1,0.9 -2,1.8 -3,2.7l-0.2,0.2c-1.1,0.9 -2.2,1.9 -3.3,2.8c0,0 0,0 0,0c-3.4,2.9 -7,5.7 -10.6,8.5c-1.5,-9.5 -3,-19 -4.3,-28.5c-0.3,-1.9 -0.8,-3.7 -1.6,-5.4c1.4,-5.6 1.8,-11.3 1,-17.2c-1.8,0.1 -3.5,0.2 -5.2,0.3c0,0 0,-0.1 0,-0.1c2.9,-1.9 7.2,-3 10.2,-5.2c0.4,-0.3 0.9,-0.7 1.3,-1.1c0.2,-0.2 0.4,-0.3 0.5,-0.5c0.2,-0.2 0.4,-0.4 0.6,-0.6c0.2,-0.2 0.5,-0.5 0.7,-0.8c0.1,-0.1 0.2,-0.3 0.3,-0.4c2.1,-2.6 3.8,-5.6 5.2,-8.5c3.1,-6.5 7.9,-13 15.2,-15.3c0.5,-2 -0.2,-3.4 -1.4,-4.2c-0.4,-0.3 -0.9,-0.5 -1.4,-0.7c-1.8,-0.7 -4.2,-1 -6.1,-0.3c1.1,-4.5 0,-10.5 -1.6,-13.6c-1.6,-3.1 -5.9,-12 -9,-13.5c-3.6,-1.7 -10,2.6 -14.1,2.8c-0.1,0 -0.2,0 -0.4,0c-2.6,-7.2 -1.4,-18.7 -0.8,-26.7c0.4,-4.4 1.7,-9.3 0.4,-13.7c0,0 0,-0.1 0,-0.1c-0.1,-0.2 -0.2,-0.5 -0.3,-0.7c0,-0.1 -0.1,-0.1 -0.1,-0.2c-0.1,-0.1 -0.1,-0.3 -0.2,-0.4c-0.1,-0.1 -0.1,-0.2 -0.2,-0.3c-0.1,-0.1 -0.2,-0.2 -0.2,-0.3c-0.1,-0.1 -0.2,-0.2 -0.2,-0.3c-0.1,-0.1 -0.1,-0.1 -0.2,-0.2c-2.3,-2 -6.3,-1.5 -7.9,1.6c-1.8,3.6 -2,8.2 -2,11.9c0,8.8 -0.5,17.4 -2.2,26c-2.5,-7.2 -3.4,-15.6 -4.7,-23.2c-0.5,-3 0.1,-12.1 -4.3,-11.8c-4.3,0.2 -5.5,8 -5.9,10.9c-1.3,11 3.3,22.8 2.3,33.5c-4.5,-6.8 -9.2,-15.6 -10.9,-23.5c-2.6,-12.1 -7.3,-1.2 -7,5.8c0.3,8.4 4,15.9 7,23.6c0,0.1 0.1,0.2 0.1,0.4c0.2,0.4 0.3,0.8 0.4,1.2c0.1,0.2 0.1,0.3 0.2,0.5c0.2,0.5 0.4,1 0.6,1.6c2.4,6.9 2.6,13.6 2.6,20.9c0,1.1 0,2.2 0,3.3c0.1,2 0.2,3.9 0.3,5.8c0,0 0,0 0,0c0,0.1 0,0.2 0,0.3c0.1,0.9 0.1,1.8 0.2,2.7l0,0c0,0 0,0 0,0c0.1,1.3 0.3,2.5 0.4,3.8c0,0 0,0 0,0c0.2,1.5 0.4,3 0.6,4.6c0,0.1 0,0.3 0.1,0.5c0.1,0.8 0.3,1.6 0.4,2.4c-1.2,-0.2 -2.3,-0.4 -3.5,-0.7c-1.3,5.7 -1.6,11.6 -1,17.5c0,0.2 0.1,0.3 0.1,0.5c-0.1,0.2 -0.2,0.3 -0.3,0.5c-0.7,1.3 -1.3,2.6 -1.8,4.1c-5.9,19.8 -8.9,40.3 -8.8,60.8c0.1,11.7 1.3,23.9 7.6,34c4.1,6.5 10.8,12 18.4,14.4c0,0 0,0 0,0c0.4,0.1 0.7,0.2 1.1,0.3c0,0 0,0 0.1,0c0.4,0.1 0.7,0.2 1.1,0.3c0,0 0.1,0 0.1,0c0.4,0.1 0.7,0.2 1,0.2c0,0 0.1,0 0.1,0c0.3,0.1 0.7,0.1 1,0.2c0,0 0.1,0 0.1,0c0.3,0.1 0.7,0.1 1,0.1c0,0 0.1,0 0.1,0c0.4,0 0.7,0.1 1.1,0.1c0,0 0.1,0 0.1,0c0.4,0 0.7,0 1.1,0l0.1,0c0.4,0 0.8,0 1.2,0c0,0 0,0 0,0c23.6,0 43.7,-24.1 57.2,-36.6c-1.7,34.5 -5.9,52.9 -11.5,86.9l180.1,0c-3.4,-24.6 -4.5,-35 -7,-59.7c10.3,8.1 21.5,15 33.5,20.6c2.7,1.3 5.5,2.5 8.4,3.5c0,0 0,0 0.1,0c1.2,0.4 2.4,0.8 3.7,1.1c0,0 0,0 0,0c0.6,0.2 1.2,0.3 1.9,0.5c0,0 0,0 0,0c1.2,0.3 2.5,0.5 3.7,0.7c0,0 0,0 0.1,0c1.2,0.2 2.5,0.3 3.7,0.4l0,0c1.9,0.1 3.7,0 5.5,-0.2l0,0c1.2,-0.2 2.4,-0.4 3.5,-0.7c0,0 0,0 0,0c2,-0.6 3.9,-1.4 5.7,-2.5c7.1,-4.5 10.7,-12.5 13.7,-20.2c0.6,-1.5 1.2,-3 1.7,-4.5l0,-111.9c-1.8,-2.3 -2.7,-5.1 -3.4,-7.8zm-231.9,-49.3c-5.8,-5.5 -9.1,-14.2 -9,-24c0,-5.7 1.5,-12.1 3.4,-18.3c0.2,0.3 0.4,0.6 0.5,0.9c0.3,0.4 0.5,0.8 0.8,1.2c0.2,0.3 0.4,0.7 0.7,1c0.3,0.4 0.5,0.8 0.8,1.2c0.3,0.3 0.5,0.7 0.8,1c0.3,0.4 0.5,0.7 0.8,1.1c0.3,0.4 0.6,0.7 0.9,1.1c0.3,0.3 0.5,0.6 0.8,1c0.3,0.3 0.5,0.6 0.8,0.8c0,0.4 0,0.8 0.1,1.3c0.1,0.8 0.1,1.6 0.2,2.3c0.6,6 2.4,11.9 5.1,17.3c1,2 2.1,4 3.4,5.9c0.4,0.6 0.8,1.3 1.3,1.9c1.8,2.5 3.7,4.8 5.8,7.1c1.1,1.1 2.2,2.2 3.3,3.2c1.2,1 2.4,2 3.6,3c-10.6,-1 -18.7,-4 -24.1,-9zm-56.7,9.3c0,-0.1 0,-0.3 0,-0.4c0,-0.1 0,-0.2 0,-0.4c0,-0.2 0,-0.3 0,-0.5c0,-0.1 0,-0.2 0,-0.3c0.1,-1.5 0.3,-2.9 0.6,-4.3c0.6,-3 6,-5.2 8.8,-4.4c2.5,0.7 5.5,4.2 6.6,6.4c0.6,1.4 0.7,6.2 1.6,9.2c-2.4,1.6 -4.7,3.3 -7.2,4.6c-0.3,0.1 -0.6,0.3 -0.9,0.4c-0.1,0 -0.2,0.1 -0.3,0.1c-0.2,0.1 -0.4,0.1 -0.5,0.2c-0.1,0 -0.2,0.1 -0.3,0.1c-0.2,0.1 -0.3,0.1 -0.5,0.1c-0.1,0 -0.2,0.1 -0.3,0.1c-0.2,0 -0.3,0.1 -0.5,0.1c-0.1,0 -0.2,0 -0.3,0c-0.2,0 -0.4,0 -0.5,0c-0.1,0 -0.1,0 -0.2,0c-0.2,0 -0.4,0 -0.6,0l-0.2,0c-0.1,0 -0.3,0 -0.4,-0.1c-0.1,0 -0.1,0 -0.2,-0.1c-0.1,0 -0.2,-0.1 -0.4,-0.1c-0.1,0 -0.1,-0.1 -0.2,-0.1c-0.1,0 -0.2,-0.1 -0.3,-0.1c-0.1,0 -0.1,-0.1 -0.2,-0.1c-0.1,-0.1 -0.2,-0.1 -0.3,-0.2c0,0 -0.1,-0.1 -0.1,-0.1c-0.2,-0.1 -0.3,-0.2 -0.4,-0.3c0,0 0,0 0,0c-0.1,-0.1 -0.3,-0.2 -0.4,-0.4c0,-0.1 -0.1,-0.1 -0.1,-0.2c-0.1,-0.1 -0.2,-0.2 -0.2,-0.3c0,-0.1 -0.1,-0.1 -0.1,-0.2c-0.1,-0.1 -0.1,-0.2 -0.2,-0.3c0,-0.1 -0.1,-0.1 -0.1,-0.2c-0.1,-0.1 -0.1,-0.2 -0.2,-0.3c0,-0.1 -0.1,-0.1 -0.1,-0.2c-0.1,-0.1 -0.1,-0.3 -0.2,-0.4c0,-0.1 0,-0.1 -0.1,-0.1c-0.1,-0.2 -0.2,-0.4 -0.2,-0.6c0,-0.1 0,-0.1 -0.1,-0.2c0,-0.1 -0.1,-0.3 -0.1,-0.4c0,-0.1 0,-0.2 -0.1,-0.3c0,-0.1 -0.1,-0.3 -0.1,-0.4c0,-0.1 0,-0.2 -0.1,-0.3c0,-0.1 -0.1,-0.3 -0.1,-0.4c0,-0.1 0,-0.2 -0.1,-0.3c0,-0.1 -0.1,-0.3 -0.1,-0.5c0,-0.1 0,-0.2 0,-0.3c0,-0.2 -0.1,-0.5 -0.1,-0.7c0,-0.1 0,-0.2 0,-0.2c0,-0.2 0,-0.4 0,-0.5c0,-0.1 0,-0.2 0,-0.3c0,-0.2 0,-0.3 0,-0.5c0,-0.1 0,-0.2 0,-0.4l0,-0.9z" id="svg_16"/>
      <g id="svg_17">
       <g id="svg_18">
        <path class="st10" d="m216.483067,448.76829c-0.3,0 -0.6,0.1 -0.9,0.2c1.1,-4.6 0,-10.8 -1.6,-14c-1.6,-3.2 -5.9,-12.4 -9,-13.9c-3.7,-1.8 -10.4,2.9 -14.4,2.9c-2.6,-7.5 -1.4,-19.3 -0.8,-27.5c0.4,-4.6 1.7,-9.6 0.4,-14.1c0,0 0,-0.1 0,-0.1c-1.3,-4.4 -7.4,-4.8 -9.4,-0.7c-1.8,3.7 -2,8.5 -2,12.2c0,9.1 -0.5,17.9 -2.2,26.8c-2.5,-7.4 -3.4,-16.1 -4.7,-23.9c-0.5,-3.1 0.1,-12.4 -4.3,-12.2c-4.3,0.2 -5.5,8.3 -5.9,11.2c-1.3,11.4 3.3,23.4 2.3,34.5c-4.5,-7 -9.2,-16 -10.9,-24.2c-2.6,-12.5 -7.3,-1.3 -7,6c0.4,9.9 5.2,18.7 8.3,27.9c2.4,7.1 2.6,14 2.6,21.5c0,10.5 1.2,19.7 3.1,30c7.1,3.9 10.8,3.6 18.8,3c7,-0.5 11.2,1.1 11.7,-6.5c2.9,-2 7.2,-3 10.2,-5.3c3.9,-3 6.5,-7.7 8.6,-12.1c3.2,-6.7 7.9,-13.4 15.2,-15.8c1.2,-5.1 -4.5,-6.4 -8.1,-5.9zm-14.8,8.1c-10.1,5.3 -11.7,-7.3 -9.9,-16.4c0.6,-3.1 6,-5.3 8.8,-4.5c2.5,0.7 5.5,4.3 6.6,6.6c0.6,1.4 0.7,6.4 1.6,9.5c-2.3,1.6 -4.6,3.5 -7.1,4.8z" id="svg_19"/>
        <g id="svg_20">
         <g id="svg_21">
          <g id="svg_22">
           <path class="st11" d="m184.883067,400.46829c-1.6,10.5 -2,22.9 1.6,32.9c1.3,-2.3 2.5,-6.3 4.3,-9.5c-0.1,0 -0.2,0 -0.4,0c-2.6,-7.5 -1.4,-19.3 -0.8,-27.5c0.4,-4.6 1.7,-9.6 0.4,-14.1c0,0 0,-0.1 0,-0.1c-0.5,-1.8 -1.9,-3 -3.4,-3.4c0.9,7.2 -0.6,14.6 -1.7,21.7z" id="svg_23"/>
          </g>
          <g id="svg_24">
           <path class="st11" d="m168.083067,393.16829c-0.2,4.4 -1,9.1 -0.6,13.7c0.9,9.4 4,18.8 9.4,26.5c-0.1,-4.4 -0.2,-8.8 -0.3,-13.2c0,0.1 0,0.1 0,0.2c-2.5,-7.4 -3.4,-16.1 -4.7,-23.9c-0.5,-3.1 0.1,-12.4 -4.3,-12.2c-0.2,0 -0.4,0.1 -0.6,0.1c0.5,2.9 1.3,5.8 1.1,8.8z" id="svg_25"/>
          </g>
          <g id="svg_26">
           <path class="st11" d="m159.483067,442.36829c-4.1,-7.4 -9.5,-16.5 -13,-25.8c1.4,8 5.1,15.4 7.8,23.2c2.4,7.1 2.6,14 2.6,21.5c0,10.5 1.2,19.7 3.1,30c5.6,3.1 9.2,3.6 14.4,3.3c-2.1,-4.8 -3.6,-9.8 -4.7,-13.7c-3.5,-12.5 -3.8,-27.1 -10.2,-38.5z" id="svg_27"/>
          </g>
         </g>
        </g>
        <g id="svg_28">
         <path class="st11" d="m215.583067,448.96829c0,-0.1 -6.8,2.8 -6.7,3.2c-2.4,1.6 -4.7,3.4 -7.2,4.8c-8.5,4.5 -11,-3.8 -10.4,-12c-3.2,6.8 -0.7,17.5 8.6,16.7c7.3,-0.6 15.5,-10.8 23.2,-11.6c-1.7,-1.3 -5.1,-2 -7.5,-1.1z" id="svg_29"/>
        </g>
       </g>
       <g id="svg_30">
        <path class="st10" d="m216.483067,448.76829c-0.3,0 -0.6,0.1 -0.9,0.2c1.1,-4.6 0,-10.8 -1.6,-14c-1.6,-3.2 -5.9,-12.4 -9,-13.9c-3.7,-1.8 -10.4,2.9 -14.4,2.9c-2.6,-7.5 -1.4,-19.3 -0.8,-27.5c0.4,-4.6 1.7,-9.6 0.4,-14.1c0,0 0,-0.1 0,-0.1c-1.3,-4.4 -7.4,-4.8 -9.4,-0.7c-1.8,3.7 -2,8.5 -2,12.2c0,9.1 -0.5,17.9 -2.2,26.8c-2.5,-7.4 -3.4,-16.1 -4.7,-23.9c-0.5,-3.1 0.1,-12.4 -4.3,-12.2c-4.3,0.2 -5.5,8.3 -5.9,11.2c-1.3,11.4 3.3,23.4 2.3,34.5c-4.5,-7 -9.2,-16 -10.9,-24.2c-2.6,-12.5 -7.3,-1.3 -7,6c0.4,9.9 5.2,18.7 8.3,27.9c2.4,7.1 2.6,14 2.6,21.5c0,10.5 1.2,19.7 3.1,30c7.1,3.9 10.8,3.6 18.8,3c7,-0.5 11.2,1.1 11.7,-6.5c2.9,-2 7.2,-3 10.2,-5.3c3.9,-3 6.5,-7.7 8.6,-12.1c3.2,-6.7 7.9,-13.4 15.2,-15.8c1.2,-5.1 -4.5,-6.4 -8.1,-5.9zm-14.8,8.1c-10.1,5.3 -11.7,-7.3 -9.9,-16.4c0.6,-3.1 6,-5.3 8.8,-4.5c2.5,0.7 5.5,4.3 6.6,6.6c0.6,1.4 0.7,6.4 1.6,9.5c-2.3,1.6 -4.6,3.5 -7.1,4.8z" id="svg_31"/>
        <g id="svg_32">
         <path class="st11" d="m190.883067,423.86829c-0.1,0 -0.2,0 -0.4,0c-2.6,-7.5 -1.4,-19.3 -0.8,-27.5c0.4,-4.6 1.7,-9.6 0.4,-14.1c0,0 0,-0.1 0,-0.1c-0.5,-1.8 -1.9,-3 -3.4,-3.4c0.8,7.2 -0.7,14.6 -1.7,21.7c-1.6,10.5 -2,22.9 1.6,32.9c1.3,-2.2 2.5,-6.3 4.3,-9.5z" id="svg_33"/>
         <path class="st11" d="m168.083067,393.16829c-0.2,4.4 -1,9.1 -0.6,13.7c0.9,9.4 4,18.8 9.4,26.5c-0.1,-4.4 -0.2,-8.8 -0.3,-13.2c0,0.1 0,0.1 0,0.2c-2.5,-7.4 -3.4,-16.1 -4.7,-23.9c-0.5,-3.1 0.1,-12.4 -4.3,-12.2c-0.2,0 -0.4,0.1 -0.6,0.1c0.5,2.9 1.3,5.8 1.1,8.8z" id="svg_34"/>
         <path class="st11" d="m197.183067,479.06829c-4.1,-0.2 -7.8,-1.8 -11.8,-1.3c-4.7,0.7 -7.9,5.1 -12.4,5.4c-1,0.1 -1.9,-0.1 -2.8,-0.3c-0.2,-0.7 -0.4,-1.4 -0.6,-2c-3.6,-12.4 -3.8,-27 -10.2,-38.4c-4.1,-7.4 -9.5,-16.5 -13,-25.8c1.4,8 5.1,15.4 7.8,23.2c2.4,7.1 2.6,14 2.6,21.5c0,2.3 0.1,4.4 0.2,6.6l0,0c0,0 0,0 0,0c0,0.9 0.1,1.8 0.2,2.8c0,0.1 0,0.3 0,0.4c0.1,0.9 0.1,1.8 0.2,2.7c0,0 0,0 0,0.1c0.2,2.6 0.5,5.2 0.9,7.8c0.1,0.4 0.1,0.9 0.2,1.3c0.1,0.6 0.2,1.2 0.3,1.7c0.1,0.6 0.2,1.3 0.3,1.9c0.1,0.5 0.1,0.9 0.2,1.4c0.2,1.1 0.4,2.2 0.6,3.4c0.4,0.2 0.8,0.4 1.2,0.6c0.1,0.1 0.2,0.1 0.4,0.2c0.3,0.1 0.5,0.3 0.8,0.4c0.1,0.1 0.3,0.1 0.4,0.2c0.2,0.1 0.5,0.2 0.7,0.3c0.1,0.1 0.3,0.1 0.4,0.2c0.3,0.1 0.6,0.2 0.9,0.3c0.1,0 0.2,0.1 0.4,0.1c0.2,0.1 0.5,0.2 0.7,0.2c0.1,0 0.3,0.1 0.4,0.1c0.2,0 0.4,0.1 0.5,0.1c0.2,0 0.3,0.1 0.5,0.1c0.2,0 0.3,0.1 0.5,0.1c0.2,0 0.3,0.1 0.5,0.1c0.2,0 0.3,0.1 0.5,0.1c0.3,0 0.6,0.1 0.9,0.1c0.1,0 0.3,0 0.4,0c0.2,0 0.4,0 0.6,0c0.1,0 0.3,0 0.4,0c0.2,0 0.4,0 0.6,0c0.1,0 0.2,0 0.3,0c2,0 4.3,-0.1 7,-0.3c7,-0.5 11.2,1.1 11.7,-6.5c2.9,-2 7.2,-3 10.2,-5.3c1.6,-1.2 3,-2.7 4.2,-4.4c-2.4,0.6 -4.9,1 -7.8,0.9z" id="svg_35"/>
        </g>
        <g id="svg_36">
         <path class="st11" d="m215.583067,448.96829c0,-0.1 -6.8,2.8 -6.7,3.2c-2.4,1.6 -4.7,3.4 -7.2,4.8c-8.5,4.5 -11,-3.8 -10.4,-12c-3.2,6.8 -0.7,17.5 8.6,16.7c7.3,-0.6 15.5,-10.8 23.2,-11.6c-1.7,-1.3 -5.1,-2 -7.5,-1.1z" id="svg_37"/>
        </g>
       </g>
       <path class="st10" d="m490.883067,546.36829c9.6,-0.8 18.5,-5.7 26.2,-11.5c7.7,-5.8 14.7,-12.6 22.8,-17.9c1.4,-0.9 3.1,-2.2 3,-3.9c-0.1,-1.6 -1.8,-2.7 -3.4,-2.7s-3.1,0.8 -4.4,1.5c-4.8,2.6 -9.5,5.2 -14.3,7.8c-0.8,0.5 -2.2,0.7 -2.5,-0.2c-0.2,-0.6 0.3,-1.1 0.7,-1.6c4.9,-4.8 10.1,-9.3 15.5,-13.6c1.8,-1.5 3.8,-3 4.6,-5.2s-0.1,-5.2 -2.4,-5.7c-1,-0.2 -2,0.1 -3,0.4c-4.6,1.9 -7.7,6.2 -11.2,9.8s-8,7 -13,6.2c1.1,-4.7 5.4,-7.8 9.1,-10.9c4.2,-3.6 7.9,-7.8 10.9,-12.5c0.9,-1.5 1.9,-3.2 1.3,-4.9c-0.7,-2.1 -3.4,-2.9 -5.5,-2.2c-2.1,0.7 -3.7,2.4 -5.1,4c-3.8,4.2 -7.7,8.5 -11.5,12.7c-2.1,2.3 -4.5,4.8 -7.6,5.1c-0.9,-3.9 1.4,-7.8 3.4,-11.3c2.5,-4.3 4.9,-8.6 7.1,-13.1c0.8,-1.6 1.6,-3.2 1.5,-5s-1.1,-3.6 -2.8,-4c-1.7,-0.4 -3.4,0.9 -4.6,2.2c-3.4,4 -4.8,9.2 -6.9,14c-2.1,4.6 -4.9,8.8 -8.4,12.4c-1.5,1.5 -4.1,2.3 -5.7,1c-2.8,-2.4 -4.1,-6.1 -5,-9.7c-0.9,-3.6 -1.7,-7.3 -3.8,-10.3c-2.1,-3 -6.2,-5 -9.6,-3.6c-0.8,0.3 -1.6,0.9 -1.9,1.7c-0.3,0.8 -0.1,1.7 0.2,2.5c1.2,4 3.4,7.7 3.8,11.9c0.4,3.5 -0.5,7 -1.2,10.5c-1.3,6.6 -1.8,13.7 0.5,20c0.7,1.9 1.7,3.8 2.3,5.8c1.9,5.7 1.1,11.9 0.2,17.9c5.4,4.3 12,5.4 18.2,2.6c0.5,0 2.7,0 2.5,-0.2z" id="svg_38"/>
       <g id="svg_39">
        <path class="st11" d="m509.083067,523.16829c-5.5,-7 -10.6,-16.2 -21.3,-16.2c4.1,8.5 -3.9,14.9 -8.2,21.2c-4,5.9 1.3,10.9 -1.3,17.9c0.8,-1.7 -2.2,5.8 1.7,3.6c4.2,-2.4 2.8,-11.9 4.4,-15.8c4.7,-11.4 15.6,-7.2 24.7,-10.7z" id="svg_40"/>
        <path class="st11" d="m516.783067,519.76829c0.5,0.1 1,0.1 1.6,0c0,-0.1 -0.1,-0.1 -0.1,-0.2c-0.2,-0.6 0.3,-1.1 0.7,-1.6c4.9,-4.8 10.1,-9.3 15.5,-13.6c1.8,-1.5 3.8,-3 4.6,-5.2c0.3,-0.7 0.3,-1.5 0.3,-2.2c-2,3.7 -6.5,6.6 -9.2,9c-3.6,3.1 -14,8 -13.4,13.8z" id="svg_41"/>
        <path class="st11" d="m508.883067,509.56829c0.2,0 0.5,0.1 0.7,0.1c1.2,-4.5 5.4,-7.5 9,-10.6c4.2,-3.6 7.9,-7.8 10.9,-12.5c0.7,-1.1 1.4,-2.4 1.5,-3.7c-1.4,2 -3.4,3.9 -4.7,5.3c-2.7,3.1 -5.5,5.7 -8.5,8.5c-3.2,3 -9.5,8 -8.9,12.9z" id="svg_42"/>
        <path class="st11" d="m542.683067,512.26829c-4.9,5.7 -14,9.2 -19.8,13.1c-9.2,6.3 -17.5,13 -28,17.1c-3.5,1.4 -7.3,2.1 -10.3,4.7c-0.3,0.3 -0.6,0.6 -0.9,0.9c1.6,-0.2 3.3,-0.7 4.9,-1.4c0.3,-0.1 2.5,-0.1 2.3,-0.3c9.6,-0.8 18.5,-5.7 26.2,-11.5c7.7,-5.8 14.7,-12.6 22.8,-17.9c1.4,-0.9 3.1,-2.2 3,-3.9c-0.1,-0.3 -0.1,-0.5 -0.2,-0.8z" id="svg_43"/>
        <path class="st11" d="m499.783067,499.96829c0.4,0.2 0.8,0.2 1.3,0.2c-0.3,-3.6 1.7,-7.1 3.6,-10.3c2.5,-4.3 4.9,-8.6 7.1,-13.1c0.8,-1.6 1.6,-3.2 1.5,-5c0,-0.7 -0.2,-1.3 -0.4,-2c-0.4,4.7 -5.2,9.4 -7.6,13c-2,2.9 -12.5,14.6 -5.5,17.2z" id="svg_44"/>
        <path class="st11" d="m483.883067,498.16829c1.1,0.2 2,0.2 2.9,-0.1c-0.7,0 -1.4,-0.2 -2,-0.7c-2.8,-2.4 -4.1,-6.1 -5,-9.7c-0.9,-3.6 -1.7,-7.3 -3.8,-10.3c-1.9,-2.7 -5.4,-4.6 -8.5,-3.9c4.1,1.8 7.7,5.7 7.7,9.7c0,1.3 -1,2.4 -0.8,3.7c0.2,1.1 1.8,3.1 2.4,4c1.6,2.7 3.5,6.6 7.1,7.3z" id="svg_45"/>
       </g>
       <path class="st7" d="m404.983067,673.56829l-180.1,0c5.6,-35.1 9.9,-54 11.5,-89.5c-13.5,12.8 -33.6,37.6 -57.2,37.6c-11.3,-18.1 -12,-41.2 -6.9,-62c20.3,-12.2 39.1,-27 55.7,-44c6.9,-7.1 13.6,-14.6 22.4,-19.1c3.6,-1.8 7.4,-3.1 11.2,-4.4c15.8,-5.3 31.6,-10.5 47.5,-15.8c7.2,-2.4 15.6,-0.2 23.2,-0.5c16.9,-0.6 31.3,14.2 46.6,21.3c5.1,2.4 10.2,4.7 14.6,8.1c6.8,5.2 11.7,12.4 16.5,19.5c11.3,16.9 22.6,33.7 33.9,50.6c3.3,-6.7 8.1,-12.9 11.4,-19.5c1.6,-3.2 6.1,-8 8.8,-7.2c6.7,2.1 11.2,-4.7 16.6,-0.1c5.4,4.6 10.3,10 11.4,17c2.4,16.2 -4.8,34.2 -10.6,49.5c-3,7.9 -6.6,16.3 -13.7,20.8c-10.7,6.9 -24.9,2.8 -36.3,-2.8c-11.9,-5.8 -23.2,-12.9 -33.5,-21.3c2.5,25.7 3.6,36.5 7,61.8z" id="svg_46"/>
       <polygon class="st12" id="svg_47" points="303.483060836792,521.6682376861572 309.5830364227295,537.5682621002197 295.783109664917,673.5682621002197 316.483060836792,536.0682621002197 "/>
       <g id="svg_48">
        <path class="st12" d="m270.083067,574.16829c18.7,39.7 64.5,48.5 102.1,60.2l-102.1,-60.2z" id="svg_49"/>
        <path class="st12" d="m252.983067,609.46829c32.3,36.6 94,31.4 137.5,31.4l-137.5,-31.4z" id="svg_50"/>
       </g>
       <g id="svg_51">
        <path class="st13" d="m218.783067,530.86829c7,-5 11.9,-11.9 17.7,-18.1c10.1,-10.7 22.4,-14.9 34.7,-20.4c1.5,6.7 8.2,14.2 11.1,20.2c-3,-6.1 -4,-14.3 -5.9,-20.8c7.3,-7.4 22.1,-9.2 32,-11.5c11.3,-2.7 27.1,-4.1 37.8,0.7c5.5,2.4 10.2,9.6 15.7,10.8c0.4,6.6 -4.3,15.4 -4.1,23.3l7.3,-21.5c5.6,0 11.2,5.7 16.4,8.1c5.6,2.6 10.9,5.6 15.4,9.9c6,5.7 9.8,15.2 14,22.3c6,10.2 13.2,19.1 20.7,28.2c2,2.4 6.7,6.5 6.1,9.8c-0.5,2.5 -6.2,10.5 -8,12.5c8.1,-5 10.8,-6.4 13.6,-9.5c-11.2,-16.6 -22.3,-33.3 -33.5,-49.9c-4.8,-7.1 -9.7,-14.4 -16.5,-19.5c-4.4,-3.4 -9.6,-5.8 -14.6,-8.1c-15.3,-7.1 -29.7,-21.9 -46.6,-21.3c-7.6,0.3 -16,-1.9 -23.2,0.5c-15.8,5.3 -31.6,10.5 -47.5,15.8c-3.8,1.3 -7.7,2.5 -11.2,4.4c-8.8,4.5 -15.5,12.1 -22.4,19.1c-8.5,8.7 -17.6,16.9 -27.3,24.4l0,0c5.6,-0.1 13.9,-6.3 18.3,-9.4z" id="svg_52"/>
       </g>
       <g id="svg_53">
        <path class="st12" d="m489.083067,560.06829c-0.1,-0.5 0.2,-1.1 0.3,-1.6c-2.2,-3.7 -5.4,-6.9 -8.7,-9.8c-5.4,-4.6 -9.9,2.2 -16.6,0.1c-1.7,-0.5 -4.2,1.3 -6.2,3.5c-0.1,9.7 6,19.7 13.8,25.7c-7.3,27.1 -15.3,47.6 -35.4,57.5c9.6,4 20.3,6.2 29.2,1.9c1.3,-1.6 2.5,-3.4 3.6,-5.4c8.2,-14.8 22.6,-48.8 20,-71.9z" id="svg_54"/>
       </g>
       <g id="svg_55">
        <path class="st14" d="m244.783067,340.36829c-2.1,-9.8 -4.3,-19.7 -4.6,-29.7s1.3,-20.3 6.3,-29c5.3,-9.3 14.2,-16.2 23.9,-20.7c9.7,-4.5 20.4,-6.6 31,-8.1c16.4,-2.3 33.7,-2.8 49.1,3.4c10.1,4.1 21.5,6.7 30,13.9c9,7.6 12.7,19 13.5,30.4c1.1,14.9 0.8,30.3 -0.6,45.2l-148.6,-5.4z" id="svg_56"/>
        <path class="st10" d="m332.683067,442.46829c1,16 2.5,28.3 6.1,43.9c-7.1,4.8 -14.3,10.7 -20.2,16.9c-6.6,-5.4 -14.8,-10.2 -21.4,-15.7c2.1,-15 1.7,-26 -1.3,-40.8c11.2,-2 25.3,-4 36.8,-4.3z" id="svg_57"/>
        <path class="st11" d="m335.083067,469.36829c-1.1,-9 -1.9,-18 -2.4,-26.9c-11.5,0.3 -25.6,2.3 -36.9,4.4c1.2,5.7 1.9,11.6 2.3,17.4c9.4,7.7 24.1,7.8 37,5.1z" id="svg_58"/>
        <g id="svg_59">
         <path class="st15" d="m254.083067,407.66829c-11.2,-9.6 -18.3,-23.9 -18.9,-38.7c-0.6,-14.8 5.1,-29.7 15.5,-40.2c12,23.5 14.1,54.6 3.4,78.9z" id="svg_60"/>
         <g id="svg_61">
          <path class="st14" d="m259.083067,373.56829c-4.6,2.4 -9.9,3.7 -15,2.5c-3.3,-0.8 -6.2,-2.5 -8.8,-4.7c1.2,13.9 8.1,27.3 18.8,36.4c4.8,-10.8 7,-23 6.9,-35.2c-0.6,0.2 -1.2,0.6 -1.9,1z" id="svg_62"/>
         </g>
         <path class="st16" d="m243.483067,388.46829c-6.9,-10.6 -8,-22.8 -3.8,-34.7c-1.7,11 0.1,24.1 3.8,34.7z" id="svg_63"/>
        </g>
        <g id="svg_64">
         <path class="st15" d="m375.183067,404.96829c14.3,-6.5 24.1,-20.6 25.6,-35.3c1.6,-14.7 -3.2,-29.9 -12.9,-41.1c-13.5,22.9 -21.9,51.6 -12.7,76.4z" id="svg_65"/>
         <g id="svg_66">
          <path class="st14" d="m371.783067,373.46829c-1.2,10.7 -0.4,21.4 3.3,31.5c12.8,-5.8 21.9,-17.7 24.8,-30.6c-2.9,1.5 -6.1,2.5 -9.3,2.9c-6.4,0.9 -13.1,-0.5 -18.8,-3.8z" id="svg_67"/>
         </g>
         <path class="st16" d="m388.283067,388.46829c5.9,-10.5 8.6,-22.8 7.4,-34.7c4.1,12.1 0.8,25 -7.4,34.7z" id="svg_68"/>
        </g>
        <path class="st10" d="m248.683067,324.56829c0.9,14.5 3.6,28.9 3,43.4c-0.5,12.9 -3.5,25.7 -2.2,38.5c2.6,24.8 23.1,46.4 47.5,51.4c24.5,5 51.2,-6.2 65.7,-26.4c10.3,-14.3 14.7,-31.9 17.3,-49.2c2.8,-18.4 3.8,-37 4.5,-55.6c0.4,-12.7 0.6,-25.5 -2.4,-37.8c-3.1,-12.3 -9.8,-24.2 -20.5,-30.9c-13.5,-8.5 -30.9,-7.6 -46.5,-4.1c-18.8,4.2 -38.3,11.6 -54.2,22.7c-13.1,9.1 -13.1,33.7 -12.2,48z" id="svg_69"/>
        <path class="st17" d="m382.583067,357.66829c-0.5,4.3 -1.3,10.5 -2.4,17.8c-1.1,7.3 -2.6,15.9 -5,24.8c-1.2,4.5 -2.7,9 -4.4,13.5c-1.8,4.5 -4,8.9 -6.6,13c-0.6,1 -1.3,2.1 -2,3.1l-0.5,0.8l-0.5,0.7l-1.1,1.4l-1.1,1.4c-0.4,0.5 -0.8,0.9 -1.2,1.4c-0.8,0.9 -1.6,1.8 -2.4,2.6c-3.3,3.4 -7.1,6.4 -10.9,8.9c-1,0.6 -1.9,1.2 -2.9,1.8c-1,0.5 -2,1.1 -2.9,1.6c-0.5,0.3 -1,0.5 -1.4,0.8c-0.5,0.2 -1,0.5 -1.5,0.7c-1,0.4 -1.9,0.9 -2.9,1.3c-2,0.7 -3.9,1.6 -5.8,2.1c-0.9,0.3 -1.9,0.6 -2.8,0.9c-0.9,0.2 -1.8,0.4 -2.7,0.7c-3.6,0.8 -6.9,1.3 -9.9,1.5c-3,0.2 -5.6,0.2 -7.8,0.1c-2.2,-0.1 -3.9,-0.3 -5,-0.5c-1.2,-0.1 -1.8,-0.2 -1.8,-0.2s0.6,0.1 1.7,0.4c1.1,0.2 2.8,0.7 5,0.8c2.2,0.3 4.8,0.4 7.9,0.4c0.8,0 1.5,-0.1 2.4,-0.1c0.8,0 1.6,0 2.5,-0.2c0.9,-0.1 1.7,-0.2 2.6,-0.3c0.4,-0.1 0.9,-0.1 1.4,-0.2c0.5,-0.1 0.9,-0.2 1.4,-0.3c0.9,-0.2 1.9,-0.4 2.8,-0.6c1,-0.2 1.9,-0.5 2.9,-0.8c2,-0.5 3.9,-1.3 6,-1.9c1,-0.4 2,-0.8 3,-1.3c0.5,-0.2 1,-0.4 1.5,-0.7c0.5,-0.2 1,-0.5 1.5,-0.8c1,-0.5 2,-1 3.1,-1.6c1,-0.6 2,-1.2 3,-1.8c1,-0.6 2,-1.3 3,-2c1,-0.7 2,-1.4 2.9,-2.2c0.9,-0.8 1.9,-1.5 2.8,-2.3c0.9,-0.9 1.8,-1.7 2.7,-2.6c0.9,-0.8 1.7,-1.8 2.6,-2.7c0.4,-0.5 0.9,-0.9 1.3,-1.4l1.2,-1.5l1.2,-1.5c0.2,-0.3 0.4,-0.5 0.6,-0.8l0.5,-0.8c0.7,-1 1.4,-2 2.1,-3.1c2.7,-4.3 4.9,-8.9 6.7,-13.5c1.8,-4.6 3.2,-9.3 4.3,-13.8c1.1,-4.6 2,-9 2.6,-13.3c0.7,-4.2 1.2,-8.3 1.6,-12c0.8,-7.4 1.1,-13.6 1.4,-18c0.1,-2.2 0.2,-3.9 0.2,-5c0,-1.2 0,-1.8 0,-1.8s-0.5,2.8 -0.9,7.1z" id="svg_70"/>
        <ellipse class="st18" cx="282.083067" cy="377.56829" id="svg_71" rx="17.1" ry="6.8"/>
        <path class="st19" d="m289.383067,340.86829c-3.1,-0.1 -4,1.5 -5.6,6c-1.5,5.1 -1.8,10.2 -1.7,15.5c0.1,2.5 0.4,5.1 1.7,7.3c1.4,2.1 4,3.6 6.4,2.8c1.5,-0.5 2.7,-1.8 3.3,-3.3c0.6,-1.5 0.9,-3.1 1,-4.7c0.7,-6.3 0.9,-12.6 -0.4,-18.8c-0.3,-2.1 -2.7,-4.8 -4.7,-4.8z" id="svg_72"/>
        <path class="st19" d="m340.283067,340.16829c-2.6,-0.1 -4.1,0.6 -5.6,6c-1.5,5.1 -1.8,10.2 -1.7,15.5c0.1,2.5 0.4,5.1 1.7,7.3c1.4,2.1 4,3.6 6.4,2.8c1.5,-0.5 2.7,-1.8 3.3,-3.3c0.6,-1.5 0.9,-3.1 1,-4.7c0.7,-6.3 0.9,-12.6 -0.4,-18.8c-0.3,-2 -2.7,-4.7 -4.7,-4.8z" id="svg_73"/>
        <g id="svg_74">
         <path class="st14" d="m278.683067,450.06829c-1.8,0 -3.6,-0.1 -5.3,-0.2c-12.3,-0.7 -21.7,-4.2 -28,-10.3c-6.5,-6.3 -10.3,-16.4 -10.2,-27.5c0.1,-9.7 3.7,-21 7.2,-30.7c0.4,-1 1.4,-1.5 2.4,-1.1c1,0.4 1.5,1.4 1.1,2.4c-3.4,9.5 -6.9,20.4 -6.9,29.5c-0.1,10.1 3.2,19.1 9,24.7c5.6,5.4 14.2,8.5 25.6,9.2c7.8,0.4 15.6,-0.1 23.3,-1.7c1,-0.2 2,0.4 2.3,1.5c0.2,1 -0.4,2 -1.5,2.3c-6.3,1.3 -12.7,1.9 -19,1.9z" id="svg_75"/>
        </g>
        <circle class="st14" cx="301.483067" cy="444.76829" id="svg_76" r="8"/>
        <path class="st16" d="m303.483067,438.76829c-1.9,-0.7 -4.2,-0.2 -5.7,1.1c-1.5,1.3 -2.3,3.5 -1.9,5.5c0.4,-1.7 1.5,-3.2 2.8,-4.3s3.1,-2.3 4.8,-2.3z" id="svg_77"/>
        <ellipse class="st17" cx="291.583067" cy="350.86829" id="svg_78" rx="1" ry="2.8"/>
        <ellipse class="st17" cx="341.583067" cy="350.86829" id="svg_79" rx="1" ry="2.8"/>
        <linearGradient gradientTransform="translate(-21.3592 -1.94175) translate(-46.6019 18.4466) translate(62.1359 5.82524) translate(0 1) translate(-9 0) translate(-173 -19) translate(158.908 -19.5618) translate(16 37) matrix(0.9786 0.2059 -0.2902 1.379 91.4439 -163.625)" gradientUnits="userSpaceOnUse" id="svg_80" x1="294.941" x2="339.3548" y1="334.1598" y2="328.0851">
         <stop offset="0" stop-color="#FF70A9"/>
         <stop offset="1" stop-color="#FFC6A9"/>
        </linearGradient>
        <path class="st20" d="m296.083067,371.46829c-4.9,0.1 -10.3,0 -13.9,2.3c-4.8,3.1 -4.5,9.6 -0.4,13.9c4.1,4.3 11.1,6.5 17.6,6.7c11.9,0.3 23,-5.8 25.8,-14.7c1.2,-3.6 0.9,-7.9 -2.3,-10.9c-3.5,-3.4 -8.9,-3.1 -12.8,-1.4c-4.8,2.3 -7.8,4 -14,4.1z" id="svg_81"/>
        <path class="st17" d="m310.083067,367.46829c0,0 -0.6,0.4 -1.6,1c-1,0.6 -2.5,1.6 -4.5,2.5c-2,0.9 -4.8,1.6 -7.9,1.7c-1.4,0.1 -2.9,0.1 -4.4,0.2c-1.5,0.1 -2.9,0.2 -4.2,0.5c-1.3,0.2 -2.6,0.6 -3.6,1.1c-0.2,0.1 -0.6,0.3 -0.7,0.4c-0.3,0.2 -0.6,0.4 -0.8,0.5c-0.2,0.2 -0.4,0.3 -0.6,0.5l-0.5,0.6c-1.3,1.6 -1.7,3.6 -1.6,5.3c0.1,1.7 0.6,3.2 1.1,4.3c0.3,0.5 0.5,0.9 0.7,1.2c0.2,0.3 0.3,0.4 0.3,0.4s-0.1,-0.1 -0.4,-0.3c-0.3,-0.2 -0.7,-0.6 -1.1,-1c-0.4,-0.5 -0.9,-1.1 -1.4,-1.8c-0.4,-0.7 -0.9,-1.6 -1.1,-2.6c-0.3,-1 -0.4,-2.1 -0.3,-3.2c0.1,-1.1 0.4,-2.4 1.2,-3.5c0.2,-0.3 0.4,-0.5 0.6,-0.8c0.2,-0.3 0.5,-0.5 0.8,-0.8c0.3,-0.3 0.5,-0.4 0.8,-0.6c0.4,-0.3 0.7,-0.4 1,-0.6c1.4,-0.7 3,-1.2 4.6,-1.6c1.6,-0.3 3.3,-0.4 4.8,-0.4c1.6,-0.1 3.1,0 4.5,0c1.4,0 2.7,0 3.9,-0.1c1.2,-0.1 2.4,-0.4 3.4,-0.6c2.1,-0.5 3.8,-1.1 5,-1.5c1.3,-0.6 2,-0.8 2,-0.8z" id="svg_82"/>
        <path class="st21" d="m342.883067,398.56829c-19.4,2.9 -39.1,5.3 -58.4,2.2c2.2,7.5 4.1,14.1 6.3,21.5c0.2,0.7 0.4,1.5 1,2c0.6,0.6 1.5,0.8 2.3,1c12.6,2.7 26.1,0.5 37.3,-5.9c6.4,-3.7 13.1,-9.3 15.6,-16c0.9,-2.6 -1.4,-5.3 -4.1,-4.8z" id="svg_83"/>
        <ellipse class="st18" cx="344.783067" cy="379.66829" id="svg_84" rx="17.1" ry="6.8"/>
        <path class="st22" d="m295.083067,328.36829c-6,0.5 -15,2.1 -19.9,3.4c-2,0.5 -4.1,-0.6 -4.7,-2.6c0,0 0,0 0,-0.1c-0.5,-1.7 0.1,-3.5 1.6,-4.4c6.6,-4 14.7,-4.7 22.7,-4.9c2.2,0 4.1,1.8 4,4.1c0,0.3 0,0.6 0,0.9c-0.2,1.9 -1.8,3.5 -3.7,3.6z" id="svg_85"/>
        <path class="st22" d="m347.783067,328.56829c-5.8,-1.6 -14.8,-3.2 -19.9,-3.6c-2.1,-0.2 -3.6,-2 -3.5,-4.1c0,0 0,0 0,-0.1c0.1,-1.8 1.3,-3.3 3.1,-3.6c7.5,-1.5 15.5,0.6 23,3.2c2.1,0.7 3.2,3.1 2.3,5.2c-0.1,0.3 -0.2,0.5 -0.3,0.8c-0.8,1.8 -2.8,2.7 -4.7,2.2z" id="svg_86"/>
        <path class="st23" d="m383.083067,353.76829c2.6,-39.1 -11.5,-47.1 -11.5,-47.1c0.5,-9.2 -1.2,-17.1 -3.4,-26.1c-20.4,-2.6 -41.5,2.7 -59.2,13.2c-14.1,-10.7 -32,-13.8 -48.9,-8.3c1,7.5 2.3,13.6 2,21.1c-10.1,16.2 -12.7,36.3 -10.5,55.2c-1.5,-8.7 -3.6,-17.5 -5.1,-26.2c-1.7,-9.8 -3.4,-19.8 -2.7,-29.7c1,-15.9 8.1,-31.3 19.5,-42.3c9.8,-9.5 20.2,-18 25.5,-30.5c0.8,2.4 0.8,5.1 0.1,7.5c4,-3.4 8,-6.8 11.2,-11c3.2,-4.1 5.5,-9.1 5.7,-14.4c5.1,3.7 11.4,6.4 16.5,10.1c1.1,0.8 2.3,1.6 3.1,2.8c1.6,2.2 1.8,5.3 3.7,7.3c0.4,-3.4 0.7,-6.9 1.1,-10.3c6,4.8 10.6,11.5 12.8,18.9c-0.1,-3.5 -0.9,-6.9 -1,-10.4c9.7,14.6 27.6,22.2 36.8,37.1c3.7,6.1 5.7,13 7.2,19.9c4.4,21 3,42.4 -2.9,63.2z" id="svg_87"/>
        <path class="st24" d="m366.083067,261.06829c-7.3,-4.4 -14.7,-8.9 -19.7,-15.8c0.9,3.7 2.6,7.2 4.8,10.3c-2.9,-2.6 -5.7,-5.3 -8.6,-7.9c0.9,2.7 1.8,5.4 2.8,8.1c-2.9,-3.5 -5.7,-6.9 -8.6,-10.4c1.2,3.2 1.9,6.5 2.2,9.9c-1.5,-3.6 -3.6,-6.9 -6.4,-9.7c0.8,2.1 1.6,4.3 2.4,6.4c0.3,0.9 0.7,1.8 0.6,2.7c-0.1,0.9 -0.6,1.1 -1.6,1.2c-2.3,-3.5 -4.7,-7 -7,-10.4c0,2.6 2.6,4.9 2,7.5c-0.5,2.3 -3.2,3.3 -5,4.7c-2.2,-6.2 -4.7,-12.3 -7.5,-18.3c-0.6,6.6 2.4,13.1 2.2,19.7c-1.6,-3.6 -3.5,-7.1 -5.6,-10.4c0.1,2.9 -0.6,5.9 -1.2,8.8c-0.8,-2.7 -1.6,-5.4 -2.4,-8.2c0.1,3.4 -0.5,6.8 -1.7,9.9c-0.8,-3.8 -1.6,-7.5 -2.4,-11.3c-0.7,4.9 -2.1,9.6 -4.1,14.1c-0.3,-2.3 -0.6,-4.6 -0.9,-7c-1,2.6 -2.1,5.1 -3.1,7.7c-2.3,-1.2 -5,-1.6 -6.9,-3.4c-1.9,-1.9 -2.3,-5.2 -0.7,-7.4c-1.3,2.1 -2.6,4.3 -3.9,6.4c1.7,-3.7 2.4,-7.8 2.3,-11.8c-2.1,5.2 -5.6,9.8 -10.2,13c2.1,-2.7 3.6,-5.9 4.4,-9.2c-4.7,6.6 -10.6,12.4 -17.3,17c3.3,-0.8 6.8,-1.7 9.9,-3.1c-1.1,1.5 -2.2,3 -3.4,4.5c3.2,-0.6 5.6,-3 8.4,-4.6s6.5,-2.6 9,-0.6c-0.5,1.9 -1.7,3.5 -3.4,4.5c1.9,0.2 3,-2.6 4.9,-2.9c0.6,-0.1 1.3,0.1 1.9,0.3c2.8,0.9 5.5,1.8 8.3,2.7c0.7,-1.6 1.7,-3 2.9,-4.2c0.3,2 0.6,4 0.9,6c-0.1,-2.5 0.7,-5 2.2,-7.1c0.8,2.7 1.5,5.4 2.3,8.1c0.1,0.3 0.3,0.7 0.6,0.7c-0.1,-3 1,-6.3 1.7,-9.2c0.8,3.1 1.5,6.2 2.3,9.2c0.2,-2.4 0.3,-4.7 0.5,-7.1c0.8,1.4 1.3,3 1.5,4.6c0.3,-1.3 0.6,-2.6 0.9,-3.8c3,-0.3 6,-0.8 9,-1.5c1.7,-0.4 3.6,-0.9 4.8,-2.1s1.7,-3.5 0.5,-4.8c1.8,2.6 3.5,5.2 5.3,7.8c0.2,-1.8 0.3,-3.7 0.5,-5.5c1.6,0.2 2.9,-2.1 4.3,-1.3c0.4,0.2 0.7,0.6 0.9,1c1.1,1.9 2.1,3.7 3.2,5.6c0.2,-2 0,-4.1 -0.7,-6c1.7,1.8 3.1,3.8 4.3,5.9c-0.3,-2.3 -0.7,-4.7 -1,-7c1.5,2.8 3.5,5.4 5.7,7.6c0.4,-2.2 -0.1,-4.6 -1.5,-6.3c1.6,1.4 3.4,2.6 5.3,3.6c-0.5,-2.3 -1.6,-4.5 -3.2,-6.3c3.6,2.3 8.1,4.3 12.3,5.1z" id="svg_88"/>
        <path class="st24" d="m249.983067,301.06829c1.2,0.5 2.5,0.9 3.7,1.4c0,2.3 0,4.6 0,6.9c1.3,-2.2 2.3,-4.5 3,-6.9c0.4,0.7 0.9,1.4 1.3,2.1c0.7,-1.7 1,-3.4 1,-5.2c0.2,2.4 0.4,4.9 -0.3,7.2c-0.3,1.2 -0.9,2.3 -1.4,3.4c-2.1,4.3 -4.3,8.7 -6.4,13c0.8,-3.2 1.6,-6.4 2.3,-9.6c-0.6,1.1 -1.4,2.2 -2.3,3.1c-0.1,-2.7 -0.2,-5.3 0,-8c-0.7,0.4 -1.7,0.4 -2.4,-0.2c0,-1.4 0,-2.7 0,-4.1c-1.2,3.5 -2,7.1 -2.3,10.8c0.2,-2.5 -1.1,-5.5 -1.2,-8.1c-0.1,-2.6 0.1,-5.3 0.8,-7.8c0.3,0.7 0.6,1.6 1.1,2.1c0.9,-0.8 1.7,-1.8 2.6,-2.6c0.2,0.9 0.3,1.7 0.5,2.5z" id="svg_89"/>
        <path class="st24" d="m383.683067,302.56829c0.8,3.4 1.5,6.8 2.3,10.2c0.7,-8.2 -0.7,-16.7 -4,-24.2c0.6,2.5 0.8,5.1 0.7,7.7c-0.4,-2.3 -1.4,-4.4 -2.7,-6.3c0.7,2.3 1,4.6 1,7c-0.8,0 -1.5,0 -2.3,0c-0.2,-1.4 -0.8,-2.7 -1.6,-3.7c0.1,1.7 0,3.5 -0.3,5.2c-0.6,-3.2 -1.7,-6.3 -3.2,-9.2c1.2,4.6 1.6,9.4 1.3,14.1c-0.2,-1.1 0.6,-2.8 1.2,-3.7c0.3,1.3 0.6,2.6 0.9,3.8c0.2,0.7 0.3,1.5 0.9,2c0.5,0.5 1.5,0.8 2,0.2c-0.2,-2 -0.3,-4 -0.5,-6c1,2.2 1.7,4.5 2.2,6.8c0.3,-2.1 0.3,-4.2 0.2,-6.3c0.5,0 0.9,-0.1 1.4,-0.3c-0.1,0.9 0.3,1.9 0.5,2.7z" id="svg_90"/>
       </g>
       <rect class="st25" height="7.5" id="svg_91" width="40.9" x="344.783067" y="575.66829"/>
       <path class="st7" d="m177.783067,493.36829c9.6,0.6 17.3,7.9 18.6,17.4c2.3,17 4.9,34 7.8,51c1.9,11.5 4,23.3 1.4,34.7s-10.9,22.4 -22.9,24.7c-12.3,2.4 -25,-5.3 -31.3,-15.8c-6.3,-10.4 -7.6,-22.9 -7.6,-35c-0.1,-21.1 2.8,-42.3 8.8,-62.6c2.5,-8.4 10.1,-14.4 18.8,-14.6c2.1,0 4.2,0.1 6.4,0.2z" id="svg_92"/>
       <path class="st12" d="m205.483067,606.36829c-1.5,0.4 -2.9,0.5 -4.3,0.4c3.2,-24.3 -1.5,-46.8 -5.5,-70.7c-1,-8.8 -3.1,-17.4 -4.4,-26c1.1,-1.7 2.3,-3.4 3.3,-5.1c-1.1,-2.3 -2.6,-4.4 -4.4,-6.1c0,0 0,0 0,0c-0.1,-0.1 -0.2,-0.1 -0.3,-0.2c-0.1,-0.1 -0.2,-0.1 -0.3,-0.2c-0.4,-0.4 -0.9,-0.8 -1.4,-1.1c-0.2,-0.1 -0.4,-0.3 -0.5,-0.4c-0.2,-0.1 -0.4,-0.3 -0.7,-0.4c-0.2,-0.1 -0.4,-0.3 -0.7,-0.4c-0.2,-0.1 -0.4,-0.2 -0.6,-0.3c-0.3,-0.1 -0.6,-0.3 -0.9,-0.4c-0.2,-0.1 -0.3,-0.2 -0.5,-0.2c-0.5,-0.2 -0.9,-0.4 -1.4,-0.5c-0.1,-0.1 -0.3,-0.1 -0.4,-0.1c-0.4,-0.1 -0.7,-0.2 -1.1,-0.3c-0.2,0 -0.4,-0.1 -0.5,-0.1c-0.4,-0.1 -0.7,-0.2 -1.1,-0.2c-0.2,0 -0.3,-0.1 -0.5,-0.1c-0.5,-0.1 -1.1,-0.1 -1.6,-0.2c-2.1,-0.1 -4.3,-0.2 -6.4,-0.1c-7.2,0.2 -13.7,4.2 -17.1,10.4c3.1,6.8 9.1,13.2 14.4,13.8c0,8.5 -0.9,19.4 -0.6,27.8c0.4,11.7 3.5,23 5.4,34.6c1.2,7.5 3.3,14.8 6.3,21.9c2.7,6.6 6.8,8.1 12.2,11.5c-9.7,3.9 -20.6,4.9 -30.7,2.6c5.3,3.7 11.5,5.9 17.9,5.7c0,0 0,0 0,0c23.6,0 43.7,-24.8 57.2,-37.6c-4.6,2 -25.6,20.8 -30.8,22z" id="svg_93"/>
       <path class="st25" d="m194.583067,506.06829c1.6,-6 2,-12.2 1.2,-18.6c-13.7,1.1 -26.8,0 -40.3,-2.9c-1.3,5.9 -1.6,12 -1,18c0.4,3.8 3,7.1 6.6,8.4c7.2,2.4 17.2,3.3 24.8,2.5c4.2,-0.5 7.6,-3.4 8.7,-7.4z" id="svg_94"/>
       <polygon class="st26" id="svg_95" points="295.783109664917,673.5682621002197 311.88305473327637,536.9682865142822 303.483060836792,521.6682376861572 317.28304862976074,510.368371963501 335.0830669403076,520.3683109283447 325.38305473327637,537.8682498931885 344.783109664917,673.5682621002197 "/>
       <path class="st25" d="m272.583067,495.66829l21,30.8l23.7,-18.3c0,0 34.4,20.5 34.8,18.3c0.4,-2.2 13.2,-32.9 13.2,-32.9l-11.9,39.5l-36.1,-19.8l-26.7,19.8l-18,-37.4z" id="svg_96"/>
       <path class="st25" d="m492.583067,560.56829c1.2,-3.9 2.3,-7.9 3.4,-11.5c-9,-4.7 -19,-7.5 -28.5,-11.2c-2.6,4.4 -4.4,9.2 -5.3,14.3c-0.6,3.2 0.7,6.4 3.4,8.3c3.4,2.4 8.6,4.8 14.8,6.7c5.2,1.4 10.6,-1.5 12.2,-6.6z" id="svg_97"/>
       <path class="st12" d="m200.683067,540.16829c2.8,8.1 3.5,18.9 5.2,27.3c1.6,7.6 1.7,16 1.9,23.9c5.3,-7.3 3.9,-18.8 2.1,-27.1c-1.2,-5.6 -4,-10.4 -5.6,-15.9c-0.9,-3.4 -1.4,-5.6 -3.6,-8.2z" id="svg_98"/>
       <path class="st12" d="m200.683067,540.16829c7.8,4.9 13.2,18.5 18.1,26.1c-4.3,-11.1 -8,-19.8 -18.1,-26.1z" id="svg_99"/>
       <path class="st12" d="m236.383067,584.06829c0,-14.3 -0.5,-28.5 -6.1,-41.4c5.1,10.6 10,20.3 9.4,32.3c5.3,-17.4 0.3,-35.2 1.2,-52.8c2.8,11.9 6.4,25.8 5.2,38.1c-0.9,9.8 -5.7,15.5 -9.7,23.8z" id="svg_100"/>
       <path class="st12" d="m397.983067,612.06829c0.3,-13.3 -6.8,-27.5 -7,-40.6c-0.1,-6.7 0.4,-14.1 1,-20.9c0.5,-5.6 2.1,-10.2 -0.5,-19.5c5,8.5 5.9,18.2 6.5,28c0.4,6.2 -0.6,12.1 -0.7,18.2c2.3,-5.1 5,-10.3 4.7,-16c3.3,10.3 -3.9,33.6 -4,50.8z" id="svg_101"/>
       <path class="st12" d="m443.783067,575.56829c-2.9,5.9 -11.3,31.2 -14.9,35.1c-1,-12.3 6.5,-26.5 14.9,-35.1z" id="svg_102"/>
       <path class="st12" d="m443.683067,574.96829c-11.2,5.2 -23.4,13.2 -31,23.1c11.1,-0.2 22.2,-17.7 31,-23.1z" id="svg_103"/>
      </g>
     </g>
     <g id="svg_104"/>
     <g id="svg_107">
      <path class="st27" d="m237.283067,235.26829c0,-33.3 -46.2,-60.3 -103.2,-60.3c-57,0 -103.2,27 -103.2,60.3c0,33.3 46.2,60.3 103.2,60.3c3.3,0 6.5,-0.1 9.7,-0.3c9,9.8 25.3,19.9 54.9,24.3c-2,-0.3 -23.6,-4.3 -32.8,-27c41.5,-7.8 71.4,-30.5 71.4,-57.3z" fill="black" id="svg_108"/>
     </g>
     <g id="svg_109">
      <circle class="st6" cx="95.183067" cy="237.26829" id="svg_110" r="10"/>
      <circle class="st6" cx="134.083067" cy="237.26829" id="svg_111" r="10"/>
      <circle class="st6" cx="173.083067" cy="237.26829" id="svg_112" r="10"/>
     </g>
    </g>
   </g>
  </g>
  <polygon cx="-165.506247" cy="184.624301" fill="black" id="svg_113" orient="point" point="5" points="-165.50624662361759,184.62430136798042 -165.50624662361759,184.62430136798042 -165.50624662361759,184.62430136798042 -165.50624662361759,184.62430136798042 -165.50624662361759,184.62430136798042 -165.50624662361759,184.62430136798042 -165.50624662361759,184.62430136798042 -165.50624662361759,184.62430136798042 -165.50624662361759,184.62430136798042 -165.50624662361759,184.62430136798042 -165.50624662361759,184.62430136798042 -165.50624662361759,184.62430136798042 " r="0" r2="0" shape="star" stroke-width="null" strokeWidth="null" strokecolor="none"/>
 </g>
</svg>