<?xml version="1.0" encoding="utf-8"?>
<!-- Generator: Adobe Illustrator 21.1.0, SVG Export Plug-In . SVG Version: 6.00 Build 0)  -->
<svg version="1.1" id="Layer_1" xmlns="http://www.w3.org/2000/svg" xmlns:xlink="http://www.w3.org/1999/xlink" x="0px" y="0px"
	 viewBox="0 0 1400 980" style="enable-background:new 0 0 1400 980;" xml:space="preserve">
<style type="text/css">
	.st0{fill:#F7F7F7;}
	.st1{fill:#D1943D;}
	.st2{fill:#E25D5D;}
	.st3{fill:#EFEFEF;}
	.st4{fill:#FFE5C5;}
	.st5{fill:#F7C997;}
	.st6{fill:#DBDBDB;}
	.st7{fill:#48453E;}
	.st8{fill:#4A4742;}
	.st9{fill:none;stroke:#48453E;stroke-width:7;stroke-miterlimit:10;}
	.st10{fill:none;stroke:#48453E;stroke-width:20;stroke-linecap:round;stroke-linejoin:round;stroke-miterlimit:10;}
	.st11{fill:#BC2F2F;}
	.st12{fill:#686460;}
	.st13{fill:#C93939;}
	.st14{fill:#9FF8FF;}
	.st15{fill:#71CCF4;}
	.st16{fill:#F4B822;}
	.st17{fill:#FFFFFF;}
	.st18{fill:#3CB3DD;}
	.st19{fill:#39A4C9;}
	.st20{font-family:'AlegreyaSans-Medium';}
	.st21{font-size:77.1849px;}
	.st22{fill:none;}
	.st23{font-family:'AlegreyaSans-Regular';}
	.st24{font-size:9.748px;}
</style>
<rect class="st0" width="1400" height="980"/>
<g>
	<g>
		<g>
			<g>
				<g>
					<g>
						<path class="st1" d="M818.4,434.5H817C817,434.5,817.5,434.7,818.4,434.5z"/>
						<path class="st1" d="M998.9,434.5h-1.4C998.4,434.7,998.9,434.5,998.9,434.5z"/>
						<path class="st1" d="M984.9,353.6c0-104.4-68.5-103.1-76.9-102.5c-8.4-0.6-76.9-1.9-76.9,102.5c0,70.4-9.1,79.9-12.7,80.9
							h88.7h1.7h88.7C994,433.5,984.9,424,984.9,353.6z"/>
					</g>
					<path class="st2" d="M1055.6,599H760l13.1-111.2c8.3-9.1,40.4-20.1,72.2-29.8c9.8-3,19.5-5.8,28.5-8.5c0.1,0,0.3-0.1,0.4-0.1
						h67.7c10.3,3,21.5,6.4,32.7,9.8c30.4,9.4,60.1,19.8,68.1,28.6L1055.6,599z"/>
					<path class="st3" d="M965.9,456.6l-24.3,67.9l-31.9-34.9l-31.9,34.9l-24.7-68.9c6.9-2.1,13.7-4.1,20.1-6
						c0.2-0.1,0.5-0.1,0.7-0.2h67.7C949.4,451.7,957.6,454.1,965.9,456.6z"/>
					<polygon class="st4" points="941.6,381.8 874,381.8 874,449.9 910,585.2 941.6,449.9 					"/>
					<path class="st5" d="M874,428.8c10,10.6,22,17.6,35.1,17.6c12,0,23.1-5.9,32.6-15.1v-49.5H874V428.8z"/>
					<polygon class="st6" points="910,489.4 909.8,489.6 909.6,489.4 909.7,489.2 					"/>
					<polygon class="st6" points="909.7,489.2 910,489.4 909.8,489.6 909.6,489.4 					"/>
					<polygon class="st6" points="910,489.4 909.8,489.6 909.6,489.4 909.7,489.2 					"/>
					<polygon class="st6" points="910,489.4 909.8,489.6 909.6,489.4 909.7,489.2 					"/>
					<polygon class="st7" points="910,489.4 909.8,489.6 909.6,489.4 909.7,489.2 					"/>
					<g>
						<circle id="XMLID_3_" class="st4" cx="853" cy="363.3" r="12.6"/>
						<path id="XMLID_5_" class="st4" d="M957.3,317c0,0,1.1,11.6,6.4,22.7l0,22c0,30.3-24.6,73.2-54.9,73.2
							c-30.3,0-54.9-42.9-54.9-73.2l0.1-22l3-17.7c0,0,39.6-13.3,51-31.5C908.1,290.5,924,313.4,957.3,317z"/>
						<path id="XMLID_6_" class="st8" d="M843,357.9"/>
						<path id="XMLID_1_" class="st8" d="M973.7,358.7"/>
						<circle id="XMLID_2_" class="st4" cx="964.8" cy="363.3" r="12.6"/>
					</g>
					<g>
						<g>
							<path class="st7" d="M849.8,329.8h-16.3c-2.2,0-3.9,1.8-3.9,3.9v46.5c0,2.2,1.8,3.9,3.9,3.9h16.3c2.2,0,3.9-1.8,3.9-3.9
								v-46.5C853.7,331.5,852,329.8,849.8,329.8z"/>
							<path class="st6" d="M829.8,376.8h-5.7c-2.7,0-4.9-2.2-4.9-4.9V342c0-2.7,2.2-4.9,4.9-4.9h5.7V376.8z"/>
						</g>
						<path class="st9" d="M973.2,345.1V317c0-34.6-30.5-62.6-68.1-62.6h0c-37.6,0-68.1,28-68.1,62.6v28.1"/>
						<path class="st10" d="M937.2,261.7c-9.6-4.7-20.5-7.4-32.1-7.4h0c-11.6,0-22.5,2.7-32.1,7.4"/>
						<g>
							<path class="st7" d="M960.3,329.8h16.3c2.2,0,3.9,1.8,3.9,3.9v46.5c0,2.2-1.8,3.9-3.9,3.9h-16.3c-2.2,0-3.9-1.8-3.9-3.9
								v-46.5C956.3,331.5,958.1,329.8,960.3,329.8z"/>
							<path class="st6" d="M980.3,376.8h5.7c2.7,0,4.9-2.2,4.9-4.9V342c0-2.7-2.2-4.9-4.9-4.9h-5.7V376.8z"/>
						</g>
					</g>
					<path class="st11" d="M910,585.2l-0.1-0.1l-0.1-0.1l-55.6-58l6.6-13.2l-16.2,6.6c0,0,0.4-36.1,0.7-62.4
						c9.8-3,19.5-5.8,28.5-8.5l0.3,0.4l35.9,134.8l0.1,0.3L910,585.2z"/>
					<path class="st11" d="M958.9,513.8l6.6,13.2l-55.6,58l-0.1,0.1l-0.1,0.1l0.1-0.2l0.1-0.3l31.8-135.3h0.1
						c10.3,3,21.5,6.4,32.7,9.8c0.3,26.1,0.7,61.2,0.7,61.2L958.9,513.8z"/>
					<rect x="955.4" y="568.8" class="st11" width="51.6" height="9.1"/>
				</g>
				<g>
					<g>
						<path class="st1" d="M381.1,434.5h-1.4C379.7,434.5,380.3,434.7,381.1,434.5z"/>
						<path class="st1" d="M561.6,434.5h-1.4C561.1,434.7,561.6,434.5,561.6,434.5z"/>
						<path class="st12" d="M547.6,353.6c0-104.4-68.5-103.1-76.9-102.5c-8.4-0.6-76.9-1.9-76.9,102.5c0,70.4-9.1,168-12.7,169.1
							l87.5-87c0.8-0.8,1.8-1.2,2.9-1.2l0,0l88.7,88.2C556.7,521.6,547.6,424,547.6,353.6z"/>
					</g>
					<path class="st3" d="M618.3,599H322.7l13.1-111.2c8.3-9.1,40.4-20.1,72.2-29.8c9.8-3,19.5-5.8,28.5-8.5c0.1,0,0.3-0.1,0.4-0.1
						h67.7c10.3,3,21.5,6.4,32.7,9.8c30.4,9.4,60.1,19.8,68.1,28.6L618.3,599z"/>
					<path class="st3" d="M528.6,456.6l-24.3,67.9l-31.9-34.9l-31.9,34.9L416,455.6c6.9-2.1,13.7-4.1,20.1-6
						c0.2-0.1,0.5-0.1,0.7-0.2h67.7C512.1,451.7,520.3,454.1,528.6,456.6z"/>
					<polygon class="st4" points="504.3,381.8 436.7,381.8 436.7,449.9 472.7,585.2 504.3,449.9 					"/>
					<path class="st5" d="M436.7,428.8c10,10.6,22,17.6,35.1,17.6c12,0,23.1-5.9,32.6-15.1v-49.5h-67.7V428.8z"/>
					<polygon class="st6" points="472.7,489.4 472.5,489.6 472.3,489.4 472.5,489.2 					"/>
					<polygon class="st6" points="472.5,489.2 472.7,489.4 472.5,489.6 472.3,489.4 					"/>
					<polygon class="st6" points="472.7,489.4 472.5,489.6 472.3,489.4 472.5,489.2 					"/>
					<polygon class="st6" points="472.7,489.4 472.5,489.6 472.3,489.4 472.5,489.2 					"/>
					<polygon class="st7" points="472.7,489.4 472.5,489.6 472.3,489.4 472.5,489.2 					"/>
					<g>
						<circle id="XMLID_10_" class="st4" cx="415.7" cy="363.3" r="12.6"/>
						<path id="XMLID_9_" class="st4" d="M523.1,322.1c0,0-2,6.6,3.3,17.6l0,22c0,30.3-24.6,73.2-54.9,73.2
							c-30.3,0-54.9-42.9-54.9-73.2l0.1-22l3-17.7l42.8,1.1l11-17l9.5,16.5L523.1,322.1z"/>
						<path id="XMLID_8_" class="st8" d="M405.8,357.9"/>
						<path id="XMLID_7_" class="st8" d="M536.4,358.7"/>
						<circle id="XMLID_4_" class="st4" cx="527.5" cy="363.3" r="12.6"/>
					</g>
					<g>
						<g>
							<path class="st7" d="M412.5,329.8h-16.3c-2.2,0-3.9,1.8-3.9,3.9v46.5c0,2.2,1.8,3.9,3.9,3.9h16.3c2.2,0,3.9-1.8,3.9-3.9
								v-46.5C416.5,331.5,414.7,329.8,412.5,329.8z"/>
							<path class="st6" d="M392.5,376.8h-5.7c-2.7,0-4.9-2.2-4.9-4.9V342c0-2.7,2.2-4.9,4.9-4.9h5.7V376.8z"/>
						</g>
						<path class="st9" d="M535.9,345.1V317c0-34.6-30.5-62.6-68.1-62.6h0c-37.6,0-68.1,28-68.1,62.6v28.1"/>
						<path class="st10" d="M499.9,261.7c-9.6-4.7-20.5-7.4-32.1-7.4h0c-11.6,0-22.5,2.7-32.1,7.4"/>
						<g>
							<path class="st7" d="M523,329.8h16.3c2.2,0,3.9,1.8,3.9,3.9v46.5c0,2.2-1.8,3.9-3.9,3.9H523c-2.2,0-3.9-1.8-3.9-3.9v-46.5
								C519,331.5,520.8,329.8,523,329.8z"/>
							<path class="st6" d="M543,376.8h5.7c2.7,0,4.9-2.2,4.9-4.9V342c0-2.7-2.2-4.9-4.9-4.9H543V376.8z"/>
						</g>
					</g>
					<path class="st6" d="M472.7,585.2l-0.1-0.1l-0.1-0.1l-55.6-58l6.6-13.2l-16.2,6.6c0,0,0.4-36.1,0.7-62.4
						c9.8-3,19.5-5.8,28.5-8.5l0.3,0.4l35.9,134.8l0.1,0.3L472.7,585.2z"/>
					<path class="st6" d="M521.7,513.8l6.6,13.2l-55.6,58l-0.1,0.1l-0.1,0.1l0.1-0.2l0.1-0.3l31.8-135.3h0.1
						c10.3,3,21.5,6.4,32.7,9.8c0.3,26.1,0.7,61.2,0.7,61.2L521.7,513.8z"/>
					<rect x="518.1" y="568.8" class="st6" width="51.6" height="9.1"/>
				</g>
			</g>
			<g>
				<path class="st3" d="M873.6,714.5l-15.5-131.6c-12.8-14.2-73.9-32-119.2-45.4h-80.1c-45.3,13.4-106.7,31.3-119.5,45.4
					l-15.5,131.6H873.6z"/>
				<path class="st3" d="M767.5,545.9l-28.8,80.4L701,585l-37.7,41.3l-29.2-81.6c8.2-2.5,16.2-4.8,23.8-7.1c0.3-0.1,0.6-0.2,0.8-0.3
					h80.1C748,540.1,757.7,543,767.5,545.9z"/>
				<polygon class="st4" points="738.7,457.5 658.7,457.5 658.7,538 701.3,584.8 738.7,538 				"/>
				<path class="st5" d="M658.7,513.1c11.8,12.5,26.1,20.8,41.5,20.8c14.2,0,27.4-7,38.6-17.8v-58.6h-80.1V513.1z"/>
				<path class="st12" d="M615.2,384.3c1.5,27.2,2,50,2,50l80.4-0.4v0.1l76.6,0.4c0,0,2.1-22.7,3.6-49.9c2.4-43.1-32-79.4-75.1-79.4
					H693C649.9,305.1,612.9,341.2,615.2,384.3z"/>
				<line id="XMLID_221_" class="st8" x1="776.7" y1="430.1" x2="622.1" y2="429.2"/>
				<circle id="XMLID_220_" class="st4" cx="633.8" cy="435.6" r="14.9"/>
				<circle id="XMLID_219_" class="st4" cx="766.1" cy="435.6" r="14.9"/>
				<path id="XMLID_218_" class="st4" d="M764.9,407.6c-6.3-13.1-12.2-30.7-12.2-30.7c-6.2,2-30.8,11.3-54.8,11.6
					c-22.7,0.3-44.9-8.3-50.7-10.2l-12,29.3l-0.1,26c0,35.9,29.1,86.6,64.9,86.6c35.9,0,64.9-50.7,64.9-86.6L764.9,407.6z"/>
				<path class="st7" d="M663.1,714.5l-41.6-165.9c-36.5,11.2-72.7,23.8-82.2,34.3l-15.5,131.6H663.1z"/>
				<path class="st7" d="M873.6,714.5l-15.5-131.6c-9.5-10.5-45.6-23-82.2-34.3l-41.6,165.9H873.6z"/>
				<path class="st6" d="M701.3,584.8L701,585l-38.7,20.7l-28.2-61c8.2-2.5,16.2-4.8,23.8-7.1l0.7,0.3l42.4,46.5L701.3,584.8z"/>
				<path class="st6" d="M767.5,545.9l-29.8,59.8L701,585l-0.2-0.3l0.2-0.3l37.8-47.1h0.1C748,540.1,757.7,543,767.5,545.9z"/>
				<polygon class="st6" points="701.3,584.8 701,585 700.8,584.8 701,584.5 				"/>
				<polygon class="st6" points="701,584.5 701.3,584.8 701,585 700.8,584.8 				"/>
				<polygon class="st6" points="701.3,584.8 701,585 700.8,584.8 701,584.5 				"/>
				<polygon class="st6" points="701.3,584.8 701,585 700.8,584.8 701,584.5 				"/>
				<polygon class="st7" points="701.3,584.8 701,585 700.8,584.8 701,584.5 				"/>
				<polygon class="st2" points="701.3,584.8 701,585 700.8,584.8 701,584.5 				"/>
				<polygon class="st13" points="730.5,601.7 715.1,631 685.1,631 669.7,601.8 701,585 				"/>
				<polygon class="st2" points="721.4,714.5 715.1,631.1 685.5,631.1 677.6,714.5 				"/>
				<g>
					<path class="st7" d="M630.1,395.9h-19.3c-2.6,0-4.7,2.1-4.7,4.7v55c0,2.6,2.1,4.7,4.7,4.7h19.3c2.6,0,4.7-2.1,4.7-4.7v-55
						C634.7,397.9,632.6,395.9,630.1,395.9z"/>
					<path class="st6" d="M606.4,451.5h-6.7c-3.2,0-5.8-2.6-5.8-5.8v-35.4c0-3.2,2.6-5.8,5.8-5.8h6.7V451.5z"/>
				</g>
				<path class="st9" d="M776.1,414v-33.3c0-40.9-36.1-74.1-80.6-74.1h0c-44.5,0-80.6,33.2-80.6,74.1V414"/>
				<path class="st10" d="M733.5,315.3c-11.3-5.6-24.2-8.7-37.9-8.7h0c-13.7,0-26.7,3.2-38,8.7"/>
				<g>
					<path class="st7" d="M760.8,395.9h19.3c2.6,0,4.7,2.1,4.7,4.7v55c0,2.6-2.1,4.7-4.7,4.7h-19.3c-2.6,0-4.7-2.1-4.7-4.7v-55
						C756.1,397.9,758.2,395.9,760.8,395.9z"/>
					<path class="st6" d="M784.5,451.5h6.7c3.2,0,5.8-2.6,5.8-5.8v-35.4c0-3.2-2.6-5.8-5.8-5.8h-6.7V451.5z"/>
				</g>
			</g>
		</g>
		<g>
			<path class="st2" d="M671,168.5c-1.3,29.5-25.6,53-55.4,53c-30.6,0-55.5-24.8-55.5-55.5c0-26.6,18.8-48.9,43.8-54.2v17.1
				l51.1-29.5l-51.1-29.5v16.5C564.9,91.9,535,125.5,535,166c0,44.5,36.1,80.6,80.6,80.6c43.7,0,79.2-34.7,80.5-78.1H671z"/>
			<g>
				<path class="st12" d="M598.5,143.9c-2.8,0-4.6,1.5-4.6,5.6v6.1h-8.5v-5.5c0-9.1,4.6-14.3,13.4-14.3s13.4,5.2,13.4,14.3
					c0,17.9-17.8,24.6-17.8,34c0,0.4,0,0.8,0.1,1.2h16.9v8.1h-25.9v-7c0-16.8,17.7-19.5,17.7-36
					C603.1,145.2,601.3,143.9,598.5,143.9z"/>
				<path class="st12" d="M615.5,174.9l16.3-38.5h9.8v38.5h4.2v8.1h-4.2v10.3h-8.8V183h-17.3V174.9z M632.8,174.9v-21.4l-9,21.4
					H632.8z"/>
			</g>
		</g>
		<g>
			<path class="st7" d="M434.8,560.4H213.1c-9.5,0-17.2,7.7-17.2,17.2v154.8c0,9.5,7.7,17.2,17.2,17.2h221.7
				c9.5,0,17.2-7.7,17.2-17.2V577.7C452,568.1,444.3,560.4,434.8,560.4z"/>
			<path class="st14" d="M435.2,718.1c0,0.2-0.2,0.4-0.4,0.4H213.1c-0.2,0-0.4-0.2-0.4-0.4V577.7c0-0.2,0.2-0.4,0.4-0.4h221.7
				c0.2,0,0.4,0.2,0.4,0.4V718.1z"/>
			<path class="st6" d="M463.7,728.2h-98.8c-1.4,0-2.7,0.8-3.3,2.1l-3.9,8.4c-0.6,1.3-1.9,2.1-3.3,2.1h-65.6c-1.4,0-2.7-0.8-3.3-2.1
				l-3.9-8.4c-0.6-1.3-1.9-2.1-3.3-2.1h-94.2c-1.1,0-2,0.9-2,2v17.5c0,6.7,5.4,12.1,12.1,12.1h259.2c6.7,0,12.1-5.4,12.1-12.1v-17.5
				C465.7,729,464.8,728.2,463.7,728.2z"/>
		</g>
		<g>
			<g>
				<path class="st15" d="M1119.7,177.5l6-12.5l-11.6-7.5c0.3-2.2,0.5-4.3,0.4-6.5l12.3-6.2l-4.6-13l-13.5,2.9
					c-1.3-1.7-2.7-3.4-4.3-4.8l4.3-13.1l-12.5-6l-7.5,11.6c-2.2-0.3-4.3-0.5-6.5-0.4l-6.2-12.3l-13,4.6l2.9,13.5
					c-1.7,1.3-3.4,2.7-4.8,4.3l-13.1-4.3l-6,12.5l11.6,7.5c-0.3,2.2-0.5,4.3-0.4,6.5l-12.3,6.2l4.6,13l13.5-2.9
					c1.3,1.7,2.7,3.4,4.3,4.8l-4.3,13.1l12.5,6l7.5-11.6c2.2,0.3,4.3,0.5,6.5,0.4l6.2,12.3l13-4.6l-2.9-13.5
					c1.7-1.3,3.4-2.7,4.8-4.3L1119.7,177.5z M1078.5,164c-6.2-3-8.9-10.5-5.9-16.7c3-6.2,10.5-8.9,16.7-5.9s8.9,10.5,5.9,16.7
					C1092.2,164.3,1084.7,167,1078.5,164z"/>
			</g>
			<path class="st2" d="M1136.2,263.5v-16.1l-15.9-2c-0.7-2.4-1.7-4.8-2.9-7l9.8-12.7l-11.4-11.4l-12.7,9.8c-2.2-1.2-4.5-2.2-7-2.9
				l-2-15.9h-16.1l-2,15.9c-2.4,0.7-4.8,1.7-7,2.9l-12.7-9.8l-11.4,11.4l9.8,12.7c-1.2,2.2-2.2,4.5-2.9,7l-15.9,2v16.1l15.9,2
				c0.7,2.4,1.7,4.8,2.9,7l-9.8,12.7l11.4,11.4l12.7-9.8c2.2,1.2,4.5,2.2,7,2.9l2,15.9h16.1l2-15.9c2.4-0.7,4.8-1.7,7-2.9l12.7,9.8
				l11.4-11.4l-9.8-12.7c1.2-2.2,2.2-4.5,2.9-7L1136.2,263.5z M1095.1,261.1c0.6-1,1.1-2.1,1.4-3.3h13.9c-0.5,5-2.4,9.5-5.4,13.1
				L1095.1,261.1z M1096.5,253.1c-0.3-1.2-0.7-2.3-1.4-3.3l9.8-9.8c3,3.6,5,8.2,5.4,13.1H1096.5z M1101.6,236.7l-9.8,9.8
				c-1-0.6-2.1-1.1-3.3-1.4v-13.9C1093.4,231.7,1098,233.7,1101.6,236.7z M1081,255.4c0-2.9,2.3-5.2,5.2-5.2s5.2,2.3,5.2,5.2
				c0,2.9-2.3,5.2-5.2,5.2S1081,258.3,1081,255.4z M1083.8,231.2v13.9c-1.2,0.3-2.3,0.7-3.3,1.4l-9.8-9.8
				C1074.3,233.7,1078.8,231.7,1083.8,231.2z M1067.4,270.9c-3-3.6-5-8.2-5.4-13.1h13.9c0.3,1.2,0.7,2.3,1.4,3.3L1067.4,270.9z
				 M1075.8,253.1h-13.9c0.5-5,2.4-9.5,5.4-13.1l9.8,9.8C1076.5,250.8,1076.1,251.9,1075.8,253.1z M1070.7,274.2l9.8-9.8
				c1,0.6,2.1,1.1,3.3,1.4v13.9C1078.8,279.2,1074.3,277.2,1070.7,274.2z M1088.5,279.6v-13.9c1.2-0.3,2.3-0.7,3.3-1.4l9.8,9.8
				C1098,277.2,1093.4,279.2,1088.5,279.6z"/>
			<path class="st16" d="M1040.7,201.3v-14.4h-13.5c-0.8-3.7-2.3-7.1-4.2-10.2l9.5-9.5l-10.2-10.2l-9.5,9.5
				c-3.1-1.9-6.5-3.4-10.2-4.2v-13.5h-14.4v13.5c-3.7,0.8-7.1,2.3-10.2,4.2l-9.5-9.5l-10.2,10.2l9.5,9.5c-1.9,3.1-3.4,6.5-4.2,10.2
				h-13.5v14.4h13.5c0.8,3.7,2.3,7.1,4.2,10.2l-9.5,9.5l10.2,10.2l9.5-9.5c3.1,1.9,6.5,3.4,10.2,4.2v13.5h14.4v-13.5
				c3.7-0.8,7.1-2.3,10.2-4.2l9.5,9.5l10.2-10.2l-9.5-9.5c1.9-3.1,3.4-6.5,4.2-10.2H1040.7z M1010.1,201.2c-1.6,3.3-4.3,5.9-7.5,7.5
				c-0.6,0.3-1.2,0.5-1.8,0.7c-1.7,0.6-3.5,0.9-5.3,0.9s-3.7-0.3-5.3-0.9c-0.6-0.2-1.2-0.5-1.8-0.7c-3.3-1.6-5.9-4.3-7.5-7.5
				c-0.3-0.6-0.5-1.2-0.7-1.8c-0.6-1.7-0.9-3.5-0.9-5.3c0-1.9,0.3-3.7,0.9-5.3c0.2-0.6,0.5-1.2,0.7-1.8c1.6-3.3,4.3-5.9,7.5-7.5
				c0.6-0.3,1.2-0.5,1.8-0.7c1.7-0.6,3.5-0.9,5.3-0.9s3.7,0.3,5.3,0.9c0.6,0.2,1.2,0.5,1.8,0.7c3.3,1.6,5.9,4.3,7.5,7.5
				c0.3,0.6,0.5,1.2,0.7,1.8c0.6,1.7,0.9,3.5,0.9,5.3c0,1.9-0.3,3.7-0.9,5.3C1010.6,200,1010.4,200.6,1010.1,201.2z"/>
		</g>
		<g>
			<path class="st15" d="M428.7,104.4c28.5,0,51.6,23.1,51.6,51.6c0,17.4-8.6,32.7-21.8,42.1c4,6.6,9.1,13.7,13.2,16
				c0,0-13.7,0.8-26.5-9.2c-5.2,1.7-10.7,2.7-16.5,2.7c-28.5,0-51.6-23.1-51.6-51.6S400.2,104.4,428.7,104.4z"/>
			<path class="st16" d="M367.6,123.7c-31.5,0-57,25.5-57,57c0,19.2,9.5,36.2,24.1,46.5c-4.5,7.3-10,15.2-14.5,17.7
				c0,0,15.2,0.8,29.3-10.2c5.7,1.9,11.9,3,18.2,3c31.5,0,57-25.5,57-57S399.1,123.7,367.6,123.7z"/>
			<g>
				<circle class="st17" cx="345.8" cy="179.7" r="6"/>
				<circle class="st17" cx="369.9" cy="179.7" r="6"/>
				<circle class="st17" cx="392.9" cy="179.7" r="6"/>
			</g>
		</g>
		<g>
			<circle class="st15" cx="243.6" cy="174.7" r="14.8"/>
			<polygon class="st15" points="268.1,282.3 255.5,282.3 233.1,282.3 220.6,282.3 220.6,269.7 233.1,269.7 233.1,209.3 
				222.9,210.8 222.9,201.2 255.5,196.1 255.5,204.4 255.5,205.8 255.5,269.7 268.1,269.7 			"/>
		</g>
		<g>
			<path class="st16" d="M250.4,414.2c-10.8-11.8-10.5-30.2,0.9-41.7c11.8-11.8,30.9-11.8,42.6,0c10.2,10.2,11.6,26,4,37.7l-6.6-6.6
				l-8.3,31l31-8.3l-6.3-6.3c12.8-17.1,11.4-41.5-4.2-57.1c-17.1-17.1-44.8-17.1-61.9,0c-16.8,16.8-17.1,43.8-0.9,60.9L250.4,414.2z
				"/>
			<path class="st2" d="M294.1,470c-1.4-1.2-3-2.4-4.5-3.7c-9.2-7.8-21.2-15.1-33.2-1.7l-1.8,2.1c-12.2,3.7-18.4-2.2-22.9-6.5
				c-1.3-1.2-2.4-2.3-3.6-3.1c-0.8-0.9-2.1-2-3.7-3.4c-7.1-6.2-20.2-17.7-18.7-31.2l1.8-2.1c11.3-13.9,2.2-24.6-7-32.4
				c-1.5-1.3-3-2.6-4.3-3.8c-5.5-4.9-10.2-9.2-15.5-8.8c-2.9,0.2-5.4,1.7-7.9,4.5l-4.6,5.4c-5.8,6.8-9.5,14.8-10.5,22.4
				c-0.2,0.8-4,19.5,8,39.2c3.1,5.1,7.1,9.7,11.8,13.8l27.4,23.3l16.5,16.6c4.7,4,9.9,7.2,15.5,9.5c21.4,8.7,39.3,1.9,39.8,1.7
				c3.5-1.1,7-2.7,10.3-4.8c3.8-2.5,7.3-5.6,10.4-9.2l4.6-5.4c2.4-2.9,3.5-5.6,3.2-8.5C304.8,478.5,299.8,474.6,294.1,470z"/>
		</g>
		<g>
			<rect x="1009.9" y="517.1" class="st6" width="191.2" height="242.7"/>
			<rect x="1025.7" y="533.8" class="st17" width="159.7" height="205.5"/>
			<path class="st16" d="M1148.1,507c-6.1-18.8-23.7-32.4-44.6-32.4s-38.5,13.6-44.6,32.4h-21.5v33.9h136.2V507H1148.1z"/>
			<rect x="1036.9" y="563.7" class="st6" width="139.1" height="7.7"/>
			<rect x="1036.9" y="589.8" class="st6" width="139.1" height="7.7"/>
			<rect x="1036.9" y="619.3" class="st6" width="139.1" height="7.7"/>
			<rect x="1036.9" y="648.7" class="st6" width="139.1" height="7.7"/>
			<rect x="1036.9" y="674.8" class="st6" width="139.1" height="7.7"/>
			<rect x="1036.9" y="704.3" class="st6" width="139.1" height="7.7"/>
		</g>
		<g>
			
				<rect x="971.5" y="605.4" transform="matrix(-0.4595 -0.8882 0.8882 -0.4595 844.5743 1831.7057)" class="st15" width="16.3" height="107"/>
			<path class="st18" d="M1048.8,620.3l-25.4,6.7l7.5,14.5l20.1-16.9c0.9-0.7,1.1-2,0.6-3l0,0C1051.1,620.6,1049.9,620,1048.8,620.3
				z"/>
			<path class="st7" d="M1041.7,632.5l9.4-7.8c0.9-0.7,1.1-2,0.6-3s-1.7-1.6-2.8-1.3l-11.8,3.1L1041.7,632.5z"/>
			<path class="st18" d="M920,686.1l3,5.7c1.3,2.4,4.2,3.4,6.7,2.1l18.7-9.7l-7.5-14.5l-18.7,9.7C919.7,680.7,918.8,683.7,920,686.1
				z"/>
			<path class="st18" d="M922.8,673.5l3.9,7.6l9-4.7l-2.5-4.9c-1.1-2.2-0.3-4.9,1.9-6.1l16.5-8.5c0.6-0.3,1.4,0,1.7,0.6
				c0.8,1.5,2.6,2,4.1,1.3l0.6-0.3c1.5-0.8,2.1-2.6,1.3-4.1l-0.6-1.1c-1-1.9-3.3-2.6-5.2-1.6l-27.5,14.2l-0.9,0.5
				C922.4,667.7,921.4,670.9,922.8,673.5z"/>
		</g>
		<g>
			<rect x="804.3" y="79.3" class="st15" width="18.8" height="23.6"/>
			<path class="st19" d="M823.1,89.1v13.8h-18.8V88.9c2.7-0.3,5.5-0.4,8.3-0.4C816.2,88.4,819.7,88.7,823.1,89.1z"/>
			<path class="st15" d="M827.1,83.5h-26.4c-2.2,0-4-1.8-4-4v-3.7c0-2.2,1.8-4,4-4h26.4c2.2,0,4,1.8,4,4v3.7
				C831.1,81.7,829.3,83.5,827.1,83.5z"/>
			<g>
				
					<rect x="753.8" y="100.4" transform="matrix(0.7575 -0.6528 0.6528 0.7575 112.4593 524.3406)" class="st15" width="16.6" height="20.8"/>
				<path class="st19" d="M767.2,104l7.9,9.2l-12.6,10.8l-8.1-9.4c1.7-1.8,3.4-3.5,5.3-5.1C762.2,107.5,764.6,105.7,767.2,104z"/>
				<path class="st15" d="M766.6,97.9L749,113.1c-1.5,1.3-3.7,1.1-5-0.4l-2.1-2.5c-1.3-1.5-1.1-3.7,0.4-5l17.7-15.2
					c1.5-1.3,3.7-1.1,5,0.4L767,93C768.2,94.4,768.1,96.7,766.6,97.9z"/>
				
					<rect x="853" y="102.5" transform="matrix(0.6528 -0.7575 0.7575 0.6528 215.8429 692.5072)" class="st15" width="20.8" height="16.6"/>
				<path class="st19" d="M858.3,104l-7.9,9.2l12.6,10.8l8.1-9.4c-1.7-1.8-3.4-3.5-5.3-5.1C863.3,107.5,860.8,105.7,858.3,104z"/>
				<path class="st15" d="M858.8,97.9l17.7,15.2c1.5,1.3,3.7,1.1,5-0.4l2.1-2.5c1.3-1.5,1.1-3.7-0.4-5l-17.7-15.2
					c-1.5-1.3-3.7-1.1-5,0.4l-2.1,2.5C857.2,94.4,857.4,96.7,858.8,97.9z"/>
			</g>
			<g>
				<path class="st15" d="M812.6,93.6c-40.6,0-73.4,32.9-73.4,73.4c0,40.6,32.9,73.4,73.4,73.4s73.4-32.9,73.4-73.4
					C886.1,126.5,853.2,93.6,812.6,93.6z M812.6,224.7c-31.8,0-57.7-25.8-57.7-57.7s25.8-57.7,57.7-57.7c31.8,0,57.7,25.8,57.7,57.7
					S844.5,224.7,812.6,224.7z"/>
				<path class="st2" d="M812.4,165.1h41.2c-1-21.8-18.9-39.1-40.9-39.1c-0.1,0-0.2,0-0.3,0V165.1z"/>
			</g>
		</g>
		<g>
			<g>
				<path class="st6" d="M1054.2,347.4c-19.5,24.3-15.6,59.7,8.7,79.2c24.3,19.5,59.7,15.6,79.2-8.7c19.5-24.3,15.6-59.7-8.7-79.2
					C1109.1,319.3,1073.7,323.2,1054.2,347.4z M1125.5,404.7c-12.1,15.1-34.3,17.6-49.4,5.4c-15.1-12.1-17.6-34.3-5.4-49.4
					c12.1-15.1,34.3-17.6,49.4-5.4C1135.3,367.4,1137.7,389.5,1125.5,404.7z"/>
				
					<ellipse transform="matrix(0.6258 -0.78 0.78 0.6258 112.4707 999.7405)" class="st17" cx="1098.1" cy="382.7" rx="42.2" ry="42.2"/>
			</g>
			
				<rect x="1124.6" y="409" transform="matrix(0.6258 -0.78 0.78 0.6258 101.1463 1048.3717)" class="st6" width="37" height="19.6"/>
			
				<rect x="1159" y="408.7" transform="matrix(0.6258 -0.78 0.78 0.6258 94.4121 1077.2908)" class="st6" width="21.9" height="63"/>
			<path class="st2" d="M1241,485.8l-11.2,14c-3,3.8-8.6,4.4-12.4,1.4l-42.1-33.8c-3.8-3-4.4-8.6-1.4-12.4l11.2-14
				c3-3.8,8.6-4.4,12.4-1.4l42.1,33.8C1243.5,476.5,1244.1,482,1241,485.8z"/>
		</g>
	</g>
	<g>
		<text transform="matrix(1 0 0 1 484.6118 828.4766)" class="st20 st21">CALL CENTRE</text>
		<rect x="417.3" y="862.6" class="st22" width="546.9" height="47.6"/>
		<text transform="matrix(1 0 0 1 430.4097 869.4658)"><tspan x="0" y="0" class="st23 st24">Lorem ipsum dolor sit amet, consectetuer adipiscing elit, sed diam nonummy nibh euismod tincidunt ut laoreet dolore magna aliquam erat </tspan><tspan x="-6.6" y="11.7" class="st23 st24">volutpat. Ut wisi enim ad minim veniam, quis nostrud exerci tation ullamcorper suscipit lobortis nisl ut aliquip ex ea commodo consequat. Duis </tspan><tspan x="107.3" y="23.4" class="st23 st24">autem vel eum iriure dolor in hendrerit in vulputate velit esse molestie consequat.</tspan></text>
	</g>
</g>
</svg>
