<?xml version="1.0" encoding="utf-8"?>
<svg id="master-artboard" viewBox="0 0 548 390" version="1.1" xmlns="http://www.w3.org/2000/svg" x="0px" y="0px" style="enable-background:new 0 0 548 390;" width="548px" height="390px">

<path d="M 0 0 H 548 V 390 H 0 V 0 Z" id="color" class="st0" style="fill: rgb(74, 137, 220);" transform="matrix(1, 0, 0, 1, 0, 0)"/>
<g transform="matrix(1, 0, 0, 1, 0, 0)">
		<path id="shadow" class="st1" d="M547.3,356.9c0-0.2-0.1-0.5-0.1-0.7H547V173.9c0-2.5-1.1-4.7-2.8-6.2c-0.2-0.3-0.5-0.5-0.7-0.7&#10;&#9;&#9;&#9;c-0.2-0.3-0.5-0.5-0.8-0.8c-0.2-0.3-0.5-0.5-0.7-0.7c-0.2-0.3-0.5-0.5-0.7-0.7c-0.2-0.3-0.5-0.5-0.7-0.7c-0.2-0.3-0.5-0.5-0.7-0.7&#10;&#9;&#9;&#9;c-0.2-0.3-0.5-0.5-0.7-0.7c-0.2-0.3-0.5-0.5-0.7-0.7c-0.2-0.3-0.5-0.5-0.7-0.7c-0.2-0.3-0.5-0.5-0.7-0.7c-0.2-0.3-0.5-0.5-0.7-0.7&#10;&#9;&#9;&#9;c-0.2-0.3-0.5-0.5-0.7-0.7c-0.2-0.3-0.5-0.5-0.7-0.7c-0.2-0.3-0.5-0.5-0.7-0.7c-0.2-0.3-0.5-0.5-0.7-0.7c-0.2-0.3-0.5-0.5-0.7-0.7&#10;&#9;&#9;&#9;c-0.2-0.3-0.5-0.5-0.7-0.7c-0.2-0.3-0.5-0.5-0.7-0.7c-0.2-0.3-0.5-0.5-0.7-0.7c-0.2-0.3-0.5-0.5-0.7-0.7c-0.2-0.3-0.5-0.5-0.7-0.7&#10;&#9;&#9;&#9;c-0.2-0.3-0.5-0.5-0.7-0.7c-0.2-0.3-0.5-0.5-0.7-0.7c-0.2-0.3-0.5-0.5-0.7-0.7c-0.2-0.3-0.5-0.5-0.7-0.7c-0.2-0.3-0.5-0.5-0.7-0.7&#10;&#9;&#9;&#9;c-0.2-0.3-0.5-0.5-0.7-0.7c-0.2-0.3-0.5-0.5-0.7-0.7c-0.2-0.3-0.5-0.5-0.7-0.7c-0.2-0.3-0.5-0.5-0.7-0.7c-0.2-0.3-0.5-0.5-0.7-0.7&#10;&#9;&#9;&#9;c-0.2-0.3-0.5-0.5-0.7-0.7c-0.2-0.3-0.5-0.5-0.7-0.7c-0.2-0.3-0.5-0.5-0.7-0.7c-0.2-0.3-0.5-0.5-0.7-0.7c-0.2-0.3-0.5-0.5-0.7-0.7&#10;&#9;&#9;&#9;c-0.2-0.3-0.5-0.5-0.7-0.7c-0.2-0.3-0.5-0.5-0.7-0.7c-0.2-0.3-0.5-0.5-0.7-0.7c-0.2-0.3-0.5-0.5-0.7-0.7c-0.2-0.3-0.5-0.5-0.7-0.7&#10;&#9;&#9;&#9;c-0.2-0.3-0.5-0.5-0.7-0.7c-0.2-0.3-0.5-0.5-0.7-0.7c-0.2-0.3-0.5-0.5-0.7-0.7c-0.2-0.3-0.5-0.5-0.7-0.7c-0.2-0.3-0.5-0.5-0.7-0.7&#10;&#9;&#9;&#9;c-0.2-0.3-0.5-0.5-0.7-0.7c-0.2-0.3-0.5-0.5-0.7-0.7c-0.2-0.3-0.5-0.5-0.7-0.7c-0.2-0.3-0.5-0.5-0.7-0.7c-0.2-0.3-0.5-0.5-0.7-0.7&#10;&#9;&#9;&#9;c-0.2-0.3-0.5-0.5-0.7-0.7c-0.2-0.3-0.5-0.5-0.7-0.7c-0.2-0.3-0.5-0.5-0.7-0.7c-0.2-0.3-0.5-0.5-0.7-0.7c-0.2-0.3-0.5-0.5-0.7-0.7&#10;&#9;&#9;&#9;c-0.2-0.3-0.5-0.5-0.7-0.7c-0.2-0.3-0.5-0.5-0.7-0.7c-0.2-0.3-0.5-0.5-0.7-0.7c-0.2-0.3-0.5-0.5-0.7-0.7c-0.2-0.3-0.5-0.5-0.7-0.7&#10;&#9;&#9;&#9;c-0.2-0.3-0.5-0.5-0.7-0.7c-0.2-0.3-0.5-0.5-0.7-0.7c-0.2-0.3-0.5-0.5-0.7-0.7c-0.2-0.3-0.5-0.5-0.7-0.7c-0.2-0.3-0.5-0.5-0.7-0.7&#10;&#9;&#9;&#9;c-0.2-0.3-0.5-0.5-0.7-0.7c-0.2-0.3-0.5-0.5-0.7-0.7c-0.2-0.3-0.5-0.5-0.7-0.7c-0.2-0.3-0.5-0.5-0.7-0.7c-0.2-0.3-0.5-0.5-0.7-0.7&#10;&#9;&#9;&#9;c-0.2-0.3-0.5-0.5-0.7-0.7c-0.2-0.3-0.5-0.5-0.7-0.7c-0.2-0.3-0.5-0.5-0.7-0.7c-0.2-0.3-0.5-0.5-0.7-0.7c-0.2-0.3-0.5-0.5-0.8-0.8&#10;&#9;&#9;&#9;c-0.2-0.3-0.5-0.5-0.7-0.7c-0.2-0.3-0.5-0.5-0.7-0.7c-0.2-0.3-0.5-0.5-0.7-0.7c-0.2-0.3-0.5-0.5-0.7-0.7c-0.2-0.3-0.5-0.5-0.7-0.7&#10;&#9;&#9;&#9;c-0.2-0.3-0.5-0.5-0.7-0.7c-0.2-0.3-0.5-0.5-0.7-0.7c-0.2-0.3-0.5-0.5-0.7-0.7c-0.2-0.3-0.5-0.5-0.7-0.7c-0.2-0.3-0.5-0.5-0.7-0.7&#10;&#9;&#9;&#9;c-0.2-0.3-0.5-0.5-0.7-0.7c-0.2-0.3-0.5-0.5-0.7-0.7c-0.2-0.3-0.5-0.5-0.7-0.7c-0.2-0.3-0.5-0.5-0.7-0.7c-0.2-0.3-0.5-0.5-0.7-0.7&#10;&#9;&#9;&#9;c-0.2-0.3-0.5-0.5-0.7-0.7c-0.2-0.3-0.5-0.5-0.7-0.7c-0.2-0.3-0.5-0.5-0.7-0.7c-0.2-0.3-0.5-0.5-0.7-0.7c-0.2-0.3-0.5-0.5-0.7-0.7&#10;&#9;&#9;&#9;c-0.2-0.3-0.5-0.5-0.7-0.7c-0.2-0.3-0.5-0.5-0.7-0.7c-0.2-0.3-0.5-0.5-0.7-0.7c-0.2-0.3-0.5-0.5-0.7-0.7c-0.2-0.3-0.5-0.5-0.7-0.7&#10;&#9;&#9;&#9;c-0.2-0.3-0.5-0.5-0.7-0.7c-0.2-0.3-0.5-0.5-0.7-0.7c-0.2-0.3-0.5-0.5-0.7-0.7c-0.2-0.3-0.5-0.5-0.7-0.7c-0.2-0.3-0.5-0.5-0.7-0.7&#10;&#9;&#9;&#9;c-0.2-0.3-0.5-0.5-0.7-0.7c-0.2-0.3-0.5-0.5-0.7-0.7c-0.2-0.3-0.5-0.5-0.7-0.7c-0.2-0.3-0.5-0.5-0.7-0.7c-0.2-0.3-0.5-0.5-0.7-0.7&#10;&#9;&#9;&#9;c-0.2-0.3-0.5-0.5-0.7-0.7c-0.2-0.3-0.5-0.5-0.7-0.7c-0.2-0.3-0.5-0.5-0.7-0.7c-0.2-0.3-0.5-0.5-0.7-0.7c-0.2-0.3-0.5-0.5-0.7-0.7&#10;&#9;&#9;&#9;c-0.2-0.3-0.5-0.5-0.7-0.7c-0.2-0.3-0.5-0.5-0.7-0.7c-0.2-0.3-0.5-0.5-0.7-0.7c-0.2-0.3-0.5-0.5-0.7-0.7c-1.7-1.9-4.2-3.1-7-3.1&#10;&#9;&#9;&#9;H100.1c-5,0-9.1,3.9-9.1,8.6v200.2c0,1.3,0.3,2.5,0.8,3.6H69.2c-0.1,0.7-0.2,1.4-0.2,2.1v6.2c0,2.6,0.6,5.1,1.5,7.4&#10;&#9;&#9;&#9;c0.2,0.4,0.4,0.9,0.6,1.3c0.1,0.2,0.2,0.4,0.3,0.5c0.2,0.3,0.3,0.6,0.5,0.9c0.1,0.2,0.2,0.3,0.3,0.5c0.2,0.3,0.5,0.7,0.8,1&#10;&#9;&#9;&#9;c0.1,0.1,0.2,0.2,0.2,0.3c0.3,0.4,0.6,0.7,1,1.1c0.1,0.1,0.3,0.3,0.4,0.4c0,0,0.1,0.1,0.1,0.1c0.1,0.1,0.1,0.2,0.2,0.2&#10;&#9;&#9;&#9;c0.1,0.1,0.3,0.3,0.4,0.4c0,0,0.1,0.1,0.1,0.1c0.1,0.1,0.1,0.2,0.2,0.2c0.1,0.1,0.3,0.3,0.4,0.4c0,0,0.1,0.1,0.1,0.1&#10;&#9;&#9;&#9;c0.1,0.1,0.1,0.2,0.2,0.2c0.1,0.1,0.3,0.3,0.4,0.4c0,0,0.1,0.1,0.1,0.1c0.1,0.1,0.1,0.2,0.2,0.2c0.1,0.1,0.3,0.3,0.4,0.4&#10;&#9;&#9;&#9;c0,0,0.1,0.1,0.1,0.1c0.1,0.1,0.1,0.2,0.2,0.2c0.1,0.1,0.3,0.3,0.4,0.4c0,0,0.1,0.1,0.1,0.1c0.1,0.1,0.1,0.2,0.2,0.2&#10;&#9;&#9;&#9;c0.1,0.1,0.3,0.3,0.4,0.4c0,0,0.1,0.1,0.1,0.1c0.1,0.1,0.1,0.2,0.2,0.2c0.1,0.1,0.3,0.3,0.4,0.4c0,0,0.1,0.1,0.1,0.1&#10;&#9;&#9;&#9;c0.1,0.1,0.1,0.2,0.2,0.2c0.1,0.1,0.3,0.3,0.4,0.4c0,0,0.1,0.1,0.1,0.1c0.1,0.1,0.1,0.2,0.2,0.2c0.1,0.1,0.3,0.3,0.4,0.4&#10;&#9;&#9;&#9;c0,0,0.1,0.1,0.1,0.1c0.1,0.1,0.1,0.2,0.2,0.2c0.1,0.1,0.3,0.3,0.4,0.4c0,0,0.1,0.1,0.1,0.1c0.1,0.1,0.1,0.2,0.2,0.2&#10;&#9;&#9;&#9;c0.1,0.1,0.3,0.3,0.4,0.4c0,0,0.1,0.1,0.1,0.1c0.1,0.1,0.1,0.2,0.2,0.2c0.1,0.1,0.3,0.3,0.4,0.4c0,0,0.1,0.1,0.1,0.1&#10;&#9;&#9;&#9;c0.1,0.1,0.1,0.2,0.2,0.2c0.1,0.1,0.3,0.3,0.4,0.4c0,0,0.1,0.1,0.1,0.1c0.1,0.1,0.1,0.2,0.2,0.2c0.1,0.1,0.3,0.3,0.4,0.4&#10;&#9;&#9;&#9;c0,0,0.1,0.1,0.1,0.1c0.1,0.1,0.1,0.2,0.2,0.2c0.1,0.1,0.3,0.3,0.4,0.4c0,0,0.1,0.1,0.1,0.1c0.1,0.1,0.1,0.2,0.2,0.2&#10;&#9;&#9;&#9;c0.1,0.1,0.3,0.3,0.4,0.4c0,0,0.1,0.1,0.1,0.1c0.1,0.1,0.1,0.2,0.2,0.2c0.1,0.1,0.3,0.3,0.4,0.4c0,0,0.1,0.1,0.1,0.1&#10;&#9;&#9;&#9;c0.1,0.1,0.1,0.2,0.2,0.2c0.1,0.1,0.3,0.3,0.4,0.4c0,0,0.1,0.1,0.1,0.1c0.1,0.1,0.1,0.2,0.2,0.2c0.1,0.1,0.3,0.3,0.4,0.4&#10;&#9;&#9;&#9;c0,0,0.1,0.1,0.1,0.1c0.1,0.1,0.1,0.2,0.2,0.2c0.1,0.1,0.3,0.3,0.4,0.4c0,0,0.1,0.1,0.1,0.1c0.1,0.1,0.1,0.2,0.2,0.2&#10;&#9;&#9;&#9;c0.1,0.1,0.3,0.3,0.4,0.4c0,0,0.1,0.1,0.1,0.1c0.1,0.1,0.1,0.2,0.2,0.2c0.1,0.1,0.3,0.3,0.4,0.4c0,0,0.1,0.1,0.1,0.1&#10;&#9;&#9;&#9;c0.1,0.1,0.1,0.2,0.2,0.2c0.1,0.1,0.3,0.3,0.4,0.4c0,0,0.1,0.1,0.1,0.1c0.1,0.1,0.1,0.2,0.2,0.2c0.1,0.1,0.3,0.3,0.4,0.4&#10;&#9;&#9;&#9;c0,0,0.1,0.1,0.1,0.1c0.1,0.1,0.1,0.2,0.2,0.2c0.1,0.1,0.3,0.3,0.4,0.4c0,0,0.1,0.1,0.1,0.1c0.1,0.1,0.1,0.2,0.2,0.2&#10;&#9;&#9;&#9;c0.1,0.1,0.3,0.3,0.4,0.4c0,0,0.1,0.1,0.1,0.1c0.1,0.1,0.1,0.2,0.2,0.2c0.1,0.1,0.3,0.3,0.4,0.4c0,0,0.1,0.1,0.1,0.1&#10;&#9;&#9;&#9;c0.1,0.1,0.1,0.2,0.2,0.2c0.1,0.1,0.3,0.3,0.4,0.4c0,0,0.1,0.1,0.1,0.1c0.1,0.1,0.1,0.2,0.2,0.2c0.1,0.1,0.3,0.3,0.4,0.4&#10;&#9;&#9;&#9;c0,0,0.1,0.1,0.1,0.1c0.1,0.1,0.1,0.2,0.2,0.2c0.1,0.1,0.3,0.3,0.4,0.4c0,0,0.1,0.1,0.1,0.1c0.1,0.1,0.1,0.2,0.2,0.2&#10;&#9;&#9;&#9;c0.1,0.1,0.3,0.3,0.4,0.4c0,0,0.1,0.1,0.1,0.1c0.1,0.1,0.1,0.2,0.2,0.2c0.1,0.1,0.3,0.3,0.4,0.4c0,0,0.1,0.1,0.1,0.1&#10;&#9;&#9;&#9;c0.1,0.1,0.1,0.2,0.2,0.2c0.1,0.1,0.3,0.3,0.4,0.4c0,0,0.1,0.1,0.1,0.1c0.1,0.1,0.1,0.2,0.2,0.2c0.1,0.1,0.3,0.3,0.4,0.4&#10;&#9;&#9;&#9;c0,0,0.1,0.1,0.1,0.1c0.1,0.1,0.1,0.2,0.2,0.2c0.1,0.1,0.3,0.3,0.4,0.4c0,0,0.1,0.1,0.1,0.1c0.1,0.1,0.1,0.2,0.2,0.2&#10;&#9;&#9;&#9;c0.1,0.1,0.3,0.3,0.4,0.4c0,0,0.1,0.1,0.1,0.1c0.1,0.1,0.1,0.2,0.2,0.2c0.1,0.1,0.3,0.3,0.4,0.4c0,0,0.1,0.1,0.1,0.1&#10;&#9;&#9;&#9;c0.1,0.1,0.1,0.2,0.2,0.2c0.1,0.1,0.3,0.3,0.4,0.4c0,0,0.1,0.1,0.1,0.1c0.1,0.1,0.1,0.2,0.2,0.2c0.1,0.1,0.3,0.3,0.4,0.4&#10;&#9;&#9;&#9;c0,0,0.1,0.1,0.1,0.1c0.1,0.1,0.1,0.2,0.2,0.2c0.1,0.1,0.3,0.3,0.4,0.4c0,0,0.1,0.1,0.1,0.1c0.1,0.1,0.1,0.2,0.2,0.2&#10;&#9;&#9;&#9;c0.1,0.1,0.3,0.3,0.4,0.4c0,0,0.1,0.1,0.1,0.1c0.1,0.1,0.1,0.2,0.2,0.2c0.1,0.1,0.3,0.3,0.4,0.4c0,0,0.1,0.1,0.1,0.1&#10;&#9;&#9;&#9;c0.1,0.1,0.1,0.2,0.2,0.2c0.1,0.1,0.3,0.3,0.4,0.4c0,0,0.1,0.1,0.1,0.1c0.1,0.1,0.1,0.2,0.2,0.2c0.1,0.1,0.3,0.3,0.4,0.4&#10;&#9;&#9;&#9;c0,0,0.1,0.1,0.1,0.1c0.1,0.1,0.1,0.2,0.2,0.2c0.1,0.1,0.3,0.3,0.4,0.4c0,0,0.1,0.1,0.1,0.1c0.1,0.1,0.1,0.2,0.2,0.2&#10;&#9;&#9;&#9;c0.1,0.1,0.3,0.3,0.4,0.4c0,0,0.1,0.1,0.1,0.1c0.1,0.1,0.1,0.2,0.2,0.2c0.1,0.1,0.3,0.3,0.4,0.4c0,0,0.1,0.1,0.1,0.1&#10;&#9;&#9;&#9;c0.1,0.1,0.1,0.2,0.2,0.2c0.1,0.1,0.3,0.3,0.4,0.4c0,0,0.1,0.1,0.1,0.1c0.1,0.1,0.1,0.2,0.2,0.2c0.1,0.1,0.3,0.3,0.4,0.4&#10;&#9;&#9;&#9;c0,0,0.1,0.1,0.1,0.1c0.1,0.1,0.1,0.2,0.2,0.2c0.1,0.1,0.3,0.3,0.4,0.4c0,0,0.1,0.1,0.1,0.1c0.1,0.1,0.1,0.2,0.2,0.2&#10;&#9;&#9;&#9;c0.1,0.1,0.3,0.3,0.4,0.4c0,0,0.1,0.1,0.1,0.1c0.1,0.1,0.1,0.2,0.2,0.2c0.1,0.1,0.3,0.3,0.4,0.4c0,0,0.1,0.1,0.1,0.1&#10;&#9;&#9;&#9;c0.1,0.1,0.1,0.2,0.2,0.2c0.1,0.1,0.3,0.3,0.4,0.4c0,0,0.1,0.1,0.1,0.1c0.1,0.1,0.1,0.2,0.2,0.2c0.1,0.1,0.3,0.3,0.4,0.4&#10;&#9;&#9;&#9;c0,0,0.1,0.1,0.1,0.1c0.1,0.1,0.1,0.2,0.2,0.2c0.1,0.1,0.3,0.3,0.4,0.4c0,0,0.1,0.1,0.1,0.1c0.1,0.1,0.1,0.2,0.2,0.2&#10;&#9;&#9;&#9;c0.1,0.1,0.3,0.3,0.4,0.4c0,0,0.1,0.1,0.1,0.1c0.1,0.1,0.1,0.2,0.2,0.2c0.1,0.1,0.3,0.3,0.4,0.4c0,0,0.1,0.1,0.1,0.1&#10;&#9;&#9;&#9;c0.1,0.1,0.1,0.2,0.2,0.2c0.1,0.1,0.3,0.3,0.4,0.4c0,0,0.1,0.1,0.1,0.1c0.1,0.1,0.1,0.2,0.2,0.2c0.1,0.1,0.3,0.3,0.4,0.4&#10;&#9;&#9;&#9;c0,0,0.1,0.1,0.1,0.1c0.1,0.1,0.1,0.2,0.2,0.2c0.1,0.1,0.3,0.3,0.4,0.4c0,0,0.1,0.1,0.1,0.1c0.1,0.1,0.1,0.2,0.2,0.2&#10;&#9;&#9;&#9;c0.1,0.1,0.3,0.3,0.4,0.4c0,0,0.1,0.1,0.1,0.1c0.1,0.1,0.1,0.2,0.2,0.2c0.1,0.1,0.3,0.3,0.4,0.4c0,0,0.1,0.1,0.1,0.1&#10;&#9;&#9;&#9;c0.1,0.1,0.1,0.2,0.2,0.2c0.1,0.1,0.3,0.3,0.4,0.4c0,0,0.1,0.1,0.1,0.1c0.1,0.1,0.1,0.2,0.2,0.2c0.1,0.1,0.3,0.3,0.4,0.4&#10;&#9;&#9;&#9;c0,0,0.1,0.1,0.1,0.1c0.1,0.1,0.1,0.2,0.2,0.2c0.1,0.1,0.3,0.3,0.4,0.4c0,0,0.1,0.1,0.1,0.1c0.1,0.1,0.1,0.2,0.2,0.2&#10;&#9;&#9;&#9;c0.1,0.1,0.3,0.3,0.4,0.4c0,0,0.1,0.1,0.1,0.1c0.1,0.1,0.1,0.2,0.2,0.2c0.1,0.1,0.3,0.3,0.4,0.4c0,0,0.1,0.1,0.1,0.1&#10;&#9;&#9;&#9;c0.1,0.1,0.1,0.2,0.2,0.2c0.1,0.1,0.3,0.3,0.4,0.4c0,0,0.1,0.1,0.1,0.1c0.1,0.1,0.1,0.2,0.2,0.2c0.1,0.1,0.3,0.3,0.4,0.4&#10;&#9;&#9;&#9;c0,0,0.1,0.1,0.1,0.1c0.1,0.1,0.1,0.2,0.2,0.2c0.1,0.1,0.3,0.3,0.4,0.4c0,0,0.1,0.1,0.1,0.1c0.1,0.1,0.1,0.2,0.2,0.2&#10;&#9;&#9;&#9;c0.1,0.1,0.3,0.3,0.4,0.4c0,0,0.1,0.1,0.1,0.1c0.1,0.1,0.1,0.2,0.2,0.2c0.1,0.1,0.3,0.3,0.4,0.4c0,0,0.1,0.1,0.1,0.1&#10;&#9;&#9;&#9;c0.1,0.1,0.1,0.2,0.2,0.2c0.1,0.1,0.3,0.3,0.4,0.4c0,0,0.1,0.1,0.1,0.1c0.1,0.1,0.1,0.2,0.2,0.2c0.1,0.1,0.3,0.3,0.4,0.4&#10;&#9;&#9;&#9;c0,0,0.1,0.1,0.1,0.1c0.1,0.1,0.1,0.2,0.2,0.2c0.1,0.1,0.3,0.3,0.4,0.4c0,0,0.1,0.1,0.1,0.1c0.1,0.1,0.1,0.2,0.2,0.2&#10;&#9;&#9;&#9;c0.1,0.1,0.3,0.3,0.4,0.4c0,0,0.1,0.1,0.1,0.1c0.1,0.1,0.1,0.2,0.2,0.2c0.1,0.1,0.3,0.3,0.4,0.4c0,0,0.1,0.1,0.1,0.1&#10;&#9;&#9;&#9;c0.1,0.1,0.1,0.2,0.2,0.2c0.1,0.1,0.3,0.3,0.4,0.4c0,0,0.1,0.1,0.1,0.1c0.1,0.1,0.1,0.2,0.2,0.2c0.1,0.1,0.3,0.3,0.4,0.4&#10;&#9;&#9;&#9;c0,0,0.1,0.1,0.1,0.1c0.1,0.1,0.1,0.2,0.2,0.2c0.1,0.1,0.3,0.3,0.4,0.4c0,0,0.1,0.1,0.1,0.1c0.1,0.1,0.1,0.2,0.2,0.2&#10;&#9;&#9;&#9;c0.1,0.1,0.3,0.3,0.4,0.4c0,0,0.1,0.1,0.1,0.1c0.1,0.1,0.1,0.2,0.2,0.2c0.1,0.1,0.3,0.3,0.4,0.4c0,0,0.1,0.1,0.1,0.1&#10;&#9;&#9;&#9;c0.1,0.1,0.1,0.2,0.2,0.2c0.1,0.1,0.3,0.3,0.4,0.4c0,0,0.1,0.1,0.1,0.1c0.1,0.1,0.1,0.2,0.2,0.2c0.1,0.1,0.3,0.3,0.4,0.4&#10;&#9;&#9;&#9;c0,0,0.1,0.1,0.1,0.1c0.1,0.1,0.1,0.2,0.2,0.2c0.1,0.1,0.3,0.3,0.4,0.4c0,0,0.1,0.1,0.1,0.1c0.1,0.1,0.1,0.2,0.2,0.2&#10;&#9;&#9;&#9;c0.1,0.1,0.3,0.3,0.4,0.4c0,0,0.1,0.1,0.1,0.1c0.1,0.1,0.1,0.2,0.2,0.2c0.1,0.1,0.3,0.3,0.4,0.4c0,0,0.1,0.1,0.1,0.1&#10;&#9;&#9;&#9;c0.1,0.1,0.1,0.2,0.2,0.2c0.1,0.1,0.3,0.3,0.4,0.4c0,0,0.1,0.1,0.1,0.1c0.1,0.1,0.1,0.2,0.2,0.2c0.1,0.1,0.3,0.3,0.4,0.4&#10;&#9;&#9;&#9;c0,0,0.1,0.1,0.1,0.1c0.1,0.1,0.1,0.2,0.2,0.2c0.1,0.1,0.3,0.3,0.4,0.4c0,0,0.1,0.1,0.1,0.1c0.1,0.1,0.1,0.2,0.2,0.2&#10;&#9;&#9;&#9;c0.1,0.1,0.3,0.3,0.4,0.4c0,0,0.1,0.1,0.1,0.1c0.1,0.1,0.1,0.2,0.2,0.2c0.1,0.1,0.3,0.3,0.4,0.4c0,0,0.1,0.1,0.1,0.1&#10;&#9;&#9;&#9;c0.1,0.1,0.1,0.2,0.2,0.2c0.1,0.1,0.3,0.3,0.4,0.4c0,0,0.1,0.1,0.1,0.1c0.1,0.1,0.1,0.2,0.2,0.2c0.1,0.1,0.3,0.3,0.4,0.4&#10;&#9;&#9;&#9;c0,0,0.1,0.1,0.1,0.1c0.1,0.1,0.1,0.2,0.2,0.2c0.1,0.1,0.3,0.3,0.4,0.4c0,0,0.1,0.1,0.1,0.1c0.1,0.1,0.1,0.2,0.2,0.2&#10;&#9;&#9;&#9;c0.1,0.1,0.3,0.3,0.4,0.4c0,0,0.1,0.1,0.1,0.1c0.1,0.1,0.1,0.2,0.2,0.2c0.1,0.1,0.3,0.3,0.4,0.4c0,0,0.1,0.1,0.1,0.1&#10;&#9;&#9;&#9;c0.1,0.1,0.1,0.2,0.2,0.2c0.1,0.1,0.3,0.3,0.4,0.4c0,0,0.1,0.1,0.1,0.1c0.1,0.1,0.1,0.2,0.2,0.2c0.1,0.1,0.3,0.3,0.4,0.4&#10;&#9;&#9;&#9;c0,0,0.1,0.1,0.1,0.1c0.1,0.1,0.1,0.2,0.2,0.2c0.1,0.1,0.3,0.3,0.4,0.4c0,0,0.1,0.1,0.1,0.1c0.1,0.1,0.1,0.2,0.2,0.2&#10;&#9;&#9;&#9;c0.1,0.1,0.3,0.3,0.4,0.4c0,0,0.1,0.1,0.1,0.1c0.1,0.1,0.1,0.2,0.2,0.2c0.1,0.1,0.3,0.3,0.4,0.4c0,0,0.1,0.1,0.1,0.1&#10;&#9;&#9;&#9;c0.1,0.1,0.1,0.2,0.2,0.2c0.1,0.1,0.3,0.3,0.4,0.4c0,0,0.1,0.1,0.1,0.1c0.1,0.1,0.1,0.2,0.2,0.2c0.1,0.1,0.3,0.3,0.4,0.4&#10;&#9;&#9;&#9;c0,0,0.1,0.1,0.1,0.1c0.1,0.1,0.1,0.2,0.2,0.2c0.1,0.1,0.3,0.3,0.4,0.4c0,0,0.1,0.1,0.1,0.1c0.1,0.1,0.1,0.2,0.2,0.2&#10;&#9;&#9;&#9;c0.1,0.1,0.3,0.3,0.4,0.4c0,0,0.1,0.1,0.1,0.1c0.1,0.1,0.1,0.2,0.2,0.2c0.1,0.1,0.3,0.3,0.4,0.4c0,0,0.1,0.1,0.1,0.1&#10;&#9;&#9;&#9;c0.1,0.1,0.1,0.2,0.2,0.2c0.1,0.1,0.3,0.3,0.4,0.4c0,0,0.1,0.1,0.1,0.1c0,0,0.1,0.1,0.1,0.1H548v-32.8c0-0.1,0-0.2,0-0.3H547.3z" style="fill: rgb(232, 232, 232);"/>
		<g id="laptop">
			<g>
				<path class="st2" d="M447.9,75.3H100.1c-5,0-9.1,3.9-9.1,8.6v200.2c0,4.7,4.1,8.6,9.1,8.6h347.8c5,0,9.1-3.9,9.1-8.6V83.9&#10;&#9;&#9;&#9;&#9;&#9;C457,79.2,453,75.3,447.9,75.3z" style="fill: rgb(66, 66, 66);"/>
				<path d="M 100.900002 84 H 447.199989 V 283.699997 H 100.900002 V 84 Z" class="st3" style="fill: rgb(255, 255, 255);"/>
			</g>
			<g>
				<path class="st4" d="M478.8,287.7H337c-0.3,2.9-2.7,5.2-5.6,5.2H216.6c-3,0-5.3-2.3-5.6-5.2H69.2c-0.1,0.7-0.2,1.4-0.2,2.1v6.2&#10;&#9;&#9;&#9;&#9;&#9;c0,10.3,8.4,18.6,18.6,18.6h372.7c10.3,0,18.6-8.4,18.6-18.6v-6.2C479,289.1,478.9,288.4,478.8,287.7z" style="fill: rgb(94, 94, 94);"/>
				<path class="st2" d="M70.5,303.3c2.8,6.7,9.5,11.4,17.2,11.4h372.7c7.7,0,14.3-4.7,17.1-11.4H70.5z" style="fill: rgb(66, 66, 66);"/>
			</g>
		</g>
		<g id="hand">
			<g id="mouse__x26__hand">
				<g id="mouse">
					<g class="st5" style="opacity: 0.15;">
						<path d="M514.3,272.4c0,8.1-6.7,14.6-15,14.6h-2.6c-8.3,0-15-6.5-15-14.6v-22.7c0-8.1,6.7-14.6,15-14.6l2.6,0&#10;&#9;&#9;&#9;&#9;&#9;&#9;&#9;c8.3,0,15,6.5,15,14.6V272.4z"/>
						<path d="M498,238.7c-2.1,0-3.9,1.5-3.9,3.4v4.3l0,4.3c0,1.9,1.7,3.4,3.9,3.4c2.1,0,3.9-1.5,3.9-3.4v-4.3v-4.3&#10;&#9;&#9;&#9;&#9;&#9;&#9;&#9;C501.9,240.2,500.1,238.7,498,238.7z"/>
						<path d="M514.3,249.7c0-8.1-6.7-14.6-15-14.6H498v52h1.3c8.3,0,15-6.5,15-14.6l0-18.9L514.3,249.7z"/>
						<path d="M 481.700012 256.700012 H 514.400013 V 259.000012 H 481.700012 V 256.700012 Z"/>
					</g>
					<g>
						<g>
							<path class="st3" d="M513,271.1c0,8.1-6.7,14.6-15,14.6h-2.6c-8.3,0-15-6.5-15-14.6v-22.7c0-8.1,6.7-14.6,15-14.6l2.6,0&#10;&#9;&#9;&#9;&#9;&#9;&#9;&#9;&#9;c8.3,0,15,6.5,15,14.6V271.1z" style="fill: rgb(255, 255, 255);"/>
							<path class="st6" d="M496.7,237.4c-2.1,0-3.9,1.5-3.9,3.4v4.3l0,4.3c0,1.9,1.7,3.4,3.9,3.4c2.1,0,3.9-1.5,3.9-3.4v-4.3v-4.3&#10;&#9;&#9;&#9;&#9;&#9;&#9;&#9;&#9;C500.6,239,498.8,237.4,496.7,237.4z" style="fill: rgb(230, 233, 237);"/>
							<path class="st7" d="M513,248.4c0-8.1-6.7-14.6-15-14.6h-1.3v52h1.3c8.3,0,15-6.5,15-14.6l0-18.9L513,248.4z" style="fill: rgb(230, 231, 232);"/>
							<path d="M 480.399994 255.399994 H 513.099995 V 257.699994 H 480.399994 V 255.399994 Z" class="st6" style="fill: rgb(230, 233, 237);"/>
						</g>
					</g>
				</g>
			</g>
			<g>
				<path d="M 505.200012 326.899994 H 531.600012 V 359.199993 H 505.200012 V 326.899994 Z" class="st8" style="fill: rgb(240, 208, 180);"/>
				<g>
					<path class="st8" d="M493.7,291.1c1.9,3.5,7.3,14.2,7.3,14.2l0-2.3l0-12.1h35.4v25.2c0,0,0,0,0,0v7.7c0,5.2-4.2,9.3-9.3,9.3&#10;&#9;&#9;&#9;&#9;&#9;&#9;h-16.7c-5.2,0-9.4-2.3-12.9-8.3c-4-7-8.3-16.2-8.3-16.2s-1.5-10.2-3-13.1c-1.3-2.6-1-5.4,1.1-6.7&#10;&#9;&#9;&#9;&#9;&#9;&#9;C489.3,287.7,492.3,288.6,493.7,291.1z" style="fill: rgb(240, 208, 180);"/>
					<path class="st8" d="M501,266.7l0,34c0,2.3,1.9,4.2,4.2,4.2c2.3,0,4.2-1.9,4.2-4.2v-34c0-2.3-1.9-4.2-4.2-4.2&#10;&#9;&#9;&#9;&#9;&#9;&#9;C502.9,262.5,501,264.4,501,266.7z" style="fill: rgb(240, 208, 180);"/>
					<path class="st8" d="M509.9,278.4v34c0,2.3,1.9,4.2,4.2,4.2c2.3,0,4.2-1.9,4.2-4.2v-34c0-2.3-1.9-4.2-4.2-4.2&#10;&#9;&#9;&#9;&#9;&#9;&#9;C511.8,274.2,509.9,276.1,509.9,278.4z" style="fill: rgb(240, 208, 180);"/>
					<path class="st8" d="M527.4,282.3l0,34.1c0,2.3-1.9,4.2-4.2,4.2c-2.3,0-4.2-1.9-4.2-4.2v-34.1c0-2.3,1.9-4.2,4.2-4.2&#10;&#9;&#9;&#9;&#9;&#9;&#9;C525.5,278.1,527.4,280,527.4,282.3z" style="fill: rgb(240, 208, 180);"/>
					<path class="st8" d="M528,287.5v34c0,2.3,1.9,4.2,4.2,4.2c2.3,0,4.2-1.9,4.2-4.2l0-34c0-2.3-1.9-4.2-4.2-4.2&#10;&#9;&#9;&#9;&#9;&#9;&#9;C529.8,283.3,528,285.2,528,287.5z" style="fill: rgb(240, 208, 180);"/>
					<path class="st3" d="M505.2,264.2c-1.4,0-2.5,1-2.5,2.2c0,1.2,1.1,2.2,2.5,2.2c1.4,0,2.5-1,2.5-2.2&#10;&#9;&#9;&#9;&#9;&#9;&#9;C507.7,265.1,506.6,264.2,505.2,264.2z" style="fill: rgb(255, 255, 255);"/>
					<path class="st3" d="M488.9,294.9c0.4,1.9-0.3,3.7-1.6,4.5c-0.4-1.5-0.8-2.9-1.2-3.7c-0.7-1.4-0.9-3-0.6-4.3&#10;&#9;&#9;&#9;&#9;&#9;&#9;C487.1,291.6,488.5,293,488.9,294.9z" style="fill: rgb(255, 255, 255);"/>
				</g>
				<g>
					<path d="M 536.0999755859375 350.20001220703125 L 518.5 350.20001220703125 L 500.8999938964844 350.20001220703125 L 500.8999938964844 343.5 L 500.8999938964844 336.70001220703125 L 518.5 336.70001220703125 L 536.0999755859375 336.70001220703125 L 536.0999755859375 343.5 Z" class="st3" style="fill: rgb(255, 255, 255);"/>
					<path d="M 500.799988 348 H 536.099987 V 390 H 500.799988 V 348 Z" class="st9" style="fill: rgb(252, 110, 81);"/>
					<path class="st10" d="M527.7,342.2c0-1.2,1-2.2,2.1-2.2c1.2,0,2.1,1,2.1,2.2c0,1.2-1,2.2-2.1,2.2&#10;&#9;&#9;&#9;&#9;&#9;&#9;C528.7,344.4,527.7,343.4,527.7,342.2z" style="fill: rgb(255, 206, 84);"/>
				</g>
			</g>
		</g>
		<g id="news">
			<g>
				<path d="M 110.5 178.800003 H 210.5 V 180.500003 H 110.5 V 178.800003 Z" class="st11" style="fill-rule: evenodd; clip-rule: evenodd; fill: rgb(115, 115, 115);"/>
				<path d="M 110.5 173.699997 H 162.799999 V 175.399997 H 110.5 V 173.699997 Z" class="st11" style="fill-rule: evenodd; clip-rule: evenodd; fill: rgb(115, 115, 115);"/>
				<path d="M 167.199997 173.600006 H 210.399998 V 175.300006 H 167.199997 V 173.600006 Z" class="st11" style="fill-rule: evenodd; clip-rule: evenodd; fill: rgb(115, 115, 115);"/>
				<g>
					<path d="M 110.5 167.800003 H 134.9 V 169.500003 H 110.5 V 167.800003 Z" class="st11" style="fill-rule: evenodd; clip-rule: evenodd; fill: rgb(115, 115, 115);"/>
					<path d="M 139.199997 167.800003 H 210.399994 V 169.500003 H 139.199997 V 167.800003 Z" class="st11" style="fill-rule: evenodd; clip-rule: evenodd; fill: rgb(115, 115, 115);"/>
				</g>
				<path d="M 110.5 207.100006 H 210.5 V 208.800006 H 110.5 V 207.100006 Z" class="st11" style="fill-rule: evenodd; clip-rule: evenodd; fill: rgb(115, 115, 115);"/>
				<path d="M 158.199997 202 H 210.499996 V 203.7 H 158.199997 V 202 Z" class="st11" style="fill-rule: evenodd; clip-rule: evenodd; fill: rgb(115, 115, 115);"/>
				<path d="M 110.5 202 H 153.700001 V 203.7 H 110.5 V 202 Z" class="st11" style="fill-rule: evenodd; clip-rule: evenodd; fill: rgb(115, 115, 115);"/>
				<path d="M 186.100006 196.199997 H 210.500006 V 197.899997 H 186.100006 V 196.199997 Z" class="st11" style="fill-rule: evenodd; clip-rule: evenodd; fill: rgb(115, 115, 115);"/>
				<path d="M 110.5 196 H 181.800003 V 197.7 H 110.5 V 196 Z" class="st11" style="fill-rule: evenodd; clip-rule: evenodd; fill: rgb(115, 115, 115);"/>
				<path d="M 110.5 189.800003 H 210.5 V 191.500003 H 110.5 V 189.800003 Z" class="st11" style="fill-rule: evenodd; clip-rule: evenodd; fill: rgb(115, 115, 115);"/>
				<path d="M 144.100006 184.699997 H 210.500008 V 186.399997 H 144.100006 V 184.699997 Z" class="st11" style="fill-rule: evenodd; clip-rule: evenodd; fill: rgb(115, 115, 115);"/>
				<path d="M 110.5 184.699997 H 140.4 V 186.399997 H 110.5 V 184.699997 Z" class="st11" style="fill-rule: evenodd; clip-rule: evenodd; fill: rgb(115, 115, 115);"/>
			</g>
			<g>
				<g id="sample_text_1_">
					<path d="M 224.300003 163 H 273.300003 V 164.7 H 224.300003 V 163 Z" class="st11" style="fill-rule: evenodd; clip-rule: evenodd; fill: rgb(115, 115, 115);"/>
					<path d="M 224.300003 157.899994 H 249.900003 V 159.599994 H 224.300003 V 157.899994 Z" class="st11" style="fill-rule: evenodd; clip-rule: evenodd; fill: rgb(115, 115, 115);"/>
					<path d="M 252.100006 157.800003 H 273.300007 V 159.500003 H 252.100006 V 157.800003 Z" class="st11" style="fill-rule: evenodd; clip-rule: evenodd; fill: rgb(115, 115, 115);"/>
					<g>
						<path d="M 224.300003 152 H 236.300003 V 153.7 H 224.300003 V 152 Z" class="st11" style="fill-rule: evenodd; clip-rule: evenodd; fill: rgb(115, 115, 115);"/>
						<path d="M 238.399994 151.899994 H 273.299995 V 153.599994 H 238.399994 V 151.899994 Z" class="st11" style="fill-rule: evenodd; clip-rule: evenodd; fill: rgb(115, 115, 115);"/>
					</g>
					<path d="M 224.300003 191.300003 H 273.300003 V 193.000003 H 224.300003 V 191.300003 Z" class="st11" style="fill-rule: evenodd; clip-rule: evenodd; fill: rgb(115, 115, 115);"/>
					<path d="M 247.699997 186.199997 H 273.299997 V 187.899997 H 247.699997 V 186.199997 Z" class="st11" style="fill-rule: evenodd; clip-rule: evenodd; fill: rgb(115, 115, 115);"/>
					<path d="M 224.300003 186.100006 H 245.500004 V 187.800006 H 224.300003 V 186.100006 Z" class="st11" style="fill-rule: evenodd; clip-rule: evenodd; fill: rgb(115, 115, 115);"/>
					<path d="M 261.299988 180.300003 H 273.299988 V 182.000003 H 261.299988 V 180.300003 Z" class="st11" style="fill-rule: evenodd; clip-rule: evenodd; fill: rgb(115, 115, 115);"/>
					<path d="M 224.300003 180.199997 H 259.200005 V 181.899997 H 224.300003 V 180.199997 Z" class="st11" style="fill-rule: evenodd; clip-rule: evenodd; fill: rgb(115, 115, 115);"/>
					<path d="M 224.300003 174 H 273.300003 V 175.7 H 224.300003 V 174 Z" class="st11" style="fill-rule: evenodd; clip-rule: evenodd; fill: rgb(115, 115, 115);"/>
					<path d="M 240.699997 168.899994 H 273.199997 V 170.599994 H 240.699997 V 168.899994 Z" class="st11" style="fill-rule: evenodd; clip-rule: evenodd; fill: rgb(115, 115, 115);"/>
					<path d="M 224.300003 168.899994 H 239.000003 V 170.599994 H 224.300003 V 168.899994 Z" class="st11" style="fill-rule: evenodd; clip-rule: evenodd; fill: rgb(115, 115, 115);"/>
				</g>
				<g id="sample_text_3_">
					<path d="M 224.300003 208 H 324.300003 V 209.7 H 224.300003 V 208 Z" class="st11" style="fill-rule: evenodd; clip-rule: evenodd; fill: rgb(115, 115, 115);"/>
					<path d="M 224.300003 202.899994 H 276.600002 V 204.599994 H 224.300003 V 202.899994 Z" class="st11" style="fill-rule: evenodd; clip-rule: evenodd; fill: rgb(115, 115, 115);"/>
					<path d="M 281 202.800003 H 324.200001 V 204.500003 H 281 V 202.800003 Z" class="st11" style="fill-rule: evenodd; clip-rule: evenodd; fill: rgb(115, 115, 115);"/>
					<g>
						<path d="M 224.300003 197 H 248.700003 V 198.7 H 224.300003 V 197 Z" class="st11" style="fill-rule: evenodd; clip-rule: evenodd; fill: rgb(115, 115, 115);"/>
						<path d="M 253 196.899994 H 324.199997 V 198.599994 H 253 V 196.899994 Z" class="st11" style="fill-rule: evenodd; clip-rule: evenodd; fill: rgb(115, 115, 115);"/>
					</g>
					<path d="M 224.300003 236.300003 H 324.300003 V 238.000003 H 224.300003 V 236.300003 Z" class="st11" style="fill-rule: evenodd; clip-rule: evenodd; fill: rgb(115, 115, 115);"/>
					<path d="M 272 231.199997 H 324.299999 V 232.899997 H 272 V 231.199997 Z" class="st11" style="fill-rule: evenodd; clip-rule: evenodd; fill: rgb(115, 115, 115);"/>
					<path d="M 224.300003 231.100006 H 267.500004 V 232.800006 H 224.300003 V 231.100006 Z" class="st11" style="fill-rule: evenodd; clip-rule: evenodd; fill: rgb(115, 115, 115);"/>
					<path d="M 299.899994 225.300003 H 324.299994 V 227.000003 H 299.899994 V 225.300003 Z" class="st11" style="fill-rule: evenodd; clip-rule: evenodd; fill: rgb(115, 115, 115);"/>
					<path d="M 224.300003 225.199997 H 295.600006 V 226.899997 H 224.300003 V 225.199997 Z" class="st11" style="fill-rule: evenodd; clip-rule: evenodd; fill: rgb(115, 115, 115);"/>
					<path d="M 224.300003 219 H 324.300003 V 220.7 H 224.300003 V 219 Z" class="st11" style="fill-rule: evenodd; clip-rule: evenodd; fill: rgb(115, 115, 115);"/>
					<path d="M 257.899994 213.899994 H 324.299995 V 215.599994 H 257.899994 V 213.899994 Z" class="st11" style="fill-rule: evenodd; clip-rule: evenodd; fill: rgb(115, 115, 115);"/>
					<path d="M 224.300003 213.899994 H 254.200003 V 215.599994 H 224.300003 V 213.899994 Z" class="st11" style="fill-rule: evenodd; clip-rule: evenodd; fill: rgb(115, 115, 115);"/>
				</g>
				<g id="sample_text_4_">
					<path d="M 224.300003 253 H 324.300003 V 254.7 H 224.300003 V 253 Z" class="st11" style="fill-rule: evenodd; clip-rule: evenodd; fill: rgb(115, 115, 115);"/>
					<path d="M 224.300003 247.899994 H 276.600002 V 249.599994 H 224.300003 V 247.899994 Z" class="st11" style="fill-rule: evenodd; clip-rule: evenodd; fill: rgb(115, 115, 115);"/>
					<path d="M 281 247.800003 H 324.200001 V 249.500003 H 281 V 247.800003 Z" class="st11" style="fill-rule: evenodd; clip-rule: evenodd; fill: rgb(115, 115, 115);"/>
					<g>
						<path d="M 224.300003 242 H 248.700003 V 243.7 H 224.300003 V 242 Z" class="st11" style="fill-rule: evenodd; clip-rule: evenodd; fill: rgb(115, 115, 115);"/>
						<path d="M 253 241.899994 H 324.199997 V 243.599994 H 253 V 241.899994 Z" class="st11" style="fill-rule: evenodd; clip-rule: evenodd; fill: rgb(115, 115, 115);"/>
					</g>
					<path d="M 299.899994 270.299988 H 324.299994 V 271.999988 H 299.899994 V 270.299988 Z" class="st11" style="fill-rule: evenodd; clip-rule: evenodd; fill: rgb(115, 115, 115);"/>
					<path d="M 224.300003 270.200012 H 295.600006 V 271.900012 H 224.300003 V 270.200012 Z" class="st11" style="fill-rule: evenodd; clip-rule: evenodd; fill: rgb(115, 115, 115);"/>
					<path d="M 224.300003 264 H 324.300003 V 265.7 H 224.300003 V 264 Z" class="st11" style="fill-rule: evenodd; clip-rule: evenodd; fill: rgb(115, 115, 115);"/>
					<path d="M 257.899994 258.899994 H 324.299995 V 260.599994 H 257.899994 V 258.899994 Z" class="st11" style="fill-rule: evenodd; clip-rule: evenodd; fill: rgb(115, 115, 115);"/>
					<path d="M 224.300003 258.899994 H 254.200003 V 260.599994 H 224.300003 V 258.899994 Z" class="st11" style="fill-rule: evenodd; clip-rule: evenodd; fill: rgb(115, 115, 115);"/>
				</g>
			</g>
			<g>
				<g id="sample_text_7_">
					<path d="M 337.5 163 H 437.5 V 164.7 H 337.5 V 163 Z" class="st11" style="fill-rule: evenodd; clip-rule: evenodd; fill: rgb(115, 115, 115);"/>
					<path d="M 337.5 157.899994 H 389.799999 V 159.599994 H 337.5 V 157.899994 Z" class="st11" style="fill-rule: evenodd; clip-rule: evenodd; fill: rgb(115, 115, 115);"/>
					<path d="M 394.299988 157.800003 H 437.499989 V 159.500003 H 394.299988 V 157.800003 Z" class="st11" style="fill-rule: evenodd; clip-rule: evenodd; fill: rgb(115, 115, 115);"/>
					<g>
						<path d="M 337.5 152 H 361.9 V 153.7 H 337.5 V 152 Z" class="st11" style="fill-rule: evenodd; clip-rule: evenodd; fill: rgb(115, 115, 115);"/>
						<path d="M 366.299988 151.899994 H 437.499985 V 153.599994 H 366.299988 V 151.899994 Z" class="st11" style="fill-rule: evenodd; clip-rule: evenodd; fill: rgb(115, 115, 115);"/>
					</g>
					<path d="M 337.5 191.300003 H 437.5 V 193.000003 H 337.5 V 191.300003 Z" class="st11" style="fill-rule: evenodd; clip-rule: evenodd; fill: rgb(115, 115, 115);"/>
					<path d="M 385.200012 186.199997 H 437.500011 V 187.899997 H 385.200012 V 186.199997 Z" class="st11" style="fill-rule: evenodd; clip-rule: evenodd; fill: rgb(115, 115, 115);"/>
					<path d="M 337.5 186.100006 H 380.700001 V 187.800006 H 337.5 V 186.100006 Z" class="st11" style="fill-rule: evenodd; clip-rule: evenodd; fill: rgb(115, 115, 115);"/>
					<path d="M 413.100006 180.300003 H 437.500006 V 182.000003 H 413.100006 V 180.300003 Z" class="st11" style="fill-rule: evenodd; clip-rule: evenodd; fill: rgb(115, 115, 115);"/>
					<path d="M 337.5 180.199997 H 408.800003 V 181.899997 H 337.5 V 180.199997 Z" class="st11" style="fill-rule: evenodd; clip-rule: evenodd; fill: rgb(115, 115, 115);"/>
					<path d="M 337.5 174 H 437.5 V 175.7 H 337.5 V 174 Z" class="st11" style="fill-rule: evenodd; clip-rule: evenodd; fill: rgb(115, 115, 115);"/>
					<path d="M 371.100006 168.899994 H 437.500008 V 170.599994 H 371.100006 V 168.899994 Z" class="st11" style="fill-rule: evenodd; clip-rule: evenodd; fill: rgb(115, 115, 115);"/>
					<path d="M 337.5 168.899994 H 367.4 V 170.599994 H 337.5 V 168.899994 Z" class="st11" style="fill-rule: evenodd; clip-rule: evenodd; fill: rgb(115, 115, 115);"/>
				</g>
			</g>
			<g>
				<path d="M 110.5 151.899994 H 166.5 V 161.899994 H 110.5 V 151.899994 Z" class="st12" style="fill-rule: evenodd; clip-rule: evenodd; fill: rgb(77, 77, 77);"/>
				<path d="M 177.5 151.899994 H 210.5 V 161.899994 H 177.5 V 151.899994 Z" class="st12" style="fill-rule: evenodd; clip-rule: evenodd; fill: rgb(77, 77, 77);"/>
			</g>
			<g>
				<g>
					<path d="M 118.900002 219.100006 L 118.900002 265.799988" class="st13" style="fill: none; stroke: rgb(217, 219, 221); stroke-width: 0.1824; stroke-miterlimit: 10;"/>
					<path d="M 126.900002 219.100006 L 126.900002 265.799988" class="st13" style="fill: none; stroke: rgb(217, 219, 221); stroke-width: 0.1824; stroke-miterlimit: 10;"/>
					<path d="M 134.899994 219.100006 L 134.899994 265.799988" class="st13" style="fill: none; stroke: rgb(217, 219, 221); stroke-width: 0.1824; stroke-miterlimit: 10;"/>
					<path d="M 142.899994 219.100006 L 142.899994 265.799988" class="st13" style="fill: none; stroke: rgb(217, 219, 221); stroke-width: 0.1824; stroke-miterlimit: 10;"/>
					<path d="M 150.899994 219.100006 L 150.899994 265.799988" class="st13" style="fill: none; stroke: rgb(217, 219, 221); stroke-width: 0.1824; stroke-miterlimit: 10;"/>
					<path d="M 158.899994 219.100006 L 158.899994 265.799988" class="st13" style="fill: none; stroke: rgb(217, 219, 221); stroke-width: 0.1824; stroke-miterlimit: 10;"/>
					<path d="M 166.899994 219.100006 L 166.899994 265.799988" class="st13" style="fill: none; stroke: rgb(217, 219, 221); stroke-width: 0.1824; stroke-miterlimit: 10;"/>
					<path d="M 175 219.100006 L 175 265.799988" class="st13" style="fill: none; stroke: rgb(217, 219, 221); stroke-width: 0.1824; stroke-miterlimit: 10;"/>
					<path d="M 183 219.100006 L 183 265.799988" class="st13" style="fill: none; stroke: rgb(217, 219, 221); stroke-width: 0.1824; stroke-miterlimit: 10;"/>
					<path d="M 191 219.100006 L 191 265.799988" class="st13" style="fill: none; stroke: rgb(217, 219, 221); stroke-width: 0.1824; stroke-miterlimit: 10;"/>
					<path d="M 199 219.100006 L 199 265.799988" class="st13" style="fill: none; stroke: rgb(217, 219, 221); stroke-width: 0.1824; stroke-miterlimit: 10;"/>
					<path d="M 207 219.100006 L 207 265.799988" class="st13" style="fill: none; stroke: rgb(217, 219, 221); stroke-width: 0.1824; stroke-miterlimit: 10;"/>
					<path d="M 110.900002 258.100006 L 210.5 258.100006" class="st13" style="fill: none; stroke: rgb(217, 219, 221); stroke-width: 0.1824; stroke-miterlimit: 10;"/>
					<path d="M 110.900002 250.399994 L 210.5 250.399994" class="st13" style="fill: none; stroke: rgb(217, 219, 221); stroke-width: 0.1824; stroke-miterlimit: 10;"/>
					<path d="M 110.900002 242.600006 L 210.5 242.600006" class="st13" style="fill: none; stroke: rgb(217, 219, 221); stroke-width: 0.1824; stroke-miterlimit: 10;"/>
					<path d="M 110.900002 234.899994 L 210.5 234.899994" class="st13" style="fill: none; stroke: rgb(217, 219, 221); stroke-width: 0.1824; stroke-miterlimit: 10;"/>
					<path d="M 110.900002 227.199997 L 210.5 227.199997" class="st13" style="fill: none; stroke: rgb(217, 219, 221); stroke-width: 0.1824; stroke-miterlimit: 10;"/>
				</g>
				<g>
					<path d="M 110.699997 219.300003 H 110.999997 V 266.000004 H 110.699997 V 219.300003 Z" class="st14" style="fill: rgb(50, 50, 50);"/>
				</g>
				<g>
					<path d="M 110.5 265.700012 H 210.099998 V 266.000012 H 110.5 V 265.700012 Z" class="st14" style="fill: rgb(50, 50, 50);"/>
				</g>
			</g>
			<path class="st15" d="M211.1,247.7l-3.5-3l0,0l-0.9-1c-0.2-0.2-0.7-0.3-0.7-0.3c-0.7,0-0.7,0.2-0.9,0.3l-2.4,2.1l-5.5-5.2&#10;&#9;&#9;&#9;&#9;c-0.4,0-0.7-0.2-0.7-0.2c-0.4,0-0.7,0.2-0.9,0.2l-3.8,4l-7.7-6.5c0,0,0-0.2,0-0.3h-0.4l0,0h-0.2l0,0l0,0c0,0-0.7,0-0.7,0.2&#10;&#9;&#9;&#9;&#9;c0,0,0,0-0.2,0.2l-2.2,1.9l-7.7-6.8c-0.2-0.2-0.2-0.3-0.7-0.3l0,0l0,0h-0.2l0,0c0,0-0.4,0.2-0.7,0.3l-2.2,2.1l-8-7c0,0,0,0-0.4,0&#10;&#9;&#9;&#9;&#9;c0,0,0,0,0-0.2c-0.2-0.2-0.9-0.2-1.1,0.2l-14.4,13.1l-2-2.1c-0.4,0-0.4-0.2-0.4-0.2h-0.2c0,0,0,0-0.4,0l0,0l0,0&#10;&#9;&#9;&#9;&#9;c-0.2,0-0.2,0.2-0.2,0.2l-14.2,13.3l-3.8-4.2c-0.4-0.2-0.7-0.2-0.7-0.2c-0.7,0-0.9,0-1.3,0.3l-10.4,16c0,0.3,0,0.9,0.7,1&#10;&#9;&#9;&#9;&#9;c0.2,0.2,0.9,0,1.1-0.3l9.7-15.2l3.3,3.8c0.2,0.3,0.7,0.3,0.9,0.3c0.4,0,0.7,0,0.9-0.2l14.4-13.3l2.2,2.1l0,0l0,0l0,0&#10;&#9;&#9;&#9;&#9;c0,0,0,0,0.2,0v0.2l0,0l0,0h0.2l0,0l0,0l0,0c0.4,0,0.4,0,0.4,0l0,0l0,0l0,0l0.2-0.2l0,0l0,0l0,0l0,0l14.4-13.3l8.2,7.1l0.7,0.2&#10;&#9;&#9;&#9;&#9;c0.4,0,0.7-0.2,0.7-0.2l2.4-2.1l7.7,6.6c0.4,0.2,0.4,0.3,0.4,0.3s0,0,0.2,0l0,0l0,0h0.2l0,0l0,0l0,0l0,0c0.4,0,0.4-0.2,0.4-0.2&#10;&#9;&#9;&#9;&#9;l2.4-2.1l8,6.8l0.7,0.2l0,0l0,0c0.4,0,0.7-0.2,0.7-0.2l3.8-4.2l5.5,5.2c0.2,0.2,0.7,0.2,0.7,0.2c0.7,0,0.7-0.2,0.7-0.2l2.4-2.3&#10;&#9;&#9;&#9;&#9;l3.3,3.1l0,0l0.4,0.5c0.2,0.2,0.9,0.2,1.1,0C211.3,248.4,211.3,248.1,211.1,247.7z" style="fill: rgb(228, 229, 230);"/>
			<g>
				<path d="M 132.8000030517578 219.60000610351562 L 132.8000030517578 265.6000061035156 L 120.80000305175781 265.6000061035156 L 120.80000305175781 219.60000610351562 L 126.80000305175781 215.60000610351562 Z" class="st10" style="fill: rgb(255, 206, 84);"/>
				<path d="M 153.60000610351562 230.89999389648438 L 153.60000610351562 265.6000061035156 L 141.60000610351562 265.6000061035156 L 141.60000610351562 230.89999389648438 L 147.60000610351562 226.8000030517578 Z" class="st16" style="fill: rgb(93, 156, 236);"/>
				<path d="M 195 236.6999969482422 L 195 265.6000061035156 L 183 265.6000061035156 L 183 236.6999969482422 L 189 232.60000610351562 Z" class="st9" style="fill: rgb(252, 110, 81);"/>
				<path d="M 174.3000030517578 253.10000610351562 L 174.3000030517578 265.6000061035156 L 162.3000030517578 265.6000061035156 L 162.3000030517578 253.10000610351562 L 168.3000030517578 249.10000610351562 Z" class="st17" style="fill: rgb(77, 77, 77);"/>
			</g>
			<g>
				<path d="M 178.399994 270.299988 H 195.499994 V 271.999988 H 178.399994 V 270.299988 Z" class="st18" style="fill-rule: evenodd; clip-rule: evenodd; fill: rgb(102, 102, 102);"/>
				<path d="M 125.5 270.200012 H 175.400002 V 271.900012 H 125.5 V 270.200012 Z" class="st18" style="fill-rule: evenodd; clip-rule: evenodd; fill: rgb(102, 102, 102);"/>
			</g>
			<g>
				<path d="M 413.100006 270.299988 H 437.500006 V 271.999988 H 413.100006 V 270.299988 Z" class="st18" style="fill-rule: evenodd; clip-rule: evenodd; fill: rgb(102, 102, 102);"/>
				<path d="M 337.5 270.200012 H 408.800003 V 271.900012 H 337.5 V 270.200012 Z" class="st18" style="fill-rule: evenodd; clip-rule: evenodd; fill: rgb(102, 102, 102);"/>
			</g>
			<g>
				<g id="_x33_2">
					<path class="st16" d="M302.4,163c5.2,0,9.4,4.1,9.6,9.2h0.7l-2.7,2.7l-2.7-2.7h0.7c-0.2-3-2.6-5.3-5.6-5.3&#10;&#9;&#9;&#9;&#9;&#9;&#9;c-3.1,0-5.7,2.5-5.7,5.7c0,3.1,2.5,5.7,5.7,5.7v3.9c-5.3,0-9.6-4.3-9.6-9.6C292.8,167.3,297.1,163,302.4,163z" style="fill: rgb(93, 156, 236);"/>
					<path class="st10" d="M302.4,157.5c8.2,0,14.9,6.6,15.1,14.8h0.7l-2.7,2.7l-2.7-2.7h0.7c-0.2-6-5.1-10.9-11.2-10.9&#10;&#9;&#9;&#9;&#9;&#9;&#9;c-6.2,0-11.2,5-11.2,11.2c0,6.2,5,11.2,11.2,11.2v3.9c-8.3,0-15.1-6.8-15.1-15.1C287.3,164.3,294.1,157.5,302.4,157.5z" style="fill: rgb(255, 206, 84);"/>
					<path class="st9" d="M287.8,158c3.9-3.9,9.1-6,14.6-6c5.5,0,10.7,2.1,14.6,6c3.8,3.8,6,8.9,6,14.3h0.7l-2.7,2.7l-2.7-2.7h0.7&#10;&#9;&#9;&#9;&#9;&#9;&#9;c-0.2-9.1-7.6-16.4-16.7-16.4c-9.2,0-16.7,7.5-16.7,16.7c0,9.2,7.5,16.7,16.7,16.7v3.9c-5.5,0-10.7-2.1-14.6-6&#10;&#9;&#9;&#9;&#9;&#9;&#9;c-3.9-3.9-6-9.1-6-14.6C281.7,167.1,283.9,161.9,287.8,158z" style="fill: rgb(252, 110, 81);"/>
				</g>
			</g>
			<g>
				<path d="M 304.700012 190.600006 H 323.700012 V 192.200006 H 304.700012 V 190.600006 Z" class="st11" style="fill-rule: evenodd; clip-rule: evenodd; fill: rgb(115, 115, 115);"/>
				<path d="M 304.700012 185.399994 H 323.700012 V 186.999994 H 304.700012 V 185.399994 Z" class="st11" style="fill-rule: evenodd; clip-rule: evenodd; fill: rgb(115, 115, 115);"/>
				<g>
					<path d="M 304.700012 180.199997 H 323.700012 V 181.799997 H 304.700012 V 180.199997 Z" class="st11" style="fill-rule: evenodd; clip-rule: evenodd; fill: rgb(115, 115, 115);"/>
				</g>
			</g>
			<g>
				<g id="chart_3_">
					<path class="st16" d="M361.1,229.9c0-12.9,10.5-23.3,23.3-23.3v46.7C371.5,253.3,361.1,242.8,361.1,229.9z" style="fill: rgb(93, 156, 236);"/>
					<path class="st10" d="M384.4,206.6L384.4,206.6c12.9,0,23.4,10.5,23.4,23.3c0,3.5-0.8,6.9-2.2,9.9l-21.2-9.9V206.6z" style="fill: rgb(255, 206, 84);"/>
					<path class="st9" d="M384.4,253.3L384.4,253.3v-23.3l21.2,9.9C401.9,247.8,393.8,253.3,384.4,253.3z" style="fill: rgb(252, 110, 81);"/>
				</g>
				<g id="data">
					<g>
						<path class="st10" d="M413.7,203.9c0,0-0.1,0-0.1,0.1l-4.1,4.9c-0.2-0.1-0.3-0.2-0.5-0.2c-0.6,0-1,0.5-1,1c0,0.6,0.5,1,1,1&#10;&#9;&#9;&#9;&#9;&#9;&#9;&#9;c0.6,0,1-0.5,1-1c0-0.3-0.1-0.5-0.3-0.7l4.1-4.8h3v-0.3H413.7z" style="fill: rgb(255, 206, 84);"/>
						<g>
							<path class="st17" d="M419.7,205.6v-3.4h0.8v2.6h1.2v0.7H419.7z" style="fill: rgb(77, 77, 77);"/>
							<path class="st17" d="M425,203.9c0,0.6-0.1,1-0.4,1.3c-0.3,0.3-0.6,0.4-1.1,0.4c-0.5,0-0.8-0.1-1.1-0.4&#10;&#9;&#9;&#9;&#9;&#9;&#9;&#9;&#9;c-0.3-0.3-0.4-0.7-0.4-1.3c0-0.6,0.1-1,0.4-1.3c0.3-0.3,0.6-0.4,1.1-0.4c0.5,0,0.9,0.1,1.1,0.4&#10;&#9;&#9;&#9;&#9;&#9;&#9;&#9;&#9;C424.9,203,425,203.4,425,203.9z M422.9,203.9c0,0.6,0.2,1,0.6,1c0.2,0,0.4-0.1,0.5-0.2c0.1-0.2,0.2-0.4,0.2-0.7&#10;&#9;&#9;&#9;&#9;&#9;&#9;&#9;&#9;c0-0.3-0.1-0.6-0.2-0.7c-0.1-0.2-0.3-0.2-0.5-0.2C423.2,203,422.9,203.3,422.9,203.9z" style="fill: rgb(77, 77, 77);"/>
							<path class="st17" d="M426.4,204.4v1.2h-0.8v-3.4h1c0.8,0,1.2,0.3,1.2,1c0,0.4-0.2,0.7-0.5,0.9l0.9,1.5h-0.9l-0.6-1.2H426.4z&#10;&#9;&#9;&#9;&#9;&#9;&#9;&#9;&#9; M426.4,203.7h0.2c0.3,0,0.4-0.1,0.4-0.4c0-0.2-0.1-0.3-0.4-0.3h-0.2V203.7z" style="fill: rgb(77, 77, 77);"/>
							<path class="st17" d="M431.1,202.3v2c0,0.4-0.1,0.8-0.3,1c-0.2,0.2-0.6,0.4-1,0.4c-0.4,0-0.7-0.1-1-0.4&#10;&#9;&#9;&#9;&#9;&#9;&#9;&#9;&#9;c-0.2-0.2-0.3-0.6-0.3-1v-2h0.8v2c0,0.2,0,0.4,0.1,0.5c0.1,0.1,0.2,0.2,0.4,0.2c0.2,0,0.3-0.1,0.4-0.2&#10;&#9;&#9;&#9;&#9;&#9;&#9;&#9;&#9;c0.1-0.1,0.1-0.3,0.1-0.5v-2H431.1z" style="fill: rgb(77, 77, 77);"/>
							<path class="st17" d="M433,205.6l-0.6-2.4h0c0,0.4,0,0.7,0,1v1.5h-0.7v-3.4h1.1l0.6,2.4h0l0.6-2.4h1.1v3.4h-0.8v-1.5&#10;&#9;&#9;&#9;&#9;&#9;&#9;&#9;&#9;c0-0.1,0-0.2,0-0.3c0-0.1,0-0.3,0-0.7h0l-0.6,2.4H433z" style="fill: rgb(77, 77, 77);"/>
						</g>
					</g>
					<g>
						<path class="st9" d="M392.9,265.5c0,0,0.1,0,0.1-0.1l4.1-4.9c0.2,0.1,0.3,0.2,0.5,0.2c0.6,0,1-0.5,1-1c0-0.6-0.5-1-1-1&#10;&#9;&#9;&#9;&#9;&#9;&#9;&#9;s-1,0.5-1,1c0,0.3,0.1,0.5,0.3,0.7l-4.1,4.8h-3v0.3H392.9z" style="fill: rgb(252, 110, 81);"/>
						<g>
							<path class="st17" d="M371.8,265.9v-3.4h0.8v2.6h1.2v0.7H371.8z" style="fill: rgb(77, 77, 77);"/>
							<path class="st17" d="M377.1,264.2c0,0.6-0.1,1-0.4,1.3c-0.3,0.3-0.6,0.4-1.1,0.4c-0.5,0-0.8-0.1-1.1-0.4&#10;&#9;&#9;&#9;&#9;&#9;&#9;&#9;&#9;c-0.3-0.3-0.4-0.7-0.4-1.3c0-0.6,0.1-1,0.4-1.3c0.3-0.3,0.6-0.4,1.1-0.4c0.5,0,0.9,0.1,1.1,0.4S377.1,263.7,377.1,264.2z&#10;&#9;&#9;&#9;&#9;&#9;&#9;&#9;&#9; M375,264.2c0,0.6,0.2,1,0.6,1c0.2,0,0.4-0.1,0.5-0.2c0.1-0.2,0.2-0.4,0.2-0.7c0-0.3-0.1-0.6-0.2-0.7&#10;&#9;&#9;&#9;&#9;&#9;&#9;&#9;&#9;c-0.1-0.2-0.3-0.2-0.5-0.2C375.2,263.2,375,263.6,375,264.2z" style="fill: rgb(77, 77, 77);"/>
							<path class="st17" d="M378.5,264.7v1.2h-0.8v-3.4h1c0.8,0,1.2,0.3,1.2,1c0,0.4-0.2,0.7-0.5,0.9l0.9,1.5h-0.9l-0.6-1.2H378.5z&#10;&#9;&#9;&#9;&#9;&#9;&#9;&#9;&#9; M378.5,264h0.2c0.3,0,0.4-0.1,0.4-0.4c0-0.2-0.1-0.3-0.4-0.3h-0.2V264z" style="fill: rgb(77, 77, 77);"/>
							<path class="st17" d="M383.1,262.5v2c0,0.4-0.1,0.8-0.3,1c-0.2,0.2-0.6,0.4-1,0.4c-0.4,0-0.7-0.1-1-0.4&#10;&#9;&#9;&#9;&#9;&#9;&#9;&#9;&#9;c-0.2-0.2-0.3-0.6-0.3-1v-2h0.8v2c0,0.2,0,0.4,0.1,0.5c0.1,0.1,0.2,0.2,0.4,0.2c0.2,0,0.3-0.1,0.4-0.2&#10;&#9;&#9;&#9;&#9;&#9;&#9;&#9;&#9;c0.1-0.1,0.1-0.3,0.1-0.5v-2H383.1z" style="fill: rgb(77, 77, 77);"/>
							<path class="st17" d="M385.1,265.9l-0.6-2.4h0c0,0.4,0,0.7,0,1v1.5h-0.7v-3.4h1.1l0.6,2.4h0l0.6-2.4h1.1v3.4h-0.8v-1.5&#10;&#9;&#9;&#9;&#9;&#9;&#9;&#9;&#9;c0-0.1,0-0.2,0-0.3c0-0.1,0-0.3,0-0.7h0l-0.6,2.4H385.1z" style="fill: rgb(77, 77, 77);"/>
						</g>
					</g>
					<g>
						<path class="st16" d="M361.3,200.2c0,0,0.1,0,0.1,0.1l4.1,4.9c0.2-0.1,0.3-0.2,0.5-0.2c0.6,0,1,0.5,1,1c0,0.6-0.5,1-1,1&#10;&#9;&#9;&#9;&#9;&#9;&#9;&#9;c-0.6,0-1-0.5-1-1c0-0.3,0.1-0.5,0.3-0.7l-4.1-4.8h-3v-0.3H361.3z" style="fill: rgb(93, 156, 236);"/>
						<g>
							<path class="st17" d="M339.8,202v-3.4h0.8v2.6h1.2v0.7H339.8z" style="fill: rgb(77, 77, 77);"/>
							<path class="st17" d="M345.2,200.3c0,0.6-0.1,1-0.4,1.3c-0.3,0.3-0.6,0.4-1.1,0.4c-0.5,0-0.8-0.1-1.1-0.4&#10;&#9;&#9;&#9;&#9;&#9;&#9;&#9;&#9;c-0.3-0.3-0.4-0.7-0.4-1.3c0-0.6,0.1-1,0.4-1.3c0.3-0.3,0.6-0.4,1.1-0.4c0.5,0,0.9,0.1,1.1,0.4&#10;&#9;&#9;&#9;&#9;&#9;&#9;&#9;&#9;C345,199.3,345.2,199.7,345.2,200.3z M343.1,200.3c0,0.6,0.2,1,0.6,1c0.2,0,0.4-0.1,0.5-0.2c0.1-0.2,0.2-0.4,0.2-0.7&#10;&#9;&#9;&#9;&#9;&#9;&#9;&#9;&#9;c0-0.3-0.1-0.6-0.2-0.7c-0.1-0.2-0.3-0.2-0.5-0.2C343.3,199.3,343.1,199.6,343.1,200.3z" style="fill: rgb(77, 77, 77);"/>
							<path class="st17" d="M346.5,200.7v1.2h-0.8v-3.4h1c0.8,0,1.2,0.3,1.2,1c0,0.4-0.2,0.7-0.5,0.9l0.9,1.5h-0.9l-0.6-1.2H346.5z&#10;&#9;&#9;&#9;&#9;&#9;&#9;&#9;&#9; M346.5,200.1h0.2c0.3,0,0.4-0.1,0.4-0.4c0-0.2-0.1-0.3-0.4-0.3h-0.2V200.1z" style="fill: rgb(77, 77, 77);"/>
							<path class="st17" d="M351.2,198.6v2c0,0.4-0.1,0.8-0.3,1c-0.2,0.2-0.6,0.4-1,0.4c-0.4,0-0.7-0.1-1-0.4&#10;&#9;&#9;&#9;&#9;&#9;&#9;&#9;&#9;c-0.2-0.2-0.3-0.6-0.3-1v-2h0.8v2c0,0.2,0,0.4,0.1,0.5c0.1,0.1,0.2,0.2,0.4,0.2c0.2,0,0.3-0.1,0.4-0.2&#10;&#9;&#9;&#9;&#9;&#9;&#9;&#9;&#9;c0.1-0.1,0.1-0.3,0.1-0.5v-2H351.2z" style="fill: rgb(77, 77, 77);"/>
							<path class="st17" d="M353.2,202l-0.6-2.4h0c0,0.4,0,0.7,0,1v1.5h-0.7v-3.4h1.1l0.6,2.4h0l0.6-2.4h1.1v3.4h-0.8v-1.5&#10;&#9;&#9;&#9;&#9;&#9;&#9;&#9;&#9;c0-0.1,0-0.2,0-0.3c0-0.1,0-0.3,0-0.7h0l-0.6,2.4H353.2z" style="fill: rgb(77, 77, 77);"/>
						</g>
					</g>
				</g>
			</g>
			<g>
				<path d="M 216.300003 152 H 216.500003 V 272 H 216.300003 V 152 Z"/>
				<path d="M 331.299988 152 H 331.499988 V 272 H 331.299988 V 152 Z"/>
			</g>
			<g>
				<path d="M 110.199997 137.800003 H 437.800003 V 141.800003 H 110.199997 V 137.800003 Z" class="st17" style="fill: rgb(77, 77, 77);"/>
				<path d="M 110.199997 134.300003 H 437.800003 V 135.300003 H 110.199997 V 134.300003 Z" class="st17" style="fill: rgb(77, 77, 77);"/>
			</g>
			
			<g>
				<path d="M 407.200012 91.800003 H 411.900012 V 92.700003 H 407.200012 V 91.800003 Z" class="st12" style="fill-rule: evenodd; clip-rule: evenodd; fill: rgb(77, 77, 77);"/>
				<path d="M 425.399994 91.699997 H 437.199994 V 92.599997 H 425.399994 V 91.699997 Z" class="st12" style="fill-rule: evenodd; clip-rule: evenodd; fill: rgb(77, 77, 77);"/>
				<path d="M 416.5 91.699997 H 424.4 V 92.599997 H 416.5 V 91.699997 Z" class="st12" style="fill-rule: evenodd; clip-rule: evenodd; fill: rgb(77, 77, 77);"/>
			</g>
		</g>
	</g>
</svg>