<?xml version="1.0" encoding="utf-8"?>
<!-- Generator: Adobe Illustrator 19.0.0, SVG Export Plug-In . SVG Version: 6.00 Build 0)  -->
<svg version="1.1" id="Layer_1" xmlns="http://www.w3.org/2000/svg" xmlns:xlink="http://www.w3.org/1999/xlink" x="0px" y="0px"
	 width="595.3px" height="841.9px" viewBox="0 0 595.3 841.9" style="enable-background:new 0 0 595.3 841.9;" xml:space="preserve"
	>
<style type="text/css">
	.st0{clip-path:url(#XMLID_297_);}
	.st1{fill:#0FE0EA;}
	.st2{fill:#16EFEF;}
	.st3{fill:#0ECAD8;}
	.st4{fill:#0B283F;}
	.st5{fill:#5DADBA;}
	.st6{fill:#4F99AA;}
	.st7{fill:#DAEFEB;}
	.st8{fill:#61B3C1;}
	.st9{fill:#366C7F;}
	.st10{fill:#FFC6A9;}
	.st11{fill:#E29F8A;}
	.st12{fill:#C1DBD6;}
	.st13{fill:#FFFFFF;}
	.st14{fill:#3D3131;}
	.st15{fill:#5E4F4F;}
	.st16{fill:#7A6C6C;}
	.st17{fill:#F9E4DC;}
	.st18{fill:#FFB6AE;}
	.st19{fill:#231A1B;}
	.st20{fill:url(#XMLID_302_);}
	.st21{fill:#9B2748;}
	.st22{fill:#723B37;}
	.st23{fill:#874A42;}
	.st24{fill:#A35C57;}
	.st25{fill:#A3C6BF;}
	.st26{fill:#0B4856;}
	.st27{fill:#D4F4F4;}
</style>
<g id="XMLID_298_">
	<defs>
		<rect id="XMLID_292_" width="595.3" height="841.9"/>
	</defs>
	<clipPath id="XMLID_297_">
		<use xlink:href="#XMLID_292_"  style="overflow:visible;"/>
	</clipPath>
	<g id="XMLID_291_" class="st0">
		<rect id="XMLID_3_" class="st1" width="595.3" height="841.9"/>
		<g id="XMLID_288_">
			<g id="XMLID_218_">
				<g id="XMLID_627_">
					<g id="XMLID_661_">
						<g id="XMLID_662_">
							<path id="XMLID_663_" class="st2" d="M297.6,142.2c-100.9,0-195.9-18.7-267.3-52.5C-42.1,55.4-82,9.4-82-39.8
								s39.9-95.2,112.3-129.5c71.5-33.9,166.4-52.5,267.3-52.5c100.9,0,195.9,18.7,267.3,52.5C637.4-134.9,677.3-89,677.3-39.8
								S637.4,55.4,565,89.7C493.5,123.6,398.6,142.2,297.6,142.2z M297.6-213.8c-99.8,0-193.5,18.4-263.9,51.7
								C-35.7-129.1-74-85.7-74-39.8S-35.7,49.6,33.7,82.5c70.4,33.4,164.1,51.7,263.9,51.7c99.8,0,193.5-18.4,263.9-51.7
								C631,49.6,669.3,6.1,669.3-39.8S631-129.1,561.5-162C491.1-195.4,397.4-213.8,297.6-213.8z"/>
						</g>
					</g>
					<g id="XMLID_656_">
						<g id="XMLID_657_">
							<path id="XMLID_658_" class="st2" d="M297.6,60c-55.3,0-107.4-10.2-146.6-28.8c-39.7-18.8-61.6-44-61.6-71s21.9-52.2,61.6-71
								c39.2-18.6,91.2-28.8,146.6-28.8c55.3,0,107.4,10.2,146.6,28.8c39.7,18.8,61.6,44,61.6,71s-21.9,52.2-61.6,71
								C405,49.8,353,60,297.6,60z M297.6-135.2c-54.7,0-106.1,10.1-144.7,28.4c-38.1,18-59.1,41.9-59.1,67s21,49,59.1,67
								c38.6,18.3,90,28.4,144.7,28.4c54.7,0,106.1-10.1,144.7-28.4c38.1-18,59.1-41.9,59.1-67s-21-49-59.1-67
								C403.7-125.1,352.3-135.2,297.6-135.2z"/>
						</g>
					</g>
					<g id="XMLID_651_">
						<g id="XMLID_652_">
							<path id="XMLID_653_" class="st2" d="M444.2,808.8c39.7,18.8,61.6,44,61.6,71s-21.9,52.2-61.6,71
								c-39.2,18.6-91.2,28.8-146.6,28.8c-55.3,0-107.4-10.2-146.6-28.8c-39.7-18.8-61.6-44-61.6-71s21.9-52.2,61.6-71
								c39.2-18.6,91.2-28.8,146.6-28.8C353,780,405,790.2,444.2,808.8z M442.3,946.8c38.1-18,59.1-41.9,59.1-67s-21-49-59.1-67
								c-38.6-18.3-90-28.4-144.7-28.4c-54.7,0-106.1,10.1-144.7,28.4c-38.1,18-59.1,41.9-59.1,67s21,49,59.1,67
								c38.6,18.3,90,28.4,144.7,28.4C352.3,975.2,403.7,965.1,442.3,946.8z"/>
						</g>
					</g>
					<g id="XMLID_646_">
						<g id="XMLID_647_">
							<path id="XMLID_648_" class="st2" d="M297.6,1063.7c-100.9,0-195.9-18.7-267.3-52.5C-42.1,976.8-82,930.8-82,881.7
								s39.9-95.2,112.3-129.5c71.5-33.9,166.4-52.5,267.3-52.5c100.9,0,195.9,18.7,267.3,52.5c72.4,34.3,112.3,80.3,112.3,129.5
								s-39.9,95.2-112.3,129.5C493.5,1045,398.6,1063.7,297.6,1063.7z M297.6,707.7c-99.8,0-193.5,18.4-263.9,51.8
								C-35.7,792.3-74,835.8-74,881.7s38.3,89.3,107.7,122.3c70.4,33.4,164.1,51.8,263.9,51.8c99.8,0,193.5-18.4,263.9-51.8
								C631,971,669.3,927.6,669.3,881.7S631,792.3,561.5,759.4C491.1,726,397.4,707.7,297.6,707.7z"/>
						</g>
					</g>
					<g id="XMLID_643_">
						<g id="XMLID_644_">
							<rect id="XMLID_645_" x="-133" y="416.9" class="st2" width="958" height="8"/>
						</g>
					</g>
					<g id="XMLID_640_">
						<g id="XMLID_641_">
							<rect id="XMLID_642_" x="293.6" y="-58.1" class="st2" width="8" height="958"/>
						</g>
					</g>
					<g id="XMLID_637_">
						<g id="XMLID_638_">
							<path id="XMLID_639_" class="st2" d="M260.7,902.2c-51.5-77.2-90.8-156.1-116.6-234.6c-25.8-78.6-39-158.9-39-238.8
								c0-79.9,13-161.5,38.8-242.7c25.8-81.1,65-164,116.6-246.3l6.8,4.2C62.8,270.6,62.8,591.4,267.3,897.7L260.7,902.2z"/>
						</g>
					</g>
					<g id="XMLID_634_">
						<g id="XMLID_635_">
							<path id="XMLID_636_" class="st2" d="M170.8,903C80.3,826.9,11.1,749-34.9,671.5C-81,593.8-105,514.3-106.2,435.2
								C-107.5,354-84.8,271-38.8,188.6C7.2,106.4,77.6,22.4,170.7-61l5.3,6C-8.5,110.4-100.8,275.3-98.2,435.1
								c2.5,155.5,94.7,310.8,274.2,461.8L170.8,903z"/>
						</g>
					</g>
					<g id="XMLID_631_">
						<g id="XMLID_632_">
							<path id="XMLID_633_" class="st2" d="M334.6,902.2l-6.7-4.4c204.6-306.3,204.5-627.1-0.1-953.7l6.8-4.2
								c51.6,82.3,90.8,165.2,116.6,246.3c25.8,81.1,38.9,162.8,38.8,242.7c0,79.9-13.1,160.2-39,238.8
								C425.4,746.1,386.2,825,334.6,902.2z"/>
						</g>
					</g>
					<g id="XMLID_628_">
						<g id="XMLID_629_">
							<path id="XMLID_630_" class="st2" d="M424.5,903l-5.2-6.1c179.5-151,271.7-306.3,274.2-461.8
								c2.5-159.8-89.8-324.7-274.3-490.2l5.3-6c93.1,83.4,163.5,167.4,209.5,249.7c46,82.4,68.7,165.4,67.5,246.6
								c-1.2,79.1-25.3,158.6-71.4,236.3C584.2,749,515,826.9,424.5,903z"/>
						</g>
					</g>
				</g>
			</g>
			<g id="XMLID_266_">
				<g id="XMLID_425_">
					<path id="XMLID_439_" class="st3" d="M-115.5,273.4c-7.7-6.5-22.6-12.3-20.8-27.3c2.3-19.7,24.6-26.7,34.6-24.4
						c6.8,1.6,13.3,7.7,20.2,8.8c8.4,1.4,14.7-2.1,22.1,2.3c2.4,1.4,3,8,6.1,9.3c4,1.7,6-3.3,9.1-3.9c6.4-1.2,9.3-4.3,15.4-0.2
						c-2.9-6.9-8.8-14.8-13.9-18.5c3.4-10.2,10.8-16.1,14.1-25.8c2-5.9-2.4-7.4,1-14.8c2.4-5.1,11.5-9.8,15.3-12.1
						c16.2-10.1,34-11.9,49.3-26.2c13.6-12.7,28.8-12.5,45.2-13.1c4.7-0.2,15.7-0.3,20.2,2c1.9,1,4.2-0.9,6.2,0.2
						c1.9,1,0.3,8.4,1.3,8.7c8.7,2.8,20.8-6.4,30.4-10.7c17.9-8,36.8-9.8,52.7,5.4c8,7.7,2.3,9.6,14.3,9.7
						c5.2,0.1,10.6-0.5,15.8-0.3c5.7,15.6-12.2,21.1-15,34.8c-2.5,12.4,3,29.5-1.3,40.6c-6.6,17.1-25.1,25.3-35.2,31.3
						c-13.8,8.2-17.4,28.7-12.7,51.5c-10.6,3.2-37.7-19.6-39-38.3c-0.8-11.5,11.2-18.9,8.2-31.6c-1.1-4.6-9.8-15-12-18.9
						c-3.6-6.5-2.8-13.3-8.6-16.9c-5.7-3.5-12.1,6.6-16.7,3.6c-11.2-7.3,3.2-34.6,2.4-48.8c-14.9,7.2-40.5,39.3-28.9,62.7
						c8,16.2,24.7,22.2,34,36.6c9.9,15.4,6.5,11.1,3.4,33.6c-8.4-1.2-14-8.8-21.4-13.3c1.8-24.4-24.4-47.5-36.4-32.7
						c7.6,15.6,8.2,15.5-0.6,29.5c-9,14.3-13.3,19.2-12.3,42.3c11.2,5.4,11.8,3.5,19.9,15.7c3.9,5.8,5.8,15.7,12.3,17.5
						c8,2.2,11-8.4,10-25.4c-0.7-11.6-7.2-18.5-6.9-29.7c9.5-1.5,28.6,6.3,27,25.3c4.1-2.4,6.8-10.5,12.7-9
						c6.5,1.7,8.1,17.2,11.7,24.5c4.7,9.5,12.4,8,5.1,20.4c-5.3,9-20.4,3.4-27.2,3.5c-0.4,1.9-0.7,3.5-1.2,5.1
						c14.2,17.4,5.1,20.4-4.4,36.9c-5.3,9.2-11.4,18.1-15.4,28.7c-3.8,10.1-1.2,15.8-9.4,19.5c-12.4,5.6-26-18.4-34.3,10.9
						c-6.8,24.1,6.6,41.3,18.9,26c2.8,11.8,1.3,14.5,6,24.7c-0.3-0.7,9.7,19.7,8.6,18.4c3.5,3.9,0.4,7.5,6.2,6.4
						c3.8-22.5,11.5-29.3,24.9-21.8c13.5,7.6,36.6,29.1,44.9,45.9c3,6,1.2,10.9,5.6,16.2c4.5,5.4,12.3,5.2,17.5,11
						c13.9,15.6,6.6,16.4-1.3,30.6c-9,16-2.1,36.6-13.9,51.3c-4.4,5.5-8.8,5.6-13.1,12.9c-5,8.4-6.4,21.3-11.4,29.4
						c-13.1,21.1-23.4,27.7-28.3,60.2c-4,26.5-2.7,38.3,9.4,57.9c-5.7,15.9-16.7,2.9-21.8-6.8c-13.9-26.7-7.7-43.4-2.8-74
						c4.3-26.7,8.7-50.3,8.1-78.2c-0.6-29.4-10-21.2-19.9-43c-13.9-30.4,10.4-64.6-7.8-87.9C52.5,520.8,40.3,506.9,31,504
						c-4-9.6-7.7-14.4-15.2-18.5c-7.3-4-10.5,1.1-15.4-10c-3.9-8.7-4.6-23.3-8.8-33.3c-4-9.5-8.1-14.8-13.3-21.7
						c-6.4-8.3-11.1-11.8-12.9-25.2c-2.6-19.1,2.6-34.3-6-50.9c-8.5-16.4-27.4-43.1-41-45.2c-11.7-1.8-7.7,7.3-17.6,16.6
						c-6,5.6-19.9,10.1-26.9,10.8c2.2-6.6,5.4-13.4,7.7-20.3C-137.6,300.6-124.2,287.7-115.5,273.4z"/>
					<path id="XMLID_438_" class="st3" d="M225.7,398.8c-1.3-23.3,8.2-11.9,17.4-11.3c2.7-22.8-6.3-20.8,8.5-36.2
						c10.4-10.8,13-12.3,24.5-12.2c8.4,0,2.4,7.3,11.7-4.7c5.3-6.9,9.7-18,14.5-25.8c6.6-10.6,11.3-20.5-3.8-18.7
						c-0.9-9.4,2.7-16.1,2-25.3c-21.4-1.3-6.6,37.5-10.5,49.6c-1.7,5.4-10.3,11.7-13.9,7.6c-5.1-5.7,0.4-18.1-3.2-24.1
						c-2.5-4.2-4.7-1-6.9-3.8c-5.1-6.5-9.6,3.1-8.1-12.6c1.3-13,14.1-16.8,19.9-21.5c7.5-6,19.7-26.5,28.7-24.7
						c9.1,1.8,13.6,20.6,24.5,22.3c0.2,5.3,2.2,9.9,1.5,15.6c11.2,5.2,20.8-19.7,29.1-27.8c10.4-10.1,17.1-10.1,28.2-8.4
						c4.1,0.6,10.9,4.9,14.9-0.4c4.4-5.8,2.1-14.5,6.1-21c8.2-13.4,14.5-5.4,21.1-3.9c10.1,2.3,5.9,3.8,15.1-11.7
						c13.3-22.5,40.1-21.8,58.7-14.4c-0.6,14.4-9.4,19.9-5.8,36.6c11.4,7.6,11.9,4.8,22.3,2.3c6-1.5,12.7-4,18.8-4.1
						c6-0.1,10.5,2,15.4,3.3c8.1,2.1,11.5,9.1,18,12.3c10.2,5,14.3-3.9,24.7-5.9c9.8-1.9,20.1,3.1,30.1,3.3
						c10.9,0.3,55.1,6.9,51.2,34.8c-8,0.8-11.4-0.3-17.4,6.1c-8.5,9.2-9.2,16.2-20,20c-9.6,3.3-16.2,3.7-22.5,17.2
						c-5.1,10.8-5.4,32.2-15.9,32.4c-5-18.2,3.5-42.4,11.2-55.4c-15.8-10-58.4,18.3-59.5,47.7c24.8-4.9,0.2,71.5-9.4,81.9
						c-9.7,10.6-41.7-34-35.8,5c2.1,13.4,12.2,20.3,5.2,36.7c-4.9,11.4-19.9,9.6-23.5,16.7c-6.9,13.8,5.7,22.9,5,33.9
						c-1.4,22.5-13,7.8-17.6-0.2c-2.3,20.6,1.4,30.8,8,47.5c-10.1,3.2-13.7-16.1-15.2-28.2c-2-15.5-1.8-16.8-6.4-28.6
						c-2.5-6.5-8.7-25.4-14.7-25.8c-8.6-0.6-16.1,21.3-17.7,31.9c-2.1,14.1-2.5,45-13.6,14.6c-4.3-11.7-3.4-37.7-10-45.3
						c-3.7-4.3-9.9,1.4-13.9-1.5c-5.5-3.9-8.4-15-13.9-19.8c-6.7-5.8-18.8-12.4-26.4-14.1c-5,28.4,5.9,21.1,14.3,27.3
						c7.6,5.5,10.4,13.5,11.7,27.3c-12.4,15.6-26.6,12.8-32.5-7.6c-6.7-23.2-6.5-34.9-24.6-34.9c-0.5,14.6,10.8,66.2,18.7,74.8
						c6.4,6.9,20.2-3.6,24.5,5.2c9.3,18.8-18.3,42.8-23.5,51.3c-9.4,15.6-3.6,29.5-9.2,47.7c-3.5,11.5-9.1,16.5-11.2,30.4
						c-2.1,14.5,0.8,45-11.4,51.2c-29.4,14.8-25.7-83.9-32.6-107.1c-2.4-8.1-6.4-14.3-8.2-23.1c-1.5-7.6,0.9-21.3-1.2-27.4
						c-2.7-8-4.4-10.1-11.9-10.7c-12.5-0.9-35,13.8-42.1-9.1c-4.3-13.9-14.4-34.3-12.9-50.7c6.8-10,10.6-30.4,17.6-38.8
						c3.9-4.7,8.8-7.9,13.2-13.8c9.7-13,22.7-16.2,36.1-14.7c0.8,1.4,5.7,3.9,6.9,4c0.5,7.5,18.6,19,22.7,18.7
						c3.8-0.3,8.3-9.3,13.8-9.8c6.1-0.6,10.1,4.8,16.2,3.4c1.3-4.5,1.8-11,1.2-16.1c-7-3.1-20,4.3-20.8-9.7
						c5.1-1.9,24.5,0.2,27.8-5.6c7.5-13.4-5.9-21.3-10.3-25.5c-10.9-10.4-12.9-11.8-19.8,6.5c-2.6,6.9,1.9,10.9-2.6,16.1
						c-1.6,1.9-11.3,3-13.1,3.1c-3.5,0.2-2.9,7.6-7.9,4.1c-4.2-3-3.5-15.3-8.2-18.9c-7.9-6.1-14.8,3.5-21.2,9.3
						C248.8,403.6,233.1,415.3,225.7,398.8z"/>
					<path id="XMLID_437_" class="st3" d="M492.7,585.8c-0.4-3.9,0.7-7-1.8-10.5c-2.1-2.9-5.5-4.4-7.8-7.1
						c-3.5-4.2-10.1-18.1-14.2-18.6c-2.9,10,6.6,19,9.7,25.7C480.4,579.2,485.7,589.4,492.7,585.8z"/>
					<path id="XMLID_436_" class="st3" d="M496.2,589.4c0.3-11.1,13.3-1.7,16.2,0.1c2.2,1.3,3.4,0.7,5.5,0.5
						c2.6-0.2,4.3,0.7,6.8,1.2c4.3,0.8,10.5-0.6,14.4-2.3c-0.8,7.5-15.2,5.5-19.1,6.4C515.4,596.3,498.3,598.3,496.2,589.4z"/>
					<path id="XMLID_435_" class="st3" d="M502.4,574.1c-3.6-1.2-1.3-5.2-1.9-8.3c-0.8-3.9-4.2-5.4-3.5-10.7c2.1-1.1,4.9,0,6.8-1.3
						c2.6-1.8,4.7-8.5,6.5-12.2c2.1-4.3,6.8-12.9,9.1-3.6c1.2,4.7-1.2,3-2.2,7.8c-1.1,5.1,2,5,2.1,9.2c0.2,5.1-2.1,1.3-3.8,4.1
						c-1.7,3-0.1,8.8-0.8,12.3c-1.3,7.3-2.1,2.9-5.6,3.2C507.4,574.9,502.5,579.2,502.4,574.1z"/>
					<path id="XMLID_434_" class="st3" d="M522,582.7c-1.6-5-2.5-18.1,0.4-22.4c2-3.1,2.8-1.3,5.3-1.6c2.4-0.3,4.5-2.5,6.8-2.3
						c0.4,7.2-5,4.1-7.4,5.4c-4.7,2.5-2.9,5.8,1.1,5.7c-1.2,5.8,2.8,8.6,3.5,14c-4.3,1.8-3.4-6.5-6.4-7.9c-4.7-2.1-1.7,6.5-1.4,9.7
						C523,583.6,522.5,583.1,522,582.7z"/>
					<path id="XMLID_433_" class="st3" d="M557.2,562.4c-2.4,0.3-12.5-3.7-9.9,4.9c1,3.3,4.1,2.2,5.7,3.7c1.4,1.3,2.2,5.6,3.9,6.6
						c2.3,1.4,4-2.8,6.6-1.3c2,1.2,6,8,4.3,11.4c-1,2-6.4-0.6-4,4c1.3,2.5,9.4,3.2,11.4,3.6c1.2-14.5,15.1,11.3,20.2,2.7
						c-1.7-4.2-4.3-3-6.4-5.7c-1.5-2-2.6-6.2-4.1-8.7c-4-6.7-9.7-8.3-15.1-11.8c-1.7-1.1-4.3-3.5-6.2-3.4c-1.4,0.1-3.4,3.2-4.7,2.5
						C556.7,569.8,557.2,564.1,557.2,562.4z"/>
					<path id="XMLID_432_" class="st3" d="M530.6,530.4c-4-4-4.5-15.3-0.8-19.6c-4-4.2-4.4,4.8-7-0.7c-2.7-5.6,0.6-13,1.3-18.4
						c1.2,1.4,2.8,4.5,3.2,7.1c0.1,0.8-0.3,5.4-0.2,5.5c1.7,4.1,6.3,2.8,7.8,9.6c0.3,1.2-0.5,3.6-0.2,5.5c0.6,3,3,5.6,3.3,8.8
						C538.4,533,536.4,536.6,530.6,530.4z"/>
					<path id="XMLID_431_" class="st3" d="M545.8,430.8c-0.6-1.7-1-3.8-1.1-6c4.3-2.4,6.1-9.7,10.5-8.6c3.8,1,3.1,3.2,6.5,0.8
						c3.3-2.4,5.7-6.1,6.8-10.7c2.2-9.6-2-16.9,2.1-24.8c0.9-1.8,2.7-7.2,3.8-8.1c2-1.6,5.3,3.3,7.5,4.7c4.5,2.9,3.1,4-0.9,6.8
						c-2.5,1.8-5,7.3-7,2.2c-4.3,4.5,0.5,13.7,1.1,19.8c0.6,7.3-3.3,17.2-7.7,20.6c-4.9,3.8-8.4-4.1-13-4
						C550.6,423.5,550.1,428.6,545.8,430.8z"/>
					<path id="XMLID_430_" class="st3" d="M574.8,365c0.9-12.3-7.1-28.1-0.1-36.9c0.2,4.2,0.1,7.9,0.9,12c0.6,3.1,1.8,5.5,2,8.9
						C577.8,354.1,577.4,362.6,574.8,365z"/>
					<path id="XMLID_429_" class="st3" d="M509.1,647.9c4.7-1.5,7.9-5.9,11.7-9.9c1.6-1.6,6.8-4,7.7-6.2c1.1-2.5-0.7-7.8,0.1-10.6
						c1-3.2,5.5-7,7.4-8.9c2.9-2.9,4.6-5.7,6.3-2c1.2,2.8-0.2,11.7,4.3,7.4c2.6-2.5-0.1-8.1,2.5-11c2-2.3,8.8-0.8,11.2-0.6
						c-0.2,5.7-1.7,10.5,0.5,15.4c2.1,4.8,7.4,12,10.3,6c2.1-4.4,0-18.8,3.1-20.9c3.2-2.1,3.4,11.5,4.5,14.9
						c2.1,6.8,5.3,10.7,9.1,15.1c5,5.7,7.8,10.5,10.9,18.8c3.3,8.8,3.8,16.1,1.1,25.7c-1.3,4.7-2.1,9.6-4.4,13.4
						c-1.6,2.7-4.2,3.8-5.1,7.4c-1,4.1,1.4,8.6-0.6,12.4c-2.4,4.5-9.1,4.1-12.3,3.6c-9.7-1.4-5.2-20.7-12.6-23.6c-1,6.8-3,4-4.8,0.5
						c-3.3-6.3-3.5-7.1-9.1-7.7c-6.1-0.7-11.7,1.2-17.4,4.5c-0.1,2.9,0.7,7-0.8,8.8c-2.2,2.6-6.9-1.8-9.5-1
						c-5.7,1.8-9.2,8.9-10.1-4.9c-0.3-4.4,0.2-8.6,0-12.8c-0.3-6.2-2.7-11.4-3.8-17.4C508.3,659.7,506.1,652.8,509.1,647.9z"/>
					<path id="XMLID_428_" class="st3" d="M632.6,756.7c-3.8-10.2,1.5-12.5,5.2-19.1c2.5-4.4,7.1-20.9,9.3-8.6
						c1,5.7-2.7,12.3-4,18.1C642,752.1,638.8,760.7,632.6,756.7z"/>
					<path id="XMLID_427_" class="st3" d="M649.4,728.4c0.3-2.7-0.4-6.6-0.7-9.2c-0.1-1.1,0.9-2.5,0.6-3.6c-0.3-1.4-2.1-2.1-2.7-3.2
						c-2.4-4.6-2.6-8.1-2.7-14c-0.1-5.6-2.2-10-2.3-14.8c2.3-0.1,5.7,12.4,7.4,15.9c2.8,5.8,5.1,3.8,8.1,7.5
						C661.9,712.8,654.8,724.5,649.4,728.4z"/>
					<path id="XMLID_426_" class="st3" d="M592.4,720.4c-1.8-0.3-5,2.9-7.1,3.1c-1.8,0.2-5-0.9-6.5,1c-3.7,4.7,1.6,8.6,3.5,11.9
						l2,1.8C588.3,745.7,601.2,721.8,592.4,720.4z"/>
				</g>
			</g>
		</g>
		<g id="XMLID_44_">
			<g id="XMLID_35_">
				<g id="XMLID_201_">
					<path id="XMLID_36_" class="st4" d="M472.5,742.7H128.7c-16.3,0-29.5-13.2-29.5-29.5V128.7c0-16.3,13.2-29.5,29.5-29.5h343.8
						c16.3,0,29.5,13.2,29.5,29.5v584.6C502,729.5,488.8,742.7,472.5,742.7z"/>
					<rect id="XMLID_233_" x="112.4" y="159" class="st5" width="376.5" height="492.8"/>
					<path id="XMLID_84_" class="st6" d="M454.8,448.1c-30.6-10.9-62.1-16.3-95.4-20.2c-63-7-124.2-17.1-181.7-37.2
						c-24.5-8.4-46.3-21.6-65.3-37.7v298.8h376.5V462.8C477.9,457.4,466.6,452.5,454.8,448.1z"/>
					<g id="XMLID_198_">
						<circle id="XMLID_157_" class="st6" cx="227.8" cy="130" r="8.2"/>
						<path id="XMLID_185_" class="st6" d="M251.1,125.3H377c2.6,0,4.7,2.1,4.7,4.7l0,0c0,2.6-2.1,4.7-4.7,4.7H251.1
							c-2.6,0-4.7-2.1-4.7-4.7l0,0C246.4,127.4,248.5,125.3,251.1,125.3z"/>
					</g>
					<g id="XMLID_200_">
						<circle id="XMLID_2_" class="st7" cx="300.6" cy="695.2" r="29.4"/>
						<circle id="XMLID_199_" class="st6" cx="300.6" cy="695.2" r="25.3"/>
						<g id="XMLID_206_">
							<path id="XMLID_221_" class="st8" d="M300.6,701.9c10.7,0,19.8-6.6,23.5-16c-3.7-9.4-12.8-16-23.5-16s-19.8,6.6-23.5,16
								C280.8,695.3,290,701.9,300.6,701.9z"/>
						</g>
					</g>
				</g>
				<path id="XMLID_412_" class="st9" d="M485.5,471.3c-0.6-2.2-1.1-4.4-1.9-6.5c-0.5-1.2-1.1-2.4-1.9-3.5c-0.1-0.2-0.3-0.3-0.4-0.5
					c-0.1-0.1-0.1-0.1-0.2-0.2c-0.1-0.1-0.2-0.2-0.3-0.3c-0.1-0.1-0.1-0.1-0.2-0.2c-0.1-0.1-0.2-0.2-0.3-0.3
					c-0.1-0.1-0.2-0.1-0.2-0.2c-0.1-0.1-0.2-0.1-0.3-0.2c-0.1-0.1-0.2-0.1-0.3-0.2c-0.1-0.1-0.2-0.1-0.2-0.2
					c-0.1-0.1-0.2-0.1-0.3-0.2c-0.1,0-0.1-0.1-0.2-0.1c-0.1-0.1-0.2-0.1-0.4-0.2c-0.1,0-0.1-0.1-0.2-0.1c-0.1-0.1-0.3-0.2-0.4-0.2
					c0,0,0,0,0,0c-1.1-0.5-2.3-0.8-3.5-0.8c0,0,0,0,0,0c-0.2,0-0.4,0-0.6,0c0,0,0,0,0,0c-0.6,0.1-1.1,0.2-1.6,0.4
					c-0.8,0.3-1.6,0.9-1.9,1.7c-0.3,0.8-0.1,1.7,0.2,2.5c1.2,3.9,3.4,7.5,3.8,11.5c0.4,3.4-0.5,6.8-1.2,10.2
					c-1.3,6.4-1.8,13.3,0.5,19.4c0.7,1.9,1.7,3.7,2.3,5.6c1.4,4,1.3,8.3,0.8,12.6c-1.2-0.4-2.3-0.8-3.5-1.3c-2,3.3-3.6,6.9-4.6,10.7
					c0,0,0,0,0,0c-0.2,0-0.3,0.1-0.5,0.1c0,0-0.1,0-0.1,0c-0.2,0.1-0.3,0.1-0.5,0.2c0,0-0.1,0-0.1,0.1c-0.1,0.1-0.3,0.1-0.4,0.2
					c-0.1,0-0.1,0.1-0.2,0.1c-0.2,0.1-0.3,0.2-0.5,0.3c-0.1,0.1-0.1,0.1-0.2,0.2c-0.1,0.1-0.2,0.2-0.4,0.3c-0.1,0.1-0.2,0.2-0.3,0.3
					c-0.1,0.1-0.2,0.2-0.3,0.3c-0.1,0.1-0.2,0.2-0.3,0.3c-0.1,0.1-0.1,0.1-0.2,0.2c-0.2,0.2-0.3,0.3-0.5,0.5
					c-0.1,0.1-0.1,0.1-0.2,0.2c-0.1,0.1-0.2,0.2-0.3,0.3c-1.1,1.2-2.1,2.5-2.6,3.6c-3.3,6.5-8.1,12.5-11.4,18.9
					c-0.1-0.2-0.2-0.3-0.3-0.5c0.1,0,0.1-0.1,0.2-0.1c-0.1,0-0.1,0.1-0.2,0.1c-11.2-16.2-22.4-32.4-33.6-48.6
					c-0.6-0.9-1.2-1.7-1.8-2.6c-3-4.3-6.2-8.6-9.9-12.3c-1.5-1.5-3.1-2.9-4.8-4.1c-1.1-0.8-2.3-1.6-3.4-2.3
					c-3.6-2.1-7.4-3.9-11.2-5.6c-11.3-5.1-22.1-14.3-33.8-18.5c-0.3-0.1-0.6-0.2-0.9-0.3c-1.2-0.4-2.5-0.8-3.8-1.1
					c-0.7-0.2-1.4-0.3-2.1-0.4c-0.5-0.1-1.1-0.2-1.6-0.2c-1.4-7.3-2.4-14.1-3.1-21.4c1-0.4,2-0.8,3-1.3c0,0,0,0,0.1,0
					c10.3-4.6,19.5-11.8,26.1-20.8c5.7-7.8,9.7-16.5,12.5-25.7c0.9-0.4,1.7-0.8,2.5-1.2c0.3-0.1,0.5-0.3,0.8-0.5
					c0.5-0.3,1.1-0.6,1.6-0.9c0.3-0.2,0.6-0.4,1-0.6c0.4-0.3,0.9-0.6,1.3-0.9c0.3-0.2,0.7-0.5,1-0.7c0.4-0.3,0.8-0.6,1.2-0.9
					c0.3-0.3,0.7-0.5,1-0.8c0.3-0.3,0.7-0.6,1-0.9c0.4-0.3,0.7-0.6,1-0.9c0.3-0.3,0.6-0.6,0.9-0.8c0.4-0.4,0.7-0.7,1-1.1
					c0.2-0.2,0.4-0.5,0.7-0.8c0.4-0.4,0.8-0.8,1.1-1.3c0.1-0.1,0.2-0.2,0.3-0.4c2-2.4,3.7-5.1,5.1-7.8c0-0.1,0.1-0.1,0.1-0.2
					c0.3-0.7,0.6-1.3,0.9-2c0-0.1,0.1-0.2,0.1-0.3c0.3-0.7,0.5-1.4,0.8-2c0-0.1,0.1-0.2,0.1-0.3c0.3-0.7,0.5-1.4,0.7-2.1
					c0-0.1,0-0.1,0.1-0.2c0.6-2.2,1.1-4.5,1.4-6.8c1.2-10.8-1.3-21.9-6.7-31.3c0.8-11.9,0.9-24,0-35.8c-0.9-11.1-4.5-22.1-13.5-29.6
					c-1.2-1-2.5-1.9-3.8-2.7c-9.6-12.5-25.7-19.8-34.6-33c0.1,3.4,0.9,6.7,1,10.1c-2.3-7.2-6.8-13.6-12.8-18.3
					c-0.4,3.3-0.7,6.7-1.1,10c-1.9-1.9-2.1-4.9-3.7-7.1c-0.8-1.1-1.9-1.9-3.1-2.7c-5.1-3.6-11.4-6.2-16.5-9.8
					c-0.1,5.1-2.5,9.9-5.7,14c-3.2,4-7.2,7.4-11.2,10.7c0.7-2.4,0.7-5-0.1-7.3c-5.3,12.2-15.7,20.4-25.5,29.6
					c-1.1,1-2.2,2.1-3.2,3.3c-5.5,3.8-10.3,8.6-13.7,14.3c-5,8.5-6.6,18.5-6.3,28.2c0.3,8.6,2,17.1,3.9,25.5
					c-6.1,9.1-9.4,20.2-8.9,31.1c0.1,1.5,0.2,3,0.4,4.6c0,0.1,0,0.2,0,0.3c0.1,0.7,0.2,1.4,0.4,2.1c0,0.2,0.1,0.3,0.1,0.5
					c0.1,0.6,0.3,1.3,0.4,1.9c0.1,0.2,0.1,0.4,0.2,0.6c0.2,0.6,0.3,1.2,0.5,1.8c0.1,0.2,0.1,0.5,0.2,0.7c0.2,0.6,0.4,1.1,0.6,1.7
					c0.1,0.3,0.2,0.5,0.3,0.8c0.2,0.5,0.4,1.1,0.6,1.6c0.1,0.3,0.2,0.6,0.3,0.8c0.2,0.5,0.4,1,0.6,1.5c-2.6,7.7-4.7,15.8-4.8,23.1
					c-0.1,10.8,3.6,20.6,10.2,26.7c6.3,5.9,15.7,9.3,28,10c1.4,0.1,2.9,0.1,4.3,0.1c1.3,0.8,2.6,1.5,4,2.2c1.4,0.7,2.8,1.4,4.2,2
					c0.7,0.3,1.4,0.6,2.2,0.9c1.4,0.5,2.9,1,4.4,1.5c1.5,0.4,3,0.8,4.5,1.1c0.2,0,0.4,0.1,0.5,0.1c0.2,2,0.4,4,0.6,6.1
					c0,0,0.1,0,0.1,0.1c0.3,5,0.2,10-0.2,15.3c-12.1,3.9-24.3,7.8-36.4,11.7c-2.4,0.8-4.8,1.5-7.1,2.4c-0.5,0.2-0.9,0.4-1.4,0.6
					c-0.9,0.4-1.8,0.8-2.7,1.2c-2.7,1.4-5.3,3-7.7,4.9c-0.5,0.4-1,0.7-1.4,1.1c-0.9,0.8-1.9,1.6-2.8,2.4c-0.4,0.4-0.9,0.8-1.3,1.2
					c-1.3,1.2-2.7,2.5-4,3.8c-0.9,0.9-1.7,1.7-2.6,2.6c-0.9,0.9-1.7,1.7-2.6,2.6c-1.1,1-2.1,2.1-3.2,3.1c-0.2,0.2-0.4,0.4-0.6,0.6
					c-0.9,0.8-1.8,1.7-2.6,2.5c-0.2,0.2-0.4,0.3-0.5,0.5c-0.9,0.9-1.9,1.7-2.8,2.6c-0.1,0.1-0.2,0.2-0.4,0.3c-1,0.9-2,1.8-3,2.7
					l-0.2,0.2c-1.1,0.9-2.2,1.9-3.3,2.8c0,0,0,0,0,0c-3.4,2.9-7,5.7-10.6,8.5c-1.5-9.5-3-19-4.3-28.5c-0.3-1.9-0.8-3.7-1.6-5.4
					c1.4-5.6,1.8-11.3,1-17.2c-1.8,0.1-3.5,0.2-5.2,0.3c0,0,0-0.1,0-0.1c2.9-1.9,7.2-3,10.2-5.2c0.4-0.3,0.9-0.7,1.3-1.1
					c0.2-0.2,0.4-0.3,0.5-0.5c0.2-0.2,0.4-0.4,0.6-0.6c0.2-0.2,0.5-0.5,0.7-0.8c0.1-0.1,0.2-0.3,0.3-0.4c2.1-2.6,3.8-5.6,5.2-8.5
					c3.1-6.5,7.9-13,15.2-15.3c0.5-2-0.2-3.4-1.4-4.2c-0.4-0.3-0.9-0.5-1.4-0.7c-1.8-0.7-4.2-1-6.1-0.3c1.1-4.5,0-10.5-1.6-13.6
					c-1.6-3.1-5.9-12-9-13.5c-3.6-1.7-10,2.6-14.1,2.8c-0.1,0-0.2,0-0.4,0c-2.6-7.2-1.4-18.7-0.8-26.7c0.4-4.4,1.7-9.3,0.4-13.7
					c0,0,0-0.1,0-0.1c-0.1-0.2-0.2-0.5-0.3-0.7c0-0.1-0.1-0.1-0.1-0.2c-0.1-0.1-0.1-0.3-0.2-0.4c-0.1-0.1-0.1-0.2-0.2-0.3
					c-0.1-0.1-0.2-0.2-0.2-0.3c-0.1-0.1-0.2-0.2-0.2-0.3c-0.1-0.1-0.1-0.1-0.2-0.2c-2.3-2-6.3-1.5-7.9,1.6c-1.8,3.6-2,8.2-2,11.9
					c0,8.8-0.5,17.4-2.2,26c-2.5-7.2-3.4-15.6-4.7-23.2c-0.5-3,0.1-12.1-4.3-11.8c-4.3,0.2-5.5,8-5.9,10.9
					c-1.3,11,3.3,22.8,2.3,33.5c-4.5-6.8-9.2-15.6-10.9-23.5c-2.6-12.1-7.3-1.2-7,5.8c0.3,8.4,4,15.9,7,23.6c0,0.1,0.1,0.2,0.1,0.4
					c0.2,0.4,0.3,0.8,0.4,1.2c0.1,0.2,0.1,0.3,0.2,0.5c0.2,0.5,0.4,1,0.6,1.6c2.4,6.9,2.6,13.6,2.6,20.9c0,1.1,0,2.2,0,3.3
					c0.1,2,0.2,3.9,0.3,5.8c0,0,0,0,0,0c0,0.1,0,0.2,0,0.3c0.1,0.9,0.1,1.8,0.2,2.7v0c0,0,0,0,0,0c0.1,1.3,0.3,2.5,0.4,3.8
					c0,0,0,0,0,0c0.2,1.5,0.4,3,0.6,4.6c0,0.1,0,0.3,0.1,0.5c0.1,0.8,0.3,1.6,0.4,2.4c-1.2-0.2-2.3-0.4-3.5-0.7
					c-1.3,5.7-1.6,11.6-1,17.5c0,0.2,0.1,0.3,0.1,0.5c-0.1,0.2-0.2,0.3-0.3,0.5c-0.7,1.3-1.3,2.6-1.8,4.1
					c-5.9,19.8-8.9,40.3-8.8,60.8c0.1,11.7,1.3,23.9,7.6,34c4.1,6.5,10.8,12,18.4,14.4c0,0,0,0,0,0c0.4,0.1,0.7,0.2,1.1,0.3
					c0,0,0,0,0.1,0c0.4,0.1,0.7,0.2,1.1,0.3c0,0,0.1,0,0.1,0c0.4,0.1,0.7,0.2,1,0.2c0,0,0.1,0,0.1,0c0.3,0.1,0.7,0.1,1,0.2
					c0,0,0.1,0,0.1,0c0.3,0.1,0.7,0.1,1,0.1c0,0,0.1,0,0.1,0c0.4,0,0.7,0.1,1.1,0.1c0,0,0.1,0,0.1,0c0.4,0,0.7,0,1.1,0h0.1
					c0.4,0,0.8,0,1.2,0c0,0,0,0,0,0c23.6,0,43.7-24.1,57.2-36.6c-1.7,34.5-5.9,52.9-11.5,86.9h180.1c-3.4-24.6-4.5-35-7-59.7
					c10.3,8.1,21.5,15,33.5,20.6c2.7,1.3,5.5,2.5,8.4,3.5c0,0,0,0,0.1,0c1.2,0.4,2.4,0.8,3.7,1.1c0,0,0,0,0,0
					c0.6,0.2,1.2,0.3,1.9,0.5c0,0,0,0,0,0c1.2,0.3,2.5,0.5,3.7,0.7c0,0,0,0,0.1,0c1.2,0.2,2.5,0.3,3.7,0.4h0c1.9,0.1,3.7,0,5.5-0.2
					h0c1.2-0.2,2.4-0.4,3.5-0.7c0,0,0,0,0,0c2-0.6,3.9-1.4,5.7-2.5c7.1-4.5,10.7-12.5,13.7-20.2c0.6-1.5,1.2-3,1.7-4.5V479.1
					C487.1,476.8,486.2,474,485.5,471.3z M253.6,422c-5.8-5.5-9.1-14.2-9-24c0-5.7,1.5-12.1,3.4-18.3c0.2,0.3,0.4,0.6,0.5,0.9
					c0.3,0.4,0.5,0.8,0.8,1.2c0.2,0.3,0.4,0.7,0.7,1c0.3,0.4,0.5,0.8,0.8,1.2c0.3,0.3,0.5,0.7,0.8,1c0.3,0.4,0.5,0.7,0.8,1.1
					c0.3,0.4,0.6,0.7,0.9,1.1c0.3,0.3,0.5,0.6,0.8,1c0.3,0.3,0.5,0.6,0.8,0.8c0,0.4,0,0.8,0.1,1.3c0.1,0.8,0.1,1.6,0.2,2.3
					c0.6,6,2.4,11.9,5.1,17.3c1,2,2.1,4,3.4,5.9c0.4,0.6,0.8,1.3,1.3,1.9c1.8,2.5,3.7,4.8,5.8,7.1c1.1,1.1,2.2,2.2,3.3,3.2
					c1.2,1,2.4,2,3.6,3C267.1,430,259,427,253.6,422z M196.9,431.3c0-0.1,0-0.3,0-0.4c0-0.1,0-0.2,0-0.4c0-0.2,0-0.3,0-0.5
					c0-0.1,0-0.2,0-0.3c0.1-1.5,0.3-2.9,0.6-4.3c0.6-3,6-5.2,8.8-4.4c2.5,0.7,5.5,4.2,6.6,6.4c0.6,1.4,0.7,6.2,1.6,9.2
					c-2.4,1.6-4.7,3.3-7.2,4.6c-0.3,0.1-0.6,0.3-0.9,0.4c-0.1,0-0.2,0.1-0.3,0.1c-0.2,0.1-0.4,0.1-0.5,0.2c-0.1,0-0.2,0.1-0.3,0.1
					c-0.2,0.1-0.3,0.1-0.5,0.1c-0.1,0-0.2,0.1-0.3,0.1c-0.2,0-0.3,0.1-0.5,0.1c-0.1,0-0.2,0-0.3,0c-0.2,0-0.4,0-0.5,0
					c-0.1,0-0.1,0-0.2,0c-0.2,0-0.4,0-0.6,0l-0.2,0c-0.1,0-0.3,0-0.4-0.1c-0.1,0-0.1,0-0.2-0.1c-0.1,0-0.2-0.1-0.4-0.1
					c-0.1,0-0.1-0.1-0.2-0.1c-0.1,0-0.2-0.1-0.3-0.1c-0.1,0-0.1-0.1-0.2-0.1c-0.1-0.1-0.2-0.1-0.3-0.2c0,0-0.1-0.1-0.1-0.1
					c-0.2-0.1-0.3-0.2-0.4-0.3c0,0,0,0,0,0c-0.1-0.1-0.3-0.2-0.4-0.4c0-0.1-0.1-0.1-0.1-0.2c-0.1-0.1-0.2-0.2-0.2-0.3
					c0-0.1-0.1-0.1-0.1-0.2c-0.1-0.1-0.1-0.2-0.2-0.3c0-0.1-0.1-0.1-0.1-0.2c-0.1-0.1-0.1-0.2-0.2-0.3c0-0.1-0.1-0.1-0.1-0.2
					c-0.1-0.1-0.1-0.3-0.2-0.4c0-0.1,0-0.1-0.1-0.1c-0.1-0.2-0.2-0.4-0.2-0.6c0-0.1,0-0.1-0.1-0.2c0-0.1-0.1-0.3-0.1-0.4
					c0-0.1,0-0.2-0.1-0.3c0-0.1-0.1-0.3-0.1-0.4c0-0.1,0-0.2-0.1-0.3c0-0.1-0.1-0.3-0.1-0.4c0-0.1,0-0.2-0.1-0.3
					c0-0.1-0.1-0.3-0.1-0.5c0-0.1,0-0.2,0-0.3c0-0.2-0.1-0.5-0.1-0.7c0-0.1,0-0.2,0-0.2c0-0.2,0-0.4,0-0.5c0-0.1,0-0.2,0-0.3
					c0-0.2,0-0.3,0-0.5c0-0.1,0-0.2,0-0.4V431.3z"/>
				<g id="XMLID_145_">
					<g id="XMLID_33_">
						<path id="XMLID_121_" class="st10" d="M229.4,427c-0.3,0-0.6,0.1-0.9,0.2c1.1-4.6,0-10.8-1.6-14c-1.6-3.2-5.9-12.4-9-13.9
							c-3.7-1.8-10.4,2.9-14.4,2.9c-2.6-7.5-1.4-19.3-0.8-27.5c0.4-4.6,1.7-9.6,0.4-14.1c0,0,0-0.1,0-0.1c-1.3-4.4-7.4-4.8-9.4-0.7
							c-1.8,3.7-2,8.5-2,12.2c0,9.1-0.5,17.9-2.2,26.8c-2.5-7.4-3.4-16.1-4.7-23.9c-0.5-3.1,0.1-12.4-4.3-12.2
							c-4.3,0.2-5.5,8.3-5.9,11.2c-1.3,11.4,3.3,23.4,2.3,34.5c-4.5-7-9.2-16-10.9-24.2c-2.6-12.5-7.3-1.3-7,6
							c0.4,9.9,5.2,18.7,8.3,27.9c2.4,7.1,2.6,14,2.6,21.5c0,10.5,1.2,19.7,3.1,30c7.1,3.9,10.8,3.6,18.8,3c7-0.5,11.2,1.1,11.7-6.5
							c2.9-2,7.2-3,10.2-5.3c3.9-3,6.5-7.7,8.6-12.1c3.2-6.7,7.9-13.4,15.2-15.8C238.7,427.8,233,426.5,229.4,427z M214.6,435.1
							c-10.1,5.3-11.7-7.3-9.9-16.4c0.6-3.1,6-5.3,8.8-4.5c2.5,0.7,5.5,4.3,6.6,6.6c0.6,1.4,0.7,6.4,1.6,9.5
							C219.4,431.9,217.1,433.8,214.6,435.1z"/>
						<g id="XMLID_129_">
							<g id="XMLID_276_">
								<g id="XMLID_281_">
									<path id="XMLID_282_" class="st11" d="M197.8,378.7c-1.6,10.5-2,22.9,1.6,32.9c1.3-2.3,2.5-6.3,4.3-9.5c-0.1,0-0.2,0-0.4,0
										c-2.6-7.5-1.4-19.3-0.8-27.5c0.4-4.6,1.7-9.6,0.4-14.1c0,0,0-0.1,0-0.1c-0.5-1.8-1.9-3-3.4-3.4
										C200.4,364.2,198.9,371.6,197.8,378.7z"/>
								</g>
								<g id="XMLID_279_">
									<path id="XMLID_280_" class="st11" d="M181,371.4c-0.2,4.4-1,9.1-0.6,13.7c0.9,9.4,4,18.8,9.4,26.5
										c-0.1-4.4-0.2-8.8-0.3-13.2c0,0.1,0,0.1,0,0.2c-2.5-7.4-3.4-16.1-4.7-23.9c-0.5-3.1,0.1-12.4-4.3-12.2
										c-0.2,0-0.4,0.1-0.6,0.1C180.4,365.5,181.2,368.4,181,371.4z"/>
								</g>
								<g id="XMLID_277_">
									<path id="XMLID_278_" class="st11" d="M172.4,420.6c-4.1-7.4-9.5-16.5-13-25.8c1.4,8,5.1,15.4,7.8,23.2
										c2.4,7.1,2.6,14,2.6,21.5c0,10.5,1.2,19.7,3.1,30c5.6,3.1,9.2,3.6,14.4,3.3c-2.1-4.8-3.6-9.8-4.7-13.7
										C179.1,446.6,178.8,432,172.4,420.6z"/>
								</g>
							</g>
						</g>
						<g id="XMLID_138_">
							<path id="XMLID_146_" class="st11" d="M228.5,427.2c0-0.1-6.8,2.8-6.7,3.2c-2.4,1.6-4.7,3.4-7.2,4.8c-8.5,4.5-11-3.8-10.4-12
								c-3.2,6.8-0.7,17.5,8.6,16.7c7.3-0.6,15.5-10.8,23.2-11.6C234.3,427,230.9,426.3,228.5,427.2z"/>
						</g>
					</g>
					<g id="XMLID_94_">
						<path id="XMLID_158_" class="st10" d="M229.4,427c-0.3,0-0.6,0.1-0.9,0.2c1.1-4.6,0-10.8-1.6-14c-1.6-3.2-5.9-12.4-9-13.9
							c-3.7-1.8-10.4,2.9-14.4,2.9c-2.6-7.5-1.4-19.3-0.8-27.5c0.4-4.6,1.7-9.6,0.4-14.1c0,0,0-0.1,0-0.1c-1.3-4.4-7.4-4.8-9.4-0.7
							c-1.8,3.7-2,8.5-2,12.2c0,9.1-0.5,17.9-2.2,26.8c-2.5-7.4-3.4-16.1-4.7-23.9c-0.5-3.1,0.1-12.4-4.3-12.2
							c-4.3,0.2-5.5,8.3-5.9,11.2c-1.3,11.4,3.3,23.4,2.3,34.5c-4.5-7-9.2-16-10.9-24.2c-2.6-12.5-7.3-1.3-7,6
							c0.4,9.9,5.2,18.7,8.3,27.9c2.4,7.1,2.6,14,2.6,21.5c0,10.5,1.2,19.7,3.1,30c7.1,3.9,10.8,3.6,18.8,3c7-0.5,11.2,1.1,11.7-6.5
							c2.9-2,7.2-3,10.2-5.3c3.9-3,6.5-7.7,8.6-12.1c3.2-6.7,7.9-13.4,15.2-15.8C238.7,427.8,233,426.5,229.4,427z M214.6,435.1
							c-10.1,5.3-11.7-7.3-9.9-16.4c0.6-3.1,6-5.3,8.8-4.5c2.5,0.7,5.5,4.3,6.6,6.6c0.6,1.4,0.7,6.4,1.6,9.5
							C219.4,431.9,217.1,433.8,214.6,435.1z"/>
						<g id="XMLID_92_">
							<path id="XMLID_100_" class="st11" d="M203.8,402.1c-0.1,0-0.2,0-0.4,0c-2.6-7.5-1.4-19.3-0.8-27.5c0.4-4.6,1.7-9.6,0.4-14.1
								c0,0,0-0.1,0-0.1c-0.5-1.8-1.9-3-3.4-3.4c0.8,7.2-0.7,14.6-1.7,21.7c-1.6,10.5-2,22.9,1.6,32.9
								C200.8,409.4,202,405.3,203.8,402.1z"/>
							<path id="XMLID_104_" class="st11" d="M181,371.4c-0.2,4.4-1,9.1-0.6,13.7c0.9,9.4,4,18.8,9.4,26.5
								c-0.1-4.4-0.2-8.8-0.3-13.2c0,0.1,0,0.1,0,0.2c-2.5-7.4-3.4-16.1-4.7-23.9c-0.5-3.1,0.1-12.4-4.3-12.2
								c-0.2,0-0.4,0.1-0.6,0.1C180.4,365.5,181.2,368.4,181,371.4z"/>
							<path id="XMLID_128_" class="st11" d="M210.1,457.3c-4.1-0.2-7.8-1.8-11.8-1.3c-4.7,0.7-7.9,5.1-12.4,5.4
								c-1,0.1-1.9-0.1-2.8-0.3c-0.2-0.7-0.4-1.4-0.6-2c-3.6-12.4-3.8-27-10.2-38.4c-4.1-7.4-9.5-16.5-13-25.8
								c1.4,8,5.1,15.4,7.8,23.2c2.4,7.1,2.6,14,2.6,21.5c0,2.3,0.1,4.4,0.2,6.6l0,0c0,0,0,0,0,0c0,0.9,0.1,1.8,0.2,2.8
								c0,0.1,0,0.3,0,0.4c0.1,0.9,0.1,1.8,0.2,2.7c0,0,0,0,0,0.1c0.2,2.6,0.5,5.2,0.9,7.8c0.1,0.4,0.1,0.9,0.2,1.3
								c0.1,0.6,0.2,1.2,0.3,1.7c0.1,0.6,0.2,1.3,0.3,1.9c0.1,0.5,0.1,0.9,0.2,1.4c0.2,1.1,0.4,2.2,0.6,3.4c0.4,0.2,0.8,0.4,1.2,0.6
								c0.1,0.1,0.2,0.1,0.4,0.2c0.3,0.1,0.5,0.3,0.8,0.4c0.1,0.1,0.3,0.1,0.4,0.2c0.2,0.1,0.5,0.2,0.7,0.3c0.1,0.1,0.3,0.1,0.4,0.2
								c0.3,0.1,0.6,0.2,0.9,0.3c0.1,0,0.2,0.1,0.4,0.1c0.2,0.1,0.5,0.2,0.7,0.2c0.1,0,0.3,0.1,0.4,0.1c0.2,0,0.4,0.1,0.5,0.1
								c0.2,0,0.3,0.1,0.5,0.1c0.2,0,0.3,0.1,0.5,0.1c0.2,0,0.3,0.1,0.5,0.1c0.2,0,0.3,0.1,0.5,0.1c0.3,0,0.6,0.1,0.9,0.1
								c0.1,0,0.3,0,0.4,0c0.2,0,0.4,0,0.6,0c0.1,0,0.3,0,0.4,0c0.2,0,0.4,0,0.6,0c0.1,0,0.2,0,0.3,0c2,0,4.3-0.1,7-0.3
								c7-0.5,11.2,1.1,11.7-6.5c2.9-2,7.2-3,10.2-5.3c1.6-1.2,3-2.7,4.2-4.4C215.5,457,213,457.4,210.1,457.3z"/>
						</g>
						<g id="XMLID_96_">
							<path id="XMLID_97_" class="st11" d="M228.5,427.2c0-0.1-6.8,2.8-6.7,3.2c-2.4,1.6-4.7,3.4-7.2,4.8c-8.5,4.5-11-3.8-10.4-12
								c-3.2,6.8-0.7,17.5,8.6,16.7c7.3-0.6,15.5-10.8,23.2-11.6C234.3,427,230.9,426.3,228.5,427.2z"/>
						</g>
					</g>
					<path id="XMLID_28_" class="st10" d="M503.8,524.6c9.6-0.8,18.5-5.7,26.2-11.5c7.7-5.8,14.7-12.6,22.8-17.9
						c1.4-0.9,3.1-2.2,3-3.9c-0.1-1.6-1.8-2.7-3.4-2.7s-3.1,0.8-4.4,1.5c-4.8,2.6-9.5,5.2-14.3,7.8c-0.8,0.5-2.2,0.7-2.5-0.2
						c-0.2-0.6,0.3-1.1,0.7-1.6c4.9-4.8,10.1-9.3,15.5-13.6c1.8-1.5,3.8-3,4.6-5.2s-0.1-5.2-2.4-5.7c-1-0.2-2,0.1-3,0.4
						c-4.6,1.9-7.7,6.2-11.2,9.8s-8,7-13,6.2c1.1-4.7,5.4-7.8,9.1-10.9c4.2-3.6,7.9-7.8,10.9-12.5c0.9-1.5,1.9-3.2,1.3-4.9
						c-0.7-2.1-3.4-2.9-5.5-2.2c-2.1,0.7-3.7,2.4-5.1,4c-3.8,4.2-7.7,8.5-11.5,12.7c-2.1,2.3-4.5,4.8-7.6,5.1
						c-0.9-3.9,1.4-7.8,3.4-11.3c2.5-4.3,4.9-8.6,7.1-13.1c0.8-1.6,1.6-3.2,1.5-5s-1.1-3.6-2.8-4c-1.7-0.4-3.4,0.9-4.6,2.2
						c-3.4,4-4.8,9.2-6.9,14c-2.1,4.6-4.9,8.8-8.4,12.4c-1.5,1.5-4.1,2.3-5.7,1c-2.8-2.4-4.1-6.1-5-9.7c-0.9-3.6-1.7-7.3-3.8-10.3
						c-2.1-3-6.2-5-9.6-3.6c-0.8,0.3-1.6,0.9-1.9,1.7c-0.3,0.8-0.1,1.7,0.2,2.5c1.2,4,3.4,7.7,3.8,11.9c0.4,3.5-0.5,7-1.2,10.5
						c-1.3,6.6-1.8,13.7,0.5,20c0.7,1.9,1.7,3.8,2.3,5.8c1.9,5.7,1.1,11.9,0.2,17.9c5.4,4.3,12,5.4,18.2,2.6
						C501.8,524.8,504,524.8,503.8,524.6z"/>
					<g id="XMLID_95_">
						<path id="XMLID_98_" class="st11" d="M522,501.4c-5.5-7-10.6-16.2-21.3-16.2c4.1,8.5-3.9,14.9-8.2,21.2
							c-4,5.9,1.3,10.9-1.3,17.9c0.8-1.7-2.2,5.8,1.7,3.6c4.2-2.4,2.8-11.9,4.4-15.8C502,500.7,512.9,504.9,522,501.4z"/>
						<path id="XMLID_134_" class="st11" d="M529.7,498c0.5,0.1,1,0.1,1.6,0c0-0.1-0.1-0.1-0.1-0.2c-0.2-0.6,0.3-1.1,0.7-1.6
							c4.9-4.8,10.1-9.3,15.5-13.6c1.8-1.5,3.8-3,4.6-5.2c0.3-0.7,0.3-1.5,0.3-2.2c-2,3.7-6.5,6.6-9.2,9
							C539.5,487.3,529.1,492.2,529.7,498z"/>
						<path id="XMLID_136_" class="st11" d="M521.8,487.8c0.2,0,0.5,0.1,0.7,0.1c1.2-4.5,5.4-7.5,9-10.6c4.2-3.6,7.9-7.8,10.9-12.5
							c0.7-1.1,1.4-2.4,1.5-3.7c-1.4,2-3.4,3.9-4.7,5.3c-2.7,3.1-5.5,5.7-8.5,8.5C527.5,477.9,521.2,482.9,521.8,487.8z"/>
						<path id="XMLID_182_" class="st11" d="M555.6,490.5c-4.9,5.7-14,9.2-19.8,13.1c-9.2,6.3-17.5,13-28,17.1
							c-3.5,1.4-7.3,2.1-10.3,4.7c-0.3,0.3-0.6,0.6-0.9,0.9c1.6-0.2,3.3-0.7,4.9-1.4c0.3-0.1,2.5-0.1,2.3-0.3
							c9.6-0.8,18.5-5.7,26.2-11.5c7.7-5.8,14.7-12.6,22.8-17.9c1.4-0.9,3.1-2.2,3-3.9C555.7,491,555.7,490.8,555.6,490.5z"/>
						<path id="XMLID_183_" class="st11" d="M512.7,478.2c0.4,0.2,0.8,0.2,1.3,0.2c-0.3-3.6,1.7-7.1,3.6-10.3
							c2.5-4.3,4.9-8.6,7.1-13.1c0.8-1.6,1.6-3.2,1.5-5c0-0.7-0.2-1.3-0.4-2c-0.4,4.7-5.2,9.4-7.6,13
							C516.2,463.9,505.7,475.6,512.7,478.2z"/>
						<path id="XMLID_184_" class="st11" d="M496.8,476.4c1.1,0.2,2,0.2,2.9-0.1c-0.7,0-1.4-0.2-2-0.7c-2.8-2.4-4.1-6.1-5-9.7
							c-0.9-3.6-1.7-7.3-3.8-10.3c-1.9-2.7-5.4-4.6-8.5-3.9c4.1,1.8,7.7,5.7,7.7,9.7c0,1.3-1,2.4-0.8,3.7c0.2,1.1,1.8,3.1,2.4,4
							C491.3,471.8,493.2,475.7,496.8,476.4z"/>
					</g>
					<path id="XMLID_22_" class="st7" d="M417.9,651.8H237.8c5.6-35.1,9.9-54,11.5-89.5c-13.5,12.8-33.6,37.6-57.2,37.6
						c-11.3-18.1-12-41.2-6.9-62c20.3-12.2,39.1-27,55.7-44c6.9-7.1,13.6-14.6,22.4-19.1c3.6-1.8,7.4-3.1,11.2-4.4
						c15.8-5.3,31.6-10.5,47.5-15.8c7.2-2.4,15.6-0.2,23.2-0.5c16.9-0.6,31.3,14.2,46.6,21.3c5.1,2.4,10.2,4.7,14.6,8.1
						c6.8,5.2,11.7,12.4,16.5,19.5c11.3,16.9,22.6,33.7,33.9,50.6c3.3-6.7,8.1-12.9,11.4-19.5c1.6-3.2,6.1-8,8.8-7.2
						c6.7,2.1,11.2-4.7,16.6-0.1c5.4,4.6,10.3,10,11.4,17c2.4,16.2-4.8,34.2-10.6,49.5c-3,7.9-6.6,16.3-13.7,20.8
						c-10.7,6.9-24.9,2.8-36.3-2.8c-11.9-5.8-23.2-12.9-33.5-21.3C413.4,615.7,414.5,626.5,417.9,651.8z"/>
					<polygon id="XMLID_140_" class="st12" points="316.4,499.9 322.5,515.8 308.7,651.8 329.4,514.3 					"/>
					<g id="XMLID_123_">
						<path id="XMLID_142_" class="st12" d="M283,552.4c18.7,39.7,64.5,48.5,102.1,60.2L283,552.4z"/>
						<path id="XMLID_144_" class="st12" d="M265.9,587.7c32.3,36.6,94,31.4,137.5,31.4L265.9,587.7z"/>
					</g>
					<g id="XMLID_107_">
						<path id="XMLID_111_" class="st13" d="M231.7,509.1c7-5,11.9-11.9,17.7-18.1c10.1-10.7,22.4-14.9,34.7-20.4
							c1.5,6.7,8.2,14.2,11.1,20.2c-3-6.1-4-14.3-5.9-20.8c7.3-7.4,22.1-9.2,32-11.5c11.3-2.7,27.1-4.1,37.8,0.7
							c5.5,2.4,10.2,9.6,15.7,10.8c0.4,6.6-4.3,15.4-4.1,23.3l7.3-21.5c5.6,0,11.2,5.7,16.4,8.1c5.6,2.6,10.9,5.6,15.4,9.9
							c6,5.7,9.8,15.2,14,22.3c6,10.2,13.2,19.1,20.7,28.2c2,2.4,6.7,6.5,6.1,9.8c-0.5,2.5-6.2,10.5-8,12.5c8.1-5,10.8-6.4,13.6-9.5
							c-11.2-16.6-22.3-33.3-33.5-49.9c-4.8-7.1-9.7-14.4-16.5-19.5c-4.4-3.4-9.6-5.8-14.6-8.1c-15.3-7.1-29.7-21.9-46.6-21.3
							c-7.6,0.3-16-1.9-23.2,0.5c-15.8,5.3-31.6,10.5-47.5,15.8c-3.8,1.3-7.7,2.5-11.2,4.4c-8.8,4.5-15.5,12.1-22.4,19.1
							c-8.5,8.7-17.6,16.9-27.3,24.4l0,0C219,518.4,227.3,512.2,231.7,509.1z"/>
					</g>
					<g id="XMLID_108_">
						<path id="XMLID_113_" class="st12" d="M502,538.3c-0.1-0.5,0.2-1.1,0.3-1.6c-2.2-3.7-5.4-6.9-8.7-9.8
							c-5.4-4.6-9.9,2.2-16.6,0.1c-1.7-0.5-4.2,1.3-6.2,3.5c-0.1,9.7,6,19.7,13.8,25.7c-7.3,27.1-15.3,47.6-35.4,57.5
							c9.6,4,20.3,6.2,29.2,1.9c1.3-1.6,2.5-3.4,3.6-5.4C490.2,595.4,504.6,561.4,502,538.3z"/>
					</g>
					<g id="XMLID_21_">
						<path id="XMLID_4_" class="st14" d="M257.7,318.6c-2.1-9.8-4.3-19.7-4.6-29.7s1.3-20.3,6.3-29c5.3-9.3,14.2-16.2,23.9-20.7
							c9.7-4.5,20.4-6.6,31-8.1c16.4-2.3,33.7-2.8,49.1,3.4c10.1,4.1,21.5,6.7,30,13.9c9,7.6,12.7,19,13.5,30.4
							c1.1,14.9,0.8,30.3-0.6,45.2L257.7,318.6z"/>
						<path id="XMLID_52_" class="st10" d="M345.6,420.7c1,16,2.5,28.3,6.1,43.9c-7.1,4.8-14.3,10.7-20.2,16.9
							c-6.6-5.4-14.8-10.2-21.4-15.7c2.1-15,1.7-26-1.3-40.8C320,423,334.1,421,345.6,420.7z"/>
						<path id="XMLID_148_" class="st11" d="M348,447.6c-1.1-9-1.9-18-2.4-26.9c-11.5,0.3-25.6,2.3-36.9,4.4
							c1.2,5.7,1.9,11.6,2.3,17.4C320.4,450.2,335.1,450.3,348,447.6z"/>
						<g id="XMLID_12_">
							<path id="XMLID_13_" class="st15" d="M267,385.9c-11.2-9.6-18.3-23.9-18.9-38.7c-0.6-14.8,5.1-29.7,15.5-40.2
								C275.6,330.5,277.7,361.6,267,385.9z"/>
							<g id="XMLID_69_">
								<path id="XMLID_77_" class="st14" d="M272,351.8c-4.6,2.4-9.9,3.7-15,2.5c-3.3-0.8-6.2-2.5-8.8-4.7
									c1.2,13.9,8.1,27.3,18.8,36.4c4.8-10.8,7-23,6.9-35.2C273.3,351,272.7,351.4,272,351.8z"/>
							</g>
							<path id="XMLID_9_" class="st16" d="M256.4,366.7c-6.9-10.6-8-22.8-3.8-34.7C250.9,343,252.7,356.1,256.4,366.7z"/>
						</g>
						<g id="XMLID_8_">
							<path id="XMLID_10_" class="st15" d="M388.1,383.2c14.3-6.5,24.1-20.6,25.6-35.3c1.6-14.7-3.2-29.9-12.9-41.1
								C387.3,329.7,378.9,358.4,388.1,383.2z"/>
							<g id="XMLID_63_">
								<path id="XMLID_66_" class="st14" d="M384.7,351.7c-1.2,10.7-0.4,21.4,3.3,31.5c12.8-5.8,21.9-17.7,24.8-30.6
									c-2.9,1.5-6.1,2.5-9.3,2.9C397.1,356.4,390.4,355,384.7,351.7z"/>
							</g>
							<path id="XMLID_11_" class="st16" d="M401.2,366.7c5.9-10.5,8.6-22.8,7.4-34.7C412.7,344.1,409.4,357,401.2,366.7z"/>
						</g>
						<path id="XMLID_7_" class="st10" d="M261.6,302.8c0.9,14.5,3.6,28.9,3,43.4c-0.5,12.9-3.5,25.7-2.2,38.5
							c2.6,24.8,23.1,46.4,47.5,51.4c24.5,5,51.2-6.2,65.7-26.4c10.3-14.3,14.7-31.9,17.3-49.2c2.8-18.4,3.8-37,4.5-55.6
							c0.4-12.7,0.6-25.5-2.4-37.8c-3.1-12.3-9.8-24.2-20.5-30.9c-13.5-8.5-30.9-7.6-46.5-4.1c-18.8,4.2-38.3,11.6-54.2,22.7
							C260.7,263.9,260.7,288.5,261.6,302.8z"/>
						<path id="XMLID_38_" class="st17" d="M395.5,335.9c-0.5,4.3-1.3,10.5-2.4,17.8c-1.1,7.3-2.6,15.9-5,24.8
							c-1.2,4.5-2.7,9-4.4,13.5c-1.8,4.5-4,8.9-6.6,13c-0.6,1-1.3,2.1-2,3.1l-0.5,0.8l-0.5,0.7l-1.1,1.4l-1.1,1.4
							c-0.4,0.5-0.8,0.9-1.2,1.4c-0.8,0.9-1.6,1.8-2.4,2.6c-3.3,3.4-7.1,6.4-10.9,8.9c-1,0.6-1.9,1.2-2.9,1.8c-1,0.5-2,1.1-2.9,1.6
							c-0.5,0.3-1,0.5-1.4,0.8c-0.5,0.2-1,0.5-1.5,0.7c-1,0.4-1.9,0.9-2.9,1.3c-2,0.7-3.9,1.6-5.8,2.1c-0.9,0.3-1.9,0.6-2.8,0.9
							c-0.9,0.2-1.8,0.4-2.7,0.7c-3.6,0.8-6.9,1.3-9.9,1.5c-3,0.2-5.6,0.2-7.8,0.1c-2.2-0.1-3.9-0.3-5-0.5c-1.2-0.1-1.8-0.2-1.8-0.2
							s0.6,0.1,1.7,0.4c1.1,0.2,2.8,0.7,5,0.8c2.2,0.3,4.8,0.4,7.9,0.4c0.8,0,1.5-0.1,2.4-0.1c0.8,0,1.6,0,2.5-0.2
							c0.9-0.1,1.7-0.2,2.6-0.3c0.4-0.1,0.9-0.1,1.4-0.2c0.5-0.1,0.9-0.2,1.4-0.3c0.9-0.2,1.9-0.4,2.8-0.6c1-0.2,1.9-0.5,2.9-0.8
							c2-0.5,3.9-1.3,6-1.9c1-0.4,2-0.8,3-1.3c0.5-0.2,1-0.4,1.5-0.7c0.5-0.2,1-0.5,1.5-0.8c1-0.5,2-1,3.1-1.6c1-0.6,2-1.2,3-1.8
							c1-0.6,2-1.3,3-2c1-0.7,2-1.4,2.9-2.2c0.9-0.8,1.9-1.5,2.8-2.3c0.9-0.9,1.8-1.7,2.7-2.6c0.9-0.8,1.7-1.8,2.6-2.7
							c0.4-0.5,0.9-0.9,1.3-1.4l1.2-1.5l1.2-1.5c0.2-0.3,0.4-0.5,0.6-0.8l0.5-0.8c0.7-1,1.4-2,2.1-3.1c2.7-4.3,4.9-8.9,6.7-13.5
							c1.8-4.6,3.2-9.3,4.3-13.8c1.1-4.6,2-9,2.6-13.3c0.7-4.2,1.2-8.3,1.6-12c0.8-7.4,1.1-13.6,1.4-18c0.1-2.2,0.2-3.9,0.2-5
							c0-1.2,0-1.8,0-1.8S395.9,331.6,395.5,335.9z"/>
						<ellipse id="XMLID_55_" class="st18" cx="295" cy="355.8" rx="17.1" ry="6.8"/>
						<path id="XMLID_17_" class="st19" d="M302.3,319.1c-3.1-0.1-4,1.5-5.6,6c-1.5,5.1-1.8,10.2-1.7,15.5c0.1,2.5,0.4,5.1,1.7,7.3
							c1.4,2.1,4,3.6,6.4,2.8c1.5-0.5,2.7-1.8,3.3-3.3c0.6-1.5,0.9-3.1,1-4.7c0.7-6.3,0.9-12.6-0.4-18.8
							C306.7,321.8,304.3,319.1,302.3,319.1z"/>
						<path id="XMLID_18_" class="st19" d="M353.2,318.4c-2.6-0.1-4.1,0.6-5.6,6c-1.5,5.1-1.8,10.2-1.7,15.5
							c0.1,2.5,0.4,5.1,1.7,7.3c1.4,2.1,4,3.6,6.4,2.8c1.5-0.5,2.7-1.8,3.3-3.3c0.6-1.5,0.9-3.1,1-4.7c0.7-6.3,0.9-12.6-0.4-18.8
							C357.6,321.2,355.2,318.5,353.2,318.4z"/>
						<g id="XMLID_24_">
							<path id="XMLID_25_" class="st14" d="M291.6,428.3c-1.8,0-3.6-0.1-5.3-0.2c-12.3-0.7-21.7-4.2-28-10.3
								c-6.5-6.3-10.3-16.4-10.2-27.5c0.1-9.7,3.7-21,7.2-30.7c0.4-1,1.4-1.5,2.4-1.1c1,0.4,1.5,1.4,1.1,2.4
								c-3.4,9.5-6.9,20.4-6.9,29.5c-0.1,10.1,3.2,19.1,9,24.7c5.6,5.4,14.2,8.5,25.6,9.2c7.8,0.4,15.6-0.1,23.3-1.7
								c1-0.2,2,0.4,2.3,1.5c0.2,1-0.4,2-1.5,2.3C304.3,427.7,297.9,428.3,291.6,428.3z"/>
						</g>
						<circle id="XMLID_26_" class="st14" cx="314.4" cy="423" r="8"/>
						<path id="XMLID_32_" class="st16" d="M316.4,417c-1.9-0.7-4.2-0.2-5.7,1.1c-1.5,1.3-2.3,3.5-1.9,5.5c0.4-1.7,1.5-3.2,2.8-4.3
							S314.7,417,316.4,417z"/>
						<ellipse id="XMLID_86_" class="st17" cx="304.5" cy="329.1" rx="1" ry="2.8"/>
						<ellipse id="XMLID_122_" class="st17" cx="354.5" cy="329.1" rx="1" ry="2.8"/>
						
							<linearGradient id="XMLID_302_" gradientUnits="userSpaceOnUse" x1="294.941" y1="334.1598" x2="339.3548" y2="328.0851" gradientTransform="matrix(0.9786 0.2059 -0.2902 1.379 91.4439 -163.6254)">
							<stop  offset="0" style="stop-color:#FF70A9"/>
							<stop  offset="1" style="stop-color:#FFC6A9"/>
						</linearGradient>
						<path id="XMLID_19_" class="st20" d="M309,349.7c-4.9,0.1-10.3,0-13.9,2.3c-4.8,3.1-4.5,9.6-0.4,13.9
							c4.1,4.3,11.1,6.5,17.6,6.7c11.9,0.3,23-5.8,25.8-14.7c1.2-3.6,0.9-7.9-2.3-10.9c-3.5-3.4-8.9-3.1-12.8-1.4
							C318.2,347.9,315.2,349.6,309,349.7z"/>
						<path id="XMLID_31_" class="st17" d="M323,345.7c0,0-0.6,0.4-1.6,1c-1,0.6-2.5,1.6-4.5,2.5c-2,0.9-4.8,1.6-7.9,1.7
							c-1.4,0.1-2.9,0.1-4.4,0.2c-1.5,0.1-2.9,0.2-4.2,0.5c-1.3,0.2-2.6,0.6-3.6,1.1c-0.2,0.1-0.6,0.3-0.7,0.4
							c-0.3,0.2-0.6,0.4-0.8,0.5c-0.2,0.2-0.4,0.3-0.6,0.5l-0.5,0.6c-1.3,1.6-1.7,3.6-1.6,5.3c0.1,1.7,0.6,3.2,1.1,4.3
							c0.3,0.5,0.5,0.9,0.7,1.2c0.2,0.3,0.3,0.4,0.3,0.4s-0.1-0.1-0.4-0.3c-0.3-0.2-0.7-0.6-1.1-1c-0.4-0.5-0.9-1.1-1.4-1.8
							c-0.4-0.7-0.9-1.6-1.1-2.6c-0.3-1-0.4-2.1-0.3-3.2c0.1-1.1,0.4-2.4,1.2-3.5c0.2-0.3,0.4-0.5,0.6-0.8c0.2-0.3,0.5-0.5,0.8-0.8
							c0.3-0.3,0.5-0.4,0.8-0.6c0.4-0.3,0.7-0.4,1-0.6c1.4-0.7,3-1.2,4.6-1.6c1.6-0.3,3.3-0.4,4.8-0.4c1.6-0.1,3.1,0,4.5,0
							c1.4,0,2.7,0,3.9-0.1c1.2-0.1,2.4-0.4,3.4-0.6c2.1-0.5,3.8-1.1,5-1.5C322.3,345.9,323,345.7,323,345.7z"/>
						<path id="XMLID_20_" class="st21" d="M355.8,376.8c-19.4,2.9-39.1,5.3-58.4,2.2c2.2,7.5,4.1,14.1,6.3,21.5
							c0.2,0.7,0.4,1.5,1,2c0.6,0.6,1.5,0.8,2.3,1c12.6,2.7,26.1,0.5,37.3-5.9c6.4-3.7,13.1-9.3,15.6-16
							C360.8,379,358.5,376.3,355.8,376.8z"/>
						<ellipse id="XMLID_47_" class="st18" cx="357.7" cy="357.9" rx="17.1" ry="6.8"/>
						<path id="XMLID_1_" class="st22" d="M308,306.6c-6,0.5-15,2.1-19.9,3.4c-2,0.5-4.1-0.6-4.7-2.6c0,0,0,0,0-0.1
							c-0.5-1.7,0.1-3.5,1.6-4.4c6.6-4,14.7-4.7,22.7-4.9c2.2,0,4.1,1.8,4,4.1c0,0.3,0,0.6,0,0.9C311.5,304.9,309.9,306.5,308,306.6
							z"/>
						<path id="XMLID_5_" class="st22" d="M360.7,306.8c-5.8-1.6-14.8-3.2-19.9-3.6c-2.1-0.2-3.6-2-3.5-4.1c0,0,0,0,0-0.1
							c0.1-1.8,1.3-3.3,3.1-3.6c7.5-1.5,15.5,0.6,23,3.2c2.1,0.7,3.2,3.1,2.3,5.2c-0.1,0.3-0.2,0.5-0.3,0.8
							C364.6,306.4,362.6,307.3,360.7,306.8z"/>
						<path id="XMLID_6_" class="st23" d="M396,332c2.6-39.1-11.5-47.1-11.5-47.1c0.5-9.2-1.2-17.1-3.4-26.1
							c-20.4-2.6-41.5,2.7-59.2,13.2c-14.1-10.7-32-13.8-48.9-8.3c1,7.5,2.3,13.6,2,21.1c-10.1,16.2-12.7,36.3-10.5,55.2
							c-1.5-8.7-3.6-17.5-5.1-26.2c-1.7-9.8-3.4-19.8-2.7-29.7c1-15.9,8.1-31.3,19.5-42.3c9.8-9.5,20.2-18,25.5-30.5
							c0.8,2.4,0.8,5.1,0.1,7.5c4-3.4,8-6.8,11.2-11c3.2-4.1,5.5-9.1,5.7-14.4c5.1,3.7,11.4,6.4,16.5,10.1c1.1,0.8,2.3,1.6,3.1,2.8
							c1.6,2.2,1.8,5.3,3.7,7.3c0.4-3.4,0.7-6.9,1.1-10.3c6,4.8,10.6,11.5,12.8,18.9c-0.1-3.5-0.9-6.9-1-10.4
							c9.7,14.6,27.6,22.2,36.8,37.1c3.7,6.1,5.7,13,7.2,19.9C403.3,289.8,401.9,311.2,396,332z"/>
						<path id="XMLID_14_" class="st24" d="M379,239.3c-7.3-4.4-14.7-8.9-19.7-15.8c0.9,3.7,2.6,7.2,4.8,10.3
							c-2.9-2.6-5.7-5.3-8.6-7.9c0.9,2.7,1.8,5.4,2.8,8.1c-2.9-3.5-5.7-6.9-8.6-10.4c1.2,3.2,1.9,6.5,2.2,9.9
							c-1.5-3.6-3.6-6.9-6.4-9.7c0.8,2.1,1.6,4.3,2.4,6.4c0.3,0.9,0.7,1.8,0.6,2.7c-0.1,0.9-0.6,1.1-1.6,1.2c-2.3-3.5-4.7-7-7-10.4
							c0,2.6,2.6,4.9,2,7.5c-0.5,2.3-3.2,3.3-5,4.7c-2.2-6.2-4.7-12.3-7.5-18.3c-0.6,6.6,2.4,13.1,2.2,19.7
							c-1.6-3.6-3.5-7.1-5.6-10.4c0.1,2.9-0.6,5.9-1.2,8.8c-0.8-2.7-1.6-5.4-2.4-8.2c0.1,3.4-0.5,6.8-1.7,9.9
							c-0.8-3.8-1.6-7.5-2.4-11.3c-0.7,4.9-2.1,9.6-4.1,14.1c-0.3-2.3-0.6-4.6-0.9-7c-1,2.6-2.1,5.1-3.1,7.7c-2.3-1.2-5-1.6-6.9-3.4
							c-1.9-1.9-2.3-5.2-0.7-7.4c-1.3,2.1-2.6,4.3-3.9,6.4c1.7-3.7,2.4-7.8,2.3-11.8c-2.1,5.2-5.6,9.8-10.2,13
							c2.1-2.7,3.6-5.9,4.4-9.2c-4.7,6.6-10.6,12.4-17.3,17c3.3-0.8,6.8-1.7,9.9-3.1c-1.1,1.5-2.2,3-3.4,4.5c3.2-0.6,5.6-3,8.4-4.6
							s6.5-2.6,9-0.6c-0.5,1.9-1.7,3.5-3.4,4.5c1.9,0.2,3-2.6,4.9-2.9c0.6-0.1,1.3,0.1,1.9,0.3c2.8,0.9,5.5,1.8,8.3,2.7
							c0.7-1.6,1.7-3,2.9-4.2c0.3,2,0.6,4,0.9,6c-0.1-2.5,0.7-5,2.2-7.1c0.8,2.7,1.5,5.4,2.3,8.1c0.1,0.3,0.3,0.7,0.6,0.7
							c-0.1-3,1-6.3,1.7-9.2c0.8,3.1,1.5,6.2,2.3,9.2c0.2-2.4,0.3-4.7,0.5-7.1c0.8,1.4,1.3,3,1.5,4.6c0.3-1.3,0.6-2.6,0.9-3.8
							c3-0.3,6-0.8,9-1.5c1.7-0.4,3.6-0.9,4.8-2.1s1.7-3.5,0.5-4.8c1.8,2.6,3.5,5.2,5.3,7.8c0.2-1.8,0.3-3.7,0.5-5.5
							c1.6,0.2,2.9-2.1,4.3-1.3c0.4,0.2,0.7,0.6,0.9,1c1.1,1.9,2.1,3.7,3.2,5.6c0.2-2,0-4.1-0.7-6c1.7,1.8,3.1,3.8,4.3,5.9
							c-0.3-2.3-0.7-4.7-1-7c1.5,2.8,3.5,5.4,5.7,7.6c0.4-2.2-0.1-4.6-1.5-6.3c1.6,1.4,3.4,2.6,5.3,3.6c-0.5-2.3-1.6-4.5-3.2-6.3
							C370.3,236.5,374.8,238.5,379,239.3z"/>
						<path id="XMLID_15_" class="st24" d="M262.9,279.3c1.2,0.5,2.5,0.9,3.7,1.4c0,2.3,0,4.6,0,6.9c1.3-2.2,2.3-4.5,3-6.9
							c0.4,0.7,0.9,1.4,1.3,2.1c0.7-1.7,1-3.4,1-5.2c0.2,2.4,0.4,4.9-0.3,7.2c-0.3,1.2-0.9,2.3-1.4,3.4c-2.1,4.3-4.3,8.7-6.4,13
							c0.8-3.2,1.6-6.4,2.3-9.6c-0.6,1.1-1.4,2.2-2.3,3.1c-0.1-2.7-0.2-5.3,0-8c-0.7,0.4-1.7,0.4-2.4-0.2c0-1.4,0-2.7,0-4.1
							c-1.2,3.5-2,7.1-2.3,10.8c0.2-2.5-1.1-5.5-1.2-8.1c-0.1-2.6,0.1-5.3,0.8-7.8c0.3,0.7,0.6,1.6,1.1,2.1c0.9-0.8,1.7-1.8,2.6-2.6
							C262.6,277.7,262.7,278.5,262.9,279.3z"/>
						<path id="XMLID_16_" class="st24" d="M396.6,280.8c0.8,3.4,1.5,6.8,2.3,10.2c0.7-8.2-0.7-16.7-4-24.2c0.6,2.5,0.8,5.1,0.7,7.7
							c-0.4-2.3-1.4-4.4-2.7-6.3c0.7,2.3,1,4.6,1,7c-0.8,0-1.5,0-2.3,0c-0.2-1.4-0.8-2.7-1.6-3.7c0.1,1.7,0,3.5-0.3,5.2
							c-0.6-3.2-1.7-6.3-3.2-9.2c1.2,4.6,1.6,9.4,1.3,14.1c-0.2-1.1,0.6-2.8,1.2-3.7c0.3,1.3,0.6,2.6,0.9,3.8c0.2,0.7,0.3,1.5,0.9,2
							c0.5,0.5,1.5,0.8,2,0.2c-0.2-2-0.3-4-0.5-6c1,2.2,1.7,4.5,2.2,6.8c0.3-2.1,0.3-4.2,0.2-6.3c0.5,0,0.9-0.1,1.4-0.3
							C396,279,396.4,280,396.6,280.8z"/>
					</g>
					<rect id="XMLID_23_" x="357.7" y="553.9" class="st25" width="40.9" height="7.5"/>
					<path id="XMLID_29_" class="st7" d="M190.7,471.6c9.6,0.6,17.3,7.9,18.6,17.4c2.3,17,4.9,34,7.8,51c1.9,11.5,4,23.3,1.4,34.7
						s-10.9,22.4-22.9,24.7c-12.3,2.4-25-5.3-31.3-15.8c-6.3-10.4-7.6-22.9-7.6-35c-0.1-21.1,2.8-42.3,8.8-62.6
						c2.5-8.4,10.1-14.4,18.8-14.6C186.4,471.4,188.5,471.5,190.7,471.6z"/>
					<path id="XMLID_93_" class="st12" d="M218.4,584.6c-1.5,0.4-2.9,0.5-4.3,0.4c3.2-24.3-1.5-46.8-5.5-70.7
						c-1-8.8-3.1-17.4-4.4-26c1.1-1.7,2.3-3.4,3.3-5.1c-1.1-2.3-2.6-4.4-4.4-6.1c0,0,0,0,0,0c-0.1-0.1-0.2-0.1-0.3-0.2
						c-0.1-0.1-0.2-0.1-0.3-0.2c-0.4-0.4-0.9-0.8-1.4-1.1c-0.2-0.1-0.4-0.3-0.5-0.4c-0.2-0.1-0.4-0.3-0.7-0.4
						c-0.2-0.1-0.4-0.3-0.7-0.4c-0.2-0.1-0.4-0.2-0.6-0.3c-0.3-0.1-0.6-0.3-0.9-0.4c-0.2-0.1-0.3-0.2-0.5-0.2
						c-0.5-0.2-0.9-0.4-1.4-0.5c-0.1-0.1-0.3-0.1-0.4-0.1c-0.4-0.1-0.7-0.2-1.1-0.3c-0.2,0-0.4-0.1-0.5-0.1
						c-0.4-0.1-0.7-0.2-1.1-0.2c-0.2,0-0.3-0.1-0.5-0.1c-0.5-0.1-1.1-0.1-1.6-0.2c-2.1-0.1-4.3-0.2-6.4-0.1
						c-7.2,0.2-13.7,4.2-17.1,10.4c3.1,6.8,9.1,13.2,14.4,13.8c0,8.5-0.9,19.4-0.6,27.8c0.4,11.7,3.5,23,5.4,34.6
						c1.2,7.5,3.3,14.8,6.3,21.9c2.7,6.6,6.8,8.1,12.2,11.5c-9.7,3.9-20.6,4.9-30.7,2.6c5.3,3.7,11.5,5.9,17.9,5.7c0,0,0,0,0,0
						c23.6,0,43.7-24.8,57.2-37.6C244.6,564.6,223.6,583.4,218.4,584.6z"/>
					<path id="XMLID_30_" class="st25" d="M207.5,484.3c1.6-6,2-12.2,1.2-18.6c-13.7,1.1-26.8,0-40.3-2.9c-1.3,5.9-1.6,12-1,18
						c0.4,3.8,3,7.1,6.6,8.4c7.2,2.4,17.2,3.3,24.8,2.5C203,491.2,206.4,488.3,207.5,484.3z"/>
					<polygon id="XMLID_79_" class="st26" points="308.7,651.8 324.8,515.2 316.4,499.9 330.2,488.6 348,498.6 338.3,516.1 
						357.7,651.8 					"/>
					<path id="XMLID_34_" class="st25" d="M285.5,473.9l21,30.8l23.7-18.3c0,0,34.4,20.5,34.8,18.3c0.4-2.2,13.2-32.9,13.2-32.9
						l-11.9,39.5l-36.1-19.8l-26.7,19.8L285.5,473.9z"/>
					<path id="XMLID_27_" class="st25" d="M505.5,538.8c1.2-3.9,2.3-7.9,3.4-11.5c-9-4.7-19-7.5-28.5-11.2
						c-2.6,4.4-4.4,9.2-5.3,14.3c-0.6,3.2,0.7,6.4,3.4,8.3c3.4,2.4,8.6,4.8,14.8,6.7C498.5,546.8,503.9,543.9,505.5,538.8z"/>
					<path id="XMLID_83_" class="st12" d="M213.6,518.4c2.8,8.1,3.5,18.9,5.2,27.3c1.6,7.6,1.7,16,1.9,23.9
						c5.3-7.3,3.9-18.8,2.1-27.1c-1.2-5.6-4-10.4-5.6-15.9C216.3,523.2,215.8,521,213.6,518.4z"/>
					<path id="XMLID_87_" class="st12" d="M213.6,518.4c7.8,4.9,13.2,18.5,18.1,26.1C227.4,533.4,223.7,524.7,213.6,518.4z"/>
					<path id="XMLID_88_" class="st12" d="M249.3,562.3c0-14.3-0.5-28.5-6.1-41.4c5.1,10.6,10,20.3,9.4,32.3
						c5.3-17.4,0.3-35.2,1.2-52.8c2.8,11.9,6.4,25.8,5.2,38.1C258.1,548.3,253.3,554,249.3,562.3z"/>
					<path id="XMLID_89_" class="st12" d="M410.9,590.3c0.3-13.3-6.8-27.5-7-40.6c-0.1-6.7,0.4-14.1,1-20.9
						c0.5-5.6,2.1-10.2-0.5-19.5c5,8.5,5.9,18.2,6.5,28c0.4,6.2-0.6,12.1-0.7,18.2c2.3-5.1,5-10.3,4.7-16
						C418.2,549.8,411,573.1,410.9,590.3z"/>
					<path id="XMLID_90_" class="st12" d="M456.7,553.8c-2.9,5.9-11.3,31.2-14.9,35.1C440.8,576.6,448.3,562.4,456.7,553.8z"/>
					<path id="XMLID_91_" class="st12" d="M456.6,553.2c-11.2,5.2-23.4,13.2-31,23.1C436.7,576.1,447.8,558.6,456.6,553.2z"/>
				</g>
			</g>
			<g id="XMLID_42_">
				<g id="XMLID_252_">
					<path id="XMLID_253_" class="st9" d="M180.9,262.8c8.9,21.9,29.5,26.4,32.5,26.9c-29.4-4.4-45.7-14.5-54.7-24.3
						c-3.2,0.2-6.5,0.3-9.7,0.3c-12.9,0-25.3-1.4-36.7-3.9V161h106.3c20.6,11,33.6,26.9,33.6,44.5
						C252.2,232.3,222.3,255,180.9,262.8z"/>
				</g>
			</g>
			<g id="XMLID_39_">
				<path id="XMLID_41_" class="st27" d="M251.2,198.5c0-33.3-46.2-60.3-103.2-60.3c-57,0-103.2,27-103.2,60.3
					c0,33.3,46.2,60.3,103.2,60.3c3.3,0,6.5-0.1,9.7-0.3c9,9.8,25.3,19.9,54.9,24.3c-2-0.3-23.6-4.3-32.8-27
					C221.3,248,251.2,225.3,251.2,198.5z"/>
			</g>
			<g id="XMLID_40_">
				<circle id="XMLID_37_" class="st6" cx="109.1" cy="200.5" r="10"/>
				<circle id="XMLID_43_" class="st6" cx="148" cy="200.5" r="10"/>
				<circle id="XMLID_192_" class="st6" cx="187" cy="200.5" r="10"/>
			</g>
		</g>
	</g>
</g>
</svg>
